<svg width="273" height="159" viewBox="0 0 273 159" fill="none" xmlns="http://www.w3.org/2000/svg">
    <path d="M249.449 135.572H22.8408V27.983H249.449V135.572Z" fill="rgba(255,255,255,0.8)"/>
<path d="M24.2905 124.967H23.5405V124.217V123.467V122.717V121.967V121.217V120.467H22.7905H22.0405V119.717H22.7905H23.5405H24.2905H25.0405H25.7905H26.5405V120.467H25.7905H25.0405V121.217V121.967V122.717V123.467V124.217V124.967H24.2905Z" fill="#27AAE1"/>
<path d="M31.7905 124.217H32.5405V124.967H31.7905H31.0405H30.2905H29.5405H28.7905H28.0405H27.2905V124.217V123.467V122.717V121.967V121.217V120.467V119.717H28.0405H28.7905H29.5405H30.2905H31.0405H31.7905H32.5405V120.467H31.7905H31.0405H30.2905H29.5405H28.7905V121.217V121.967H29.5405H30.2905H31.0405H31.7905V122.717H31.0405H30.2905H29.5405H28.7905V123.467V124.217H29.5405H30.2905H31.0405H31.7905Z" fill="#27AAE1"/>
<path d="M37.7905 124.217H38.5405V124.967H37.7905H37.0405H36.2905H35.5405H34.7905H34.0405H33.2905V124.217V123.467V122.717V121.967V121.217V120.467V119.717H34.0405H34.7905V120.467V121.217V121.967V122.717V123.467V124.217H35.5405H36.2905H37.0405H37.7905Z" fill="#27AAE1"/>
<path d="M43.7905 124.217H44.5405V124.967H43.7905H43.0405H42.2905H41.5405H40.7905H40.0405H39.2905V124.217V123.467V122.717V121.967V121.217V120.467V119.717H40.0405H40.7905H41.5405H42.2905H43.0405H43.7905H44.5405V120.467H43.7905H43.0405H42.2905H41.5405H40.7905V121.217V121.967H41.5405H42.2905H43.0405H43.7905V122.717H43.0405H42.2905H41.5405H40.7905V123.467V124.217H41.5405H42.2905H43.0405H43.7905Z" fill="#27AAE1"/>
<path d="M49.7905 124.967H49.0405H48.2905H47.5405H46.7905V124.217H46.0405V123.467H45.2905V122.717V121.967V121.217H46.0405V120.467H46.7905V119.717H47.5405H48.2905H49.0405H49.7905H50.5405V120.467H49.7905H49.0405H48.2905H47.5405V121.217H46.7905V121.967V122.717V123.467H47.5405V124.217H48.2905H49.0405V123.467V122.717H48.2905V121.967H49.0405H49.7905H50.5405V122.717V123.467V124.217V124.967H49.7905Z" fill="#27AAE1"/>
<path d="M53.5405 122.717H54.2905V121.967H55.0405V121.217V120.467H54.2905H53.5405H52.7905V121.217V121.967V122.717H53.5405ZM55.7905 124.967H55.0405H54.2905V124.217H53.5405V123.467H52.7905V124.217V124.967H52.0405H51.2905V124.217V123.467V122.717V121.967V121.217V120.467V119.717H52.0405H52.7905H53.5405H54.2905H55.0405H55.7905V120.467H56.5405V121.217V121.967V122.717H55.7905H55.0405V123.467H55.7905V124.217H56.5405V124.967H55.7905Z" fill="#27AAE1"/>
<path d="M60.2905 122.717H61.0405V121.967V121.217H60.2905V120.467H59.5405V121.217H58.7905V121.967V122.717H59.5405H60.2905ZM61.7905 124.967H61.0405V124.217V123.467H60.2905H59.5405H58.7905V124.217V124.967H58.0405H57.2905V124.217V123.467V122.717V121.967V121.217H58.0405V120.467H58.7905V119.717H59.5405H60.2905H61.0405V120.467H61.7905V121.217H62.5405V121.967V122.717V123.467V124.217V124.967H61.7905Z" fill="#27AAE1"/>
<path d="M65.5405 123.467V122.717H64.7905V123.467V124.217V124.967H64.0405H63.2905V124.217V123.467V122.717V121.967V121.217V120.467V119.717H64.0405H64.7905V120.467H65.5405V121.217H66.2905V120.467H67.0405V119.717H67.7905H68.5405V120.467V121.217V121.967V122.717V123.467V124.217V124.967H67.7905H67.0405V124.217V123.467V122.717H66.2905V123.467H65.5405Z" fill="#27AAE1"/>
<path d="M72.2905 124.217H71.5405V123.467V122.717H72.2905H73.0405V123.467V124.217H72.2905ZM72.2905 121.967H71.5405V121.217V120.467H72.2905H73.0405V121.217V121.967H72.2905Z" fill="#27AAE1"/>
<path d="M81.772 121.967H81.022V122.717H81.772V121.967ZM83.272 123.467H82.522H81.772H81.022H80.272V122.717V121.967V121.217H81.022H81.772H82.522V121.967V122.717H83.272V121.967V121.217V120.467H84.022V121.217V121.967V122.717V123.467H83.272ZM82.522 124.217H83.272V124.967H82.522H81.772H81.022H80.272H79.522V124.217H80.272H81.022H81.772H82.522ZM83.272 120.467H82.522H81.772H81.022H80.272H79.522V119.717H80.272H81.022H81.772H82.522H83.272V120.467ZM79.522 124.217H78.772V123.467V122.717V121.967V121.217V120.467H79.522V121.217V121.967V122.717V123.467V124.217Z" fill="#27AAE1"/>
<path d="M87.0225 124.217H87.7725V123.467H88.5225V122.717V121.967V121.217H87.7725V120.467H87.0225H86.2725V121.217V121.967V122.717V123.467V124.217H87.0225ZM87.7725 124.967H87.0225H86.2725H85.5225H84.7725V124.217V123.467V122.717V121.967V121.217V120.467V119.717H85.5225H86.2725H87.0225H87.7725H88.5225V120.467H89.2725V121.217H90.0225V121.967V122.717V123.467H89.2725V124.217H88.5225V124.967H87.7725Z" fill="#27AAE1"/>
<path d="M93.0225 123.467V122.717H92.2725V123.467V124.217V124.967H91.5225H90.7725V124.217V123.467V122.717V121.967V121.217V120.467V119.717H91.5225H92.2725V120.467H93.0225V121.217H93.7725V120.467H94.5225V119.717H95.2725H96.0225V120.467V121.217V121.967V122.717V123.467V124.217V124.967H95.2725H94.5225V124.217V123.467V122.717H93.7725V123.467H93.0225Z" fill="#27AAE1"/>
<path d="M101.272 124.217H102.022V124.967H101.272H100.522H99.7725H99.0225H98.2725H97.5225V124.217H98.2725H99.0225V123.467V122.717V121.967V121.217V120.467H98.2725H97.5225V119.717H98.2725H99.0225H99.7725H100.522H101.272H102.022V120.467H101.272H100.522V121.217V121.967V122.717V123.467V124.217H101.272Z" fill="#27AAE1"/>
<path d="M105.772 124.967H105.022V124.217V123.467V122.717V121.967V121.217V120.467H104.272H103.522V119.717H104.272H105.022H105.772H106.522H107.272H108.022V120.467H107.272H106.522V121.217V121.967V122.717V123.467V124.217V124.967H105.772Z" fill="#27AAE1"/>
<path d="M111.022 122.717H111.772V121.967H112.522V121.217V120.467H111.772H111.022H110.272V121.217V121.967V122.717H111.022ZM113.272 124.967H112.522H111.772V124.217H111.022V123.467H110.272V124.217V124.967H109.522H108.772V124.217V123.467V122.717V121.967V121.217V120.467V119.717H109.522H110.272H111.022H111.772H112.522H113.272V120.467H114.022V121.217V121.967V122.717H113.272H112.522V123.467H113.272V124.217H114.022V124.967H113.272Z" fill="#27AAE1"/>
<path d="M119.272 124.217H120.022V124.967H119.272H118.522H117.772H117.022H116.272H115.522V124.217H116.272H117.022V123.467V122.717V121.967V121.217V120.467H116.272H115.522V119.717H116.272H117.022H117.772H118.522H119.272H120.022V120.467H119.272H118.522V121.217V121.967V122.717V123.467V124.217H119.272Z" fill="#27AAE1"/>
<path d="M125.273 124.217H126.023V124.967H125.273H124.523H123.773H123.023H122.273H121.523V124.217H122.273H123.023V123.467V122.717V121.967V121.217V120.467H122.273H121.523V119.717H122.273H123.023H123.773H124.523H125.273H126.023V120.467H125.273H124.523V121.217V121.967V122.717V123.467V124.217H125.273Z" fill="#27AAE1"/>
<path d="M131.272 124.967H130.522V124.217H129.772V123.467H129.022V122.717H128.272V123.467V124.217V124.967H127.522H126.772V124.217V123.467V122.717V121.967V121.217V120.467V119.717H127.522H128.272V120.467H129.022V121.217H129.772V121.967H130.522V121.217V120.467V119.717H131.272H132.022V120.467V121.217V121.967V122.717V123.467V124.217V124.967H131.272Z" fill="#27AAE1"/>
<path d="M137.272 124.217H138.022V124.967H137.272H136.522H135.772H135.022H134.272H133.522V124.217H134.272H135.022V123.467V122.717V121.967V121.217V120.467H134.272H133.522V119.717H134.272H135.022H135.772H136.522H137.272H138.022V120.467H137.272H136.522V121.217V121.967V122.717V123.467V124.217H137.272Z" fill="#27AAE1"/>
<path d="M143.272 124.967H142.522H141.772V124.217H141.022V123.467H140.272V124.217V124.967H139.522H138.772V124.217V123.467V122.717V121.967V121.217V120.467V119.717H139.522H140.272V120.467V121.217V121.967H141.022V121.217H141.772V120.467H142.522V119.717H143.272H144.022V120.467H143.272V121.217H142.522V121.967H141.772V122.717H142.522V123.467H143.272V124.217H144.022V124.967H143.272Z" fill="#27AAE1"/>
<path d="M147.772 124.217H148.522V123.467V122.717V121.967V121.217V120.467H147.772H147.022H146.272V121.217V121.967V122.717V123.467V124.217H147.022H147.772ZM148.522 124.967H147.772H147.022H146.272H145.522V124.217H144.772V123.467V122.717V121.967V121.217V120.467H145.522V119.717H146.272H147.022H147.772H148.522H149.272V120.467H150.022V121.217V121.967V122.717V123.467V124.217H149.272V124.967H148.522Z" fill="#27AAE1"/>
<path d="M27.1587 134.716H26.4087H25.6587H24.9087H24.1587V133.966H23.4087V133.216H22.6587V132.466V131.716V130.966H23.4087V130.216H24.1587V129.466H24.9087H25.6587H26.4087H27.1587H27.9087V130.216H27.1587H26.4087H25.6587H24.9087V130.966H24.1587V131.716V132.466V133.216H24.9087V133.966H25.6587H26.4087V133.216V132.466H25.6587V131.716H26.4087H27.1587H27.9087V132.466V133.216V133.966V134.716H27.1587Z" fill="#27AAE1"/>
<path d="M33.1587 133.966H33.9087V134.716H33.1587H32.4087H31.6587H30.9087H30.1587H29.4087V133.966H30.1587H30.9087V133.216V132.466V131.716V130.966V130.216H30.1587H29.4087V129.466H30.1587H30.9087H31.6587H32.4087H33.1587H33.9087V130.216H33.1587H32.4087V130.966V131.716V132.466V133.216V133.966H33.1587Z" fill="#27AAE1"/>
<path d="M37.6587 134.716H36.9087V133.966V133.216V132.466V131.716V130.966V130.216H36.1587H35.4087V129.466H36.1587H36.9087H37.6587H38.4087H39.1587H39.9087V130.216H39.1587H38.4087V130.966V131.716V132.466V133.216V133.966V134.716H37.6587Z" fill="#27AAE1"/>
<path d="M45.1587 134.716H44.4087V133.966V133.216V132.466H43.6587H42.9087H42.1587V133.216V133.966V134.716H41.4087H40.6587V133.966V133.216V132.466V131.716V130.966V130.216V129.466H41.4087H42.1587V130.216V130.966V131.716H42.9087H43.6587H44.4087V130.966V130.216V129.466H45.1587H45.9087V130.216V130.966V131.716V132.466V133.216V133.966V134.716H45.1587Z" fill="#27AAE1"/>
<path d="M50.4087 134.716H49.6587H48.9087H48.1587H47.4087V133.966H46.6587V133.216V132.466V131.716V130.966V130.216V129.466H47.4087H48.1587V130.216V130.966V131.716V132.466V133.216V133.966H48.9087H49.6587H50.4087V133.216V132.466V131.716V130.966V130.216V129.466H51.1587H51.9087V130.216V130.966V131.716V132.466V133.216V133.966H51.1587V134.716H50.4087Z" fill="#27AAE1"/>
<path d="M55.6587 133.966H56.4087V133.216V132.466H55.6587H54.9087H54.1587V133.216V133.966H54.9087H55.6587ZM55.6587 131.716H56.4087V130.966V130.216H55.6587H54.9087H54.1587V130.966V131.716H54.9087H55.6587ZM56.4087 134.716H55.6587H54.9087H54.1587H53.4087H52.6587V133.966V133.216V132.466V131.716V130.966V130.216V129.466H53.4087H54.1587H54.9087H55.6587H56.4087H57.1587V130.216H57.9087V130.966V131.716H57.1587V132.466H57.9087V133.216V133.966H57.1587V134.716H56.4087Z" fill="#27AAE1"/>
<path d="M61.6587 134.716H60.9087V133.966V133.216H61.6587H62.4087V133.966V134.716H61.6587Z" fill="#27AAE1"/>
<path d="M68.4087 134.716H67.6587H66.9087H66.1587V133.966H65.4087V133.216H64.6587V132.466V131.716V130.966H65.4087V130.216H66.1587V129.466H66.9087H67.6587H68.4087H69.1587V130.216H69.9087V130.966H69.1587H68.4087V130.216H67.6587H66.9087V130.966H66.1587V131.716V132.466V133.216H66.9087V133.966H67.6587H68.4087V133.216H69.1587H69.9087V133.966H69.1587V134.716H68.4087Z" fill="#27AAE1"/>
<path d="M73.6587 133.966H74.4087V133.216V132.466V131.716V130.966V130.216H73.6587H72.9087H72.1587V130.966V131.716V132.466V133.216V133.966H72.9087H73.6587ZM74.4087 134.716H73.6587H72.9087H72.1587H71.4087V133.966H70.6587V133.216V132.466V131.716V130.966V130.216H71.4087V129.466H72.1587H72.9087H73.6587H74.4087H75.1587V130.216H75.9087V130.966V131.716V132.466V133.216V133.966H75.1587V134.716H74.4087Z" fill="#27AAE1"/>
<path d="M78.9087 133.216V132.466H78.1587V133.216V133.966V134.716H77.4087H76.6587V133.966V133.216V132.466V131.716V130.966V130.216V129.466H77.4087H78.1587V130.216H78.9087V130.966H79.6587V130.216H80.4087V129.466H81.1587H81.9087V130.216V130.966V131.716V132.466V133.216V133.966V134.716H81.1587H80.4087V133.966V133.216V132.466H79.6587V133.216H78.9087Z" fill="#27AAE1"/>
<path d="M87.1589 129.466H87.9089V130.216H87.1589V129.466ZM86.4089 130.216H87.1589V130.966H86.4089V130.216ZM85.6589 130.966H86.4089V131.716H85.6589V130.966ZM84.9089 131.716H85.6589V132.466H84.9089V131.716ZM84.1589 132.466H84.9089V133.216H84.1589V132.466ZM83.4089 133.216H84.1589V133.966H83.4089V133.216ZM82.6589 133.966H83.4089V134.716H82.6589V133.966Z" fill="#27AAE1"/>
<path d="M92.4087 134.716H91.6587H90.9087H90.1587H89.4087V133.966H88.6587V133.216V132.466H89.4087H90.1587V133.216V133.966H90.9087H91.6587H92.4087V133.216V132.466V131.716V130.966V130.216H91.6587H90.9087V129.466H91.6587H92.4087H93.1587H93.9087V130.216V130.966V131.716V132.466V133.216V133.966H93.1587V134.716H92.4087Z" fill="#27AAE1"/>
<path d="M97.6587 133.966H98.4087V133.216V132.466V131.716V130.966V130.216H97.6587H96.9087H96.1587V130.966V131.716V132.466V133.216V133.966H96.9087H97.6587ZM98.4087 134.716H97.6587H96.9087H96.1587H95.4087V133.966H94.6587V133.216V132.466V131.716V130.966V130.216H95.4087V129.466H96.1587H96.9087H97.6587H98.4087H99.1587V130.216H99.9087V130.966V131.716V132.466V133.216V133.966H99.1587V134.716H98.4087Z" fill="#27AAE1"/>
<path d="M105.159 134.716H104.409V133.966V133.216V132.466H103.659H102.909H102.159V133.216V133.966V134.716H101.409H100.659V133.966V133.216V132.466V131.716V130.966V130.216V129.466H101.409H102.159V130.216V130.966V131.716H102.909H103.659H104.409V130.966V130.216V129.466H105.159H105.909V130.216V130.966V131.716V132.466V133.216V133.966V134.716H105.159Z" fill="#27AAE1"/>
<path d="M111.159 134.716H110.409V133.966H109.659V133.216H108.909V132.466H108.159V133.216V133.966V134.716H107.409H106.659V133.966V133.216V132.466V131.716V130.966V130.216V129.466H107.409H108.159V130.216H108.909V130.966H109.659V131.716H110.409V130.966V130.216V129.466H111.159H111.909V130.216V130.966V131.716V132.466V133.216V133.966V134.716H111.159Z" fill="#27AAE1"/>
<path d="M117.159 134.716H116.409V133.966H115.659V133.216H114.909V132.466H114.159V133.216V133.966V134.716H113.409H112.659V133.966V133.216V132.466V131.716V130.966V130.216V129.466H113.409H114.159V130.216H114.909V130.966H115.659V131.716H116.409V130.966V130.216V129.466H117.159H117.909V130.216V130.966V131.716V132.466V133.216V133.966V134.716H117.159Z" fill="#27AAE1"/>
<path d="M121.658 134.716H120.908V133.966V133.216V132.466H120.158V131.716H119.408V130.966V130.216V129.466H120.158H120.908V130.216V130.966V131.716H121.658H122.408V130.966V130.216V129.466H123.158H123.908V130.216V130.966V131.716H123.158V132.466H122.408V133.216V133.966V134.716H121.658Z" fill="#27AAE1"/>
<path d="M129.158 133.216H128.408H127.658H126.908H126.158H125.408V132.466V131.716H126.158H126.908H127.658H128.408H129.158H129.908V132.466V133.216H129.158Z" fill="#27AAE1"/>
<path d="M134.408 134.716H133.658H132.908H132.158H131.408V133.966H130.658V133.216H131.408H132.158V133.966H132.908H133.658H134.408V133.216V132.466H133.658H132.908H132.158H131.408V131.716H130.658V130.966V130.216H131.408V129.466H132.158H132.908H133.658H134.408V130.216H135.158V130.966H134.408H133.658V130.216H132.908H132.158V130.966V131.716H132.908H133.658H134.408H135.158V132.466H135.908V133.216V133.966H135.158V134.716H134.408Z" fill="#27AAE1"/>
<path d="M141.158 133.966H141.908V134.716H141.158H140.408H139.658H138.908H138.158H137.408V133.966H138.158H138.908V133.216V132.466V131.716V130.966V130.216H138.158H137.408V129.466H138.158H138.908H139.658H140.408H141.158H141.908V130.216H141.158H140.408V130.966V131.716V132.466V133.216V133.966H141.158Z" fill="#27AAE1"/>
<path d="M147.158 133.966H147.908V134.716H147.158H146.408H145.658H144.908H144.158H143.408H142.658V133.966V133.216V132.466V131.716V130.966V130.216V129.466H143.408H144.158V130.216V130.966V131.716V132.466V133.216V133.966H144.908H145.658H146.408H147.158Z" fill="#27AAE1"/>
<path d="M150.908 134.716V133.966H150.158V133.216H149.408V132.466H148.658V131.716V130.966V130.216V129.466H149.408H150.158V130.216V130.966V131.716H150.908V132.466H151.658V131.716H152.408V130.966V130.216V129.466H153.158H153.908V130.216V130.966V131.716V132.466H153.158V133.216H152.408V133.966H151.658V134.716H150.908Z" fill="#27AAE1"/>
<path d="M159.158 133.966H159.908V134.716H159.158H158.408H157.658H156.908H156.158H155.408H154.658V133.966V133.216V132.466V131.716V130.966V130.216V129.466H155.408H156.158H156.908H157.658H158.408H159.158H159.908V130.216H159.158H158.408H157.658H156.908H156.158V130.966V131.716H156.908H157.658H158.408H159.158V132.466H158.408H157.658H156.908H156.158V133.216V133.966H156.908H157.658H158.408H159.158Z" fill="#27AAE1"/>
<path d="M162.908 132.466H163.658V131.716H164.408V130.966V130.216H163.658H162.908H162.158V130.966V131.716V132.466H162.908ZM165.158 134.716H164.408H163.658V133.966H162.908V133.216H162.158V133.966V134.716H161.408H160.658V133.966V133.216V132.466V131.716V130.966V130.216V129.466H161.408H162.158H162.908H163.658H164.408H165.158V130.216H165.908V130.966V131.716V132.466H165.158H164.408V133.216H165.158V133.966H165.908V134.716H165.158Z" fill="#27AAE1"/>
<path d="M171.158 134.716H170.408V133.966V133.216V132.466H169.658H168.908H168.158V133.216V133.966V134.716H167.408H166.658V133.966V133.216V132.466V131.716V130.966V130.216V129.466H167.408H168.158V130.216V130.966V131.716H168.908H169.658H170.408V130.966V130.216V129.466H171.158H171.908V130.216V130.966V131.716V132.466V133.216V133.966V134.716H171.158Z" fill="#27AAE1"/>
<path d="M175.658 132.466H176.408V131.716V130.966H175.658V130.216H174.908V130.966H174.158V131.716V132.466H174.908H175.658ZM177.158 134.716H176.408V133.966V133.216H175.658H174.908H174.158V133.966V134.716H173.408H172.658V133.966V133.216V132.466V131.716V130.966H173.408V130.216H174.158V129.466H174.908H175.658H176.408V130.216H177.158V130.966H177.908V131.716V132.466V133.216V133.966V134.716H177.158Z" fill="#27AAE1"/>
<path d="M183.158 134.716H182.408V133.966H181.658V133.216H180.908V132.466H180.158V133.216V133.966V134.716H179.408H178.658V133.966V133.216V132.466V131.716V130.966V130.216V129.466H179.408H180.158V130.216H180.908V130.966H181.658V131.716H182.408V130.966V130.216V129.466H183.158H183.908V130.216V130.966V131.716V132.466V133.216V133.966V134.716H183.158Z" fill="#27AAE1"/>
<path d="M186.908 133.966H187.658V133.216H188.408V132.466V131.716V130.966H187.658V130.216H186.908H186.158V130.966V131.716V132.466V133.216V133.966H186.908ZM187.658 134.716H186.908H186.158H185.408H184.658V133.966V133.216V132.466V131.716V130.966V130.216V129.466H185.408H186.158H186.908H187.658H188.408V130.216H189.158V130.966H189.908V131.716V132.466V133.216H189.158V133.966H188.408V134.716H187.658Z" fill="#27AAE1"/>
<path d="M166.067 135.446H142.166H118.264H94.363H70.462H46.56H22.658V136.196H46.56H70.462H94.363H118.264H142.166H166.067H189.968V135.446H166.067Z" fill="#27AAE1"/>
<path d="M26.9087 34.405H27.9707V33.343V32.28V31.217V30.155V29.093H26.9087V30.155V31.217V32.28H25.8467V33.343V34.405H26.9087ZM30.0967 36.53H29.0337V35.467H27.9707H26.9087H25.8467H24.7837V36.53H23.7207H22.6587V35.467V34.405H23.7207V33.343V32.28H24.7837V31.217V30.155V29.093V28.03H25.8467H26.9087H27.9707H29.0337H30.0967V29.093V30.155V31.217V32.28V33.343V34.405H31.1587V35.467V36.53H30.0967Z" fill="#231F20"/>
<path d="M34.3462 33.3425V32.2805H33.2842V33.3425V34.4045V35.4675H32.2212H31.1582V34.4045V33.3425V32.2805V31.2175V30.1555V29.0925V28.0305H32.2212H33.2842V29.0925H34.3462V30.1555H35.4082V29.0925H36.4712V28.0305H37.5342H38.5962V29.0925V30.1555V31.2175V32.2805V33.3425V34.4045V35.4675H37.5342H36.4712V34.4045V33.3425V32.2805H35.4082V33.3425H34.3462Z" fill="#231F20"/>
<path d="M46.0337 35.4675H44.9717V34.4055V33.3425V32.2795H43.9087V33.3425H42.8457V34.4055H41.7837V35.4675H40.7217H39.6587V34.4055V33.3425V32.2795V31.2175V30.1555V29.0925V28.0305H40.7217H41.7837V29.0925V30.1555V31.2175H42.8457V30.1555H43.9087V29.0925H44.9717V28.0305H46.0337H47.0957V29.0925V30.1555V31.2175V32.2795V33.3425V34.4055V35.4675H46.0337Z" fill="#231F20"/>
<path d="M52.4087 35.4675H51.3467V34.4055V33.3425V32.2795V31.2175V30.1555V29.0925H50.2837H49.2207V28.0305H50.2837H51.3467H52.4087H53.4707H54.5337H55.5967V29.0925H54.5337H53.4707V30.1555V31.2175V32.2795V33.3425V34.4055V35.4675H52.4087Z" fill="#231F20"/>
<path d="M60.9087 32.28H61.9707V31.218V30.155V29.093H60.9087H59.8467H58.7837V30.155V31.218V32.28H59.8467H60.9087ZM57.7207 35.468H56.6587V34.405V33.342V32.28V31.218V30.155V29.093V28.03H57.7207H58.7837H59.8467H60.9087H61.9707H63.0337V29.093H64.0967V30.155V31.218V32.28H63.0337V33.342H61.9707H60.9087H59.8467H58.7837V34.405V35.468H57.7207Z" fill="#231F20"/>
<path d="M71.5337 35.4675H70.4717V34.4055V33.3425V32.2795H69.4087V33.3425H68.3457V34.4055H67.2837V35.4675H66.2217H65.1587V34.4055V33.3425V32.2795V31.2175V30.1555V29.0925V28.0305H66.2217H67.2837V29.0925V30.1555V31.2175H68.3457V30.1555H69.4087V29.0925H70.4717V28.0305H71.5337H72.5957V29.0925V30.1555V31.2175V32.2795V33.3425V34.4055V35.4675H71.5337Z" fill="#231F20"/>
<path d="M78.9709 28.03H80.0329V29.092H78.9709V28.03ZM76.8459 32.28V31.218H77.9089V30.155H76.8459H75.7839V31.218V32.28H76.8459ZM75.7839 29.093H74.7219V28.031H75.7839V29.093ZM80.0339 35.468H78.9709V34.405V33.343H77.9089V34.405H76.8459V35.468H75.7839H74.7209H73.6589V34.405V33.343V32.28V31.218V30.155H74.7209H75.7839V29.093H76.8459H77.9089H78.9709V30.155H80.0339H81.0959V31.218V32.28V33.343V34.405V35.468H80.0339Z" fill="#231F20"/>
<path d="M97.0337 35.4675H95.9717V34.4055V33.3425V32.2795H94.9087H93.8457H92.7837V33.3425V34.4055V35.4675H91.7217H90.6587V34.4055V33.3425V32.2795V31.2175V30.1555V29.0925V28.0305H91.7217H92.7837V29.0925V30.1555V31.2175H93.8457H94.9087H95.9717V30.1555V29.0925V28.0305H97.0337H98.0957V29.0925V30.1555V31.2175V32.2795V33.3425V34.4055V35.4675H97.0337Z" fill="#231F20"/>
<path d="M105.534 35.4675H104.472V34.4055V33.3425V32.2795H103.409V33.3425H102.346V34.4055H101.284V35.4675H100.222H99.1587V34.4055V33.3425V32.2795V31.2175V30.1555V29.0925V28.0305H100.222H101.284V29.0925V30.1555V31.2175H102.346V30.1555H103.409V29.0925H104.472V28.0305H105.534H106.596V29.0925V30.1555V31.2175V32.2795V33.3425V34.4055V35.4675H105.534Z" fill="#231F20"/>
<path d="M114.034 35.4675H112.972H111.909V34.4055H110.846V33.3425H109.784V34.4055V35.4675H108.722H107.659V34.4055V33.3425V32.2795V31.2175V30.1555V29.0925V28.0305H108.722H109.784V29.0925V30.1555V31.2175H110.846V30.1555H111.909V29.0925H112.972V28.0305H114.034H115.096V29.0925H114.034V30.1555H112.972V31.2175H111.909V32.2795H112.972V33.3425H114.034V34.4055H115.096V35.4675H114.034Z" fill="#231F20"/>
<path d="M120.409 34.405H121.471V33.343V32.28V31.217V30.155V29.093H120.409H119.347H118.284V30.155V31.217V32.28V33.343V34.405H119.347H120.409ZM121.471 35.467H120.409H119.347H118.284H117.221V34.405H116.159V33.343V32.28V31.217V30.155V29.093H117.221V28.03H118.284H119.347H120.409H121.471H122.534V29.093H123.596V30.155V31.217V32.28V33.343V34.405H122.534V35.467H121.471Z" fill="#231F20"/>
<path d="M131.033 35.4675H129.971V34.4055V33.3425V32.2795V31.2175V30.1555V29.0925H128.908V30.1555V31.2175V32.2795H127.845V33.3425V34.4055H126.783V35.4675H125.721H124.658V34.4055H125.721V33.3425V32.2795H126.783V31.2175V30.1555V29.0925V28.0305H127.845H128.908H129.971H131.033H132.095V29.0925V30.1555V31.2175V32.2795V33.3425V34.4055V35.4675H131.033Z" fill="#231F20"/>
<path d="M137.408 32.28H138.47V31.218V30.155H137.408V29.093H136.346V30.155H135.283V31.218V32.28H136.346H137.408ZM139.533 35.468H138.47V34.405V33.342H137.408H136.346H135.283V34.405V35.468H134.22H133.158V34.405V33.342V32.28V31.218V30.155H134.22V29.093H135.283V28.03H136.346H137.408H138.47V29.093H139.533V30.155H140.596V31.218V32.28V33.342V34.405V35.468H139.533Z" fill="#231F20"/>
<path d="M148.033 34.405H149.095V35.467H148.033H146.971H145.908H144.845H143.783H142.721H141.658V34.405V33.343V32.28V31.217V30.155V29.093V28.03H142.721H143.783H144.845H145.908H146.971H148.033H149.095V29.093H148.033H146.971H145.908H144.845H143.783V30.155V31.217H144.845H145.908H146.971H148.033V32.28H146.971H145.908H144.845H143.783V33.343V34.405H144.845H145.908H146.971H148.033Z" fill="#231F20"/>
<path d="M154.408 34.405H155.47V33.343V32.28H154.408H153.346H152.283V33.343V34.405H153.346H154.408ZM154.408 31.217H155.47V30.155V29.093H154.408H153.346H152.283V30.155V31.217H153.346H154.408ZM155.47 35.467H154.408H153.346H152.283H151.22H150.158V34.405V33.343V32.28V31.217V30.155V29.093V28.03H151.22H152.283H153.346H154.408H155.47H156.533V29.093H157.596V30.155V31.217H156.533V32.28H157.596V33.343V34.405H156.533V35.467H155.47Z" fill="#231F20"/>
<path d="M193.948 32.5203H194.698V33.2703H193.948H193.198H192.448H191.698H190.948H190.198V32.5203H190.948H191.698V31.7703V31.0203V30.2703V29.5203V28.7703H190.948H190.198V28.0203H190.948H191.698H192.448H193.198H193.948H194.698V28.7703H193.948H193.198V29.5203V30.2703V31.0203V31.7703V32.5203H193.948Z" fill="#27AAE1"/>
<path d="M198.448 33.2703H197.698V32.5203V31.7703V31.0203V30.2703V29.5203V28.7703H196.948H196.198V28.0203H196.948H197.698H198.448H199.198H199.948H200.698V28.7703H199.948H199.198V29.5203V30.2703V31.0203V31.7703V32.5203V33.2703H198.448Z" fill="#27AAE1"/>
<path d="M205.948 31.7703H205.198H204.448H203.698H202.948H202.198V31.0203V30.2703H202.948H203.698H204.448H205.198H205.948H206.698V31.0203V31.7703H205.948Z" fill="#27AAE1"/>
<path d="M210.448 31.0203H211.198V30.2703V29.5203H210.448V28.7703H209.698V29.5203H208.948V30.2703V31.0203H209.698H210.448ZM211.948 33.2703H211.198V32.5203V31.7703H210.448H209.698H208.948V32.5203V33.2703H208.198H207.448V32.5203V31.7703V31.0203V30.2703V29.5203H208.198V28.7703H208.948V28.0203H209.698H210.448H211.198V28.7703H211.948V29.5203H212.698V30.2703V31.0203V31.7703V32.5203V33.2703H211.948Z" fill="#27AAE1"/>
<path d="M217.948 33.2703H217.198V32.5203H216.448V31.7703H215.698V31.0203H214.948V31.7703V32.5203V33.2703H214.198H213.448V32.5203V31.7703V31.0203V30.2703V29.5203V28.7703V28.0203H214.198H214.948V28.7703H215.698V29.5203H216.448V30.2703H217.198V29.5203V28.7703V28.0203H217.948H218.698V28.7703V29.5203V30.2703V31.0203V31.7703V32.5203V33.2703H217.948Z" fill="#27AAE1"/>
<path d="M223.948 32.5203H224.698V33.2703H223.948H223.198H222.448H221.698H220.948H220.198V32.5203H220.948H221.698V31.7703V31.0203V30.2703V29.5203V28.7703H220.948H220.198V28.0203H220.948H221.698H222.448H223.198H223.948H224.698V28.7703H223.948H223.198V29.5203V30.2703V31.0203V31.7703V32.5203H223.948Z" fill="#27AAE1"/>
<path d="M227.698 31.7703V31.0203H226.948V31.7703V32.5203V33.2703H226.198H225.448V32.5203V31.7703V31.0203V30.2703V29.5203V28.7703V28.0203H226.198H226.948V28.7703H227.698V29.5203H228.448V28.7703H229.198V28.0203H229.948H230.698V28.7703V29.5203V30.2703V31.0203V31.7703V32.5203V33.2703H229.948H229.198V32.5203V31.7703V31.0203H228.448V31.7703H227.698Z" fill="#27AAE1"/>
<path d="M234.448 31.0203H235.198V30.2703V29.5203H234.448V28.7703H233.698V29.5203H232.948V30.2703V31.0203H233.698H234.448ZM235.948 33.2703H235.198V32.5203V31.7703H234.448H233.698H232.948V32.5203V33.2703H232.198H231.448V32.5203V31.7703V31.0203V30.2703V29.5203H232.198V28.7703H232.948V28.0203H233.698H234.448H235.198V28.7703H235.948V29.5203H236.698V30.2703V31.0203V31.7703V32.5203V33.2703H235.948Z" fill="#27AAE1"/>
<path d="M241.948 32.5203H242.698V33.2703H241.948H241.198H240.448H239.698H238.948H238.198H237.448V32.5203V31.7703V31.0203V30.2703V29.5203V28.7703V28.0203H238.198H238.948V28.7703V29.5203V30.2703V31.0203V31.7703V32.5203H239.698H240.448H241.198H241.948Z" fill="#27AAE1"/>
<path d="M247.198 33.2703H246.448H245.698H244.948H244.198V32.5203H243.448V31.7703H244.198H244.948V32.5203H245.698H246.448H247.198V31.7703V31.0203H246.448H245.698H244.948H244.198V30.2703H243.448V29.5203V28.7703H244.198V28.0203H244.948H245.698H246.448H247.198V28.7703H247.948V29.5203H247.198H246.448V28.7703H245.698H244.948V29.5203V30.2703H245.698H246.448H247.198H247.948V31.0203H248.698V31.7703V32.5203H247.948V33.2703H247.198Z" fill="#27AAE1"/>
<path d="M23.3964 51.0545H24.9424V47.6955H23.3074V47.0815H24.9424V46.1405C24.9424 45.8315 25.0234 45.5795 25.1874 45.3845C25.3494 45.1895 25.6054 45.0915 25.9554 45.0915H27.4924V45.7045H25.6534V47.0815H27.4924V47.6955H25.6534V51.0545H27.2884V51.6675H23.3964V51.0545Z" fill="#231F20"/>
<path d="M31.7401 50.9207H31.7041C31.6571 51.0337 31.5981 51.1417 31.5271 51.2457C31.4561 51.3497 31.3681 51.4397 31.2641 51.5167C31.1611 51.5937 31.0381 51.6557 30.8961 51.7027C30.7541 51.7507 30.5881 51.7747 30.3981 51.7747C29.9181 51.7747 29.5331 51.6217 29.2431 51.3167C28.9531 51.0117 28.8071 50.5807 28.8071 50.0237V47.0817H29.5181V49.8997C29.5181 50.3197 29.6101 50.6327 29.7941 50.8367C29.9771 51.0407 30.2471 51.1437 30.6031 51.1437C30.7451 51.1437 30.8841 51.1257 31.0201 51.0897C31.1571 51.0547 31.2781 51.0007 31.3851 50.9297C31.4911 50.8587 31.5771 50.7687 31.6421 50.6587C31.7071 50.5497 31.7401 50.4177 31.7401 50.2637V47.0817H32.4511V51.6677H31.7401V50.9207Z" fill="#231F20"/>
<path d="M34.0325 51.0545H35.6325V45.7045H34.0325V45.0915H36.3435V51.0545H37.9425V51.6675H34.0325V51.0545Z" fill="#231F20"/>
<path d="M39.3643 51.0545H40.9643V45.7045H39.3643V45.0915H41.6753V51.0545H43.2743V51.6675H39.3643V51.0545Z" fill="#231F20"/>
<path d="M46.7041 51.7742C46.2241 51.7742 45.8111 51.6922 45.4641 51.5302C45.1181 51.3672 44.8231 51.1492 44.5801 50.8772L45.0601 50.4592C45.2791 50.6902 45.5191 50.8682 45.7801 50.9922C46.0401 51.1172 46.3541 51.1782 46.7221 51.1782C47.0771 51.1782 47.3691 51.1152 47.5971 50.9882C47.8251 50.8602 47.9391 50.6602 47.9391 50.3872C47.9391 50.2692 47.9171 50.1702 47.8721 50.0902C47.8281 50.0102 47.7671 49.9472 47.6901 49.8992C47.6131 49.8512 47.5271 49.8142 47.4331 49.7882C47.3381 49.7612 47.2371 49.7392 47.1311 49.7212L46.4111 49.6152C46.2511 49.5912 46.0781 49.5582 45.8911 49.5172C45.7041 49.4752 45.5341 49.4092 45.3801 49.3172C45.2261 49.2252 45.0971 49.1022 44.9941 48.9482C44.8901 48.7952 44.8381 48.5922 44.8381 48.3432C44.8381 48.1132 44.8841 47.9132 44.9751 47.7442C45.0671 47.5752 45.1961 47.4332 45.3621 47.3172C45.5281 47.2022 45.7241 47.1162 45.9491 47.0602C46.1741 47.0032 46.4201 46.9752 46.6861 46.9752C47.1011 46.9752 47.4611 47.0412 47.7661 47.1702C48.0711 47.3012 48.3331 47.4822 48.5521 47.7122L48.0901 48.1482C48.0371 48.0842 47.9701 48.0162 47.8911 47.9492C47.8101 47.8802 47.7131 47.8182 47.5971 47.7612C47.4811 47.7062 47.3471 47.6602 47.1931 47.6242C47.0381 47.5882 46.8611 47.5712 46.6601 47.5712C46.2981 47.5712 46.0211 47.6322 45.8291 47.7572C45.6361 47.8812 45.5401 48.0622 45.5401 48.2992C45.5401 48.4182 45.5621 48.5172 45.6061 48.5972C45.6511 48.6772 45.7121 48.7412 45.7881 48.7882C45.8661 48.8362 45.9531 48.8732 46.0511 48.8992C46.1491 48.9252 46.2481 48.9482 46.3491 48.9652L47.0681 49.0732C47.2341 49.0962 47.4091 49.1282 47.5931 49.1702C47.7761 49.2112 47.9451 49.2782 48.0991 49.3702C48.2531 49.4622 48.3821 49.5852 48.4861 49.7392C48.5891 49.8932 48.6411 50.0942 48.6411 50.3432C48.6411 50.7992 48.4651 51.1522 48.1131 51.4012C47.7601 51.6502 47.2901 51.7742 46.7041 51.7742Z" fill="#231F20"/>
<path d="M52.2044 51.6678C51.8544 51.6678 51.5984 51.5698 51.4354 51.3748C51.2724 51.1798 51.1914 50.9288 51.1914 50.6208V47.6948H49.6624V47.0818H50.8004C50.9544 47.0818 51.0624 47.0508 51.1244 46.9888C51.1864 46.9268 51.2184 46.8178 51.2184 46.6648V45.4648H51.9024V47.0818H53.9904V47.6948H51.9024V51.0548H53.9904V51.6678H52.2044Z" fill="#231F20"/>
<path d="M56.9316 51.1785C57.1156 51.1785 57.2826 51.1575 57.4336 51.1125C57.5846 51.0685 57.7166 51.0085 57.8286 50.9345C57.9416 50.8605 58.0296 50.7715 58.0916 50.6675C58.1536 50.5645 58.1846 50.4525 58.1846 50.3345V49.5785H57.2066C56.7806 49.5785 56.4696 49.6385 56.2736 49.7565C56.0786 49.8755 55.9806 50.0475 55.9806 50.2725V50.4585C55.9806 50.6965 56.0656 50.8745 56.2346 50.9965C56.4026 51.1175 56.6356 51.1785 56.9316 51.1785ZM59.0466 51.6675C58.7676 51.6675 58.5696 51.5965 58.4516 51.4535C58.3326 51.3125 58.2586 51.1345 58.2286 50.9205H58.1846C58.0836 51.1875 57.9226 51.3965 57.7006 51.5475C57.4786 51.6995 57.1806 51.7745 56.8066 51.7745C56.3276 51.7745 55.9456 51.6505 55.6606 51.4015C55.3766 51.1525 55.2346 50.8115 55.2346 50.3785C55.2346 49.9525 55.3896 49.6235 55.7016 49.3925C56.0126 49.1615 56.5146 49.0455 57.2066 49.0455H58.1846V48.5955C58.1846 48.2595 58.0896 48.0085 57.9006 47.8405C57.7106 47.6725 57.4416 47.5885 57.0916 47.5885C56.7836 47.5885 56.5316 47.6495 56.3366 47.7715C56.1406 47.8925 55.9836 48.0565 55.8656 48.2645L55.3856 47.9085C55.4446 47.7895 55.5246 47.6745 55.6256 47.5605C55.7256 47.4475 55.8506 47.3465 55.9986 47.2595C56.1466 47.1725 56.3156 47.1035 56.5056 47.0525C56.6946 47.0005 56.9056 46.9755 57.1366 46.9755C57.6756 46.9755 58.1026 47.1125 58.4206 47.3855C58.7376 47.6575 58.8956 48.0375 58.8956 48.5255V51.0545H59.5356V51.6675H59.0466Z" fill="#231F20"/>
<path d="M62.8051 51.7742C62.4731 51.7742 62.1791 51.7162 61.9211 51.6012C61.6631 51.4852 61.4461 51.3242 61.2681 51.1172C61.0901 50.9092 60.9551 50.6582 60.8641 50.3612C60.7721 50.0652 60.7261 49.7362 60.7261 49.3752C60.7261 49.0132 60.7731 48.6842 60.8681 48.3882C60.9631 48.0922 61.0991 47.8382 61.2771 47.6282C61.4541 47.4192 61.6711 47.2562 61.9261 47.1442C62.1801 47.0322 62.4711 46.9752 62.7961 46.9752C63.2411 46.9752 63.6021 47.0732 63.8811 47.2682C64.1591 47.4642 64.3631 47.7182 64.4931 48.0332L63.9251 48.3352C63.8421 48.0982 63.7041 47.9152 63.5121 47.7842C63.3191 47.6542 63.0811 47.5882 62.7961 47.5882C62.5891 47.5882 62.4041 47.6232 62.2411 47.6912C62.0781 47.7582 61.9401 47.8552 61.8271 47.9792C61.7151 48.1042 61.6311 48.2522 61.5751 48.4232C61.5181 48.5952 61.4901 48.7822 61.4901 48.9842V49.7652C61.4901 49.9672 61.5181 50.1542 61.5751 50.3262C61.6311 50.4982 61.7151 50.6452 61.8271 50.7702C61.9401 50.8942 62.0791 50.9912 62.2451 51.0582C62.4111 51.1272 62.6011 51.1612 62.8141 51.1612C63.1221 51.1612 63.3771 51.0892 63.5781 50.9482C63.7801 50.8052 63.9401 50.6102 64.0581 50.3612L64.5651 50.7082C64.4291 51.0152 64.2171 51.2702 63.9301 51.4722C63.6421 51.6732 63.2671 51.7742 62.8051 51.7742Z" fill="#231F20"/>
<path d="M66.2441 45.0915H66.9551V49.2415H66.9911L67.7901 48.4865L69.3191 47.0815H70.1891L68.2881 48.8765L70.4111 51.6675H69.5321L67.7461 49.2855L66.9551 50.0055V51.6675H66.2441V45.0915Z" fill="#231F20"/>
<path d="M78.7021 51.1434C79.1171 51.1434 79.4381 51.0174 79.6661 50.7654C79.8941 50.5134 80.0091 50.1804 80.0091 49.7654V48.9844C80.0091 48.5694 79.8941 48.2364 79.6661 47.9844C79.4381 47.7324 79.1171 47.6064 78.7021 47.6064C78.5421 47.6064 78.3911 47.6274 78.2491 47.6684C78.1071 47.7094 77.9821 47.7714 77.8761 47.8504C77.7691 47.9304 77.6841 48.0284 77.6221 48.1444C77.5601 48.2594 77.5291 48.3944 77.5291 48.5484V50.2014C77.5291 50.3554 77.5601 50.4904 77.6221 50.6054C77.6841 50.7214 77.7691 50.8194 77.8761 50.8994C77.9821 50.9794 78.1071 51.0394 78.2491 51.0814C78.3911 51.1224 78.5421 51.1434 78.7021 51.1434ZM76.8181 47.0814H77.5291V47.8294H77.5651C77.8611 47.2594 78.3321 46.9754 78.9771 46.9754C79.5401 46.9754 79.9801 47.1864 80.2971 47.6064C80.6141 48.0274 80.7731 48.6174 80.7731 49.3744C80.7731 50.1334 80.6141 50.7224 80.2971 51.1434C79.9801 51.5644 79.5401 51.7744 78.9771 51.7744C78.3321 51.7744 77.8611 51.4904 77.5651 50.9204H77.5291V53.4454H76.8181V47.0814Z" fill="#231F20"/>
<path d="M83.5893 51.1785C83.7733 51.1785 83.9403 51.1575 84.0913 51.1125C84.2423 51.0685 84.3743 51.0085 84.4863 50.9345C84.5993 50.8605 84.6873 50.7715 84.7493 50.6675C84.8113 50.5645 84.8423 50.4525 84.8423 50.3345V49.5785H83.8643C83.4383 49.5785 83.1273 49.6385 82.9313 49.7565C82.7363 49.8755 82.6383 50.0475 82.6383 50.2725V50.4585C82.6383 50.6965 82.7233 50.8745 82.8923 50.9965C83.0603 51.1175 83.2933 51.1785 83.5893 51.1785ZM85.7043 51.6675C85.4253 51.6675 85.2273 51.5965 85.1093 51.4535C84.9903 51.3125 84.9163 51.1345 84.8863 50.9205H84.8423C84.7413 51.1875 84.5803 51.3965 84.3583 51.5475C84.1363 51.6995 83.8383 51.7745 83.4643 51.7745C82.9853 51.7745 82.6033 51.6505 82.3183 51.4015C82.0343 51.1525 81.8923 50.8115 81.8923 50.3785C81.8923 49.9525 82.0473 49.6235 82.3593 49.3925C82.6703 49.1615 83.1723 49.0455 83.8643 49.0455H84.8423V48.5955C84.8423 48.2595 84.7473 48.0085 84.5583 47.8405C84.3683 47.6725 84.0993 47.5885 83.7493 47.5885C83.4413 47.5885 83.1893 47.6495 82.9943 47.7715C82.7983 47.8925 82.6413 48.0565 82.5233 48.2645L82.0433 47.9085C82.1023 47.7895 82.1823 47.6745 82.2833 47.5605C82.3833 47.4475 82.5083 47.3465 82.6563 47.2595C82.8043 47.1725 82.9733 47.1035 83.1633 47.0525C83.3523 47.0005 83.5633 46.9755 83.7943 46.9755C84.3333 46.9755 84.7603 47.1125 85.0783 47.3855C85.3953 47.6575 85.5533 48.0375 85.5533 48.5255V51.0545H86.1933V51.6675H85.7043Z" fill="#231F20"/>
<path d="M89.1167 51.7742C88.6427 51.7742 88.2497 51.6972 87.9387 51.5432C87.6277 51.3892 87.3747 51.1702 87.1797 50.8852L87.7037 50.4592C87.8457 50.6842 88.0327 50.8572 88.2627 50.9792C88.4947 51.1002 88.7787 51.1612 89.1167 51.1612C89.5427 51.1612 89.8507 51.0922 90.0407 50.9572C90.2307 50.8202 90.3247 50.6452 90.3247 50.4322V50.3072C90.3247 50.0772 90.2497 49.9002 90.0987 49.7792C89.9477 49.6582 89.7297 49.5972 89.4457 49.5972H88.2097V49.0022H89.3567C89.9367 49.0022 90.2277 48.7852 90.2277 48.3532V48.2462C90.2277 48.0502 90.1457 47.8922 89.9827 47.7712C89.8197 47.6492 89.5367 47.5882 89.1347 47.5882C88.7787 47.5882 88.4927 47.6482 88.2767 47.7662C88.0607 47.8842 87.8847 48.0502 87.7477 48.2642L87.2507 47.9262C87.4577 47.6242 87.7097 47.3902 88.0057 47.2242C88.3017 47.0582 88.6897 46.9752 89.1697 46.9752C89.7797 46.9752 90.2347 47.0852 90.5337 47.3042C90.8327 47.5232 90.9827 47.8262 90.9827 48.2112C90.9827 48.4952 90.9087 48.7202 90.7607 48.8862C90.6127 49.0512 90.4057 49.1682 90.1387 49.2322V49.2682C90.4467 49.3152 90.6807 49.4322 90.8407 49.6192C91.0007 49.8052 91.0807 50.0452 91.0807 50.3352C91.0807 50.7792 90.9097 51.1292 90.5697 51.3872C90.2287 51.6452 89.7447 51.7742 89.1167 51.7742Z" fill="#231F20"/>
<path d="M94.6967 51.1434C95.1117 51.1434 95.4327 51.0174 95.6607 50.7654C95.8887 50.5134 96.0037 50.1804 96.0037 49.7654V48.9844C96.0037 48.5694 95.8887 48.2364 95.6607 47.9844C95.4327 47.7324 95.1117 47.6064 94.6967 47.6064C94.5367 47.6064 94.3857 47.6274 94.2437 47.6684C94.1017 47.7094 93.9767 47.7714 93.8707 47.8504C93.7637 47.9304 93.6787 48.0284 93.6167 48.1444C93.5547 48.2594 93.5237 48.3944 93.5237 48.5484V50.2014C93.5237 50.3554 93.5547 50.4904 93.6167 50.6054C93.6787 50.7214 93.7637 50.8194 93.8707 50.8994C93.9767 50.9794 94.1017 51.0394 94.2437 51.0814C94.3857 51.1224 94.5367 51.1434 94.6967 51.1434ZM92.8127 47.0814H93.5237V47.8294H93.5597C93.8557 47.2594 94.3267 46.9754 94.9717 46.9754C95.5347 46.9754 95.9747 47.1864 96.2917 47.6064C96.6087 48.0274 96.7677 48.6174 96.7677 49.3744C96.7677 50.1334 96.6087 50.7224 96.2917 51.1434C95.9747 51.5644 95.5347 51.7744 94.9717 51.7744C94.3267 51.7744 93.8557 51.4904 93.5597 50.9204H93.5237V53.4454H92.8127V47.0814Z" fill="#231F20"/>
<path d="M99.584 51.1785C99.768 51.1785 99.935 51.1575 100.086 51.1125C100.237 51.0685 100.369 51.0085 100.481 50.9345C100.594 50.8605 100.682 50.7715 100.744 50.6675C100.806 50.5645 100.837 50.4525 100.837 50.3345V49.5785H99.859C99.433 49.5785 99.122 49.6385 98.926 49.7565C98.731 49.8755 98.633 50.0475 98.633 50.2725V50.4585C98.633 50.6965 98.718 50.8745 98.887 50.9965C99.055 51.1175 99.288 51.1785 99.584 51.1785ZM101.699 51.6675C101.42 51.6675 101.222 51.5965 101.104 51.4535C100.985 51.3125 100.911 51.1345 100.881 50.9205H100.837C100.736 51.1875 100.575 51.3965 100.353 51.5475C100.131 51.6995 99.833 51.7745 99.459 51.7745C98.98 51.7745 98.598 51.6505 98.313 51.4015C98.029 51.1525 97.887 50.8115 97.887 50.3785C97.887 49.9525 98.042 49.6235 98.354 49.3925C98.665 49.1615 99.167 49.0455 99.859 49.0455H100.837V48.5955C100.837 48.2595 100.742 48.0085 100.553 47.8405C100.363 47.6725 100.094 47.5885 99.744 47.5885C99.436 47.5885 99.184 47.6495 98.989 47.7715C98.793 47.8925 98.636 48.0565 98.518 48.2645L98.038 47.9085C98.097 47.7895 98.177 47.6745 98.278 47.5605C98.378 47.4475 98.503 47.3465 98.651 47.2595C98.799 47.1725 98.968 47.1035 99.158 47.0525C99.347 47.0005 99.558 46.9755 99.789 46.9755C100.328 46.9755 100.755 47.1125 101.073 47.3855C101.39 47.6575 101.548 48.0375 101.548 48.5255V51.0545H102.188V51.6675H101.699Z" fill="#231F20"/>
<path d="M105.307 51.161C105.692 51.161 106.008 51.041 106.253 50.802C106.499 50.561 106.622 50.21 106.622 49.748V49.188C106.622 48.69 106.502 48.317 106.262 48.068C106.022 47.82 105.71 47.695 105.325 47.695C104.874 47.695 104.541 47.804 104.325 48.019C104.109 48.236 104.001 48.513 104.001 48.85V49.748C104.001 50.21 104.12 50.561 104.361 50.802C104.6 51.041 104.916 51.161 105.307 51.161ZM105.307 51.774C104.999 51.774 104.719 51.718 104.467 51.605C104.215 51.493 103.999 51.321 103.819 51.09C103.638 50.859 103.497 50.567 103.396 50.215C103.296 49.862 103.245 49.443 103.245 48.957C103.245 48.282 103.291 47.707 103.383 47.233C103.475 46.76 103.617 46.368 103.809 46.06C104.002 45.752 104.248 45.524 104.547 45.376C104.846 45.228 105.203 45.14 105.618 45.109L107.022 45.02V45.723L105.547 45.82C105.292 45.838 105.075 45.886 104.894 45.963C104.713 46.04 104.562 46.162 104.441 46.331C104.319 46.5 104.223 46.721 104.152 46.993C104.081 47.265 104.027 47.606 103.992 48.015H104.036C104.161 47.719 104.335 47.489 104.56 47.327C104.786 47.164 105.067 47.082 105.405 47.082C105.695 47.082 105.962 47.136 106.204 47.242C106.448 47.348 106.655 47.502 106.827 47.7C106.998 47.898 107.133 48.144 107.231 48.437C107.328 48.73 107.377 49.064 107.377 49.437C107.377 49.787 107.327 50.103 107.226 50.388C107.126 50.673 106.983 50.918 106.8 51.126C106.616 51.333 106.398 51.493 106.147 51.605C105.895 51.718 105.615 51.774 105.307 51.774Z" fill="#231F20"/>
<path d="M110.629 51.161C111.026 51.161 111.346 51.043 111.588 50.806C111.832 50.569 111.953 50.201 111.953 49.704V49.046C111.953 48.549 111.832 48.182 111.588 47.944C111.346 47.707 111.026 47.589 110.629 47.589C110.232 47.589 109.912 47.707 109.669 47.944C109.426 48.182 109.305 48.549 109.305 49.046V49.704C109.305 50.201 109.426 50.569 109.669 50.806C109.912 51.043 110.232 51.161 110.629 51.161ZM110.629 51.774C110.309 51.774 110.02 51.718 109.762 51.605C109.505 51.493 109.286 51.332 109.105 51.121C108.924 50.911 108.786 50.659 108.692 50.366C108.597 50.072 108.549 49.742 108.549 49.375C108.549 49.014 108.597 48.684 108.692 48.389C108.786 48.093 108.924 47.839 109.105 47.629C109.286 47.419 109.505 47.257 109.762 47.144C110.02 47.032 110.309 46.975 110.629 46.975C110.949 46.975 111.237 47.032 111.495 47.144C111.753 47.257 111.972 47.419 112.153 47.629C112.334 47.839 112.471 48.093 112.566 48.389C112.661 48.684 112.708 49.014 112.708 49.375C112.708 49.742 112.661 50.072 112.566 50.366C112.471 50.659 112.334 50.911 112.153 51.121C111.972 51.332 111.753 51.493 111.495 51.605C111.237 51.718 110.949 51.774 110.629 51.774Z" fill="#231F20"/>
<path d="M115.605 47.6951H113.917V47.0821H118.004V47.6951H116.316V51.6681H115.605V47.6951Z" fill="#231F20"/>
<path d="M122.269 49.5614H122.224C122.058 49.7454 121.871 49.8824 121.662 49.9744C121.45 50.0664 121.182 50.1124 120.856 50.1124C120.359 50.1124 119.981 49.9964 119.724 49.7614C119.466 49.5274 119.337 49.1734 119.337 48.6994V47.0824H120.048V48.6374C120.048 48.9214 120.128 49.1314 120.288 49.2684C120.448 49.4044 120.708 49.4724 121.07 49.4724C121.425 49.4724 121.714 49.4264 121.937 49.3344C122.158 49.2434 122.269 49.1024 122.269 48.9134V47.0824H122.98V51.6674H122.269V49.5614Z" fill="#231F20"/>
<path d="M124.802 47.0818H125.513V49.4198L125.443 50.5928H125.478L127.78 47.0818H128.446V51.6678H127.735V49.3308L127.806 48.1568H127.771L125.469 51.6678H124.802V47.0818Z" fill="#231F20"/>
<path d="M130.241 47.0818H130.952V48.9928H131.929L133.164 47.0818H133.902L132.782 48.8198C132.681 48.9748 132.593 49.0818 132.515 49.1448C132.438 49.2058 132.346 49.2518 132.24 49.2808V49.3158C132.358 49.3348 132.459 49.3748 132.542 49.4358C132.625 49.4988 132.711 49.6058 132.8 49.7598L133.547 51.0548H134.062V51.6678H133.547C133.392 51.6678 133.259 51.6258 133.146 51.5428C133.034 51.4598 132.922 51.3238 132.808 51.1348L131.929 49.6058H130.952V51.6678H130.241V47.0818Z" fill="#231F20"/>
<path d="M243.155 94.6619V107.25V110.397H246.301V107.25V94.6619H243.155Z" fill="#EFD8B9"/>
<path d="M243.155 132.425V135.572H233.714V132.425H236.861H243.155Z" fill="#3C4E57"/>
<path d="M243.155 66.3411H240.008V60.0471H243.155V66.3411Z" fill="#775034"/>
<path d="M246.302 85.2215V82.0755H243.156H240.008V78.9275H236.862V82.0755V107.249H243.156V94.6615V91.5155H246.302H249.449V85.2215H246.302Z" fill="#548AC8"/>
<path d="M236.861 107.25H230.567V82.0751H236.861V107.25Z" fill="#F9F8F4"/>
<path d="M236.861 56.8991V53.7531H224.273V56.8991V60.0461H240.007V56.8991H236.861Z" fill="#775034"/>
<path d="M233.714 75.7811H230.568V72.6351H233.714V75.7811Z" fill="#F68B62"/>
<path d="M230.567 132.425V135.572H221.127V132.425H224.273H230.567Z" fill="#3C4E57"/>
<path d="M236.861 107.25H230.567H224.273V110.397V132.425H230.567V110.397H236.861V132.425H243.155V110.397V107.25H236.861Z" fill="#2D343C"/>
<path d="M229.017 69.4871H227.421V66.3411H229.017V69.4871Z" fill="#EFD8B9"/>
<path d="M221.127 94.6619V107.25V110.397H224.273V107.25V94.6619H221.127Z" fill="#EFD8B9"/>
<path d="M224.273 66.3411H221.127V60.0471H224.273V66.3411Z" fill="#775034"/>
<path d="M246.302 91.5154H243.156V94.6614H246.302H249.449V91.5154H246.302Z" fill="#F9F8F4"/>
<path d="M217.979 91.5154V94.6614H221.126H224.273V91.5154H221.126H217.979Z" fill="#F9F8F4"/>
<path d="M227.421 78.9276V82.0746H224.274H221.127V85.2216H217.98V91.5156H221.127H224.274V94.6616V107.25H230.567V82.0746V78.9276H227.421Z" fill="#548AC8"/>
<path d="M230.567 72.6341H233.713V75.7801H230.567V72.6341ZM235.261 66.3411H236.862V69.4871H235.261V66.3411ZM228.552 69.4871H227.421V66.3411H228.552V69.4871ZM240.008 66.3411V60.0471H224.273V66.3411H221.127V69.4871H224.273V78.9271H227.421H230.567V82.0751H236.861V78.9271H240.008V69.4871H243.155V66.3411H240.008Z" fill="#EFD8B9"/>
<path d="M229.984 69.4871H227.635V66.3411H229.984V69.4871Z" fill="#3C4E57"/>
<path d="M237.027 69.4871H234.677V66.3411H237.027V69.4871Z" fill="#3C4E57"/>
<path d="M233.676 66.3411H238.397V68.7001H233.676V66.3411ZM226.634 66.3411H231.355V68.7001H226.634V66.3411ZM240.008 66.3411H239.184V65.5531H232.89V65.9471H232.141V65.5531H225.847V66.3411H224.273H222.7V67.9141H224.273H225.847V69.4871H225.866H226.634H231.355H232.141H232.16V68.7001H232.141V66.7331H232.89V69.4871H232.908H233.676H238.397H239.184H239.202V68.7001H239.184V67.9141H240.008H241.581V66.3411H240.008Z" fill="#231F20"/>
</svg>
