<svg width="273" height="159" viewBox="0 0 273 159" fill="none" xmlns="http://www.w3.org/2000/svg">
<path d="M249.449 135.572H22.8408V27.983H249.449V135.572Z" fill="rgba(255,255,255,0.8)"/>
<path d="M24.2905 124.967H23.5405V124.217V123.467V122.717V121.967V121.217V120.467H22.7905H22.0405V119.717H22.7905H23.5405H24.2905H25.0405H25.7905H26.5405V120.467H25.7905H25.0405V121.217V121.967V122.717V123.467V124.217V124.967H24.2905Z" fill="#27AAE1"/>
<path d="M31.7905 124.217H32.5405V124.967H31.7905H31.0405H30.2905H29.5405H28.7905H28.0405H27.2905V124.217V123.467V122.717V121.967V121.217V120.467V119.717H28.0405H28.7905H29.5405H30.2905H31.0405H31.7905H32.5405V120.467H31.7905H31.0405H30.2905H29.5405H28.7905V121.217V121.967H29.5405H30.2905H31.0405H31.7905V122.717H31.0405H30.2905H29.5405H28.7905V123.467V124.217H29.5405H30.2905H31.0405H31.7905Z" fill="#27AAE1"/>
<path d="M37.7905 124.217H38.5405V124.967H37.7905H37.0405H36.2905H35.5405H34.7905H34.0405H33.2905V124.217V123.467V122.717V121.967V121.217V120.467V119.717H34.0405H34.7905V120.467V121.217V121.967V122.717V123.467V124.217H35.5405H36.2905H37.0405H37.7905Z" fill="#27AAE1"/>
<path d="M43.7905 124.217H44.5405V124.967H43.7905H43.0405H42.2905H41.5405H40.7905H40.0405H39.2905V124.217V123.467V122.717V121.967V121.217V120.467V119.717H40.0405H40.7905H41.5405H42.2905H43.0405H43.7905H44.5405V120.467H43.7905H43.0405H42.2905H41.5405H40.7905V121.217V121.967H41.5405H42.2905H43.0405H43.7905V122.717H43.0405H42.2905H41.5405H40.7905V123.467V124.217H41.5405H42.2905H43.0405H43.7905Z" fill="#27AAE1"/>
<path d="M49.7905 124.967H49.0405H48.2905H47.5405H46.7905V124.217H46.0405V123.467H45.2905V122.717V121.967V121.217H46.0405V120.467H46.7905V119.717H47.5405H48.2905H49.0405H49.7905H50.5405V120.467H49.7905H49.0405H48.2905H47.5405V121.217H46.7905V121.967V122.717V123.467H47.5405V124.217H48.2905H49.0405V123.467V122.717H48.2905V121.967H49.0405H49.7905H50.5405V122.717V123.467V124.217V124.967H49.7905Z" fill="#27AAE1"/>
<path d="M53.5405 122.717H54.2905V121.967H55.0405V121.217V120.467H54.2905H53.5405H52.7905V121.217V121.967V122.717H53.5405ZM55.7905 124.967H55.0405H54.2905V124.217H53.5405V123.467H52.7905V124.217V124.967H52.0405H51.2905V124.217V123.467V122.717V121.967V121.217V120.467V119.717H52.0405H52.7905H53.5405H54.2905H55.0405H55.7905V120.467H56.5405V121.217V121.967V122.717H55.7905H55.0405V123.467H55.7905V124.217H56.5405V124.967H55.7905Z" fill="#27AAE1"/>
<path d="M60.2905 122.717H61.0405V121.967V121.217H60.2905V120.467H59.5405V121.217H58.7905V121.967V122.717H59.5405H60.2905ZM61.7905 124.967H61.0405V124.217V123.467H60.2905H59.5405H58.7905V124.217V124.967H58.0405H57.2905V124.217V123.467V122.717V121.967V121.217H58.0405V120.467H58.7905V119.717H59.5405H60.2905H61.0405V120.467H61.7905V121.217H62.5405V121.967V122.717V123.467V124.217V124.967H61.7905Z" fill="#27AAE1"/>
<path d="M65.5405 123.467V122.717H64.7905V123.467V124.217V124.967H64.0405H63.2905V124.217V123.467V122.717V121.967V121.217V120.467V119.717H64.0405H64.7905V120.467H65.5405V121.217H66.2905V120.467H67.0405V119.717H67.7905H68.5405V120.467V121.217V121.967V122.717V123.467V124.217V124.967H67.7905H67.0405V124.217V123.467V122.717H66.2905V123.467H65.5405Z" fill="#27AAE1"/>
<path d="M72.2905 124.217H71.5405V123.467V122.717H72.2905H73.0405V123.467V124.217H72.2905ZM72.2905 121.967H71.5405V121.217V120.467H72.2905H73.0405V121.217V121.967H72.2905Z" fill="#27AAE1"/>
<path d="M88.0068 121.967H87.2568V122.717H88.0068V121.967ZM89.5068 123.467H88.7568H88.0068H87.2568H86.5068V122.717V121.967V121.217H87.2568H88.0068H88.7568V121.967V122.717H89.5068V121.967V121.217V120.467H90.2568V121.217V121.967V122.717V123.467H89.5068ZM88.7568 124.217H89.5068V124.967H88.7568H88.0068H87.2568H86.5068H85.7568V124.217H86.5068H87.2568H88.0068H88.7568ZM89.5068 120.467H88.7568H88.0068H87.2568H86.5068H85.7568V119.717H86.5068H87.2568H88.0068H88.7568H89.5068V120.467ZM85.7568 124.217H85.0068V123.467V122.717V121.967V121.217V120.467H85.7568V121.217V121.967V122.717V123.467V124.217Z" fill="#27AAE1"/>
<path d="M93.2573 122.717H94.0073V121.967H94.7573V121.217V120.467H94.0073H93.2573H92.5073V121.217V121.967V122.717H93.2573ZM95.5073 124.967H94.7573H94.0073V124.217H93.2573V123.467H92.5073V124.217V124.967H91.7573H91.0073V124.217V123.467V122.717V121.967V121.217V120.467V119.717H91.7573H92.5073H93.2573H94.0073H94.7573H95.5073V120.467H96.2573V121.217V121.967V122.717H95.5073H94.7573V123.467H95.5073V124.217H96.2573V124.967H95.5073Z" fill="#27AAE1"/>
<path d="M101.507 124.217H102.257V124.967H101.507H100.757H100.007H99.2573H98.5073H97.7573H97.0073V124.217V123.467V122.717V121.967V121.217V120.467V119.717H97.7573H98.5073H99.2573H100.007H100.757H101.507H102.257V120.467H101.507H100.757H100.007H99.2573H98.5073V121.217V121.967H99.2573H100.007H100.757H101.507V122.717H100.757H100.007H99.2573H98.5073V123.467V124.217H99.2573H100.007H100.757H101.507Z" fill="#27AAE1"/>
<path d="M106.757 124.967H106.007H105.257H104.507H103.757V124.217H103.007V123.467H103.757H104.507V124.217H105.257H106.007H106.757V123.467V122.717H106.007H105.257H104.507H103.757V121.967H103.007V121.217V120.467H103.757V119.717H104.507H105.257H106.007H106.757V120.467H107.507V121.217H106.757H106.007V120.467H105.257H104.507V121.217V121.967H105.257H106.007H106.757H107.507V122.717H108.257V123.467V124.217H107.507V124.967H106.757Z" fill="#27AAE1"/>
<path d="M112.007 124.967H111.257V124.217V123.467V122.717V121.967V121.217V120.467H110.507H109.757V119.717H110.507H111.257H112.007H112.757H113.507H114.257V120.467H113.507H112.757V121.217V121.967V122.717V123.467V124.217V124.967H112.007Z" fill="#27AAE1"/>
<path d="M119.507 124.217H120.257V124.967H119.507H118.757H118.007H117.257H116.507H115.757H115.007V124.217V123.467V122.717V121.967V121.217V120.467V119.717H115.757H116.507V120.467V121.217V121.967V122.717V123.467V124.217H117.257H118.007H118.757H119.507Z" fill="#27AAE1"/>
<path d="M125.508 124.217H126.258V124.967H125.508H124.758H124.008H123.258H122.508H121.758V124.217H122.508H123.258V123.467V122.717V121.967V121.217V120.467H122.508H121.758V119.717H122.508H123.258H124.008H124.758H125.508H126.258V120.467H125.508H124.758V121.217V121.967V122.717V123.467V124.217H125.508Z" fill="#27AAE1"/>
<path d="M131.508 124.967H130.758V124.217H130.008V123.467H129.258V122.717H128.508V123.467V124.217V124.967H127.758H127.008V124.217V123.467V122.717V121.967V121.217V120.467V119.717H127.758H128.508V120.467H129.258V121.217H130.008V121.967H130.758V121.217V120.467V119.717H131.508H132.258V120.467V121.217V121.967V122.717V123.467V124.217V124.967H131.508Z" fill="#27AAE1"/>
<path d="M135.258 122.717H136.008V121.967H136.758V121.217V120.467H136.008H135.258H134.508V121.217V121.967V122.717H135.258ZM137.508 124.967H136.758H136.008V124.217H135.258V123.467H134.508V124.217V124.967H133.758H133.008V124.217V123.467V122.717V121.967V121.217V120.467V119.717H133.758H134.508H135.258H136.008H136.758H137.508V120.467H138.258V121.217V121.967V122.717H137.508H136.758V123.467H137.508V124.217H138.258V124.967H137.508Z" fill="#27AAE1"/>
<path d="M142.758 124.967H142.008H141.258H140.508H139.758V124.217H139.008V123.467V122.717V121.967V121.217V120.467V119.717H139.758H140.508V120.467V121.217V121.967V122.717V123.467V124.217H141.258H142.008H142.758V123.467V122.717V121.967V121.217V120.467V119.717H143.508H144.258V120.467V121.217V121.967V122.717V123.467V124.217H143.508V124.967H142.758Z" fill="#27AAE1"/>
<path d="M27.1587 133.966H27.9087V134.716H27.1587H26.4087H25.6587H24.9087H24.1587H23.4087H22.6587V133.966V133.216V132.466V131.716V130.966V130.216V129.466H23.4087H24.1587H24.9087H25.6587H26.4087H27.1587H27.9087V130.216H27.1587H26.4087H25.6587H24.9087H24.1587V130.966V131.716H24.9087H25.6587H26.4087H27.1587V132.466H26.4087H25.6587H24.9087H24.1587V133.216V133.966H24.9087H25.6587H26.4087H27.1587Z" fill="#27AAE1"/>
<path d="M33.1587 133.216H32.4087H31.6587H30.9087H30.1587H29.4087V132.466V131.716H30.1587H30.9087H31.6587H32.4087H33.1587H33.9087V132.466V133.216H33.1587Z" fill="#27AAE1"/>
<path d="M36.9087 133.216V132.466H36.1587V133.216V133.966V134.716H35.4087H34.6587V133.966V133.216V132.466V131.716V130.966V130.216V129.466H35.4087H36.1587V130.216H36.9087V130.966H37.6587V130.216H38.4087V129.466H39.1587H39.9087V130.216V130.966V131.716V132.466V133.216V133.966V134.716H39.1587H38.4087V133.966V133.216V132.466H37.6587V133.216H36.9087Z" fill="#27AAE1"/>
<path d="M43.6587 132.466H44.4087V131.716V130.966H43.6587V130.216H42.9087V130.966H42.1587V131.716V132.466H42.9087H43.6587ZM45.1587 134.716H44.4087V133.966V133.216H43.6587H42.9087H42.1587V133.966V134.716H41.4087H40.6587V133.966V133.216V132.466V131.716V130.966H41.4087V130.216H42.1587V129.466H42.9087H43.6587H44.4087V130.216H45.1587V130.966H45.9087V131.716V132.466V133.216V133.966V134.716H45.1587Z" fill="#27AAE1"/>
<path d="M51.1587 133.966H51.9087V134.716H51.1587H50.4087H49.6587H48.9087H48.1587H47.4087V133.966H48.1587H48.9087V133.216V132.466V131.716V130.966V130.216H48.1587H47.4087V129.466H48.1587H48.9087H49.6587H50.4087H51.1587H51.9087V130.216H51.1587H50.4087V130.966V131.716V132.466V133.216V133.966H51.1587Z" fill="#27AAE1"/>
<path d="M57.1587 133.966H57.9087V134.716H57.1587H56.4087H55.6587H54.9087H54.1587H53.4087H52.6587V133.966V133.216V132.466V131.716V130.966V130.216V129.466H53.4087H54.1587V130.216V130.966V131.716V132.466V133.216V133.966H54.9087H55.6587H56.4087H57.1587Z" fill="#27AAE1"/>
<path d="M61.6587 133.966H60.9087V133.216V132.466H61.6587H62.4087V133.216V133.966H61.6587ZM61.6587 131.716H60.9087V130.966V130.216H61.6587H62.4087V130.966V131.716H61.6587Z" fill="#27AAE1"/>
<path d="M87.2568 132.466H88.0068V131.716H88.7568V130.966V130.216H88.0068H87.2568H86.5068V130.966V131.716V132.466H87.2568ZM89.5068 134.716H88.7568H88.0068V133.966H87.2568V133.216H86.5068V133.966V134.716H85.7568H85.0068V133.966V133.216V132.466V131.716V130.966V130.216V129.466H85.7568H86.5068H87.2568H88.0068H88.7568H89.5068V130.216H90.2568V130.966V131.716V132.466H89.5068H88.7568V133.216H89.5068V133.966H90.2568V134.716H89.5068Z" fill="#27AAE1"/>
<path d="M95.5068 133.966H96.2568V134.716H95.5068H94.7568H94.0068H93.2568H92.5068H91.7568H91.0068V133.966V133.216V132.466V131.716V130.966V130.216V129.466H91.7568H92.5068H93.2568H94.0068H94.7568H95.5068H96.2568V130.216H95.5068H94.7568H94.0068H93.2568H92.5068V130.966V131.716H93.2568H94.0068H94.7568H95.5068V132.466H94.7568H94.0068H93.2568H92.5068V133.216V133.966H93.2568H94.0068H94.7568H95.5068Z" fill="#27AAE1"/>
<path d="M100.757 134.716H100.007H99.2568H98.5068H97.7568V133.966H97.0068V133.216H97.7568H98.5068V133.966H99.2568H100.007H100.757V133.216V132.466H100.007H99.2568H98.5068H97.7568V131.716H97.0068V130.966V130.216H97.7568V129.466H98.5068H99.2568H100.007H100.757V130.216H101.507V130.966H100.757H100.007V130.216H99.2568H98.5068V130.966V131.716H99.2568H100.007H100.757H101.507V132.466H102.257V133.216V133.966H101.507V134.716H100.757Z" fill="#27AAE1"/>
<path d="M106.007 134.716H105.257V133.966V133.216V132.466V131.716V130.966V130.216H104.507H103.757V129.466H104.507H105.257H106.007H106.757H107.507H108.257V130.216H107.507H106.757V130.966V131.716V132.466V133.216V133.966V134.716H106.007Z" fill="#27AAE1"/>
<path d="M113.507 133.966H114.257V134.716H113.507H112.757H112.007H111.257H110.507H109.757H109.007V133.966V133.216V132.466V131.716V130.966V130.216V129.466H109.757H110.507V130.216V130.966V131.716V132.466V133.216V133.966H111.257H112.007H112.757H113.507Z" fill="#27AAE1"/>
<path d="M119.507 133.966H120.257V134.716H119.507H118.757H118.007H117.257H116.507H115.757V133.966H116.507H117.257V133.216V132.466V131.716V130.966V130.216H116.507H115.757V129.466H116.507H117.257H118.007H118.757H119.507H120.257V130.216H119.507H118.757V130.966V131.716V132.466V133.216V133.966H119.507Z" fill="#27AAE1"/>
<path d="M125.506 134.716H124.756V133.966H124.006V133.216H123.256V132.466H122.506V133.216V133.966V134.716H121.756H121.006V133.966V133.216V132.466V131.716V130.966V130.216V129.466H121.756H122.506V130.216H123.256V130.966H124.006V131.716H124.756V130.966V130.216V129.466H125.506H126.256V130.216V130.966V131.716V132.466V133.216V133.966V134.716H125.506Z" fill="#27AAE1"/>
<path d="M129.257 132.466H130.007V131.716H130.757V130.966V130.216H130.007H129.257H128.507V130.966V131.716V132.466H129.257ZM131.507 134.716H130.757H130.007V133.966H129.257V133.216H128.507V133.966V134.716H127.757H127.007V133.966V133.216V132.466V131.716V130.966V130.216V129.466H127.757H128.507H129.257H130.007H130.757H131.507V130.216H132.257V130.966V131.716V132.466H131.507H130.757V133.216H131.507V133.966H132.257V134.716H131.507Z" fill="#27AAE1"/>
<path d="M136.757 134.716H136.007H135.257H134.507H133.757V133.966H133.007V133.216V132.466V131.716V130.966V130.216V129.466H133.757H134.507V130.216V130.966V131.716V132.466V133.216V133.966H135.257H136.007H136.757V133.216V132.466V131.716V130.966V130.216V129.466H137.507H138.257V130.216V130.966V131.716V132.466V133.216V133.966H137.507V134.716H136.757Z" fill="#27AAE1"/>
<path d="M142.007 131.716H141.257V132.466H142.007V131.716ZM143.507 133.216H142.757H142.007H141.257H140.507V132.466V131.716V130.966H141.257H142.007H142.757V131.716V132.466H143.507V131.716V130.966V130.216H144.257V130.966V131.716V132.466V133.216H143.507ZM142.757 133.966H143.507V134.716H142.757H142.007H141.257H140.507H139.757V133.966H140.507H141.257H142.007H142.757ZM143.507 130.216H142.757H142.007H141.257H140.507H139.757V129.466H140.507H141.257H142.007H142.757H143.507V130.216ZM139.757 133.966H139.007V133.216V132.466V131.716V130.966V130.216H139.757V130.966V131.716V132.466V133.216V133.966Z" fill="#27AAE1"/>
<path d="M148.007 134.716H147.257V133.966V133.216V132.466H146.507V131.716H145.757V130.966V130.216V129.466H146.507H147.257V130.216V130.966V131.716H148.007H148.757V130.966V130.216V129.466H149.507H150.257V130.216V130.966V131.716H149.507V132.466H148.757V133.216V133.966V134.716H148.007Z" fill="#27AAE1"/>
<path d="M154.007 132.466H154.757V131.716V130.966H154.007V130.216H153.257V130.966H152.507V131.716V132.466H153.257H154.007ZM155.507 134.716H154.757V133.966V133.216H154.007H153.257H152.507V133.966V134.716H151.757H151.007V133.966V133.216V132.466V131.716V130.966H151.757V130.216H152.507V129.466H153.257H154.007H154.757V130.216H155.507V130.966H156.257V131.716V132.466V133.216V133.966V134.716H155.507Z" fill="#27AAE1"/>
<path d="M161.507 134.716H160.757V133.966H160.007V133.216H159.257V132.466H158.507V133.216V133.966V134.716H157.757H157.007V133.966V133.216V132.466V131.716V130.966V130.216V129.466H157.757H158.507V130.216H159.257V130.966H160.007V131.716H160.757V130.966V130.216V129.466H161.507H162.257V130.216V130.966V131.716V132.466V133.216V133.966V134.716H161.507Z" fill="#27AAE1"/>
<path d="M165.257 133.966H166.007V133.216H166.757V132.466V131.716V130.966H166.007V130.216H165.257H164.507V130.966V131.716V132.466V133.216V133.966H165.257ZM166.007 134.716H165.257H164.507H163.757H163.007V133.966V133.216V132.466V131.716V130.966V130.216V129.466H163.757H164.507H165.257H166.007H166.757V130.216H167.507V130.966H168.257V131.716V132.466V133.216H167.507V133.966H166.757V134.716H166.007Z" fill="#27AAE1"/>
<path d="M173.507 133.966H174.257V134.716H173.507H172.757H172.007H171.257H170.507H169.757H169.007V133.966V133.216V132.466V131.716V130.966V130.216V129.466H169.757H170.507H171.257H172.007H172.757H173.507H174.257V130.216H173.507H172.757H172.007H171.257H170.507V130.966V131.716H171.257H172.007H172.757H173.507V132.466H172.757H172.007H171.257H170.507V133.216V133.966H171.257H172.007H172.757H173.507Z" fill="#27AAE1"/>
<path d="M179.507 134.716H178.757V133.966H178.007V133.216H177.257V133.966H176.507V134.716H175.757H175.007V133.966V133.216H175.757V132.466H176.507V131.716H175.757V130.966H175.007V130.216V129.466H175.757H176.507V130.216H177.257V130.966H178.007V130.216H178.757V129.466H179.507H180.257V130.216V130.966H179.507V131.716H178.757V132.466H179.507V133.216H180.257V133.966V134.716H179.507Z" fill="#27AAE1"/>
<path d="M184.007 134.716H183.257V133.966V133.216H184.007H184.757V133.966V134.716H184.007Z" fill="#27AAE1"/>
<path d="M189.257 132.466H190.007V131.716H190.757V130.966V130.216H190.007H189.257H188.507V130.966V131.716V132.466H189.257ZM191.507 134.716H190.757H190.007V133.966H189.257V133.216H188.507V133.966V134.716H187.757H187.007V133.966V133.216V132.466V131.716V130.966V130.216V129.466H187.757H188.507H189.257H190.007H190.757H191.507V130.216H192.257V130.966V131.716V132.466H191.507H190.757V133.216H191.507V133.966H192.257V134.716H191.507Z" fill="#27AAE1"/>
<path d="M196.757 134.716H196.007H195.257H194.507H193.757V133.966H193.007V133.216V132.466V131.716V130.966V130.216V129.466H193.757H194.507V130.216V130.966V131.716V132.466V133.216V133.966H195.257H196.007H196.757V133.216V132.466V131.716V130.966V130.216V129.466H197.507H198.257V130.216V130.966V131.716V132.466V133.216V133.966H197.507V134.716H196.757Z" fill="#27AAE1"/>
<path d="M29.0337 35.4677H27.9717V34.4057V33.3427V32.2797H26.9087V33.3427H25.8457V34.4057H24.7837V35.4677H23.7217H22.6587V34.4057V33.3427V32.2797V31.2177V30.1557V29.0927V28.0307H23.7217H24.7837V29.0927V30.1557V31.2177H25.8457V30.1557H26.9087V29.0927H27.9717V28.0307H29.0337H30.0957V29.0927V30.1557V31.2177V32.2797V33.3427V34.4057V35.4677H29.0337Z" fill="#231F20"/>
<path d="M37.5337 35.4677H36.4717V34.4057V33.3427V32.2797V31.2177V30.1557V29.0927H35.4087V30.1557V31.2177V32.2797H34.3457V33.3427V34.4057H33.2837V35.4677H32.2217H31.1587V34.4057H32.2217V33.3427V32.2797H33.2837V31.2177V30.1557V29.0927V28.0307H34.3457H35.4087H36.4717H37.5337H38.5957V29.0927V30.1557V31.2177V32.2797V33.3427V34.4057V35.4677H37.5337Z" fill="#231F20"/>
<path d="M43.9087 34.4052H44.9707V33.3432V32.2802V31.2172H43.9087H42.8467H41.7837V32.2802V33.3432V34.4052H42.8467H43.9087ZM44.9707 35.4672H43.9087H42.8467H41.7837H40.7207H39.6587V34.4052V33.3432V32.2802V31.2172V30.1552V29.0932V28.0302H40.7207H41.7837V29.0932V30.1552H42.8467H43.9087H44.9707H46.0337V31.2172H47.0967V32.2802V33.3432V34.4052H46.0337V35.4672H44.9707Z" fill="#231F20"/>
<path d="M52.4087 32.2801H53.4707V31.2181V30.1551V29.0921H52.4087H51.3467H50.2837V30.1551V31.2181H51.3467V32.2801H52.4087ZM54.5337 35.4681H53.4707V34.4051V33.3421H52.4087V34.4051H51.3467V35.4681H50.2837H49.2207H48.1587V34.4051H49.2207V33.3421H50.2837V32.2801H49.2207H48.1587V31.2181V30.1551V29.0921H49.2207V28.0301H50.2837H51.3467H52.4087H53.4707H54.5337H55.5967V29.0921V30.1551V31.2181V32.2801V33.3421V34.4051V35.4681H54.5337Z" fill="#231F20"/>
<path d="M71.5337 35.4677H70.4717H69.4087H68.3457H67.2837H66.2217H65.1587V34.4057V33.3427V32.2797V31.2177V30.1557V29.0927V28.0307H66.2217H67.2837V29.0927V30.1557V31.2177V32.2797V33.3427V34.4057H68.3457V33.3427V32.2797V31.2177V30.1557V29.0927V28.0307H69.4087V29.0927V30.1557V31.2177V32.2797V33.3427V34.4057H70.4717V33.3427V32.2797V31.2177V30.1557V29.0927V28.0307H71.5337H72.5957V29.0927V30.1557V31.2177V32.2797V33.3427V34.4057V35.4677H71.5337Z" fill="#231F20"/>
<path d="M78.9712 35.4677H77.9092H76.8462H75.7832H74.7212V34.4057H73.6592V33.3427H74.7212H75.7832V34.4057H76.8462H77.9092H78.9712V33.3427V32.2797H77.9092H76.8462H75.7832H74.7212V31.2177H73.6592V30.1557V29.0927V28.0307H74.7212H75.7832V29.0927V30.1557V31.2177H76.8462H77.9092H78.9712V30.1557V29.0927V28.0307H80.0332H81.0962V29.0927V30.1557V31.2177V32.2797V33.3427V34.4057H80.0332V35.4677H78.9712Z" fill="#231F20"/>
<path d="M85.3462 33.3427V32.2807H84.2842V33.3427V34.4047V35.4677H83.2212H82.1582V34.4047V33.3427V32.2807V31.2177V30.1547V29.0927V28.0307H83.2212H84.2842V29.0927H85.3462V30.1547H86.4082V29.0927H87.4712V28.0307H88.5342H89.5962V29.0927V30.1547V31.2177V32.2807V33.3427V34.4047V35.4677H88.5342H87.4712V34.4047V33.3427V32.2807H86.4082V33.3427H85.3462Z" fill="#231F20"/>
<path d="M97.0337 35.4677H95.9717V34.4057V33.3427V32.2797H94.9087V33.3427H93.8457V34.4057H92.7837V35.4677H91.7217H90.6587V34.4057V33.3427V32.2797V31.2177V30.1557V29.0927V28.0307H91.7217H92.7837V29.0927V30.1557V31.2177H93.8457V30.1557H94.9087V29.0927H95.9717V28.0307H97.0337H98.0957V29.0927V30.1557V31.2177V32.2797V33.3427V34.4057V35.4677H97.0337Z" fill="#231F20"/>
<path d="M105.534 35.4677H104.472V34.4057V33.3427V32.2797V31.2177V30.1557V29.0927H103.409V30.1557V31.2177V32.2797H102.346V33.3427V34.4057H101.284V35.4677H100.222H99.1587V34.4057H100.222V33.3427V32.2797H101.284V31.2177V30.1557V29.0927V28.0307H102.346H103.409H104.472H105.534H106.596V29.0927V30.1557V31.2177V32.2797V33.3427V34.4057V35.4677H105.534Z" fill="#231F20"/>
<path d="M111.909 34.4052H112.971V33.3432V32.2802V31.2172V30.1552V29.0932H111.909H110.847H109.784V30.1552V31.2172V32.2802V33.3432V34.4052H110.847H111.909ZM112.971 35.4672H111.909H110.847H109.784H108.721V34.4052H107.659V33.3432V32.2802V31.2172V30.1552V29.0932H108.721V28.0302H109.784H110.847H111.909H112.971H114.034V29.0932H115.097V30.1552V31.2172V32.2802V33.3432V34.4052H114.034V35.4672H112.971Z" fill="#231F20"/>
<path d="M120.409 34.4052H121.471V33.3432V32.2802H120.409H119.347H118.284V33.3432V34.4052H119.347H120.409ZM120.409 31.2172H121.471V30.1552V29.0932H120.409H119.347H118.284V30.1552V31.2172H119.347H120.409ZM121.471 35.4672H120.409H119.347H118.284H117.221H116.159V34.4052V33.3432V32.2802V31.2172V30.1552V29.0932V28.0302H117.221H118.284H119.347H120.409H121.471H122.534V29.0932H123.596V30.1552V31.2172H122.534V32.2802H123.596V33.3432V34.4052H122.534V35.4672H121.471Z" fill="#231F20"/>
<path d="M25.5469 51.6674C25.1969 51.6674 24.9409 51.5694 24.7779 51.3754C24.6149 51.1794 24.5339 50.9284 24.5339 50.6214V47.6954H23.0049V47.0824H24.1429C24.2969 47.0824 24.4049 47.0504 24.4669 46.9884C24.5289 46.9264 24.5609 46.8184 24.5609 46.6644V45.4644H25.2449V47.0824H27.3329V47.6954H25.2449V51.0544H27.3329V51.6674H25.5469Z" fill="#231F20"/>
<path d="M30.6919 47.5619C30.4959 47.5619 30.3159 47.5979 30.1499 47.6679C29.9839 47.7399 29.8399 47.8369 29.7189 47.9619C29.5969 48.0859 29.5029 48.2329 29.4339 48.4019C29.3659 48.5709 29.3319 48.7559 29.3319 48.9569V49.0199H31.9629V48.9209C31.9629 48.7199 31.9309 48.5369 31.8689 48.3709C31.8069 48.2049 31.7209 48.0609 31.6109 47.9389C31.5019 47.8179 31.3689 47.7249 31.2119 47.6599C31.0549 47.5949 30.8809 47.5619 30.6919 47.5619ZM30.7359 51.7739C30.4039 51.7739 30.1069 51.7179 29.8429 51.6049C29.5799 51.4929 29.3549 51.3319 29.1679 51.1209C28.9809 50.9109 28.8379 50.6589 28.7369 50.3659C28.6359 50.0719 28.5859 49.7449 28.5859 49.3839C28.5859 49.0169 28.6369 48.6849 28.7409 48.3879C28.8449 48.0919 28.9879 47.8389 29.1719 47.6279C29.3559 47.4179 29.5769 47.2569 29.8339 47.1449C30.0919 47.0319 30.3779 46.9759 30.6919 46.9759C30.9999 46.9759 31.2799 47.0319 31.5309 47.1449C31.7829 47.2569 31.9979 47.4129 32.1759 47.6109C32.3539 47.8099 32.4899 48.0449 32.5849 48.3169C32.6789 48.5899 32.7269 48.8889 32.7269 49.2149V49.5529H29.3319V49.7659C29.3319 49.9669 29.3649 50.1539 29.4299 50.3259C29.4949 50.4979 29.5879 50.6449 29.7099 50.7699C29.8309 50.8949 29.9799 50.9909 30.1539 51.0589C30.3289 51.1269 30.5229 51.1609 30.7359 51.1609C31.0439 51.1609 31.3109 51.0899 31.5359 50.9479C31.7609 50.8059 31.9329 50.6099 32.0509 50.3609L32.5759 50.7169C32.4399 51.0249 32.2129 51.2779 31.8959 51.4769C31.5789 51.6749 31.1919 51.7739 30.7359 51.7739Z" fill="#231F20"/>
<path d="M35.6054 51.1786C35.7894 51.1786 35.9564 51.1566 36.1074 51.1126C36.2584 51.0676 36.3904 51.0086 36.5024 50.9346C36.6154 50.8606 36.7034 50.7716 36.7654 50.6676C36.8274 50.5636 36.8584 50.4526 36.8584 50.3346V49.5786H35.8804C35.4544 49.5786 35.1434 49.6386 34.9474 49.7566C34.7524 49.8756 34.6544 50.0476 34.6544 50.2726V50.4586C34.6544 50.6956 34.7394 50.8746 34.9084 50.9966C35.0764 51.1176 35.3094 51.1786 35.6054 51.1786ZM37.7204 51.6676C37.4414 51.6676 37.2434 51.5956 37.1254 51.4536C37.0064 51.3116 36.9324 51.1346 36.9024 50.9206H36.8584C36.7574 51.1876 36.5964 51.3966 36.3744 51.5476C36.1524 51.6986 35.8544 51.7736 35.4804 51.7736C35.0014 51.7736 34.6194 51.6496 34.3344 51.4006C34.0504 51.1516 33.9084 50.8116 33.9084 50.3786C33.9084 49.9526 34.0634 49.6236 34.3754 49.3926C34.6864 49.1616 35.1884 49.0456 35.8804 49.0456H36.8584V48.5956C36.8584 48.2596 36.7634 48.0086 36.5744 47.8406C36.3844 47.6726 36.1154 47.5886 35.7654 47.5886C35.4574 47.5886 35.2054 47.6496 35.0104 47.7706C34.8144 47.8916 34.6574 48.0566 34.5394 48.2636L34.0594 47.9086C34.1184 47.7896 34.1984 47.6746 34.2994 47.5606C34.3994 47.4466 34.5244 47.3466 34.6724 47.2596C34.8204 47.1726 34.9894 47.1026 35.1794 47.0526C35.3684 47.0006 35.5794 46.9756 35.8104 46.9756C36.3494 46.9756 36.7764 47.1126 37.0944 47.3856C37.4114 47.6576 37.5694 48.0376 37.5694 48.5246V51.0536H38.2094V51.6676H37.7204Z" fill="#231F20"/>
<path d="M39.1333 51.6674V47.0824H39.7913V47.6154H39.8263C39.8973 47.4374 39.9983 47.2864 40.1283 47.1624C40.2583 47.0374 40.4513 46.9754 40.7063 46.9754C40.9723 46.9754 41.1713 47.0424 41.3013 47.1754C41.4313 47.3084 41.5113 47.4814 41.5413 47.6954H41.5683C41.6513 47.4874 41.7693 47.3164 41.9233 47.1794C42.0773 47.0434 42.2913 46.9754 42.5633 46.9754C42.9363 46.9754 43.1873 47.1054 43.3143 47.3664C43.4413 47.6274 43.5053 48.0004 43.5053 48.4864V51.6674H42.8473V48.6014C42.8473 48.2104 42.8073 47.9394 42.7273 47.7884C42.6483 47.6374 42.5013 47.5624 42.2883 47.5624C42.0983 47.5624 41.9443 47.6224 41.8253 47.7444C41.7073 47.8654 41.6483 48.0504 41.6483 48.2994V51.6674H40.9903V48.6014C40.9903 48.2104 40.9503 47.9394 40.8703 47.7884C40.7903 47.6374 40.6473 47.5624 40.4393 47.5624C40.2503 47.5624 40.0943 47.6224 39.9733 47.7444C39.8513 47.8654 39.7913 48.0504 39.7913 48.2994V51.6674H39.1333Z" fill="#231F20"/>
<path d="M50.0273 51.0542H51.6273V45.7042H50.0273V45.0912H52.3383V51.0542H53.9373V51.6672H50.0273V51.0542Z" fill="#231F20"/>
<path d="M57.3497 47.5619C57.1537 47.5619 56.9737 47.5979 56.8077 47.6679C56.6417 47.7399 56.4977 47.8369 56.3767 47.9619C56.2547 48.0859 56.1607 48.2329 56.0917 48.4019C56.0237 48.5709 55.9897 48.7559 55.9897 48.9569V49.0199H58.6207V48.9209C58.6207 48.7199 58.5887 48.5369 58.5267 48.3709C58.4647 48.2049 58.3787 48.0609 58.2687 47.9389C58.1597 47.8179 58.0267 47.7249 57.8697 47.6599C57.7127 47.5949 57.5387 47.5619 57.3497 47.5619ZM57.3937 51.7739C57.0617 51.7739 56.7647 51.7179 56.5007 51.6049C56.2377 51.4929 56.0127 51.3319 55.8257 51.1209C55.6387 50.9109 55.4957 50.6589 55.3947 50.3659C55.2937 50.0719 55.2437 49.7449 55.2437 49.3839C55.2437 49.0169 55.2947 48.6849 55.3987 48.3879C55.5027 48.0919 55.6457 47.8389 55.8297 47.6279C56.0137 47.4179 56.2347 47.2569 56.4917 47.1449C56.7497 47.0319 57.0357 46.9759 57.3497 46.9759C57.6577 46.9759 57.9377 47.0319 58.1887 47.1449C58.4407 47.2569 58.6557 47.4129 58.8337 47.6109C59.0117 47.8099 59.1477 48.0449 59.2427 48.3169C59.3367 48.5899 59.3847 48.8889 59.3847 49.2149V49.5529H55.9897V49.7659C55.9897 49.9669 56.0227 50.1539 56.0877 50.3259C56.1527 50.4979 56.2457 50.6449 56.3677 50.7699C56.4887 50.8949 56.6377 50.9909 56.8117 51.0589C56.9867 51.1269 57.1807 51.1609 57.3937 51.1609C57.7017 51.1609 57.9687 51.0899 58.1937 50.9479C58.4187 50.8059 58.5907 50.6099 58.7087 50.3609L59.2337 50.7169C59.0977 51.0249 58.8707 51.2779 58.5537 51.4769C58.2367 51.6749 57.8497 51.7739 57.3937 51.7739Z" fill="#231F20"/>
<path d="M62.2632 51.1786C62.4472 51.1786 62.6142 51.1566 62.7652 51.1126C62.9162 51.0676 63.0482 51.0086 63.1602 50.9346C63.2732 50.8606 63.3612 50.7716 63.4232 50.6676C63.4852 50.5636 63.5162 50.4526 63.5162 50.3346V49.5786H62.5382C62.1122 49.5786 61.8012 49.6386 61.6052 49.7566C61.4102 49.8756 61.3122 50.0476 61.3122 50.2726V50.4586C61.3122 50.6956 61.3972 50.8746 61.5662 50.9966C61.7342 51.1176 61.9672 51.1786 62.2632 51.1786ZM64.3782 51.6676C64.0992 51.6676 63.9012 51.5956 63.7832 51.4536C63.6642 51.3116 63.5902 51.1346 63.5602 50.9206H63.5162C63.4152 51.1876 63.2542 51.3966 63.0322 51.5476C62.8102 51.6986 62.5122 51.7736 62.1382 51.7736C61.6592 51.7736 61.2772 51.6496 60.9922 51.4006C60.7082 51.1516 60.5662 50.8116 60.5662 50.3786C60.5662 49.9526 60.7212 49.6236 61.0332 49.3926C61.3442 49.1616 61.8462 49.0456 62.5382 49.0456H63.5162V48.5956C63.5162 48.2596 63.4212 48.0086 63.2322 47.8406C63.0422 47.6726 62.7732 47.5886 62.4232 47.5886C62.1152 47.5886 61.8632 47.6496 61.6682 47.7706C61.4722 47.8916 61.3152 48.0566 61.1972 48.2636L60.7172 47.9086C60.7762 47.7896 60.8562 47.6746 60.9572 47.5606C61.0572 47.4466 61.1822 47.3466 61.3302 47.2596C61.4782 47.1726 61.6472 47.1026 61.8372 47.0526C62.0262 47.0006 62.2372 46.9756 62.4682 46.9756C63.0072 46.9756 63.4342 47.1126 63.7522 47.3856C64.0692 47.6576 64.2272 48.0376 64.2272 48.5246V51.0536H64.8672V51.6676H64.3782Z" fill="#231F20"/>
<path d="M67.9145 51.1429C68.0745 51.1429 68.2255 51.1219 68.3685 51.0809C68.5105 51.0389 68.6345 50.9789 68.7415 50.8989C68.8475 50.8189 68.9325 50.7209 68.9945 50.6049C69.0565 50.4899 69.0875 50.3549 69.0875 50.2009V48.5479C69.0875 48.3939 69.0565 48.2599 68.9945 48.1439C68.9325 48.0279 68.8475 47.9309 68.7415 47.8509C68.6345 47.7709 68.5105 47.7099 68.3685 47.6679C68.2255 47.6269 68.0745 47.6059 67.9145 47.6059C67.4995 47.6059 67.1785 47.7319 66.9505 47.9839C66.7225 48.2359 66.6085 48.5689 66.6085 48.9839V49.7659C66.6085 50.1809 66.7225 50.5139 66.9505 50.7659C67.1785 51.0179 67.4995 51.1429 67.9145 51.1429ZM69.0875 50.9209H69.0525C68.7555 51.4899 68.2855 51.7739 67.6395 51.7739C67.0765 51.7739 66.6365 51.5639 66.3195 51.1429C66.0025 50.7229 65.8445 50.1329 65.8445 49.3749C65.8445 48.6169 66.0025 48.0269 66.3195 47.6059C66.6365 47.1859 67.0765 46.9759 67.6395 46.9759C68.2855 46.9759 68.7555 47.2599 69.0525 47.8289H69.0875V45.0909H69.7985V51.6669H69.0875V50.9209Z" fill="#231F20"/>
<path d="M72.9263 50.4589H74.0723L73.0513 52.9199H72.4553L72.9263 50.4589Z" fill="#231F20"/>
<path d="M83.5893 51.1786C83.7733 51.1786 83.9403 51.1566 84.0913 51.1126C84.2423 51.0676 84.3743 51.0086 84.4863 50.9346C84.5993 50.8606 84.6873 50.7716 84.7493 50.6676C84.8113 50.5636 84.8423 50.4526 84.8423 50.3346V49.5786H83.8643C83.4383 49.5786 83.1273 49.6386 82.9313 49.7566C82.7363 49.8756 82.6383 50.0476 82.6383 50.2726V50.4586C82.6383 50.6956 82.7233 50.8746 82.8923 50.9966C83.0603 51.1176 83.2933 51.1786 83.5893 51.1786ZM85.7043 51.6676C85.4253 51.6676 85.2273 51.5956 85.1093 51.4536C84.9903 51.3116 84.9163 51.1346 84.8863 50.9206H84.8423C84.7413 51.1876 84.5803 51.3966 84.3583 51.5476C84.1363 51.6986 83.8383 51.7736 83.4643 51.7736C82.9853 51.7736 82.6033 51.6496 82.3183 51.4006C82.0343 51.1516 81.8923 50.8116 81.8923 50.3786C81.8923 49.9526 82.0473 49.6236 82.3593 49.3926C82.6703 49.1616 83.1723 49.0456 83.8643 49.0456H84.8423V48.5956C84.8423 48.2596 84.7473 48.0086 84.5583 47.8406C84.3683 47.6726 84.0993 47.5886 83.7493 47.5886C83.4413 47.5886 83.1893 47.6496 82.9943 47.7706C82.7983 47.8916 82.6413 48.0566 82.5233 48.2636L82.0433 47.9086C82.1023 47.7896 82.1823 47.6746 82.2833 47.5606C82.3833 47.4466 82.5083 47.3466 82.6563 47.2596C82.8043 47.1726 82.9733 47.1026 83.1633 47.0526C83.3523 47.0006 83.5633 46.9756 83.7943 46.9756C84.3333 46.9756 84.7603 47.1126 85.0783 47.3856C85.3953 47.6576 85.5533 48.0376 85.5533 48.5246V51.0536H86.1933V51.6676H85.7043Z" fill="#231F20"/>
<path d="M89.3652 51.1429C89.7802 51.1429 90.1012 51.0179 90.3292 50.7659C90.5572 50.5139 90.6722 50.1809 90.6722 49.7659V48.9839C90.6722 48.5689 90.5572 48.2359 90.3292 47.9839C90.1012 47.7319 89.7802 47.6059 89.3652 47.6059C89.2052 47.6059 89.0542 47.6269 88.9122 47.6679C88.7702 47.7099 88.6452 47.7709 88.5392 47.8509C88.4322 47.9309 88.3472 48.0279 88.2852 48.1439C88.2232 48.2599 88.1922 48.3939 88.1922 48.5479V50.2009C88.1922 50.3549 88.2232 50.4899 88.2852 50.6049C88.3472 50.7209 88.4322 50.8189 88.5392 50.8989C88.6452 50.9789 88.7702 51.0389 88.9122 51.0809C89.0542 51.1219 89.2052 51.1429 89.3652 51.1429ZM87.4812 47.0819H88.1922V47.8289H88.2282C88.5242 47.2599 88.9952 46.9759 89.6402 46.9759C90.2032 46.9759 90.6432 47.1859 90.9602 47.6059C91.2772 48.0269 91.4362 48.6169 91.4362 49.3749C91.4362 50.1329 91.2772 50.7229 90.9602 51.1429C90.6432 51.5639 90.2032 51.7739 89.6402 51.7739C88.9952 51.7739 88.5242 51.4899 88.2282 50.9209H88.1922V53.4449H87.4812V47.0819Z" fill="#231F20"/>
<path d="M92.5107 51.6674L94.2167 49.3394L92.5547 47.0824H93.4077L94.1017 48.0504L94.6527 48.8144H94.6877L95.2207 48.0504L95.9057 47.0824H96.7227L95.0437 49.3304L96.7677 51.6674H95.9147L95.1407 50.5924L94.6167 49.8634H94.5817L94.0747 50.5924L93.3287 51.6674H92.5107Z" fill="#231F20"/>
<path d="M98.1445 47.0819H98.8555V49.4189L98.7845 50.5919H98.8195L101.122 47.0819H101.789V51.6669H101.078V49.3309L101.148 48.1569H101.113L98.8115 51.6669H98.1445V47.0819Z" fill="#231F20"/>
<path d="M104.942 47.6952H103.254V47.0822H107.341V47.6952H105.653V51.6672H104.942V47.6952Z" fill="#231F20"/>
<path d="M110.665 47.5619C110.469 47.5619 110.289 47.5979 110.123 47.6679C109.957 47.7399 109.813 47.8369 109.692 47.9619C109.57 48.0859 109.476 48.2329 109.407 48.4019C109.339 48.5709 109.305 48.7559 109.305 48.9569V49.0199H111.936V48.9209C111.936 48.7199 111.904 48.5369 111.842 48.3709C111.78 48.2049 111.694 48.0609 111.584 47.9389C111.475 47.8179 111.342 47.7249 111.185 47.6599C111.028 47.5949 110.854 47.5619 110.665 47.5619ZM110.709 51.7739C110.377 51.7739 110.08 51.7179 109.816 51.6049C109.553 51.4929 109.328 51.3319 109.141 51.1209C108.954 50.9109 108.811 50.6589 108.71 50.3659C108.609 50.0719 108.559 49.7449 108.559 49.3839C108.559 49.0169 108.61 48.6849 108.714 48.3879C108.818 48.0919 108.961 47.8389 109.145 47.6279C109.329 47.4179 109.55 47.2569 109.807 47.1449C110.065 47.0319 110.351 46.9759 110.665 46.9759C110.973 46.9759 111.253 47.0319 111.504 47.1449C111.756 47.2569 111.971 47.4129 112.149 47.6109C112.327 47.8099 112.463 48.0449 112.558 48.3169C112.652 48.5899 112.7 48.8889 112.7 49.2149V49.5529H109.305V49.7659C109.305 49.9669 109.338 50.1539 109.403 50.3259C109.468 50.4979 109.561 50.6449 109.683 50.7699C109.804 50.8949 109.953 50.9909 110.127 51.0589C110.302 51.1269 110.496 51.1609 110.709 51.1609C111.017 51.1609 111.284 51.0899 111.509 50.9479C111.734 50.8059 111.906 50.6099 112.024 50.3609L112.549 50.7169C112.413 51.0249 112.186 51.2779 111.869 51.4769C111.552 51.6749 111.165 51.7739 110.709 51.7739Z" fill="#231F20"/>
<path d="M114.246 47.0819H114.957V48.9929H115.934L117.17 47.0819H117.907L116.788 48.8199C116.687 48.9739 116.598 49.0819 116.521 49.1439C116.444 49.2059 116.352 49.2519 116.246 49.2809V49.3159C116.364 49.3339 116.465 49.3739 116.548 49.4359C116.631 49.4989 116.717 49.6059 116.806 49.7599L117.552 51.0539H118.067V51.6669H117.552C117.398 51.6669 117.265 51.6259 117.152 51.5429C117.039 51.4599 116.927 51.3239 116.814 51.1339L115.934 49.6059H114.957V51.6669H114.246V47.0819Z" fill="#231F20"/>
<path d="M120.937 47.6952H119.249V47.0822H123.336V47.6952H121.648V51.6672H120.937V47.6952Z" fill="#231F20"/>
<path d="M126.624 51.161C127.02 51.161 127.341 51.042 127.584 50.806C127.826 50.569 127.948 50.201 127.948 49.703V49.046C127.948 48.548 127.826 48.181 127.584 47.944C127.341 47.707 127.02 47.588 126.624 47.588C126.227 47.588 125.907 47.707 125.664 47.944C125.421 48.181 125.3 48.548 125.3 49.046V49.703C125.3 50.201 125.421 50.569 125.664 50.806C125.907 51.042 126.227 51.161 126.624 51.161ZM126.624 51.774C126.304 51.774 126.016 51.718 125.758 51.605C125.5 51.493 125.28 51.331 125.1 51.121C124.919 50.911 124.781 50.659 124.687 50.366C124.592 50.072 124.545 49.742 124.545 49.375C124.545 49.014 124.592 48.684 124.687 48.388C124.781 48.092 124.919 47.839 125.1 47.628C125.28 47.418 125.5 47.257 125.758 47.144C126.016 47.032 126.304 46.975 126.624 46.975C126.944 46.975 127.232 47.032 127.49 47.144C127.748 47.257 127.967 47.418 128.148 47.628C128.328 47.839 128.467 48.092 128.561 48.388C128.656 48.684 128.703 49.014 128.703 49.375C128.703 49.742 128.656 50.072 128.561 50.366C128.467 50.659 128.328 50.911 128.148 51.121C127.967 51.331 127.748 51.493 127.49 51.605C127.232 51.718 126.944 51.774 126.624 51.774Z" fill="#231F20"/>
<path d="M132.019 51.1429C132.433 51.1429 132.754 51.0179 132.983 50.7659C133.21 50.5139 133.325 50.1809 133.325 49.7659V48.9839C133.325 48.5689 133.21 48.2359 132.983 47.9839C132.754 47.7319 132.433 47.6059 132.019 47.6059C131.859 47.6059 131.707 47.6269 131.566 47.6679C131.423 47.7099 131.299 47.7709 131.192 47.8509C131.085 47.9309 131.001 48.0279 130.939 48.1439C130.876 48.2599 130.845 48.3939 130.845 48.5479V50.2009C130.845 50.3549 130.876 50.4899 130.939 50.6049C131.001 50.7209 131.085 50.8189 131.192 50.8989C131.299 50.9789 131.423 51.0389 131.566 51.0809C131.707 51.1219 131.859 51.1429 132.019 51.1429ZM130.134 47.0819H130.845V47.8289H130.881C131.177 47.2599 131.648 46.9759 132.294 46.9759C132.857 46.9759 133.296 47.1859 133.614 47.6059C133.93 48.0269 134.089 48.6169 134.089 49.3749C134.089 50.1329 133.93 50.7229 133.614 51.1429C133.296 51.5639 132.857 51.7739 132.294 51.7739C131.648 51.7739 131.177 51.4899 130.881 50.9209H130.845V53.4449H130.134V47.0819Z" fill="#231F20"/>
<path d="M194.714 32.4886H195.464V33.2386H194.714H193.964H193.214H192.464H191.714H190.964V32.4886H191.714H192.464V31.7386V30.9886V30.2386V29.4886V28.7386H191.714H190.964V27.9886H191.714H192.464H193.214H193.964H194.714H195.464V28.7386H194.714H193.964V29.4886V30.2386V30.9886V31.7386V32.4886H194.714Z" fill="#27AAE1"/>
<path d="M199.214 33.2386H198.464V32.4886V31.7386V30.9886V30.2386V29.4886V28.7386H197.714H196.964V27.9886H197.714H198.464H199.214H199.964H200.714H201.464V28.7386H200.714H199.964V29.4886V30.2386V30.9886V31.7386V32.4886V33.2386H199.214Z" fill="#27AAE1"/>
<path d="M206.714 31.7386H205.964H205.214H204.464H203.714H202.964V30.9886V30.2386H203.714H204.464H205.214H205.964H206.714H207.464V30.9886V31.7386H206.714Z" fill="#27AAE1"/>
<path d="M211.214 30.9886H211.964V30.2386V29.4886H211.214V28.7386H210.464V29.4886H209.714V30.2386V30.9886H210.464H211.214ZM212.714 33.2386H211.964V32.4886V31.7386H211.214H210.464H209.714V32.4886V33.2386H208.964H208.214V32.4886V31.7386V30.9886V30.2386V29.4886H208.964V28.7386H209.714V27.9886H210.464H211.214H211.964V28.7386H212.714V29.4886H213.464V30.2386V30.9886V31.7386V32.4886V33.2386H212.714Z" fill="#27AAE1"/>
<path d="M218.714 33.2386H217.964V32.4886H217.214V31.7386H216.464V30.9886H215.714V31.7386V32.4886V33.2386H214.964H214.214V32.4886V31.7386V30.9886V30.2386V29.4886V28.7386V27.9886H214.964H215.714V28.7386H216.464V29.4886H217.214V30.2386H217.964V29.4886V28.7386V27.9886H218.714H219.464V28.7386V29.4886V30.2386V30.9886V31.7386V32.4886V33.2386H218.714Z" fill="#27AAE1"/>
<path d="M224.714 32.4886H225.464V33.2386H224.714H223.964H223.214H222.464H221.714H220.964V32.4886H221.714H222.464V31.7386V30.9886V30.2386V29.4886V28.7386H221.714H220.964V27.9886H221.714H222.464H223.214H223.964H224.714H225.464V28.7386H224.714H223.964V29.4886V30.2386V30.9886V31.7386V32.4886H224.714Z" fill="#27AAE1"/>
<path d="M228.464 31.7386V30.9886H227.714V31.7386V32.4886V33.2386H226.964H226.214V32.4886V31.7386V30.9886V30.2386V29.4886V28.7386V27.9886H226.964H227.714V28.7386H228.464V29.4886H229.214V28.7386H229.964V27.9886H230.714H231.464V28.7386V29.4886V30.2386V30.9886V31.7386V32.4886V33.2386H230.714H229.964V32.4886V31.7386V30.9886H229.214V31.7386H228.464Z" fill="#27AAE1"/>
<path d="M235.214 30.9886H235.964V30.2386V29.4886H235.214V28.7386H234.464V29.4886H233.714V30.2386V30.9886H234.464H235.214ZM236.714 33.2386H235.964V32.4886V31.7386H235.214H234.464H233.714V32.4886V33.2386H232.964H232.214V32.4886V31.7386V30.9886V30.2386V29.4886H232.964V28.7386H233.714V27.9886H234.464H235.214H235.964V28.7386H236.714V29.4886H237.464V30.2386V30.9886V31.7386V32.4886V33.2386H236.714Z" fill="#27AAE1"/>
<path d="M242.714 32.4886H243.464V33.2386H242.714H241.964H241.214H240.464H239.714H238.964H238.214V32.4886V31.7386V30.9886V30.2386V29.4886V28.7386V27.9886H238.964H239.714V28.7386V29.4886V30.2386V30.9886V31.7386V32.4886H240.464H241.214H241.964H242.714Z" fill="#27AAE1"/>
<path d="M247.964 33.2386H247.214H246.464H245.714H244.964V32.4886H244.214V31.7386H244.964H245.714V32.4886H246.464H247.214H247.964V31.7386V30.9886H247.214H246.464H245.714H244.964V30.2386H244.214V29.4886V28.7386H244.964V27.9886H245.714H246.464H247.214H247.964V28.7386H248.714V29.4886H247.964H247.214V28.7386H246.464H245.714V29.4886V30.2386H246.464H247.214H247.964H248.714V30.9886H249.464V31.7386V32.4886H248.714V33.2386H247.964Z" fill="#27AAE1"/>
<path d="M224.273 132.425V135.572H233.713V132.425H227.42H224.273Z" fill="#3C4E57"/>
<path d="M224.273 110.397H227.42V107.25H224.273V110.397Z" fill="#EFD8B9"/>
<path d="M224.273 107.25H227.42V82.0751H224.273V107.25Z" fill="#3C4E57"/>
<path d="M224.273 72.634H227.42V69.487H224.273V72.634Z" fill="#775034"/>
<path d="M224.273 66.34H227.42V60.046H224.273V66.34Z" fill="#775034"/>
<path d="M227.421 82.0746V107.25H233.714H240.008H246.302V82.0746H240.008V85.2216H236.861V88.3686H233.714V85.2216V82.0746H227.421Z" fill="#3C4E57"/>
<path d="M230.567 75.781H240.007V72.634H230.567V75.781Z" fill="#F9F8F4"/>
<path d="M230.567 69.4871H233.713V66.3401H230.567V69.4871Z" fill="#3C4E57"/>
<path d="M233.714 53.7528V56.8998H236.861H243.155V60.0458H227.421V56.8998V53.7528H233.714Z" fill="#775034"/>
<path d="M240.008 82.0746V92.2386H236.862V99.2546H233.714V92.2386V85.2216V82.0746H240.008Z" fill="#F15B2B"/>
<path d="M236.861 132.425V135.572H246.301V132.425H240.007H236.861Z" fill="#3C4E57"/>
<path d="M236.861 69.4871H240.007V66.3401H236.861V69.4871Z" fill="#3C4E57"/>
<path d="M233.714 107.25H240.008H246.302V110.397V132.425H240.008V110.397H233.714V132.425H227.421V110.397V107.25H233.714Z" fill="#5D8CA1"/>
<path d="M243.155 72.634H246.301V69.487H243.155V72.634Z" fill="#775034"/>
<path d="M230.567 66.34H233.713V69.487H230.567V66.34ZM230.567 72.634H240.007V75.781H230.567V72.634ZM240.008 69.487H236.862V66.34H240.008V69.487ZM224.273 66.34V69.487H227.421V72.634V78.928H233.714V82.075H240.008V78.928H243.155V72.634V69.487H246.302V66.34H243.155V60.046H227.421V66.34H224.273Z" fill="#EFD8B9"/>
<path d="M243.155 66.34H246.301V60.046H243.155V66.34Z" fill="#775034"/>
<path d="M246.302 110.397H249.449V107.25H246.302V110.397Z" fill="#EFD8B9"/>
<path d="M246.302 107.25H249.449V82.0751H246.302V107.25Z" fill="#3C4E57"/>
<path d="M227.421 75.781H243.155V78.927H227.421V75.781Z" fill="#99745D"/>
<path d="M227.421 78.928H230.567V72.635H227.421V78.928Z" fill="#99745D"/>
<path d="M240.008 78.928H243.155V72.635H240.008V78.928Z" fill="#99745D"/>
</svg>
