<svg width="273" height="159" viewBox="0 0 273 159" fill="none" xmlns="http://www.w3.org/2000/svg">
    <path d="M249.449 135.572H22.8408V27.983H249.449V135.572Z" fill="rgba(255,255,255,0.8)"/>
<path d="M24.2905 124.966H23.5405V124.216V123.466V122.716V121.966V121.216V120.466H22.7905H22.0405V119.716H22.7905H23.5405H24.2905H25.0405H25.7905H26.5405V120.466H25.7905H25.0405V121.216V121.966V122.716V123.466V124.216V124.966H24.2905Z" fill="#27AAE1"/>
<path d="M31.7905 124.216H32.5405V124.966H31.7905H31.0405H30.2905H29.5405H28.7905H28.0405H27.2905V124.216V123.466V122.716V121.966V121.216V120.466V119.716H28.0405H28.7905H29.5405H30.2905H31.0405H31.7905H32.5405V120.466H31.7905H31.0405H30.2905H29.5405H28.7905V121.216V121.966H29.5405H30.2905H31.0405H31.7905V122.716H31.0405H30.2905H29.5405H28.7905V123.466V124.216H29.5405H30.2905H31.0405H31.7905Z" fill="#27AAE1"/>
<path d="M37.7905 124.216H38.5405V124.966H37.7905H37.0405H36.2905H35.5405H34.7905H34.0405H33.2905V124.216V123.466V122.716V121.966V121.216V120.466V119.716H34.0405H34.7905V120.466V121.216V121.966V122.716V123.466V124.216H35.5405H36.2905H37.0405H37.7905Z" fill="#27AAE1"/>
<path d="M43.7905 124.216H44.5405V124.966H43.7905H43.0405H42.2905H41.5405H40.7905H40.0405H39.2905V124.216V123.466V122.716V121.966V121.216V120.466V119.716H40.0405H40.7905H41.5405H42.2905H43.0405H43.7905H44.5405V120.466H43.7905H43.0405H42.2905H41.5405H40.7905V121.216V121.966H41.5405H42.2905H43.0405H43.7905V122.716H43.0405H42.2905H41.5405H40.7905V123.466V124.216H41.5405H42.2905H43.0405H43.7905Z" fill="#27AAE1"/>
<path d="M49.7905 124.966H49.0405H48.2905H47.5405H46.7905V124.216H46.0405V123.466H45.2905V122.716V121.966V121.216H46.0405V120.466H46.7905V119.716H47.5405H48.2905H49.0405H49.7905H50.5405V120.466H49.7905H49.0405H48.2905H47.5405V121.216H46.7905V121.966V122.716V123.466H47.5405V124.216H48.2905H49.0405V123.466V122.716H48.2905V121.966H49.0405H49.7905H50.5405V122.716V123.466V124.216V124.966H49.7905Z" fill="#27AAE1"/>
<path d="M53.5405 122.716H54.2905V121.966H55.0405V121.216V120.466H54.2905H53.5405H52.7905V121.216V121.966V122.716H53.5405ZM55.7905 124.966H55.0405H54.2905V124.216H53.5405V123.466H52.7905V124.216V124.966H52.0405H51.2905V124.216V123.466V122.716V121.966V121.216V120.466V119.716H52.0405H52.7905H53.5405H54.2905H55.0405H55.7905V120.466H56.5405V121.216V121.966V122.716H55.7905H55.0405V123.466H55.7905V124.216H56.5405V124.966H55.7905Z" fill="#27AAE1"/>
<path d="M60.2905 122.716H61.0405V121.966V121.216H60.2905V120.466H59.5405V121.216H58.7905V121.966V122.716H59.5405H60.2905ZM61.7905 124.966H61.0405V124.216V123.466H60.2905H59.5405H58.7905V124.216V124.966H58.0405H57.2905V124.216V123.466V122.716V121.966V121.216H58.0405V120.466H58.7905V119.716H59.5405H60.2905H61.0405V120.466H61.7905V121.216H62.5405V121.966V122.716V123.466V124.216V124.966H61.7905Z" fill="#27AAE1"/>
<path d="M65.5405 123.466V122.716H64.7905V123.466V124.216V124.966H64.0405H63.2905V124.216V123.466V122.716V121.966V121.216V120.466V119.716H64.0405H64.7905V120.466H65.5405V121.216H66.2905V120.466H67.0405V119.716H67.7905H68.5405V120.466V121.216V121.966V122.716V123.466V124.216V124.966H67.7905H67.0405V124.216V123.466V122.716H66.2905V123.466H65.5405Z" fill="#27AAE1"/>
<path d="M72.2905 124.216H71.5405V123.466V122.716H72.2905H73.0405V123.466V124.216H72.2905ZM72.2905 121.966H71.5405V121.216V120.466H72.2905H73.0405V121.216V121.966H72.2905Z" fill="#27AAE1"/>
<path d="M88.0068 121.966H87.2568V122.716H88.0068V121.966ZM89.5068 123.466H88.7568H88.0068H87.2568H86.5068V122.716V121.966V121.216H87.2568H88.0068H88.7568V121.966V122.716H89.5068V121.966V121.216V120.466H90.2568V121.216V121.966V122.716V123.466H89.5068ZM88.7568 124.216H89.5068V124.966H88.7568H88.0068H87.2568H86.5068H85.7568V124.216H86.5068H87.2568H88.0068H88.7568ZM89.5068 120.466H88.7568H88.0068H87.2568H86.5068H85.7568V119.716H86.5068H87.2568H88.0068H88.7568H89.5068V120.466ZM85.7568 124.216H85.0068V123.466V122.716V121.966V121.216V120.466H85.7568V121.216V121.966V122.716V123.466V124.216Z" fill="#27AAE1"/>
<path d="M95.5073 124.966H94.7573H94.0073V124.216H93.2573V123.466H92.5073V124.216V124.966H91.7573H91.0073V124.216V123.466V122.716V121.966V121.216V120.466V119.716H91.7573H92.5073V120.466V121.216V121.966H93.2573V121.216H94.0073V120.466H94.7573V119.716H95.5073H96.2573V120.466H95.5073V121.216H94.7573V121.966H94.0073V122.716H94.7573V123.466H95.5073V124.216H96.2573V124.966H95.5073Z" fill="#27AAE1"/>
<path d="M100.007 122.716H100.757V121.966V121.216H100.007V120.466H99.2573V121.216H98.5073V121.966V122.716H99.2573H100.007ZM101.507 124.966H100.757V124.216V123.466H100.007H99.2573H98.5073V124.216V124.966H97.7573H97.0073V124.216V123.466V122.716V121.966V121.216H97.7573V120.466H98.5073V119.716H99.2573H100.007H100.757V120.466H101.507V121.216H102.257V121.966V122.716V123.466V124.216V124.966H101.507Z" fill="#27AAE1"/>
<path d="M107.507 124.216H108.257V124.966H107.507H106.757H106.007H105.257H104.507H103.757H103.007V124.216V123.466V122.716V121.966V121.216V120.466V119.716H103.757H104.507V120.466V121.216V121.966V122.716V123.466V124.216H105.257H106.007H106.757H107.507Z" fill="#27AAE1"/>
<path d="M113.507 124.216H114.257V124.966H113.507H112.757H112.007H111.257H110.507H109.757V124.216H110.507H111.257V123.466V122.716V121.966V121.216V120.466H110.507H109.757V119.716H110.507H111.257H112.007H112.757H113.507H114.257V120.466H113.507H112.757V121.216V121.966V122.716V123.466V124.216H113.507Z" fill="#27AAE1"/>
<path d="M119.507 124.966H118.757V124.216H118.007V123.466H117.257V122.716H116.507V123.466V124.216V124.966H115.757H115.007V124.216V123.466V122.716V121.966V121.216V120.466V119.716H115.757H116.507V120.466H117.257V121.216H118.007V121.966H118.757V121.216V120.466V119.716H119.507H120.257V120.466V121.216V121.966V122.716V123.466V124.216V124.966H119.507Z" fill="#27AAE1"/>
<path d="M124.758 124.966H124.008H123.258H122.508H121.758V124.216H121.008V123.466H121.758H122.508V124.216H123.258H124.008H124.758V123.466V122.716H124.008H123.258H122.508H121.758V121.966H121.008V121.216V120.466H121.758V119.716H122.508H123.258H124.008H124.758V120.466H125.508V121.216H124.758H124.008V120.466H123.258H122.508V121.216V121.966H123.258H124.008H124.758H125.508V122.716H126.258V123.466V124.216H125.508V124.966H124.758Z" fill="#27AAE1"/>
<path d="M130.758 124.966H130.008H129.258H128.508H127.758V124.216H127.008V123.466H127.758H128.508V124.216H129.258H130.008H130.758V123.466V122.716H130.008H129.258H128.508H127.758V121.966H127.008V121.216V120.466H127.758V119.716H128.508H129.258H130.008H130.758V120.466H131.508V121.216H130.758H130.008V120.466H129.258H128.508V121.216V121.966H129.258H130.008H130.758H131.508V122.716H132.258V123.466V124.216H131.508V124.966H130.758Z" fill="#27AAE1"/>
<path d="M137.508 124.216H138.258V124.966H137.508H136.758H136.008H135.258H134.508H133.758V124.216H134.508H135.258V123.466V122.716V121.966V121.216H134.508V120.466H135.258V119.716H136.008H136.758V120.466V121.216V121.966V122.716V123.466V124.216H137.508Z" fill="#27AAE1"/>
<path d="M142.008 124.216H142.758V123.466V122.716H142.008H141.258H140.508V123.466V124.216H141.258H142.008ZM142.758 124.966H142.008H141.258H140.508H139.758V124.216H139.008V123.466V122.716V121.966V121.216H139.758V120.466H140.508V119.716H141.258H142.008H142.758H143.508V120.466H142.758H142.008H141.258V121.216H140.508V121.966H141.258H142.008H142.758H143.508V122.716H144.258V123.466V124.216H143.508V124.966H142.758Z" fill="#27AAE1"/>
<path d="M27.1587 133.965H27.9087V134.715H27.1587H26.4087H25.6587H24.9087H24.1587H23.4087H22.6587V133.965V133.215V132.465V131.715V130.965V130.215V129.465H23.4087H24.1587H24.9087H25.6587H26.4087H27.1587H27.9087V130.215H27.1587H26.4087H25.6587H24.9087H24.1587V130.965V131.715H24.9087H25.6587H26.4087H27.1587V132.465H26.4087H25.6587H24.9087H24.1587V133.215V133.965H24.9087H25.6587H26.4087H27.1587Z" fill="#27AAE1"/>
<path d="M33.1587 133.215H32.4087H31.6587H30.9087H30.1587H29.4087V132.465V131.715H30.1587H30.9087H31.6587H32.4087H33.1587H33.9087V132.465V133.215H33.1587Z" fill="#27AAE1"/>
<path d="M36.9087 133.215V132.465H36.1587V133.215V133.965V134.715H35.4087H34.6587V133.965V133.215V132.465V131.715V130.965V130.215V129.465H35.4087H36.1587V130.215H36.9087V130.965H37.6587V130.215H38.4087V129.465H39.1587H39.9087V130.215V130.965V131.715V132.465V133.215V133.965V134.715H39.1587H38.4087V133.965V133.215V132.465H37.6587V133.215H36.9087Z" fill="#27AAE1"/>
<path d="M43.6587 132.465H44.4087V131.715V130.965H43.6587V130.215H42.9087V130.965H42.1587V131.715V132.465H42.9087H43.6587ZM45.1587 134.715H44.4087V133.965V133.215H43.6587H42.9087H42.1587V133.965V134.715H41.4087H40.6587V133.965V133.215V132.465V131.715V130.965H41.4087V130.215H42.1587V129.465H42.9087H43.6587H44.4087V130.215H45.1587V130.965H45.9087V131.715V132.465V133.215V133.965V134.715H45.1587Z" fill="#27AAE1"/>
<path d="M51.1587 133.965H51.9087V134.715H51.1587H50.4087H49.6587H48.9087H48.1587H47.4087V133.965H48.1587H48.9087V133.215V132.465V131.715V130.965V130.215H48.1587H47.4087V129.465H48.1587H48.9087H49.6587H50.4087H51.1587H51.9087V130.215H51.1587H50.4087V130.965V131.715V132.465V133.215V133.965H51.1587Z" fill="#27AAE1"/>
<path d="M57.1587 133.965H57.9087V134.715H57.1587H56.4087H55.6587H54.9087H54.1587H53.4087H52.6587V133.965V133.215V132.465V131.715V130.965V130.215V129.465H53.4087H54.1587V130.215V130.965V131.715V132.465V133.215V133.965H54.9087H55.6587H56.4087H57.1587Z" fill="#27AAE1"/>
<path d="M61.6587 133.965H60.9087V133.215V132.465H61.6587H62.4087V133.215V133.965H61.6587ZM61.6587 131.715H60.9087V130.965V130.215H61.6587H62.4087V130.965V131.715H61.6587Z" fill="#27AAE1"/>
<path d="M89.5068 134.715H88.7568H88.0068V133.965H87.2568V133.215H86.5068V133.965V134.715H85.7568H85.0068V133.965V133.215V132.465V131.715V130.965V130.215V129.465H85.7568H86.5068V130.215V130.965V131.715H87.2568V130.965H88.0068V130.215H88.7568V129.465H89.5068H90.2568V130.215H89.5068V130.965H88.7568V131.715H88.0068V132.465H88.7568V133.215H89.5068V133.965H90.2568V134.715H89.5068Z" fill="#27AAE1"/>
<path d="M94.0068 132.465H94.7568V131.715V130.965H94.0068V130.215H93.2568V130.965H92.5068V131.715V132.465H93.2568H94.0068ZM95.5068 134.715H94.7568V133.965V133.215H94.0068H93.2568H92.5068V133.965V134.715H91.7568H91.0068V133.965V133.215V132.465V131.715V130.965H91.7568V130.215H92.5068V129.465H93.2568H94.0068H94.7568V130.215H95.5068V130.965H96.2568V131.715V132.465V133.215V133.965V134.715H95.5068Z" fill="#27AAE1"/>
<path d="M101.507 133.965H102.257V134.715H101.507H100.757H100.007H99.2568H98.5068H97.7568H97.0068V133.965V133.215V132.465V131.715V130.965V130.215V129.465H97.7568H98.5068V130.215V130.965V131.715V132.465V133.215V133.965H99.2568H100.007H100.757H101.507Z" fill="#27AAE1"/>
<path d="M107.507 133.965H108.257V134.715H107.507H106.757H106.007H105.257H104.507H103.757V133.965H104.507H105.257V133.215V132.465V131.715V130.965V130.215H104.507H103.757V129.465H104.507H105.257H106.007H106.757H107.507H108.257V130.215H107.507H106.757V130.965V131.715V132.465V133.215V133.965H107.507Z" fill="#27AAE1"/>
<path d="M113.507 134.715H112.757V133.965H112.007V133.215H111.257V132.465H110.507V133.215V133.965V134.715H109.757H109.007V133.965V133.215V132.465V131.715V130.965V130.215V129.465H109.757H110.507V130.215H111.257V130.965H112.007V131.715H112.757V130.965V130.215V129.465H113.507H114.257V130.215V130.965V131.715V132.465V133.215V133.965V134.715H113.507Z" fill="#27AAE1"/>
<path d="M118.757 134.715H118.007H117.257H116.507H115.757V133.965H115.007V133.215H115.757H116.507V133.965H117.257H118.007H118.757V133.215V132.465H118.007H117.257H116.507H115.757V131.715H115.007V130.965V130.215H115.757V129.465H116.507H117.257H118.007H118.757V130.215H119.507V130.965H118.757H118.007V130.215H117.257H116.507V130.965V131.715H117.257H118.007H118.757H119.507V132.465H120.257V133.215V133.965H119.507V134.715H118.757Z" fill="#27AAE1"/>
<path d="M124.756 134.715H124.006H123.256H122.506H121.756V133.965H121.006V133.215H121.756H122.506V133.965H123.256H124.006H124.756V133.215V132.465H124.006H123.256H122.506H121.756V131.715H121.006V130.965V130.215H121.756V129.465H122.506H123.256H124.006H124.756V130.215H125.506V130.965H124.756H124.006V130.215H123.256H122.506V130.965V131.715H123.256H124.006H124.756H125.506V132.465H126.256V133.215V133.965H125.506V134.715H124.756Z" fill="#27AAE1"/>
<path d="M131.507 133.965H132.257V134.715H131.507H130.757H130.007H129.257H128.507H127.757V133.965H128.507H129.257V133.215V132.465V131.715V130.965H128.507V130.215H129.257V129.465H130.007H130.757V130.215V130.965V131.715V132.465V133.215V133.965H131.507Z" fill="#27AAE1"/>
<path d="M136.007 133.965H136.757V133.215V132.465H136.007H135.257H134.507V133.215V133.965H135.257H136.007ZM136.757 134.715H136.007H135.257H134.507H133.757V133.965H133.007V133.215V132.465V131.715V130.965H133.757V130.215H134.507V129.465H135.257H136.007H136.757H137.507V130.215H136.757H136.007H135.257V130.965H134.507V131.715H135.257H136.007H136.757H137.507V132.465H138.257V133.215V133.965H137.507V134.715H136.757Z" fill="#27AAE1"/>
<path d="M142.007 131.715H141.257V132.465H142.007V131.715ZM143.507 133.215H142.757H142.007H141.257H140.507V132.465V131.715V130.965H141.257H142.007H142.757V131.715V132.465H143.507V131.715V130.965V130.215H144.257V130.965V131.715V132.465V133.215H143.507ZM142.757 133.965H143.507V134.715H142.757H142.007H141.257H140.507H139.757V133.965H140.507H141.257H142.007H142.757ZM143.507 130.215H142.757H142.007H141.257H140.507H139.757V129.465H140.507H141.257H142.007H142.757H143.507V130.215ZM139.757 133.965H139.007V133.215V132.465V131.715V130.965V130.215H139.757V130.965V131.715V132.465V133.215V133.965Z" fill="#27AAE1"/>
<path d="M149.507 134.715H148.757H148.007H147.257H146.507V133.965H145.757V133.215H145.007V132.465V131.715V130.965H145.757V130.215H146.507V129.465H147.257H148.007H148.757H149.507H150.257V130.215H149.507H148.757H148.007H147.257V130.965H146.507V131.715V132.465V133.215H147.257V133.965H148.007H148.757V133.215V132.465H148.007V131.715H148.757H149.507H150.257V132.465V133.215V133.965V134.715H149.507Z" fill="#27AAE1"/>
<path d="M153.257 133.215V132.465H152.507V133.215V133.965V134.715H151.757H151.007V133.965V133.215V132.465V131.715V130.965V130.215V129.465H151.757H152.507V130.215H153.257V130.965H154.007V130.215H154.757V129.465H155.507H156.257V130.215V130.965V131.715V132.465V133.215V133.965V134.715H155.507H154.757V133.965V133.215V132.465H154.007V133.215H153.257Z" fill="#27AAE1"/>
<path d="M160.007 132.465H160.757V131.715V130.965H160.007V130.215H159.257V130.965H158.507V131.715V132.465H159.257H160.007ZM161.507 134.715H160.757V133.965V133.215H160.007H159.257H158.507V133.965V134.715H157.757H157.007V133.965V133.215V132.465V131.715V130.965H157.757V130.215H158.507V129.465H159.257H160.007H160.757V130.215H161.507V130.965H162.257V131.715V132.465V133.215V133.965V134.715H161.507Z" fill="#27AAE1"/>
<path d="M167.507 133.965H168.257V134.715H167.507H166.757H166.007H165.257H164.507H163.757V133.965H164.507H165.257V133.215V132.465V131.715V130.965V130.215H164.507H163.757V129.465H164.507H165.257H166.007H166.757H167.507H168.257V130.215H167.507H166.757V130.965V131.715V132.465V133.215V133.965H167.507Z" fill="#27AAE1"/>
<path d="M173.507 133.965H174.257V134.715H173.507H172.757H172.007H171.257H170.507H169.757H169.007V133.965V133.215V132.465V131.715V130.965V130.215V129.465H169.757H170.507V130.215V130.965V131.715V132.465V133.215V133.965H171.257H172.007H172.757H173.507Z" fill="#27AAE1"/>
<path d="M178.007 134.715H177.257V133.965V133.215H178.007H178.757V133.965V134.715H178.007Z" fill="#27AAE1"/>
<path d="M184.757 134.715H184.007H183.257H182.507V133.965H181.757V133.215H181.007V132.465V131.715V130.965H181.757V130.215H182.507V129.465H183.257H184.007H184.757H185.507V130.215H186.257V130.965H185.507H184.757V130.215H184.007H183.257V130.965H182.507V131.715V132.465V133.215H183.257V133.965H184.007H184.757V133.215H185.507H186.257V133.965H185.507V134.715H184.757Z" fill="#27AAE1"/>
<path d="M190.007 133.965H190.757V133.215V132.465V131.715V130.965V130.215H190.007H189.257H188.507V130.965V131.715V132.465V133.215V133.965H189.257H190.007ZM190.757 134.715H190.007H189.257H188.507H187.757V133.965H187.007V133.215V132.465V131.715V130.965V130.215H187.757V129.465H188.507H189.257H190.007H190.757H191.507V130.215H192.257V130.965V131.715V132.465V133.215V133.965H191.507V134.715H190.757Z" fill="#27AAE1"/>
<path d="M195.257 133.215V132.465H194.507V133.215V133.965V134.715H193.757H193.007V133.965V133.215V132.465V131.715V130.965V130.215V129.465H193.757H194.507V130.215H195.257V130.965H196.007V130.215H196.757V129.465H197.507H198.257V130.215V130.965V131.715V132.465V133.215V133.965V134.715H197.507H196.757V133.965V133.215V132.465H196.007V133.215H195.257Z" fill="#27AAE1"/>
<path d="M193.948 32.9235H194.698V33.6735H193.948H193.198H192.448H191.698H190.948H190.198V32.9235H190.948H191.698V32.1735V31.4235V30.6735V29.9235V29.1735H190.948H190.198V28.4235H190.948H191.698H192.448H193.198H193.948H194.698V29.1735H193.948H193.198V29.9235V30.6735V31.4235V32.1735V32.9235H193.948Z" fill="#27AAE1"/>
<path d="M198.448 33.6735H197.698V32.9235V32.1735V31.4235V30.6735V29.9235V29.1735H196.948H196.198V28.4235H196.948H197.698H198.448H199.198H199.948H200.698V29.1735H199.948H199.198V29.9235V30.6735V31.4235V32.1735V32.9235V33.6735H198.448Z" fill="#27AAE1"/>
<path d="M205.948 32.1735H205.198H204.448H203.698H202.948H202.198V31.4235V30.6735H202.948H203.698H204.448H205.198H205.948H206.698V31.4235V32.1735H205.948Z" fill="#27AAE1"/>
<path d="M210.448 31.4235H211.198V30.6735V29.9235H210.448V29.1735H209.698V29.9235H208.948V30.6735V31.4235H209.698H210.448ZM211.948 33.6735H211.198V32.9235V32.1735H210.448H209.698H208.948V32.9235V33.6735H208.198H207.448V32.9235V32.1735V31.4235V30.6735V29.9235H208.198V29.1735H208.948V28.4235H209.698H210.448H211.198V29.1735H211.948V29.9235H212.698V30.6735V31.4235V32.1735V32.9235V33.6735H211.948Z" fill="#27AAE1"/>
<path d="M217.948 33.6735H217.198V32.9235H216.448V32.1735H215.698V31.4235H214.948V32.1735V32.9235V33.6735H214.198H213.448V32.9235V32.1735V31.4235V30.6735V29.9235V29.1735V28.4235H214.198H214.948V29.1735H215.698V29.9235H216.448V30.6735H217.198V29.9235V29.1735V28.4235H217.948H218.698V29.1735V29.9235V30.6735V31.4235V32.1735V32.9235V33.6735H217.948Z" fill="#27AAE1"/>
<path d="M223.948 32.9235H224.698V33.6735H223.948H223.198H222.448H221.698H220.948H220.198V32.9235H220.948H221.698V32.1735V31.4235V30.6735V29.9235V29.1735H220.948H220.198V28.4235H220.948H221.698H222.448H223.198H223.948H224.698V29.1735H223.948H223.198V29.9235V30.6735V31.4235V32.1735V32.9235H223.948Z" fill="#27AAE1"/>
<path d="M227.698 32.1735V31.4235H226.948V32.1735V32.9235V33.6735H226.198H225.448V32.9235V32.1735V31.4235V30.6735V29.9235V29.1735V28.4235H226.198H226.948V29.1735H227.698V29.9235H228.448V29.1735H229.198V28.4235H229.948H230.698V29.1735V29.9235V30.6735V31.4235V32.1735V32.9235V33.6735H229.948H229.198V32.9235V32.1735V31.4235H228.448V32.1735H227.698Z" fill="#27AAE1"/>
<path d="M234.448 31.4235H235.198V30.6735V29.9235H234.448V29.1735H233.698V29.9235H232.948V30.6735V31.4235H233.698H234.448ZM235.948 33.6735H235.198V32.9235V32.1735H234.448H233.698H232.948V32.9235V33.6735H232.198H231.448V32.9235V32.1735V31.4235V30.6735V29.9235H232.198V29.1735H232.948V28.4235H233.698H234.448H235.198V29.1735H235.948V29.9235H236.698V30.6735V31.4235V32.1735V32.9235V33.6735H235.948Z" fill="#27AAE1"/>
<path d="M241.948 32.9235H242.698V33.6735H241.948H241.198H240.448H239.698H238.948H238.198H237.448V32.9235V32.1735V31.4235V30.6735V29.9235V29.1735V28.4235H238.198H238.948V29.1735V29.9235V30.6735V31.4235V32.1735V32.9235H239.698H240.448H241.198H241.948Z" fill="#27AAE1"/>
<path d="M247.198 33.6735H246.448H245.698H244.948H244.198V32.9235H243.448V32.1735H244.198H244.948V32.9235H245.698H246.448H247.198V32.1735V31.4235H246.448H245.698H244.948H244.198V30.6735H243.448V29.9235V29.1735H244.198V28.4235H244.948H245.698H246.448H247.198V29.1735H247.948V29.9235H247.198H246.448V29.1735H245.698H244.948V29.9235V30.6735H245.698H246.448H247.198H247.948V31.4235H248.698V32.1735V32.9235H247.948V33.6735H247.198Z" fill="#27AAE1"/>
<path d="M27.9712 35.4683H26.9092H25.8462H24.7832V34.4063H23.7212V33.3433H22.6592V32.2803V31.2183V30.1563H23.7212V29.0933H24.7832V28.0313H25.8462H26.9092H27.9712H29.0332V29.0933H30.0962V30.1563H29.0332H27.9712V29.0933H26.9092H25.8462V30.1563H24.7832V31.2183V32.2803V33.3433H25.8462V34.4063H26.9092H27.9712V33.3433H29.0332H30.0962V34.4063H29.0332V35.4683H27.9712Z" fill="#231F20"/>
<path d="M37.5337 34.4058H38.5957V35.4678H37.5337H36.4717H35.4087H34.3457H33.2837H32.2217H31.1587V34.4058V33.3438V32.2808V31.2178V30.1558V29.0938V28.0308H32.2217H33.2837H34.3457H35.4087H36.4717H37.5337H38.5957V29.0938H37.5337H36.4717H35.4087H34.3457H33.2837V30.1558V31.2178H34.3457H35.4087H36.4717H37.5337V32.2808H36.4717H35.4087H34.3457H33.2837V33.3438V34.4058H34.3457H35.4087H36.4717H37.5337Z" fill="#231F20"/>
<path d="M43.9087 32.2808H44.9707V31.2188V30.1558V29.0928H43.9087H42.8467H41.7837V30.1558V31.2188V32.2808H42.8467H43.9087ZM40.7207 35.4688H39.6587V34.4058V33.3428V32.2808V31.2188V30.1558V29.0928V28.0308H40.7207H41.7837H42.8467H43.9087H44.9707H46.0337V29.0928H47.0967V30.1558V31.2188V32.2808H46.0337V33.3428H44.9707H43.9087H42.8467H41.7837V34.4058V35.4688H40.7207Z" fill="#231F20"/>
<path d="M49.2212 35.4683H48.1592V34.4063V33.3433V32.2803V31.2183V30.1563V29.0933V28.0313H49.2212H50.2832H51.3462H52.4092H53.4712H54.5332H55.5962V29.0933H54.5332H53.4712H52.4092H51.3462H50.2832V30.1563V31.2183V32.2803V33.3433V34.4063V35.4683H49.2212Z" fill="#231F20"/>
<path d="M63.0337 34.4058H64.0957V35.4678H63.0337H61.9717H60.9087H59.8457H58.7837H57.7217H56.6587V34.4058V33.3438V32.2808V31.2178V30.1558V29.0938V28.0308H57.7217H58.7837H59.8457H60.9087H61.9717H63.0337H64.0957V29.0938H63.0337H61.9717H60.9087H59.8457H58.7837V30.1558V31.2178H59.8457H60.9087H61.9717H63.0337V32.2808H61.9717H60.9087H59.8457H58.7837V33.3438V34.4058H59.8457H60.9087H61.9717H63.0337Z" fill="#231F20"/>
<path d="M70.4709 28.031H71.5329V29.093H70.4709V28.031ZM68.3459 32.281V31.218H69.4089V30.156H68.3459H67.2839V31.218V32.281H68.3459ZM67.2839 29.093H66.2219V28.031H67.2839V29.093ZM71.5339 35.468H70.4709V34.406V33.343H69.4089V34.406H68.3459V35.468H67.2839H66.2209H65.1589V34.406V33.343V32.281V31.218V30.156H66.2209H67.2839V29.093H68.3459H69.4089H70.4709V30.156H71.5339H72.5959V31.218V32.281V33.343V34.406V35.468H71.5339Z" fill="#231F20"/>
<path d="M88.5337 35.4683H87.4717H86.4087V34.4063H85.3457V33.3433H84.2837V34.4063V35.4683H83.2217H82.1587V34.4063V33.3433V32.2803V31.2183V30.1563V29.0933V28.0313H83.2217H84.2837V29.0933V30.1563V31.2183H85.3457V30.1563H86.4087V29.0933H87.4717V28.0313H88.5337H89.5957V29.0933H88.5337V30.1563H87.4717V31.2183H86.4087V32.2803H87.4717V33.3433H88.5337V34.4063H89.5957V35.4683H88.5337Z" fill="#231F20"/>
<path d="M94.9087 32.2808H95.9707V31.2188V30.1558H94.9087V29.0928H93.8467V30.1558H92.7837V31.2188V32.2808H93.8467H94.9087ZM97.0337 35.4688H95.9707V34.4058V33.3428H94.9087H93.8467H92.7837V34.4058V35.4688H91.7207H90.6587V34.4058V33.3428V32.2808V31.2188V30.1558H91.7207V29.0928H92.7837V28.0308H93.8467H94.9087H95.9707V29.0928H97.0337V30.1558H98.0967V31.2188V32.2808V33.3428V34.4058V35.4688H97.0337Z" fill="#231F20"/>
<path d="M105.534 35.4683H104.472V34.4063V33.3433V32.2803V31.2183V30.1563V29.0933H103.409V30.1563V31.2183V32.2803H102.346V33.3433V34.4063H101.284V35.4683H100.222H99.1587V34.4063H100.222V33.3433V32.2803H101.284V31.2183V30.1563V29.0933V28.0313H102.346H103.409H104.472H105.534H106.596V29.0933V30.1563V31.2183V32.2803V33.3433V34.4063V35.4683H105.534Z" fill="#231F20"/>
<path d="M114.034 35.4683H112.972V34.4063V33.3433V32.2803H111.909V33.3433H110.846V34.4063H109.784V35.4683H108.722H107.659V34.4063V33.3433V32.2803V31.2183V30.1563V29.0933V28.0313H108.722H109.784V29.0933V30.1563V31.2183H110.846V30.1563H111.909V29.0933H112.972V28.0313H114.034H115.096V29.0933V30.1563V31.2183V32.2803V33.3433V34.4063V35.4683H114.034Z" fill="#231F20"/>
<path d="M122.533 35.4683H121.471V34.4063V33.3433V32.2803H120.408H119.346H118.283V33.3433V34.4063V35.4683H117.221H116.158V34.4063V33.3433V32.2803V31.2183V30.1563V29.0933V28.0313H117.221H118.283V29.0933V30.1563V31.2183H119.346H120.408H121.471V30.1563V29.0933V28.0313H122.533H123.595V29.0933V30.1563V31.2183V32.2803V33.3433V34.4063V35.4683H122.533Z" fill="#231F20"/>
<path d="M131.033 35.4683H129.971V34.4063V33.3433V32.2803H128.908V33.3433H127.845V34.4063H126.783V35.4683H125.721H124.658V34.4063V33.3433V32.2803V31.2183V30.1563V29.0933V28.0313H125.721H126.783V29.0933V30.1563V31.2183H127.845V30.1563H128.908V29.0933H129.971V28.0313H131.033H132.095V29.0933V30.1563V31.2183V32.2803V33.3433V34.4063V35.4683H131.033Z" fill="#231F20"/>
<path d="M139.533 35.4683H138.471V34.4063V33.3433V32.2803H137.408H136.345H135.283V33.3433V34.4063V35.4683H134.221H133.158V34.4063V33.3433V32.2803V31.2183V30.1563V29.0933V28.0313H134.221H135.283V29.0933V30.1563V31.2183H136.345H137.408H138.471V30.1563V29.0933V28.0313H139.533H140.595V29.0933V30.1563V31.2183V32.2803V33.3433V34.4063V35.4683H139.533Z" fill="#231F20"/>
<path d="M23.3964 51.0542H24.9424V47.6962H23.3074V47.0822H24.9424V46.1402C24.9424 45.8322 25.0234 45.5802 25.1874 45.3852C25.3494 45.1902 25.6054 45.0912 25.9554 45.0912H27.4924V45.7042H25.6534V47.0822H27.4924V47.6962H25.6534V51.0542H27.2884V51.6672H23.3964V51.0542Z" fill="#231F20"/>
<path d="M28.6741 51.0542H30.0161V47.6962H28.6741V47.0822H30.7271V48.2382H30.7711C30.8661 47.8762 31.0451 47.5932 31.3091 47.3892C31.5721 47.1842 31.9091 47.0822 32.3181 47.0822H32.9571V47.7932H32.0951C31.6871 47.7932 31.3561 47.9112 31.1051 48.1482C30.8531 48.3842 30.7271 48.6942 30.7271 49.0782V51.0542H32.5041V51.6672H28.6741V51.0542Z" fill="#231F20"/>
<path d="M35.9877 51.1617C36.3847 51.1617 36.7047 51.0427 36.9467 50.8067C37.1907 50.5687 37.3117 50.2017 37.3117 49.7037V49.0467C37.3117 48.5487 37.1907 48.1817 36.9467 47.9437C36.7047 47.7077 36.3847 47.5887 35.9877 47.5887C35.5907 47.5887 35.2707 47.7077 35.0277 47.9437C34.7847 48.1817 34.6637 48.5487 34.6637 49.0467V49.7037C34.6637 50.2017 34.7847 50.5687 35.0277 50.8067C35.2707 51.0427 35.5907 51.1617 35.9877 51.1617ZM35.9877 51.7737C35.6677 51.7737 35.3787 51.7187 35.1207 51.6057C34.8637 51.4927 34.6447 51.3317 34.4637 51.1217C34.2827 50.9107 34.1447 50.6587 34.0507 50.3657C33.9557 50.0727 33.9077 49.7427 33.9077 49.3757C33.9077 49.0147 33.9557 48.6847 34.0507 48.3887C34.1447 48.0927 34.2827 47.8397 34.4637 47.6287C34.6447 47.4187 34.8637 47.2577 35.1207 47.1447C35.3787 47.0317 35.6677 46.9757 35.9877 46.9757C36.3077 46.9757 36.5957 47.0317 36.8537 47.1447C37.1117 47.2577 37.3307 47.4187 37.5117 47.6287C37.6927 47.8397 37.8297 48.0927 37.9247 48.3887C38.0197 48.6847 38.0667 49.0147 38.0667 49.3757C38.0667 49.7427 38.0197 50.0727 37.9247 50.3657C37.8297 50.6587 37.6927 50.9107 37.5117 51.1217C37.3307 51.3317 37.1117 51.4927 36.8537 51.6057C36.5957 51.7187 36.3077 51.7737 35.9877 51.7737Z" fill="#231F20"/>
<path d="M39.5242 51.6675V47.0825H40.2342V47.8285H40.2702C40.3172 47.7165 40.3772 47.6075 40.4482 47.5045C40.5192 47.4005 40.6072 47.3105 40.7102 47.2325C40.8142 47.1565 40.9372 47.0945 41.0792 47.0465C41.2212 46.9995 41.3872 46.9765 41.5772 46.9765C42.0562 46.9765 42.4412 47.1285 42.7322 47.4335C43.0222 47.7385 43.1672 48.1695 43.1672 48.7265V51.6675H42.4562V48.8515C42.4562 48.4305 42.3642 48.1175 42.1812 47.9135C41.9972 47.7085 41.7282 47.6065 41.3722 47.6065C41.2302 47.6065 41.0912 47.6245 40.9552 47.6595C40.8182 47.6955 40.6972 47.7485 40.5902 47.8195C40.4832 47.8915 40.3982 47.9825 40.3332 48.0955C40.2672 48.2075 40.2342 48.3385 40.2342 48.4865V51.6675H39.5242Z" fill="#231F20"/>
<path d="M46.8731 51.6675C46.5231 51.6675 46.2671 51.5695 46.1041 51.3755C45.9411 51.1805 45.8601 50.9295 45.8601 50.6215V47.6955H44.3311V47.0825H45.4691C45.6231 47.0825 45.7311 47.0515 45.7931 46.9885C45.8551 46.9275 45.8871 46.8185 45.8871 46.6645V45.4655H46.5711V47.0825H48.6591V47.6955H46.5711V51.0545H48.6591V51.6675H46.8731Z" fill="#231F20"/>
<path d="M52.0179 47.5622C51.8219 47.5622 51.6419 47.5982 51.4759 47.6682C51.3099 47.7402 51.1659 47.8372 51.0449 47.9622C50.9229 48.0862 50.8289 48.2332 50.7599 48.4022C50.6919 48.5712 50.6579 48.7562 50.6579 48.9582V49.0202H53.2889V48.9212C53.2889 48.7202 53.2569 48.5372 53.1949 48.3712C53.1329 48.2052 53.0469 48.0612 52.9369 47.9402C52.8279 47.8192 52.6949 47.7252 52.5379 47.6602C52.3809 47.5952 52.2069 47.5622 52.0179 47.5622ZM52.0619 51.7742C51.7299 51.7742 51.4329 51.7182 51.1689 51.6062C50.9059 51.4932 50.6809 51.3322 50.4939 51.1222C50.3069 50.9112 50.1639 50.6592 50.0629 50.3662C49.9619 50.0732 49.9119 49.7462 49.9119 49.3842C49.9119 49.0172 49.9629 48.6852 50.0669 48.3882C50.1709 48.0922 50.3139 47.8392 50.4979 47.6282C50.6819 47.4182 50.9029 47.2572 51.1599 47.1452C51.4179 47.0322 51.7039 46.9762 52.0179 46.9762C52.3259 46.9762 52.6059 47.0322 52.8569 47.1452C53.1089 47.2572 53.3239 47.4132 53.5019 47.6112C53.6799 47.8102 53.8159 48.0452 53.9109 48.3182C54.0049 48.5902 54.0529 48.8892 54.0529 49.2152V49.5532H50.6579V49.7662C50.6579 49.9672 50.6909 50.1542 50.7559 50.3262C50.8209 50.4982 50.9139 50.6462 51.0359 50.7702C51.1569 50.8952 51.3059 50.9912 51.4799 51.0592C51.6549 51.1272 51.8489 51.1622 52.0619 51.1622C52.3699 51.1622 52.6369 51.0902 52.8619 50.9482C53.0869 50.8062 53.2589 50.6102 53.3769 50.3622L53.9019 50.7172C53.7659 51.0252 53.5389 51.2782 53.2219 51.4772C52.9049 51.6752 52.5179 51.7742 52.0619 51.7742Z" fill="#231F20"/>
<path d="M55.519 51.6675V47.0825H56.229V47.8285H56.265C56.312 47.7165 56.372 47.6075 56.443 47.5045C56.514 47.4005 56.602 47.3105 56.705 47.2325C56.809 47.1565 56.932 47.0945 57.074 47.0465C57.216 46.9995 57.382 46.9765 57.572 46.9765C58.051 46.9765 58.436 47.1285 58.727 47.4335C59.017 47.7385 59.162 48.1695 59.162 48.7265V51.6675H58.451V48.8515C58.451 48.4305 58.359 48.1175 58.176 47.9135C57.992 47.7085 57.723 47.6065 57.367 47.6065C57.225 47.6065 57.086 47.6245 56.95 47.6595C56.813 47.6955 56.692 47.7485 56.585 47.8195C56.478 47.8915 56.393 47.9825 56.328 48.0955C56.262 48.2075 56.229 48.3385 56.229 48.4865V51.6675H55.519Z" fill="#231F20"/>
<path d="M62.5829 51.1432C62.7429 51.1432 62.8939 51.1222 63.0369 51.0812C63.1789 51.0392 63.3029 50.9792 63.4099 50.8992C63.5159 50.8192 63.6009 50.7212 63.6629 50.6062C63.7249 50.4912 63.7559 50.3562 63.7559 50.2022V48.5482C63.7559 48.3952 63.7249 48.2602 63.6629 48.1442C63.6009 48.0292 63.5159 47.9312 63.4099 47.8512C63.3029 47.7712 63.1789 47.7102 63.0369 47.6682C62.8939 47.6272 62.7429 47.6072 62.5829 47.6072C62.1679 47.6072 61.8469 47.7332 61.6189 47.9842C61.3909 48.2362 61.2769 48.5702 61.2769 48.9842V49.7662C61.2769 50.1812 61.3909 50.5142 61.6189 50.7662C61.8469 51.0182 62.1679 51.1432 62.5829 51.1432ZM63.7559 50.9212H63.7209C63.4239 51.4902 62.9539 51.7742 62.3079 51.7742C61.7449 51.7742 61.3049 51.5642 60.9879 51.1432C60.6709 50.7232 60.5129 50.1332 60.5129 49.3752C60.5129 48.6172 60.6709 48.0272 60.9879 47.6072C61.3049 47.1862 61.7449 46.9762 62.3079 46.9762C62.9539 46.9762 63.4239 47.2602 63.7209 47.8292H63.7559V45.0912H64.4669V51.6672H63.7559V50.9212Z" fill="#231F20"/>
<path d="M73.3706 51.1431C73.7856 51.1431 74.1066 51.0181 74.3346 50.7661C74.5626 50.5141 74.6776 50.1811 74.6776 49.7661V48.9841C74.6776 48.5701 74.5626 48.2361 74.3346 47.9841C74.1066 47.7331 73.7856 47.6071 73.3706 47.6071C73.2106 47.6071 73.0596 47.6271 72.9176 47.6681C72.7756 47.7101 72.6506 47.7711 72.5446 47.8511C72.4376 47.9311 72.3526 48.0291 72.2906 48.1441C72.2286 48.2601 72.1976 48.3951 72.1976 48.5481V50.2021C72.1976 50.3561 72.2286 50.4911 72.2906 50.6061C72.3526 50.7211 72.4376 50.8191 72.5446 50.8991C72.6506 50.9791 72.7756 51.0391 72.9176 51.0811C73.0596 51.1221 73.2106 51.1431 73.3706 51.1431ZM71.4866 47.0821H72.1976V47.8291H72.2336C72.5296 47.2601 73.0006 46.9761 73.6456 46.9761C74.2086 46.9761 74.6486 47.1861 74.9656 47.6071C75.2826 48.0271 75.4416 48.6171 75.4416 49.3751C75.4416 50.1331 75.2826 50.7231 74.9656 51.1431C74.6486 51.5641 74.2086 51.7741 73.6456 51.7741C73.0006 51.7741 72.5296 51.4901 72.2336 50.9211H72.1976V53.4451H71.4866V47.0821Z" fill="#231F20"/>
<path d="M78.2575 51.1792C78.4415 51.1792 78.6085 51.1572 78.7595 51.1132C78.9105 51.0682 79.0425 51.0082 79.1545 50.9352C79.2675 50.8612 79.3555 50.7722 79.4175 50.6682C79.4795 50.5642 79.5105 50.4532 79.5105 50.3342V49.5792H78.5325C78.1065 49.5792 77.7955 49.6392 77.5995 49.7572C77.4045 49.8752 77.3065 50.0472 77.3065 50.2732V50.4592C77.3065 50.6962 77.3915 50.8752 77.5605 50.9962C77.7285 51.1182 77.9615 51.1792 78.2575 51.1792ZM80.3725 51.6672C80.0935 51.6672 79.8955 51.5962 79.7775 51.4542C79.6585 51.3122 79.5845 51.1342 79.5545 50.9212H79.5105C79.4095 51.1882 79.2485 51.3972 79.0265 51.5472C78.8045 51.6992 78.5065 51.7742 78.1325 51.7742C77.6535 51.7742 77.2715 51.6502 76.9865 51.4012C76.7025 51.1522 76.5605 50.8122 76.5605 50.3792C76.5605 49.9522 76.7155 49.6232 77.0275 49.3932C77.3385 49.1612 77.8405 49.0462 78.5325 49.0462H79.5105V48.5962C79.5105 48.2602 79.4155 48.0082 79.2265 47.8402C79.0365 47.6732 78.7675 47.5882 78.4175 47.5882C78.1095 47.5882 77.8575 47.6502 77.6625 47.7712C77.4665 47.8922 77.3095 48.0572 77.1915 48.2642L76.7115 47.9082C76.7705 47.7902 76.8505 47.6742 76.9515 47.5612C77.0515 47.4472 77.1765 47.3472 77.3245 47.2602C77.4725 47.1722 77.6415 47.1032 77.8315 47.0522C78.0205 47.0012 78.2315 46.9762 78.4625 46.9762C79.0015 46.9762 79.4285 47.1132 79.7465 47.3852C80.0635 47.6582 80.2215 48.0382 80.2215 48.5252V51.0542H80.8615V51.6672H80.3725Z" fill="#231F20"/>
<path d="M83.7851 51.774C83.3111 51.774 82.9181 51.698 82.6071 51.544C82.2961 51.389 82.0431 51.17 81.8481 50.885L82.3721 50.46C82.5141 50.684 82.7011 50.858 82.9311 50.979C83.1631 51.1 83.4471 51.162 83.7851 51.162C84.2111 51.162 84.5191 51.093 84.7091 50.957C84.8991 50.821 84.9931 50.646 84.9931 50.432V50.308C84.9931 50.077 84.9181 49.901 84.7671 49.78C84.6161 49.658 84.3981 49.597 84.1141 49.597H82.8781V49.002H84.0251C84.6051 49.002 84.8961 48.786 84.8961 48.353V48.247C84.8961 48.051 84.8141 47.892 84.6511 47.771C84.4881 47.65 84.2051 47.588 83.8031 47.588C83.4471 47.588 83.1611 47.648 82.9451 47.766C82.7291 47.885 82.5531 48.051 82.4161 48.264L81.9191 47.926C82.1261 47.625 82.3781 47.39 82.6741 47.224C82.9701 47.059 83.3581 46.976 83.8381 46.976C84.4481 46.976 84.9031 47.086 85.2021 47.304C85.5011 47.524 85.6511 47.826 85.6511 48.211C85.6511 48.496 85.5771 48.72 85.4291 48.886C85.2811 49.052 85.0741 49.168 84.8071 49.233V49.268C85.1151 49.316 85.3491 49.433 85.5091 49.62C85.6691 49.806 85.7491 50.045 85.7491 50.335C85.7491 50.779 85.5781 51.13 85.2381 51.388C84.8971 51.646 84.4131 51.774 83.7851 51.774Z" fill="#231F20"/>
<path d="M89.3652 51.1431C89.7802 51.1431 90.1012 51.0181 90.3292 50.7661C90.5572 50.5141 90.6722 50.1811 90.6722 49.7661V48.9841C90.6722 48.5701 90.5572 48.2361 90.3292 47.9841C90.1012 47.7331 89.7802 47.6071 89.3652 47.6071C89.2052 47.6071 89.0542 47.6271 88.9122 47.6681C88.7702 47.7101 88.6452 47.7711 88.5392 47.8511C88.4322 47.9311 88.3472 48.0291 88.2852 48.1441C88.2232 48.2601 88.1922 48.3951 88.1922 48.5481V50.2021C88.1922 50.3561 88.2232 50.4911 88.2852 50.6061C88.3472 50.7211 88.4322 50.8191 88.5392 50.8991C88.6452 50.9791 88.7702 51.0391 88.9122 51.0811C89.0542 51.1221 89.2052 51.1431 89.3652 51.1431ZM87.4812 47.0821H88.1922V47.8291H88.2282C88.5242 47.2601 88.9952 46.9761 89.6402 46.9761C90.2032 46.9761 90.6432 47.1861 90.9602 47.6071C91.2772 48.0271 91.4362 48.6171 91.4362 49.3751C91.4362 50.1331 91.2772 50.7231 90.9602 51.1431C90.6432 51.5641 90.2032 51.7741 89.6402 51.7741C88.9952 51.7741 88.5242 51.4901 88.2282 50.9211H88.1922V53.4451H87.4812V47.0821Z" fill="#231F20"/>
<path d="M94.2524 51.1792C94.4364 51.1792 94.6034 51.1572 94.7544 51.1132C94.9054 51.0682 95.0374 51.0082 95.1494 50.9352C95.2624 50.8612 95.3504 50.7722 95.4124 50.6682C95.4744 50.5642 95.5054 50.4532 95.5054 50.3342V49.5792H94.5274C94.1014 49.5792 93.7904 49.6392 93.5944 49.7572C93.3994 49.8752 93.3014 50.0472 93.3014 50.2732V50.4592C93.3014 50.6962 93.3864 50.8752 93.5554 50.9962C93.7234 51.1182 93.9564 51.1792 94.2524 51.1792ZM96.3674 51.6672C96.0884 51.6672 95.8904 51.5962 95.7724 51.4542C95.6534 51.3122 95.5794 51.1342 95.5494 50.9212H95.5054C95.4044 51.1882 95.2434 51.3972 95.0214 51.5472C94.7994 51.6992 94.5014 51.7742 94.1274 51.7742C93.6484 51.7742 93.2664 51.6502 92.9814 51.4012C92.6974 51.1522 92.5554 50.8122 92.5554 50.3792C92.5554 49.9522 92.7104 49.6232 93.0224 49.3932C93.3334 49.1612 93.8354 49.0462 94.5274 49.0462H95.5054V48.5962C95.5054 48.2602 95.4104 48.0082 95.2214 47.8402C95.0314 47.6732 94.7624 47.5882 94.4124 47.5882C94.1044 47.5882 93.8524 47.6502 93.6574 47.7712C93.4614 47.8922 93.3044 48.0572 93.1864 48.2642L92.7064 47.9082C92.7654 47.7902 92.8454 47.6742 92.9464 47.5612C93.0464 47.4472 93.1714 47.3472 93.3194 47.2602C93.4674 47.1722 93.6364 47.1032 93.8264 47.0522C94.0154 47.0012 94.2264 46.9762 94.4574 46.9762C94.9964 46.9762 95.4234 47.1132 95.7414 47.3852C96.0584 47.6582 96.2164 48.0382 96.2164 48.5252V51.0542H96.8564V51.6672H96.3674Z" fill="#231F20"/>
<path d="M99.9751 51.1617C100.36 51.1617 100.676 51.0417 100.921 50.8017C101.167 50.5607 101.29 50.2107 101.29 49.7487V49.1877C101.29 48.6907 101.17 48.3177 100.93 48.0687C100.69 47.8197 100.378 47.6957 99.9931 47.6957C99.5421 47.6957 99.2091 47.8037 98.9931 48.0197C98.7771 48.2357 98.6691 48.5137 98.6691 48.8507V49.7487C98.6691 50.2107 98.7881 50.5607 99.0291 50.8017C99.2681 51.0417 99.5841 51.1617 99.9751 51.1617ZM99.9751 51.7737C99.6671 51.7737 99.3871 51.7187 99.1351 51.6057C98.8831 51.4927 98.6671 51.3207 98.4871 51.0907C98.3061 50.8587 98.1651 50.5667 98.0641 50.2147C97.9641 49.8627 97.9131 49.4427 97.9131 48.9577C97.9131 48.2817 97.9591 47.7077 98.0511 47.2327C98.1431 46.7597 98.2851 46.3687 98.4771 46.0597C98.6701 45.7527 98.9161 45.5237 99.2151 45.3767C99.5141 45.2277 99.8711 45.1397 100.286 45.1097L101.69 45.0207V45.7237L100.215 45.8207C99.9601 45.8387 99.7431 45.8857 99.5621 45.9627C99.3811 46.0397 99.2301 46.1627 99.1091 46.3317C98.9871 46.5007 98.8911 46.7217 98.8201 46.9937C98.7491 47.2657 98.6951 47.6067 98.6601 48.0157H98.7041C98.8291 47.7197 99.0031 47.4897 99.2281 47.3267C99.4541 47.1637 99.7351 47.0827 100.073 47.0827C100.363 47.0827 100.63 47.1357 100.872 47.2427C101.116 47.3487 101.323 47.5017 101.495 47.6997C101.666 47.8987 101.801 48.1437 101.899 48.4377C101.996 48.7307 102.045 49.0637 102.045 49.4367C102.045 49.7867 101.995 50.1037 101.894 50.3887C101.794 50.6727 101.651 50.9187 101.468 51.1257C101.284 51.3337 101.066 51.4927 100.815 51.6057C100.563 51.7187 100.283 51.7737 99.9751 51.7737Z" fill="#231F20"/>
<path d="M105.298 51.1617C105.695 51.1617 106.015 51.0427 106.257 50.8067C106.501 50.5687 106.622 50.2017 106.622 49.7037V49.0467C106.622 48.5487 106.501 48.1817 106.257 47.9437C106.015 47.7077 105.695 47.5887 105.298 47.5887C104.901 47.5887 104.581 47.7077 104.338 47.9437C104.095 48.1817 103.974 48.5487 103.974 49.0467V49.7037C103.974 50.2017 104.095 50.5687 104.338 50.8067C104.581 51.0427 104.901 51.1617 105.298 51.1617ZM105.298 51.7737C104.978 51.7737 104.689 51.7187 104.431 51.6057C104.174 51.4927 103.955 51.3317 103.774 51.1217C103.593 50.9107 103.455 50.6587 103.361 50.3657C103.266 50.0727 103.218 49.7427 103.218 49.3757C103.218 49.0147 103.266 48.6847 103.361 48.3887C103.455 48.0927 103.593 47.8397 103.774 47.6287C103.955 47.4187 104.174 47.2577 104.431 47.1447C104.689 47.0317 104.978 46.9757 105.298 46.9757C105.618 46.9757 105.906 47.0317 106.164 47.1447C106.422 47.2577 106.641 47.4187 106.822 47.6287C107.003 47.8397 107.14 48.0927 107.235 48.3887C107.33 48.6847 107.377 49.0147 107.377 49.3757C107.377 49.7427 107.33 50.0727 107.235 50.3657C107.14 50.6587 107.003 50.9107 106.822 51.1217C106.641 51.3317 106.422 51.4927 106.164 51.6057C105.906 51.7187 105.618 51.7737 105.298 51.7737Z" fill="#231F20"/>
<path d="M110.274 47.6958H108.586V47.0828H112.673V47.6958H110.985V51.6678H110.274V47.6958Z" fill="#231F20"/>
<path d="M116.938 49.5622H116.894C116.728 49.7462 116.54 49.8832 116.329 49.9752C116.119 50.0672 115.851 50.1132 115.525 50.1132C115.027 50.1132 114.649 49.9962 114.392 49.7612C114.134 49.5282 114.005 49.1732 114.005 48.7002V47.0832H114.716V48.6372C114.716 48.9212 114.796 49.1322 114.956 49.2682C115.116 49.4052 115.377 49.4732 115.738 49.4732C116.094 49.4732 116.382 49.4272 116.605 49.3352C116.827 49.2442 116.938 49.1032 116.938 48.9132V47.0832H117.649V51.6672H116.938V49.5622Z" fill="#231F20"/>
<path d="M119.47 47.0827H120.181V49.4197L120.11 50.5927H120.145L122.447 47.0827H123.113V51.6677H122.402V49.3307L122.474 48.1577H122.439L120.137 51.6677H119.47V47.0827Z" fill="#231F20"/>
<path d="M124.909 47.0827H125.62V48.9927H126.597L127.832 47.0827H128.57L127.45 48.8207C127.349 48.9747 127.261 49.0827 127.183 49.1447C127.106 49.2067 127.014 49.2527 126.908 49.2817V49.3167C127.026 49.3347 127.127 49.3747 127.21 49.4367C127.293 49.4987 127.379 49.6067 127.468 49.7607L128.215 51.0547H128.73V51.6677H128.215C128.06 51.6677 127.927 51.6267 127.814 51.5437C127.702 51.4607 127.59 51.3237 127.476 51.1347L126.597 49.6057H125.62V51.6677H124.909V47.0827Z" fill="#231F20"/>
<path d="M249.449 110.397H246.302V107.25H249.449V110.397Z" fill="#EFD8B9"/>
<path d="M249.449 107.25H246.302V82.0751H249.449V107.25Z" fill="#3C4E57"/>
<path d="M246.302 132.425V135.571H236.862V132.425H240.008H246.302Z" fill="#3C4E57"/>
<path d="M246.302 82.0748V107.25H240.008H233.714H227.421V82.0748H230.568V85.2208H233.714V88.3688H240.008V85.2208H243.156V82.0748H246.302Z" fill="#3C4E57"/>
<path d="M240.008 82.0748H233.714H230.568V85.2208H233.714V88.3688H235.288V91.5148H238.435V88.3688H240.008V85.2208H243.155V82.0748H240.008Z" fill="#ED1066"/>
<path d="M240.008 69.4871H236.862V66.3411H240.008V69.4871Z" fill="#3C4E57"/>
<path d="M233.714 132.425V135.571H224.274V132.425H227.421H233.714Z" fill="#3C4E57"/>
<path d="M240.008 107.25H233.714H227.421V110.397V132.426H233.714V110.397H240.008V132.426H246.302V110.397V107.25H240.008Z" fill="#775034"/>
<path d="M233.714 69.4871H230.568V66.3411H233.714V69.4871Z" fill="#3C4E57"/>
<path d="M227.421 110.397H224.274V107.25H227.421V110.397Z" fill="#EFD8B9"/>
<path d="M227.421 107.25H224.274V82.0751H227.421V107.25Z" fill="#3C4E57"/>
<path d="M246.302 66.34H243.156V60.046H246.302V66.34Z" fill="#FAD29D"/>
<path d="M243.155 56.9V60.046H227.421V56.9H230.567H236.861H243.155Z" fill="#FAD29D"/>
<path d="M236.861 56.9H230.567V53.753H236.861V56.9Z" fill="#FAD29D"/>
<path d="M227.421 66.34H224.274V60.046H227.421V66.34Z" fill="#FAD29D"/>
<path d="M243.155 69.4871H246.301V66.3411H243.155V69.4871Z" fill="#EFD8B9"/>
<path d="M224.273 69.4871H227.42V66.3411H224.273V69.4871Z" fill="#EFD8B9"/>
<path d="M230.567 66.3401H233.713V69.4861H230.567V66.3401ZM236.861 66.3401H240.007V69.4861H236.861V66.3401ZM227.421 66.3401V69.4871V78.9281H233.714V82.0751H240.008V78.9281H243.155V69.4871V66.3401V60.0461H227.421V66.3401Z" fill="#EFD8B9"/>
<path d="M235.288 72.3405H232.141V75.4865H235.288H238.434V72.3405H235.288Z" fill="#F68B62"/>
</svg>
