<svg width="247" height="38" viewBox="0 0 247 38" fill="none" xmlns="http://www.w3.org/2000/svg">
<path d="M32.9739 12.3683V16.4804H28.8449V12.3683H32.9739V4.11217H28.8449V8.23555H20.6V4.11217H16.4879V8.23555H4.114V0H0.00183105V37.103H4.114V32.9777H16.4879V37.0992H20.6V32.9777H28.8375V37.0992H32.9739V32.9777H37.0954V12.3683H32.9739ZM20.6075 16.4804H16.4879V12.3683H20.6L20.6075 16.4804Z" fill="black"/>
<path d="M28.8469 16.4861H24.7253V20.6077H28.8469V16.4861Z" fill="#929497"/>
<path d="M4.12151 24.7327H0V28.8542V32.9776V37.0992H4.12151V32.9776H8.24489V28.8542V24.7327H4.12151Z" fill="#F1F1F1"/>
<path d="M32.9647 24.7347V37.103H28.8469V32.9777H20.6114V37.103H16.4861V28.8562H16.4786V24.7347H20.6114V24.7291H20.6076V16.4861H24.7329V20.6076H28.8469V24.7347H32.9647Z" fill="#F1F1F1"/>
<path d="M20.5964 12.3682H16.4805V16.4841H20.5964V12.3682Z" fill="white"/>
<path d="M32.9628 12.3682H28.8469V16.4841H32.9628V12.3682Z" fill="white"/>
<path d="M73.5966 30.6019H75.9704V32.9757H61.7311V30.6019H66.4788V18.7383H61.7311V16.3645H75.9704V18.7383H71.2227V30.6019H73.5966Z" fill="black"/>
<path d="M87.834 32.9757H85.4602V18.7383H80.7162V16.3645H94.9537V18.7383H90.2079V32.9757H87.834Z" fill="black"/>
<path d="M111.563 28.2243H99.6995V23.4841H113.937V28.2243H111.563Z" fill="black"/>
<path d="M130.548 32.9757H128.174V28.2243H121.057V32.9701H116.301V21.1103H118.675V18.7383H121.049V16.3645H128.167V18.7383H130.541V21.1103H132.913V32.9757H130.548ZM125.802 25.8561H128.174V21.1103H125.802V18.7383H123.429V21.1103H121.057V25.8561H125.802Z" fill="black"/>
<path d="M149.532 32.9757H147.158V30.6019H144.786V28.2243H142.412V25.8505H140.04V32.9701H135.294V16.3645H140.04V18.7383H142.412V21.1103H144.786V23.4841H147.158V16.3645H151.904V32.9757H149.532Z" fill="black"/>
<path d="M168.515 30.6019H170.881V32.9757H156.649V30.6019H161.395V18.7383H156.649V16.3645H170.881V18.7383H166.141V30.6019H168.515Z" fill="black"/>
<path d="M180.38 28.2243V25.8505H178.006V32.9701H173.261V16.3645H178.006V18.7383H180.38V21.1103H182.752V18.7383H185.126V16.3645H189.872V32.9757H185.126V25.8561H182.752V28.2243H180.38Z" fill="black"/>
<path d="M206.481 32.9757H204.109V28.2243H196.99V32.9701H192.244V21.1103H194.62V18.7383H196.992V16.3645H204.111V18.7383H206.483V21.1103H208.857V32.9757H206.481ZM201.735 25.8561H204.109V21.1103H201.735V18.7383H199.363V21.1103H196.99V25.8561H201.735Z" fill="black"/>
<path d="M225.461 30.6019H227.834V32.9757H211.223V16.3645H215.969V30.6019H225.461Z" fill="black"/>
<path d="M242.076 32.9757H232.584V30.6019H230.212V28.2243H234.958V30.5963H242.076V25.8561H232.584V23.4841H230.212V18.7383H232.584V16.3645H242.076V18.7383H244.45V21.1103H239.704V18.7383H234.958V23.4841H244.45V25.8561H246.822V30.6019H244.45V32.9757H242.076Z" fill="black"/>
</svg>
