<svg width="247" height="38" viewBox="0 0 247 38" fill="none" xmlns="http://www.w3.org/2000/svg">
<path d="M48.6357 29.0396V33.1517H44.5105V29.0396H48.6357V20.7872H44.5105V24.8994H36.2861V20.7872H32.1497V24.8994H19.7945V16.6694H15.6823V53.7425H19.7945V49.6303H32.1497V53.7425H36.2805V49.6303H44.5049V53.7425H48.6357V49.6303H52.7479V29.0396H48.6357ZM36.2805 33.1517H32.1497V29.0396H36.2805V33.1517Z" fill="#764D2A"/>
<path d="M44.5142 33.146H40.3945V37.2657H44.5142V33.146Z" fill="#EC1066"/>
<path d="M19.8076 41.3853H15.6879V45.5049V49.6246V53.7424H19.8076V49.6246H23.9254V45.5049V41.3853H19.8076Z" fill="#F1F1F1"/>
<path d="M48.6282 41.3872V53.7462H44.5123V49.6246H36.2824V53.7462H32.1609V45.505H32.1534V41.3872H36.2824V41.3834H36.2786V33.146H40.402V37.2657H44.5123V41.3872H48.6282Z" fill="#F1F1F1"/>
<path d="M36.2674 29.032H32.1553V33.1441H36.2674V29.032Z" fill="#7DC25D"/>
<path d="M48.6264 29.032H44.5142V33.1441H48.6264V29.032Z" fill="#7DC25D"/>
<path d="M89.2284 47.2506H91.5985V49.6226H77.3723V47.2506H82.1144V35.3945H77.3723V33.0244H91.5985V35.3945H86.8565V47.2488L89.2284 47.2506Z" fill="white"/>
<path d="M103.455 49.6226H101.083V35.3945H96.3406V33.0244H110.567V35.3945H105.825V49.6207L103.455 49.6226Z" fill="white"/>
<path d="M127.165 44.8807H115.311V40.1387H129.533V44.8807H127.165Z" fill="white"/>
<path d="M146.133 49.6226H143.763V44.8805H136.649V49.6226H131.907V37.7665H134.279V35.3945H136.649V33.0244H143.763V35.3945H146.133V37.7646H148.505V49.6207L146.133 49.6226ZM141.391 42.5086H143.763V37.7665H141.391V35.3945H139.021V37.7646H136.649V42.5067H141.391V42.5086Z" fill="white"/>
<path d="M165.104 49.6226H162.732V47.2506H160.361V44.8805H157.989V42.5086H155.619V49.6226H150.875V33.0244H155.619V35.3945H157.989V37.7646H160.361V40.1366H162.732V33.0244H167.477V49.6226H165.104Z" fill="white"/>
<path d="M184.072 47.2506H186.444V49.6226H172.216V47.2506H176.958V35.3945H172.216V33.0244H186.444V35.3945H181.7V47.2488L184.072 47.2506Z" fill="white"/>
<path d="M195.928 44.8805V42.5086H193.556V49.6226H188.814V33.0244H193.556V35.3945H195.928V37.7646H198.298V35.3945H200.67V33.0244H205.421V49.6226H200.679V42.5086H198.307V44.8805H195.928Z" fill="white"/>
<path d="M222.01 49.6226H219.638V44.8805H212.524V49.6226H207.782V37.7665H210.154V35.3945H212.524V33.0244H219.638V35.3945H222.01V37.7646H224.38V49.6207L222.01 49.6226ZM217.268 42.5086H219.638V37.7665H217.268V35.3945H214.896V37.7646H212.524V42.5067H217.268V42.5086Z" fill="white"/>
<path d="M240.979 47.2506H243.349V49.6226H226.752V33.0244H231.494V47.2506H240.979V47.2506Z" fill="white"/>
<path d="M257.571 49.6226H248.085V47.2506H245.721V44.8805H250.468V47.2506H257.571V42.5086H248.085V40.1385H245.721V35.3945H248.091V33.0244H257.571V35.3945H259.941V37.7646H255.199V35.3945H250.468V40.1366H259.952V42.5067H262.324V47.2488H259.952V49.6207L257.571 49.6226Z" fill="white"/>
</svg>
