<svg width="281" height="71" viewBox="0 0 281 71" fill="none" xmlns="http://www.w3.org/2000/svg">
<path d="M280.375 0H0V70.4152H280.375V0Z" fill="#27A8E0"/>
<path d="M48.6357 29.0395V33.1516H44.5105V29.0395H48.6357V20.7871H44.5105V24.8992H36.2861V20.7871H32.1497V24.8992H19.7945V16.6693H15.6823V53.7423H19.7945V49.6302H32.1497V53.7423H36.2805V49.6302H44.5049V53.7423H48.6357V49.6302H52.7479V29.0395H48.6357ZM36.2805 33.1516H32.1497V29.0395H36.2805V33.1516Z" fill="#764D2A"/>
<path d="M44.5142 33.146H40.3945V37.2657H44.5142V33.146Z" fill="#EC1066"/>
<path d="M19.8076 41.3853H15.6879V45.5049V49.6246V53.7424H19.8076V49.6246H23.9254V45.5049V41.3853H19.8076Z" fill="#F1F1F1"/>
<path d="M48.6282 41.3872V53.7462H44.5123V49.6246H36.2824V53.7462H32.1609V45.505H32.1534V41.3872H36.2824V41.3834H36.2786V33.146H40.402V37.2657H44.5123V41.3872H48.6282Z" fill="#F1F1F1"/>
<path d="M36.2674 29.0321H32.1553V33.1443H36.2674V29.0321Z" fill="#7DC25D"/>
<path d="M48.6264 29.0321H44.5142V33.1443H48.6264V29.0321Z" fill="#7DC25D"/>
<path d="M89.2284 47.2508H91.5985V49.6227H77.3723V47.2508H82.1144V35.3946H77.3723V33.0245H91.5985V35.3946H86.8565V47.2489L89.2284 47.2508Z" fill="white"/>
<path d="M103.455 49.6227H101.083V35.3946H96.3406V33.0245H110.567V35.3946H105.825V49.6209L103.455 49.6227Z" fill="white"/>
<path d="M127.165 44.8807H115.311V40.1387H129.533V44.8807H127.165Z" fill="white"/>
<path d="M146.133 49.6227H143.763V44.8807H136.649V49.6227H131.907V37.7666H134.279V35.3946H136.649V33.0245H143.763V35.3946H146.133V37.7647H148.505V49.6209L146.133 49.6227ZM141.391 42.5087H143.763V37.7666H141.391V35.3946H139.021V37.7647H136.649V42.5068H141.391V42.5087Z" fill="white"/>
<path d="M165.104 49.6227H162.732V47.2508H160.361V44.8807H157.989V42.5087H155.619V49.6227H150.875V33.0245H155.619V35.3946H157.989V37.7647H160.361V40.1367H162.732V33.0245H167.477V49.6227H165.104Z" fill="white"/>
<path d="M184.072 47.2508H186.444V49.6227H172.216V47.2508H176.958V35.3946H172.216V33.0245H186.444V35.3946H181.7V47.2489L184.072 47.2508Z" fill="white"/>
<path d="M195.928 44.8807V42.5087H193.556V49.6227H188.814V33.0245H193.556V35.3946H195.928V37.7647H198.298V35.3946H200.67V33.0245H205.421V49.6227H200.679V42.5087H198.307V44.8807H195.928Z" fill="white"/>
<path d="M222.01 49.6227H219.638V44.8807H212.524V49.6227H207.782V37.7666H210.154V35.3946H212.524V33.0245H219.638V35.3946H222.01V37.7647H224.38V49.6209L222.01 49.6227ZM217.268 42.5087H219.638V37.7666H217.268V35.3946H214.896V37.7647H212.524V42.5068H217.268V42.5087Z" fill="white"/>
<path d="M240.979 47.2508H243.349V49.6227H226.752V33.0245H231.494V47.2508H240.979Z" fill="white"/>
<path d="M257.571 49.6227H248.085V47.2508H245.721V44.8807H250.468V47.2508H257.571V42.5087H248.085V40.1386H245.721V35.3946H248.091V33.0245H257.571V35.3946H259.941V37.7647H255.199V35.3946H250.468V40.1367H259.952V42.5068H262.324V47.2489H259.952V49.6209L257.571 49.6227Z" fill="white"/>
</svg>
