<svg width="104" height="104" viewBox="0 0 104 104" fill="none" xmlns="http://www.w3.org/2000/svg">
<path d="M103.173 51.5859C103.173 80.0769 80.076 103.172 51.586 103.172C23.096 103.172 0 80.0769 0 51.5859C0 23.0959 23.096 -0.00012207 51.586 -0.00012207C80.076 -0.00012207 103.173 23.0959 103.173 51.5859Z" fill="white"/>
<path d="M100.252 51.5859C100.252 78.4639 78.4641 100.253 51.5861 100.253C24.7081 100.253 2.9201 78.4639 2.9201 51.5859C2.9201 24.7089 24.7081 2.91993 51.5861 2.91993C78.4641 2.91993 100.252 24.7089 100.252 51.5859Z" fill="#ED1066"/>
<path d="M96.3351 51.5625C96.3351 76.2894 76.2901 96.3354 51.5631 96.3354C26.8351 96.3354 6.7891 76.2894 6.7891 51.5625C6.7891 26.8344 26.8351 6.78945 51.5631 6.78945C76.2901 6.78945 96.3351 26.8344 96.3351 51.5625Z" stroke="white" stroke-width="1.079" stroke-miterlimit="10"/>
<path d="M85.9747 51.5626C85.9747 70.5676 70.5677 85.9746 51.5627 85.9746C32.5567 85.9746 17.1507 70.5676 17.1507 51.5626C17.1507 32.5576 32.5567 17.1496 51.5627 17.1496C70.5677 17.1496 85.9747 32.5576 85.9747 51.5626Z" stroke="white" stroke-width="1.079" stroke-miterlimit="10"/>
<path d="M36.6056 86.2168L35.9706 85.9698L36.2176 85.3358L36.8526 85.5818L37.4876 85.8288L38.1236 86.0738L38.7576 86.3208L39.3936 86.5668L40.0286 86.8138L39.7826 87.4478L39.1476 87.2018L38.5116 86.9558L38.2656 87.5918L38.0186 88.2258L37.7726 88.8608L37.5266 89.4968L37.2806 90.1328L37.9156 90.3778L38.5506 90.6248L38.3046 91.2598L37.6686 91.0128L37.0346 90.7678L36.3996 90.5218L35.7636 90.2738L35.1276 90.0288L34.4936 89.7828L34.7396 89.1468L35.3746 89.3938L36.0106 89.6388L36.2556 89.0048L36.5026 88.3698L36.7496 87.7338L36.9956 87.0978L37.2416 86.4638L36.6056 86.2168Z" fill="white"/>
<path d="M33.3976 83.8502L33.9936 84.1832L33.6596 84.7772L33.3276 85.3712L32.9956 85.9672L32.6626 86.5612L32.3296 87.1562L31.9976 87.7502L32.5906 88.0832L33.1866 88.4162L32.8536 89.0112L32.2586 88.6792L31.6646 88.3452L31.0696 88.0132L30.4746 87.6802L29.8796 87.3482L29.2866 87.0162L29.6186 86.4202L30.2136 86.7532L30.8076 87.0852L31.1396 86.4912L31.4726 85.8952L31.8056 85.3022L32.1376 84.7072L32.4696 84.1122L32.8036 83.5182L33.3976 83.8502Z" fill="white"/>
<path d="M27.13 81.2539L27.673 81.6669L28.215 82.0799L28.757 82.4919L29.299 82.9029L29.841 83.3169L29.429 83.8589L29.017 84.4009L28.474 83.9879L27.932 83.5759L27.39 83.1629L26.848 82.7509L26.306 82.3379L25.763 81.9249L26.175 81.3839L26.588 80.8409L27.13 81.2539Z" fill="white"/>
<path d="M23.6622 78.9804L23.1832 78.4954L22.6982 78.9744L22.2142 79.4524L22.6912 79.9374L22.2062 80.4154L22.6852 80.9014L23.1702 80.4224L23.6492 80.9074L24.1342 80.4294L24.6182 79.9514L24.1412 79.4654L23.6622 78.9804ZM24.1592 76.5744L24.6392 77.0604L24.1532 77.5384L23.6692 78.0174L24.1472 78.5014L24.6262 78.9874L25.1042 79.4724L25.5892 78.9934L26.0732 78.5154L26.5522 78.9994L27.0302 79.4854L26.5462 79.9634L26.0612 80.4424L25.5752 80.9204L25.0912 81.3994L24.6062 81.8774L24.1282 81.3924L23.6422 81.8714L23.1642 81.3854L22.6792 81.8644L22.2002 81.3784L21.7222 80.8944L21.2432 80.4094L21.7272 79.9304L21.2502 79.4464L21.7352 78.9674L21.2572 78.4824L21.7412 78.0034L22.2262 77.5244L22.7122 77.0464L23.1962 76.5684L23.6822 76.0904L24.1592 76.5744Z" fill="white"/>
<path d="M20.9054 72.4678L21.3094 73.0168L20.7624 73.4218L21.1674 73.9688L20.6184 74.3738L21.0224 74.9218L20.4754 75.3268L20.8804 75.8748L21.4284 75.4698L21.9754 75.0658L22.5244 74.6608L22.9284 75.2078L23.3334 75.7568L22.7864 76.1608L22.2374 76.5658L21.6904 76.9708L21.1414 77.3748L20.5934 77.7798L20.0464 78.1848L19.4974 78.5898L19.0934 78.0408L18.6884 77.4938L19.2354 77.0878L18.8314 76.5408L19.3804 76.1368L18.9744 75.5878L19.5224 75.1838L19.1184 74.6348L18.5694 75.0398L18.0214 75.4448L17.4734 75.8498L17.0694 75.3008L16.6644 74.7538L17.2124 74.3488L17.7594 73.9438L18.3074 73.5388L18.8564 73.1348L19.4044 72.7308L19.9524 72.3248L20.5014 71.9198L20.9054 72.4678Z" fill="white"/>
<path d="M17.671 68.2797L17.349 67.6807L17.947 67.3577L18.272 67.9557L18.595 68.5557L18.918 69.1547L19.241 69.7557L19.566 70.3547L19.889 70.9537L19.289 71.2777L18.966 70.6787L18.642 70.0787L18.042 70.4017L17.442 70.7257L16.843 71.0487L16.243 71.3727L15.644 71.6967L15.968 72.2957L16.291 72.8957L15.692 73.2197L15.368 72.6187L15.044 72.0197L14.722 71.4207L14.398 70.8207L14.073 70.2207L13.751 69.6207L14.351 69.2987L14.673 69.8967L14.997 70.4967L15.597 70.1737L16.196 69.8497L16.796 69.5277L17.396 69.2037L17.995 68.8797L17.671 68.2797Z" fill="white"/>
<path d="M15.7335 65.5352L15.0945 65.7732L15.3325 66.4122L15.9695 66.1732L16.6085 65.9362L17.2475 65.6982L17.4855 66.3372L17.7225 66.9752L17.0855 67.2142L16.4465 67.4502L15.8075 67.6892L15.1695 67.9262L14.5305 68.1642L13.8915 68.4012L13.2535 68.6392L13.0155 68.0002L12.7785 67.3622L13.4165 67.1242L13.1785 66.4862L13.8175 66.2482L13.5795 65.6092L12.9405 65.8472L12.7035 65.2082L12.0645 65.4462L11.8275 64.8072L11.5885 64.1702L12.2275 63.9312L12.8665 63.6942L13.5045 63.4562L14.1435 63.2192L14.7825 62.9802L15.4215 62.7442L16.0595 62.5052L16.2965 63.1442L16.5345 63.7822L15.8955 64.0202L15.2565 64.2582L14.6195 64.4962L14.8565 65.1342L15.4955 64.8962L15.7335 65.5352Z" fill="white"/>
<path d="M13.299 59.8331L13.153 59.1681L12.487 59.3131L11.821 59.4591L11.968 60.1251L11.302 60.2701L11.448 60.9361L12.113 60.7901L12.259 61.4561L12.924 61.3101L13.589 61.1651L13.445 60.5001L13.299 59.8331ZM15.005 58.0651L15.151 58.7311L14.485 58.8771L13.82 59.0221L13.964 59.6881L14.111 60.3541L14.255 61.0191L14.921 60.8751L15.587 60.7291L15.732 61.3941L15.878 62.0601L15.212 62.2061L14.546 62.3511L13.88 62.4971L13.215 62.6411L12.55 62.7871L12.404 62.1221L11.738 62.2671L11.593 61.6021L10.927 61.7471L10.782 61.0821L10.636 60.4151L10.491 59.7501L11.156 59.6051L11.011 58.9381L11.677 58.7941L11.531 58.1281L12.196 57.9821L12.862 57.8371L13.528 57.6901L14.195 57.5461L14.86 57.4011L15.005 58.0651Z" fill="white"/>
<path d="M13.7667 52.9345L13.7157 52.2555L14.3957 52.2055L14.4467 52.8845L14.4957 53.5635L14.5457 54.2435L14.5957 54.9225L14.6467 55.6025L14.6967 56.2815L14.7457 56.9605L14.0677 57.0105L13.3877 57.0615L12.7077 57.1115L12.0287 57.1615L11.3487 57.2125L10.6687 57.2625L9.9907 57.3115L9.9407 56.6325L9.8897 55.9525L10.5697 55.9035L11.2487 55.8535L11.9287 55.8025L12.6087 55.7525L13.2877 55.7035L13.9667 55.6525L13.9167 54.9735L13.8667 54.2925L13.8177 53.6145L13.7667 52.9345Z" fill="white"/>
<path d="M14.5812 48.3203L14.5342 49.0013L14.4872 49.6793L14.4402 50.3603L14.3942 51.0393L13.7142 50.9923L13.6672 51.6733L12.9872 51.6263L13.0342 50.9463L13.0812 50.2663L13.7612 50.3133L13.8082 49.6323L13.8542 48.9533L13.9012 48.2733L13.2222 48.2263L12.5422 48.1803L12.4952 48.8603L12.4492 49.5403L12.4012 50.2193L12.3542 50.8993L11.6752 50.8513L11.6282 51.5313L10.9482 51.4853L10.2692 51.4383L10.3152 50.7583L9.63619 50.7113L9.68319 50.0323L9.72919 49.3513L9.77619 48.6723L9.82319 47.9923L10.5032 48.0393L10.5502 47.3593L11.2302 47.4063L11.1842 48.0873L11.1362 48.7653L10.4562 48.7193L10.4092 49.3983L10.3622 50.0793L11.0422 50.1253L11.7222 50.1723L11.7692 49.4933L11.8152 48.8133L11.8632 48.1333L11.9092 47.4533L12.5892 47.5003L12.6362 46.8203L13.3152 46.8673L13.9952 46.9143L13.9482 47.5943L14.6282 47.6423L14.5812 48.3203Z" fill="white"/>
<path d="M14.7296 43.0487L14.5876 43.7157L13.9206 43.5737L13.7796 44.2397L14.4466 44.3817L14.3046 45.0477L14.1636 45.7147L13.4966 45.5727L13.6376 44.9067L12.9716 44.7647L12.8306 45.4297L12.6886 46.0977L12.0226 45.9567L12.1636 45.2887L12.3056 44.6237L11.6376 44.4817L11.4976 45.1477L10.8316 45.0067L10.9716 44.3407L11.1146 43.6737L11.7806 43.8147L11.9206 43.1477L11.2546 43.0067L11.3976 42.3407L11.5386 41.6737L12.2046 41.8157L12.0636 42.4827L12.7296 42.6237L12.8716 41.9567L13.0126 41.2917L13.6786 41.4327L13.5376 42.0987L13.3956 42.7647L14.0626 42.9067L14.2046 42.2397L14.8706 42.3817L14.7296 43.0487Z" fill="white"/>
<path d="M16.5245 37.3204L16.7565 36.6794L17.3975 36.9144L17.1645 37.5534L16.9295 38.1934L16.6965 38.8344L16.4635 39.4734L16.2295 40.1144L15.9965 40.7544L15.3565 40.5214L15.5895 39.8814L15.8235 39.2404L15.1825 39.0074L14.5435 38.7744L13.9035 38.5414L13.2625 38.3064L12.6235 38.0724L12.3895 38.7134L12.1565 39.3534L11.5165 39.1204L11.7495 38.4804L11.9835 37.8404L12.2155 37.2004L12.4505 36.5594L12.6825 35.9194L12.9165 35.2784L13.5565 35.5124L13.3235 36.1534L13.0885 36.7924L13.7295 37.0274L14.3705 37.2604L15.0095 37.4934L15.6495 37.7264L16.2905 37.9604L16.5245 37.3204Z" fill="white"/>
<path d="M18.8253 34.0655L18.5043 34.6685L17.9023 34.3465L17.3013 34.0265L16.7003 33.7065L16.0983 33.3845L15.4983 33.0645L14.8963 32.7445L14.5773 33.3455L14.2553 33.9465L13.6543 33.6265L13.9743 33.0245L14.2963 32.4235L14.6163 31.8215L14.9363 31.2205L15.2573 30.6205L15.5773 30.0185L16.1793 30.3395L15.8583 30.9405L15.5383 31.5425L16.1393 31.8615L16.7403 32.1825L17.3413 32.5035L17.9423 32.8235L18.5443 33.1435L19.1443 33.4645L18.8253 34.0655Z" fill="white"/>
<path d="M21.3107 27.7266L20.9087 28.2766L20.5067 28.8266L20.1057 29.3766L19.7037 29.9276L19.3007 30.4766L18.7507 30.0756L18.2007 29.6726L18.6027 29.1236L19.0047 28.5736L19.4077 28.0236L19.8077 27.4726L20.2097 26.9236L20.6127 26.3726L21.1627 26.7746L21.7117 27.1766L21.3107 27.7266Z" fill="white"/>
<path d="M23.5089 24.2201L23.9849 23.7331L23.4959 23.2561L23.0089 22.7821L22.5329 23.2691L22.0449 22.7941L21.5699 23.2821L22.0579 23.7581L21.5829 24.2451L22.0709 24.7201L22.5579 25.1961L23.0329 24.7081L23.5089 24.2201ZM25.9239 24.6701L25.4479 25.1581L24.9599 24.6831L24.4729 24.2071L23.9969 24.6961L23.5229 25.1841L23.0459 25.6721L23.5339 26.1471L24.0229 26.6221L23.5469 27.1101L23.0719 27.5981L22.5829 27.1231L22.0959 26.6471L21.6069 26.1721L21.1189 25.6971L20.6319 25.2211L21.1069 24.7331L20.6179 24.2581L21.0949 23.7701L20.6069 23.2951L21.0809 22.8061L21.5579 22.3191L22.0319 21.8301L22.5209 22.3061L22.9949 21.8191L23.4839 22.2921L23.9589 21.8051L24.4469 22.2811L24.9349 22.7561L25.4229 23.2321L25.9109 23.7061L26.3999 24.1821L25.9239 24.6701Z" fill="white"/>
<path d="M29.9542 21.3419L29.4142 21.7579L28.9992 21.2179L28.4582 21.6339L28.0432 21.0939L27.5032 21.5089L27.0872 20.9699L26.5482 21.3859L26.9642 21.9249L27.3802 22.4659L27.7952 23.0049L27.2552 23.4209L26.7162 23.8359L26.3002 23.2969L25.8842 22.7569L25.4682 22.2179L25.0522 21.6779L24.6362 21.1369L24.2212 20.5979L23.8062 20.0579L24.3452 19.6429L24.8842 19.2269L25.3002 19.7659L25.8402 19.3499L26.2562 19.8909L26.7962 19.4749L27.2122 20.0149L27.7512 19.5989L27.3352 19.0589L26.9192 18.5199L26.5032 17.9789L27.0442 17.5639L27.5832 17.1489L27.9992 17.6879L28.4152 18.2269L28.8312 18.7679L29.2472 19.3069L29.6622 19.8459L30.0782 20.3859L30.4932 20.9259L29.9542 21.3419Z" fill="white"/>
<path d="M34.0617 18.0302L34.6557 17.6952L34.9897 18.2882L34.3977 18.6232L33.8057 18.9602L33.2117 19.2962L32.6187 19.6312L32.0267 19.9662L31.4327 20.3032L31.0977 19.7102L31.6907 19.3732L32.2837 19.0382L31.9477 18.4462L31.6117 17.8532L31.2767 17.2602L30.9407 16.6662L30.6047 16.0732L30.0127 16.4102L29.4187 16.7452L29.0827 16.1522L29.6747 15.8162L30.2687 15.4812L30.8627 15.1452L31.4547 14.8102L32.0467 14.4732L32.6397 14.1372L32.9757 14.7302L32.3837 15.0672L31.7907 15.4032L32.1257 15.9952L32.4617 16.5882L32.7967 17.1802L33.1337 17.7732L33.4687 18.3672L34.0617 18.0302Z" fill="white"/>
<path d="M36.7853 16.0318L36.5343 15.3968L35.9013 15.6478L36.1513 16.2818L36.4013 16.9148L36.6513 17.5488L36.0183 17.7988L35.3853 18.0498L35.1343 17.4158L34.8843 16.7818L34.6343 16.1488L34.3843 15.5148L34.1343 14.8808L33.8833 14.2478L33.6323 13.6148L34.2653 13.3638L34.8993 13.1128L35.1493 13.7468L35.7843 13.4958L36.0343 14.1308L36.6673 13.8808L36.4173 13.2468L37.0513 12.9958L36.8023 12.3628L37.4343 12.1128L38.0673 11.8618L38.3183 12.4948L38.5693 13.1288L38.8193 13.7628L39.0693 14.3958L39.3193 15.0298L39.5693 15.6628L39.8203 16.2968L39.1863 16.5478L38.5533 16.7978L38.3033 16.1628L38.0533 15.5308L37.8023 14.8968L37.1693 15.1478L37.4193 15.7808L36.7853 16.0318Z" fill="white"/>
<path d="M42.4259 13.4854L43.0889 13.3264L42.9289 12.6634L42.7709 12.0014L42.1089 12.1604L41.9479 11.4984L41.2859 11.6574L41.4449 12.3194L40.7819 12.4794L40.9429 13.1414L41.1009 13.8034L41.7639 13.6444L42.4259 13.4854ZM44.2279 15.1544L43.5659 15.3134L43.4059 14.6504L43.2469 13.9884L42.5849 14.1474L41.9229 14.3064L41.2599 14.4654L41.4189 15.1284L41.5779 15.7914L40.9149 15.9494L40.2529 16.1084L40.0939 15.4464L39.9349 14.7844L39.7769 14.1214L39.6169 13.4594L39.4579 12.7964L40.1199 12.6384L39.9609 11.9754L40.6239 11.8164L40.4639 11.1534L41.1259 10.9944L41.7899 10.8364L42.4519 10.6764L42.6109 11.3394L43.2739 11.1794L43.4329 11.8414L44.0949 11.6834L44.2539 12.3454L44.4129 13.0064L44.5719 13.6704L44.7319 14.3324L44.8919 14.9954L44.2279 15.1544Z" fill="white"/>
<path d="M49.3488 13.8096L50.0268 13.7466L50.0908 14.4246L49.4128 14.4876L48.7338 14.5506L48.0558 14.6156L47.3778 14.6796L46.7008 14.7446L46.0208 14.8076L45.3428 14.8706L45.2788 14.1926L45.2148 13.5136L45.1518 12.8356L45.0868 12.1576L45.0238 11.4786L44.9598 10.8006L44.8958 10.1226L45.5748 10.0596L46.2528 9.99561L46.3168 10.6736L46.3798 11.3516L46.4448 12.0296L46.5078 12.7076L46.5718 13.3866L46.6358 14.0656L47.3138 14.0016L47.9928 13.9366L48.6708 13.8726L49.3488 13.8096Z" fill="white"/>
<path d="M53.9591 14.5315L53.2781 14.4975L52.5981 14.4655L51.9171 14.4315L51.2371 14.3985L51.2701 13.7185L50.5891 13.6855L50.6221 13.0045L51.3031 13.0375L51.9821 13.0705L51.9501 13.7505L52.6311 13.7845L53.3121 13.8175L53.9911 13.8495L54.0241 13.1705L54.0581 12.4895L53.3771 12.4575L52.6961 12.4235L52.0171 12.3905L51.3361 12.3575L51.3681 11.6775L50.6881 11.6435L50.7221 10.9635L50.7531 10.2825L51.4351 10.3165L51.4671 9.63548L52.1471 9.66848L52.8281 9.70148L53.5091 9.73448L54.1901 9.76648L54.1571 10.4475L54.8371 10.4795L54.8041 11.1605L54.1231 11.1275L53.4431 11.0955L53.4761 10.4155L52.7961 10.3815L52.1141 10.3485L52.0821 11.0295L52.0501 11.7105L52.7301 11.7435L53.4091 11.7755L54.0911 11.8085L54.7711 11.8415L54.7371 12.5215L55.4191 12.5545L55.3861 13.2355L55.3531 13.9155L54.6731 13.8845L54.6391 14.5635L53.9591 14.5315Z" fill="white"/>
<path d="M59.2667 14.5785L58.5987 14.4505L58.7257 13.7815L58.0577 13.6525L57.9287 14.3215L57.2597 14.1925L56.5907 14.0655L56.7187 13.3955L57.3877 13.5245L57.5167 12.8555L56.8477 12.7265L56.1787 12.5985L56.3077 11.9295L56.9757 12.0575L57.6457 12.1865L57.7737 11.5165L57.1047 11.3895L57.2337 10.7195L57.9027 10.8475L58.5717 10.9755L58.4427 11.6445L59.1127 11.7735L59.2417 11.1045L59.9107 11.2345L60.5787 11.3615L60.4507 12.0315L59.7807 11.9025L59.6527 12.5715L60.3217 12.7005L60.9907 12.8295L60.8627 13.4985L60.1927 13.3685L59.5247 13.2395L59.3957 13.9095L60.0647 14.0375L59.9367 14.7075L59.2667 14.5785Z" fill="white"/>
<path d="M65.0304 16.2614L65.6754 16.4824L65.4544 17.1274L64.8094 16.9064L64.1664 16.6844L63.5204 16.4644L62.8764 16.2424L62.2314 16.0214L61.5874 15.8014L61.8084 15.1564L62.4534 15.3764L63.0964 15.5974L63.3174 14.9534L63.5394 14.3094L63.7604 13.6644L63.9814 13.0194L64.2024 12.3754L63.5574 12.1544L62.9134 11.9334L63.1344 11.2904L63.7784 11.5114L64.4234 11.7314L65.0674 11.9524L65.7124 12.1734L66.3564 12.3944L67.0014 12.6144L66.7804 13.2604L66.1354 13.0374L65.4914 12.8174L65.2704 13.4624L65.0494 14.1064L64.8294 14.7514L64.6064 15.3954L64.3854 16.0404L65.0304 16.2614Z" fill="white"/>
<path d="M68.3283 18.4967L67.7213 18.1887L68.0293 17.5807L68.3393 16.9747L68.6473 16.3677L68.9563 15.7597L69.2653 15.1517L69.5733 14.5447L68.9673 14.2357L68.3603 13.9277L68.6693 13.3207L69.2753 13.6287L69.8843 13.9377L70.4903 14.2467L71.0973 14.5547L71.7053 14.8647L72.3113 15.1737L72.0033 15.7797L71.3953 15.4717L70.7883 15.1627L70.4793 15.7697L70.1713 16.3777L69.8623 16.9847L69.5543 17.5917L69.2453 18.1997L68.9363 18.8057L68.3283 18.4967Z" fill="white"/>
<path d="M74.6886 20.8404L74.1296 20.4504L73.5716 20.0604L73.0136 19.6704L72.4566 19.2784L71.8976 18.8884L72.2886 18.3304L72.6786 17.7714L73.2376 18.1624L73.7956 18.5524L74.3526 18.9434L74.9116 19.3344L75.4696 19.7244L76.0286 20.1144L75.6376 20.6734L75.2476 21.2314L74.6886 20.8404Z" fill="white"/>
<path d="M78.256 22.9826L78.753 23.4486L79.22 22.9496L79.685 22.4536L79.188 21.9876L79.652 21.4896L79.155 21.0246L78.69 21.5216L78.193 21.0566L77.728 21.5536L77.261 22.0506L77.759 22.5166L78.256 22.9826ZM77.855 25.4056L77.357 24.9396L77.821 24.4426L78.288 23.9446L77.79 23.4796L77.294 23.0146L76.796 22.5476L76.33 23.0456L75.864 23.5446L75.366 23.0776L74.87 22.6126L75.335 22.1136L75.801 21.6176L76.267 21.1196L76.733 20.6236L77.197 20.1246L77.694 20.5906L78.161 20.0936L78.657 20.5576L79.124 20.0616L79.622 20.5276L80.118 20.9926L80.616 21.4596L80.15 21.9556L80.648 22.4206L80.183 22.9196L80.68 23.3836L80.214 23.8816L79.749 24.3786L79.282 24.8766L78.818 25.3736L78.352 25.8716L77.855 25.4056Z" fill="white"/>
<path d="M81.256 29.3576L80.829 28.8276L81.36 28.4006L80.934 27.8696L81.465 27.4426L81.038 26.9126L81.57 26.4856L81.144 25.9536L80.612 26.3806L80.081 26.8066L79.55 27.2336L79.122 26.7016L78.696 26.1716L79.228 25.7446L79.759 25.3186L80.29 24.8916L80.821 24.4646L81.353 24.0386L81.884 23.6116L82.415 23.1846L82.841 23.7156L83.269 24.2476L82.736 24.6736L83.163 25.2056L82.632 25.6316L83.06 26.1626L82.528 26.5886L82.954 27.1216L83.485 26.6936L84.017 26.2676L84.548 25.8406L84.975 26.3726L85.402 26.9036L84.87 27.3296L84.339 27.7566L83.808 28.1836L83.277 28.6096L82.745 29.0366L82.214 29.4626L81.683 29.8896L81.256 29.3576Z" fill="white"/>
<path d="M84.6554 33.4132L85.0034 33.9992L84.4164 34.3472L84.0694 33.7612L83.7214 33.1742L83.3744 32.5892L83.0264 32.0022L82.6804 31.4162L82.3334 30.8302L82.9194 30.4832L83.2654 31.0692L83.6124 31.6542L84.1994 31.3092L84.7864 30.9612L85.3724 30.6132L85.9584 30.2662L86.5444 29.9182L86.1964 29.3322L85.8484 28.7462L86.4344 28.3982L86.7824 28.9842L87.1304 29.5712L87.4774 30.1572L87.8254 30.7442L88.1734 31.3302L88.5194 31.9162L87.9324 32.2632L87.5854 31.6762L87.2384 31.0912L86.6524 31.4382L86.0674 31.7852L85.4804 32.1332L84.8944 32.4802L84.3074 32.8272L84.6554 33.4132Z" fill="white"/>
<path d="M86.714 36.0929L87.345 35.8379L87.089 35.2059L86.458 35.4619L85.827 35.7169L85.195 35.9729L84.94 35.3429L84.683 34.7109L85.315 34.4539L85.946 34.1989L86.577 33.9429L87.209 33.6869L87.841 33.4319L88.472 33.1749L89.103 32.9189L89.359 33.5499L89.614 34.1809L88.984 34.4379L89.239 35.0689L88.609 35.3239L88.864 35.9569L89.495 35.6999L89.752 36.3319L90.384 36.0759L90.64 36.7069L90.895 37.3389L90.263 37.5949L89.632 37.8509L89.001 38.1059L88.37 38.3629L87.738 38.6189L87.107 38.8739L86.476 39.1309L86.22 38.4979L85.964 37.8679L86.595 37.6119L87.226 37.3569L87.858 37.0999L87.602 36.4689L86.97 36.7249L86.714 36.0929Z" fill="white"/>
<path d="M89.3644 41.6906L89.5364 42.3496L90.1954 42.1766L90.8544 42.0046L90.6824 41.3456L91.3424 41.1736L91.1694 40.5146L90.5104 40.6876L90.3394 40.0276L89.6804 40.1996L89.0204 40.3716L89.1924 41.0306L89.3644 41.6906ZM87.7304 43.5246L87.5584 42.8656L88.2184 42.6946L88.8784 42.5206L88.7044 41.8616L88.5324 41.2036L88.3614 40.5446L87.7024 40.7156L87.0424 40.8876L86.8704 40.2286L86.6984 39.5696L87.3584 39.3986L88.0164 39.2256L88.6764 39.0536L89.3354 38.8806L89.9954 38.7106L90.1674 39.3686L90.8264 39.1966L90.9974 39.8566L91.6574 39.6846L91.8294 40.3426L92.0014 41.0026L92.1734 41.6616L91.5144 41.8336L91.6864 42.4926L91.0264 42.6646L91.1994 43.3236L90.5404 43.4966L89.8804 43.6686L89.2214 43.8406L88.5614 44.0116L87.9034 44.1846L87.7304 43.5246Z" fill="white"/>
<path d="M89.174 48.6024L89.251 49.2794L88.575 49.3564L88.497 48.6804L88.419 48.0034L88.343 47.3254L88.265 46.6494L88.188 45.9734L88.111 45.2954L88.032 44.6184L88.71 44.5404L89.387 44.4644L90.064 44.3874L90.74 44.3094L91.417 44.2314L92.094 44.1544L92.771 44.0764L92.848 44.7534L92.926 45.4314L92.249 45.5074L91.572 45.5844L90.896 45.6634L90.218 45.7404L89.541 45.8174L88.864 45.8944L88.943 46.5724L89.019 47.2494L89.097 47.9264L89.174 48.6024Z" fill="white"/>
<path d="M88.548 53.2094L88.567 52.5284L88.585 51.8474L88.605 51.1664L88.622 50.4854L89.304 50.5044L89.323 49.8224L90.005 49.8424L89.985 50.5234L89.966 51.2034L89.285 51.1854L89.267 51.8664L89.247 52.5464L89.228 53.2284L89.909 53.2484L90.591 53.2664L90.611 52.5854L90.628 51.9044L90.648 51.2234L90.667 50.5424L91.347 50.5604L91.366 49.8794L92.048 49.8994L92.729 49.9174L92.71 50.5984L93.391 50.6174L93.371 51.2984L93.353 51.9794L93.334 52.6614L93.316 53.3414L92.634 53.3234L92.614 54.0034L91.935 53.9844L91.953 53.3044L91.972 52.6234L92.653 52.6424L92.671 51.9594L92.691 51.2804L92.009 51.2604L91.329 51.2424L91.31 51.9224L91.29 52.6044L91.272 53.2854L91.253 53.9664L90.571 53.9464L90.554 54.6284L89.872 54.6094L89.191 54.5904L89.21 53.9094L88.528 53.8904L88.548 53.2094Z" fill="white"/>
<path d="M88.6076 58.5224L88.7216 57.8514L89.3936 57.9664L89.5086 57.2934L88.8366 57.1794L88.9526 56.5074L89.0676 55.8364L89.7396 55.9514L89.6246 56.6234L90.2946 56.7374L90.4106 56.0664L90.5256 55.3944L91.1966 55.5094L91.0816 56.1814L90.9666 56.8524L91.6376 56.9674L91.7536 56.2964L92.4246 56.4114L92.3096 57.0824L92.1946 57.7534L91.5236 57.6384L91.4096 58.3104L92.0796 58.4254L91.9646 59.0964L91.8506 59.7684L91.1786 59.6534L91.2946 58.9824L90.6226 58.8674L90.5066 59.5384L90.3916 60.2104L89.7206 60.0954L89.8356 59.4234L89.9506 58.7514L89.2796 58.6374L89.1646 59.3084L88.4936 59.1934L88.6076 58.5224Z" fill="white"/>
<path d="M87.0411 64.3232L86.8331 64.9712L86.1851 64.7632L86.3931 64.1142L86.6011 63.4662L86.8081 62.8162L87.0161 62.1682L87.2241 61.5192L87.4331 60.8702L88.0811 61.0782L87.8721 61.7272L87.6651 62.3772L88.3131 62.5842L88.9621 62.7932L89.6111 63.0002L90.2601 63.2082L90.9091 63.4162L91.1161 62.7672L91.3241 62.1182L91.9741 62.3272L91.7661 62.9752L91.5581 63.6242L91.3501 64.2732L91.1421 64.9222L90.9351 65.5702L90.7261 66.2192L90.0771 66.0112L90.2851 65.3632L90.4931 64.7132L89.8451 64.5062L89.1951 64.2972L88.5461 64.0912L87.8971 63.8822L87.2491 63.6742L87.0411 64.3232Z" fill="white"/>
<path d="M84.8712 67.6641L85.1682 67.0511L85.7812 67.3491L86.3952 67.6441L87.0092 67.9391L87.6222 68.2361L88.2352 68.5331L88.8492 68.8301L89.1452 68.2161L89.4412 67.6031L90.0562 67.8991L89.7592 68.5141L89.4622 69.1261L89.1652 69.7401L88.8682 70.3531L88.5712 70.9671L88.2742 71.5801L87.6612 71.2831L87.9582 70.6701L88.2552 70.0571L87.6422 69.7601L87.0282 69.4631L86.4152 69.1681L85.8022 68.8711L85.1882 68.5741L84.5752 68.2771L84.8712 67.6641Z" fill="white"/>
<path d="M82.6593 74.0676L83.0383 73.5026L83.4173 72.9356L83.7963 72.3696L84.1763 71.8036L84.5553 71.2376L85.1213 71.6176L85.6863 71.9956L85.3073 72.5616L84.9293 73.1286L84.5503 73.6936L84.1713 74.2606L83.7913 74.8266L83.4123 75.3926L82.8463 75.0126L82.2803 74.6336L82.6593 74.0676Z" fill="white"/>
<path d="M80.5949 77.672L80.1399 78.179L80.6459 78.634L81.1539 79.09L81.6089 78.582L82.1149 79.038L82.5709 78.532L82.0639 78.076L82.5189 77.568L82.0119 77.114L81.5049 76.658L81.0499 77.165L80.5949 77.672ZM78.1629 77.321L78.6179 76.813L79.1249 77.269L79.6319 77.725L80.0869 77.217L80.5419 76.711L80.9969 76.203L80.4909 75.747L79.9839 75.293L80.4399 74.786L80.8949 74.279L81.4019 74.734L81.9079 75.19L82.4149 75.645L82.9219 76.101L83.4289 76.555L82.9739 77.062L83.4809 77.518L83.0259 78.025L83.5329 78.48L83.0769 78.985L82.6219 79.493L82.1669 80L81.6599 79.546L81.2039 80.051L80.6979 79.597L80.2429 80.104L79.7359 79.648L79.2289 79.193L78.7219 78.737L78.2149 78.283L77.7079 77.828L78.1629 77.321Z" fill="white"/>
<path d="M74.2648 80.8137L74.7868 80.3767L75.2258 80.8997L75.7468 80.4617L76.1848 80.9847L76.7068 80.5467L77.1448 81.0707L77.6668 80.6327L77.2298 80.1097L76.7928 79.5877L76.3558 79.0647L76.8778 78.6267L77.4008 78.1907L77.8378 78.7127L78.2748 79.2357L78.7118 79.7577L79.1498 80.2807L79.5868 80.8027L80.0248 81.3257L80.4608 81.8477L79.9388 82.2857L79.4158 82.7227L78.9788 82.2007L78.4558 82.6377L78.0188 82.1147L77.4968 82.5527L77.0598 82.0297L76.5358 82.4667L76.9738 82.9907L77.4108 83.5117L77.8488 84.0347L77.3268 84.4717L76.8038 84.9097L76.3668 84.3857L75.9288 83.8637L75.4918 83.3407L75.0548 82.8187L74.6178 82.2947L74.1808 81.7737L73.7438 81.2507L74.2648 80.8137Z" fill="white"/>
<path d="M70.297 84.2872L69.718 84.6452L69.359 84.0662L69.937 83.7072L70.517 83.3482L71.095 82.9892L71.675 82.6292L72.253 82.2702L72.831 81.9112L73.191 82.4892L72.612 82.8492L72.034 83.2082L72.393 83.7872L72.752 84.3662L73.111 84.9452L73.47 85.5232L73.83 86.1032L74.409 85.7442L74.987 85.3842L75.347 85.9632L74.769 86.3222L74.189 86.6822L73.61 87.0412L73.031 87.4002L72.452 87.7602L71.874 88.1182L71.515 87.5402L72.093 87.1822L72.673 86.8212L72.314 86.2422L71.954 85.6642L71.595 85.0852L71.235 84.5052L70.876 83.9272L70.297 84.2872Z" fill="white"/>
<path d="M67.6359 86.4011L67.9109 87.0241L68.5339 86.7471L68.2589 86.1251L67.9819 85.5021L67.7059 84.8801L68.3279 84.6031L68.9509 84.3271L69.2279 84.9491L69.5029 85.5721L69.7809 86.1941L70.0559 86.8181L70.3329 87.4401L70.6099 88.0631L70.8859 88.6861L70.2629 88.9611L69.6399 89.2391L69.3649 88.6151L68.7399 88.8921L68.4639 88.2701L67.8409 88.5461L68.1179 89.1681L67.4949 89.4441L67.7729 90.0681L67.1489 90.3441L66.5269 90.6201L66.2489 89.9971L65.9739 89.3751L65.6969 88.7511L65.4209 88.1291L65.1439 87.5061L64.8679 86.8841L64.5919 86.2601L65.2139 85.9841L65.8369 85.7081L66.1139 86.3311L66.3899 86.9541L66.6669 87.5761L67.2889 87.3011L67.0129 86.6771L67.6359 86.4011Z" fill="white"/>
<path d="M62.1173 89.1627L61.4623 89.3477L61.6473 90.0027L61.8333 90.6587L62.4873 90.4737L62.6743 91.1287L63.3293 90.9437L63.1433 90.2877L63.8003 90.1027L63.6143 89.4477L63.4293 88.7917L62.7723 88.9767L62.1173 89.1627ZM60.2493 87.5677L60.9053 87.3817L61.0913 88.0377L61.2763 88.6927L61.9313 88.5067L62.5873 88.3217L63.2433 88.1367L63.0573 87.4797L62.8723 86.8247L63.5273 86.6397L64.1823 86.4537L64.3683 87.1087L64.5543 87.7647L64.7393 88.4207L64.9253 89.0767L65.1103 89.7317L64.4553 89.9167L64.6403 90.5727L63.9853 90.7577L64.1713 91.4127L63.5143 91.5997L62.8593 91.7847L62.2043 91.9697L62.0183 91.3137L61.3623 91.4997L61.1773 90.8437L60.5203 91.0297L60.3363 90.3737L60.1513 89.7187L59.9653 89.0627L59.7793 88.4067L59.5953 87.7517L60.2493 87.5677Z" fill="white"/>
<path d="M55.1867 89.1162L54.5107 89.2082L54.4207 88.5332L55.0947 88.4412L55.7707 88.3492L56.4467 88.2602L57.1217 88.1682L57.7957 88.0762L58.4717 87.9872L59.1467 87.8952L59.2377 88.5702L59.3297 89.2452L59.4197 89.9202L59.5107 90.5962L59.6017 91.2712L59.6927 91.9462L59.7847 92.6222L59.1087 92.7122L58.4337 92.8032L58.3427 92.1282L58.2517 91.4532L58.1617 90.7782L58.0697 90.1032L57.9787 89.4272L57.8877 88.7522L57.2117 88.8432L56.5367 88.9342L55.8627 89.0252L55.1867 89.1162Z" fill="white"/>
<path d="M50.5587 88.5821L51.2397 88.5871L51.9207 88.5931L52.6027 88.5991L53.2837 88.6031L53.2787 89.2841L53.9597 89.2901L53.9547 89.9721L53.2727 89.9661L52.5907 89.9611L52.5967 89.2791L51.9147 89.2741L51.2337 89.2681L50.5527 89.2631L50.5477 89.9441L50.5417 90.6251L51.2237 90.6301L51.9057 90.6361L52.5857 90.6421L53.2667 90.6461L53.2617 91.3281L53.9437 91.3331L53.9377 92.0151L53.9327 92.6961L53.2507 92.6911L53.2467 93.3721L52.5657 93.3661L51.8827 93.3601L51.2027 93.3551L50.5207 93.3511L50.5267 92.6691L49.8447 92.6641L49.8497 91.9821L50.5327 91.9881L51.2127 91.9941L51.2077 92.6751L51.8877 92.6801L52.5697 92.6861L52.5757 92.0041L52.5807 91.3231L51.8997 91.3171L51.2177 91.3121L50.5367 91.3071L49.8547 91.3011L49.8607 90.6201L49.1807 90.6151L49.1847 89.9331L49.1907 89.2521L49.8717 89.2571L49.8777 88.5761L50.5587 88.5821Z" fill="white"/>
<path d="M45.2687 88.7509L45.9427 88.8519L45.8407 89.5249L46.5147 89.6259L46.6167 88.9529L47.2897 89.0539L47.9637 89.1549L47.8627 89.8289L47.1887 89.7279L47.0867 90.4019L47.7607 90.5029L48.4347 90.6049L48.3327 91.2769L47.6597 91.1759L46.9867 91.0759L46.8857 91.7489L47.5587 91.8509L47.4577 92.5249L46.7847 92.4239L46.1107 92.3219L46.2107 91.6469L45.5387 91.5469L45.4367 92.2209L44.7627 92.1199L44.0887 92.0189L44.1907 91.3439L44.8647 91.4449L44.9647 90.7719L44.2907 90.6709L43.6187 90.5699L43.7187 89.8959L44.3917 89.9969L45.0657 90.0989L45.1667 89.4239L44.4937 89.3229L44.5947 88.6489L45.2687 88.7509Z" fill="white"/>
<path d="M36.5617 77.373H35.7707H34.9797H34.1897V76.582H33.3987V75.791H32.6077V75V74.21V73.419H33.3987V72.628H34.1897V71.837H34.9797H35.7707H36.5617H37.3527V72.628H38.1437V73.419H37.3527H36.5617V72.628H35.7707H34.9797V73.419H34.1897V74.21V75V75.791H34.9797V76.582H35.7707H36.5617V75.791H37.3527H38.1437V76.582H37.3527V77.373H36.5617Z" fill="white"/>
<path d="M43.6788 76.582H44.4698V77.373H43.6788H42.8878H42.0968H41.3058H40.5158H39.7248H38.9338V76.582V75.791V75V74.21V73.419V72.628V71.837H39.7248H40.5158H41.3058H42.0968H42.8878H43.6788H44.4698V72.628H43.6788H42.8878H42.0968H41.3058H40.5158V73.419V74.21H41.3058H42.0968H42.8878H43.6788V75H42.8878H42.0968H41.3058H40.5158V75.791V76.582H41.3058H42.0968H42.8878H43.6788Z" fill="white"/>
<path d="M48.423 75.0005H49.214V74.2095V73.4185V72.6275H48.423H47.632H46.842V73.4185V74.2095V75.0005H47.632H48.423ZM46.051 77.3735H45.26V76.5825V75.7915V75.0005V74.2095V73.4185V72.6275V71.8375H46.051H46.842H47.632H48.423H49.214H50.005V72.6275H50.796V73.4185V74.2095V75.0005H50.005V75.7915H49.214H48.423H47.632H46.842V76.5825V77.3735H46.051Z" fill="white"/>
<path d="M52.3771 77.373H51.5861V76.582V75.791V75V74.21V73.419V72.628V71.837H52.3771H53.1681H53.9581H54.7491H55.5401H56.3311H57.1221V72.628H56.3311H55.5401H54.7491H53.9581H53.1681V73.419V74.21V75V75.791V76.582V77.373H52.3771Z" fill="white"/>
<path d="M62.6574 76.582H63.4484V77.373H62.6574H61.8664H61.0754H60.2844H59.4944H58.7034H57.9124V76.582V75.791V75V74.21V73.419V72.628V71.837H58.7034H59.4944H60.2844H61.0754H61.8664H62.6574H63.4484V72.628H62.6574H61.8664H61.0754H60.2844H59.4944V73.419V74.21H60.2844H61.0754H61.8664H62.6574V75H61.8664H61.0754H60.2844H59.4944V75.791V76.582H60.2844H61.0754H61.8664H62.6574Z" fill="white"/>
<path d="M68.1924 71.838H68.9834V72.629H68.1924V71.838ZM66.6104 75.001V74.2101H67.4014V73.419H66.6104H65.8204V74.2101V75.001H66.6104ZM65.8204 72.6281H65.0294V71.8371H65.8204V72.6281ZM68.9834 77.373H68.1924V76.582V75.7921H67.4014V76.582H66.6104V77.373H65.8204H65.0294H64.2384V76.582V75.7921V75.001V74.2101V73.419H65.0294H65.8204V72.6281H66.6104H67.4014H68.1924V73.419H68.9834H69.7744V74.2101V75.001V75.7921V76.582V77.373H68.9834Z" fill="white"/>
<path d="M58.2054 46.98H53.7924V42.567H58.2054V46.98Z" fill="#3C4E57"/>
<path d="M49.3804 46.98H44.9674V42.567H49.3804V46.98Z" fill="#3C4E57"/>
<path d="M67.0304 42.5669H62.6184V33.7419H67.0304V42.5669Z" fill="#FAD29D"/>
<path d="M62.6183 29.3292V33.7422H40.5553V29.3292H44.9673H53.7923H62.6183Z" fill="#FAD29D"/>
<path d="M53.7924 29.3286H44.9674V24.9156H53.7924V29.3286Z" fill="#FAD29D"/>
<path d="M40.5544 42.5669H36.1414V33.7419H40.5544V42.5669Z" fill="#FAD29D"/>
<path d="M62.6184 46.98H67.0304V42.567H62.6184V46.98Z" fill="#EFD8B9"/>
<path d="M36.1414 46.98H40.5544V42.567H36.1414V46.98Z" fill="#EFD8B9"/>
<path d="M44.9674 42.5669H49.3804V46.9799H44.9674V42.5669ZM53.7934 42.5669H58.2054V46.9799H53.7934V42.5669ZM40.5544 42.5669V46.9799V60.2189H49.3804V64.6309H58.2054V60.2189H62.6184V46.9799V42.5669V33.7419H40.5544V42.5669Z" fill="#EFD8B9"/>
<path d="M51.5861 50.9801H47.1741V55.3931H51.5861H55.9991V50.9801H51.5861Z" fill="#F68B62"/>
</svg>
