<svg id="Layer_1" data-name="Layer 1" xmlns="http://www.w3.org/2000/svg" viewBox="0 0 1500 1500"><defs><style>.cls-1{fill:#a26d3b;}.cls-2{fill:#905c31;}.cls-3{fill:#fff;}.cls-4{fill:#b17a50;}.cls-5{fill:#b1794b;}.cls-6{fill:#996233;}.cls-7{fill:#efd43a;}.cls-8{fill:#a97447;}.cls-9{fill:#f2bc90;}.cls-10{fill:#86562d;}.cls-11{fill:#955e2d;}</style></defs><rect class="cls-1" x="1450" y="449.99" width="50" height="50.01"/><rect class="cls-1" x="1450" y="400" width="50" height="50"/><rect class="cls-1" x="1450" y="350" width="50" height="50"/><rect class="cls-1" x="1450" y="300.01" width="50" height="50"/><rect class="cls-1" x="1450" y="249.99" width="50" height="50.01"/><rect class="cls-1" x="1400.01" y="500.01" width="50" height="50"/><rect class="cls-1" x="1400.01" y="449.99" width="50" height="50.01"/><rect class="cls-1" x="1400.01" y="400" width="50" height="50"/><rect class="cls-1" x="1400.01" y="350" width="50" height="50"/><rect class="cls-1" x="1400.01" y="300.01" width="50" height="50"/><rect class="cls-1" x="1400.01" y="249.99" width="50" height="50.01"/><rect class="cls-1" x="1400.01" y="200" width="50" height="50"/><rect class="cls-1" x="1350" y="500.01" width="50.01" height="50"/><rect class="cls-1" x="1350" y="449.99" width="50.01" height="50.01"/><rect class="cls-1" x="1350" y="400" width="50.01" height="50"/><rect class="cls-1" x="1350" y="350" width="50.01" height="50"/><rect class="cls-1" x="1350" y="300.01" width="50.01" height="50"/><rect class="cls-1" x="1350" y="249.99" width="50.01" height="50.01"/><rect class="cls-1" x="1350" y="200" width="50.01" height="50"/><rect class="cls-1" x="1300" y="500.01" width="50" height="50"/><rect class="cls-1" x="1300" y="449.99" width="50" height="50.01"/><rect class="cls-1" x="1300" y="400" width="50" height="50"/><rect class="cls-1" x="1300" y="350" width="50" height="50"/><rect class="cls-1" x="1300" y="300.01" width="50" height="50"/><rect class="cls-1" x="1300" y="249.99" width="50" height="50.01"/><rect class="cls-1" x="1300" y="200" width="50" height="50"/><rect class="cls-1" x="1250.01" y="500.01" width="50" height="50"/><rect class="cls-1" x="1250.01" y="449.99" width="50" height="50.01"/><rect class="cls-1" x="1250.01" y="400" width="50" height="50"/><rect class="cls-1" x="1250.01" y="350" width="50" height="50"/><rect class="cls-1" x="1250.01" y="300.01" width="50" height="50"/><rect class="cls-1" x="1250.01" y="249.99" width="50" height="50.01"/><rect class="cls-1" x="1250.01" y="200" width="50" height="50"/><rect class="cls-1" x="1200.01" y="500.01" width="50" height="50"/><rect class="cls-1" x="1200.01" y="449.99" width="50" height="50.01"/><rect class="cls-1" x="1200.01" y="400" width="50" height="50"/><rect class="cls-1" x="1200.01" y="350" width="50" height="50"/><rect class="cls-1" x="1200.01" y="300.01" width="50" height="50"/><rect class="cls-1" x="1200.01" y="249.99" width="50" height="50.01"/><rect class="cls-1" x="1200.01" y="200" width="50" height="50"/><rect class="cls-1" x="1200.01" y="150" width="50" height="50"/><rect class="cls-1" x="1150" y="1249.99" width="50.01" height="50.01"/><rect class="cls-1" x="1150" y="1199.99" width="50.01" height="50"/><rect class="cls-1" x="1150" y="1150" width="50.01" height="50"/><rect class="cls-1" x="1150" y="1100" width="50.01" height="50"/><rect class="cls-1" x="1150" y="1049.99" width="50.01" height="50.01"/><rect class="cls-1" x="1150" y="999.99" width="50.01" height="50"/><rect class="cls-1" x="1150" y="950" width="50.01" height="50"/><rect class="cls-1" x="1150" y="900" width="50.01" height="50"/><rect class="cls-1" x="1150" y="500.01" width="50.01" height="50"/><rect class="cls-1" x="1150" y="449.99" width="50.01" height="50.01"/><rect class="cls-1" x="1150" y="400" width="50.01" height="50"/><rect class="cls-1" x="1150" y="350" width="50.01" height="50"/><rect class="cls-1" x="1150" y="300.01" width="50.01" height="50"/><rect class="cls-1" x="1150" y="249.99" width="50.01" height="50.01"/><rect class="cls-1" x="1150" y="200" width="50.01" height="50"/><rect class="cls-1" x="1150" y="150" width="50.01" height="50"/><rect class="cls-1" x="1100" y="1249.99" width="50" height="50.01"/><rect class="cls-1" x="1100" y="1199.99" width="50" height="50"/><rect class="cls-1" x="1100" y="1150" width="50" height="50"/><rect class="cls-1" x="1100" y="1100" width="50" height="50"/><rect class="cls-1" x="1100" y="1049.99" width="50" height="50.01"/><rect class="cls-1" x="1100" y="999.99" width="50" height="50"/><rect class="cls-1" x="1100" y="950" width="50" height="50"/><rect class="cls-1" x="1100" y="900" width="50" height="50"/><rect class="cls-1" x="1100" y="849.99" width="50" height="50.01"/><rect class="cls-1" x="1100" y="800" width="50" height="50"/><rect class="cls-1" x="1100" y="750" width="50" height="50"/><rect class="cls-1" x="1100" y="700" width="50" height="50"/><rect class="cls-1" x="1100" y="649.99" width="50" height="50.01"/><rect class="cls-1" x="1100" y="500.01" width="50" height="50"/><rect class="cls-1" x="1100" y="449.99" width="50" height="50.01"/><rect class="cls-1" x="1100" y="400" width="50" height="50"/><rect class="cls-1" x="1100" y="350" width="50" height="50"/><rect class="cls-1" x="1100" y="300.01" width="50" height="50"/><rect class="cls-1" x="1100" y="249.99" width="50" height="50.01"/><rect class="cls-1" x="1100" y="200" width="50" height="50"/><rect class="cls-1" x="1100" y="150" width="50" height="50"/><rect class="cls-1" x="1100" y="100.01" width="50" height="50"/><rect class="cls-1" x="1050.01" y="1249.99" width="50" height="50.01"/><rect class="cls-1" x="1050.01" y="1199.99" width="50" height="50"/><rect class="cls-1" x="1050.01" y="1150" width="50" height="50"/><rect class="cls-1" x="1050.01" y="1100" width="50" height="50"/><rect class="cls-1" x="1050.01" y="1049.99" width="50" height="50.01"/><rect class="cls-1" x="1050.01" y="999.99" width="50" height="50"/><rect class="cls-1" x="1050.01" y="950" width="50" height="50"/><rect class="cls-1" x="1050.01" y="900" width="50" height="50"/><rect class="cls-1" x="1050.01" y="849.99" width="50" height="50.01"/><rect class="cls-1" x="1050.01" y="800" width="50" height="50"/><rect class="cls-1" x="1050.01" y="750" width="50" height="50"/><rect class="cls-1" x="1050.01" y="700" width="50" height="50"/><rect class="cls-1" x="1050.01" y="649.99" width="50" height="50.01"/><rect class="cls-1" x="1050.01" y="600" width="50" height="50"/><rect class="cls-1" x="1050.01" y="550" width="50" height="50"/><rect class="cls-1" x="1050.01" y="500.01" width="50" height="50"/><rect class="cls-1" x="1050.01" y="449.99" width="50" height="50.01"/><rect class="cls-1" x="1050.01" y="400" width="50" height="50"/><rect class="cls-1" x="1050.01" y="350" width="50" height="50"/><rect class="cls-1" x="1050.01" y="300.01" width="50" height="50"/><rect class="cls-1" x="1050.01" y="249.99" width="50" height="50.01"/><rect class="cls-1" x="1050.01" y="200" width="50" height="50"/><rect class="cls-1" x="1050.01" y="150" width="50" height="50"/><rect class="cls-1" x="1050.01" y="100.01" width="50" height="50"/><rect class="cls-1" x="1000.01" y="1249.99" width="50" height="50.01"/><rect class="cls-1" x="1000.01" y="1199.99" width="50" height="50"/><rect class="cls-1" x="1000.01" y="1150" width="50" height="50"/><rect class="cls-1" x="1000.01" y="1100" width="50" height="50"/><rect class="cls-1" x="1000.01" y="1049.99" width="50" height="50.01"/><rect class="cls-1" x="1000.01" y="999.99" width="50" height="50"/><rect class="cls-1" x="1000.01" y="950" width="50" height="50"/><rect class="cls-1" x="1000.01" y="900" width="50" height="50"/><rect class="cls-1" x="1000.01" y="849.99" width="50" height="50.01"/><rect class="cls-1" x="1000.01" y="800" width="50" height="50"/><rect class="cls-1" x="1000.01" y="750" width="50" height="50"/><rect class="cls-1" x="1000.01" y="700" width="50" height="50"/><rect class="cls-1" x="1000.01" y="649.99" width="50" height="50.01"/><rect class="cls-1" x="1000.01" y="600" width="50" height="50"/><rect class="cls-1" x="1000.01" y="550" width="50" height="50"/><rect class="cls-1" x="1000.01" y="500.01" width="50" height="50"/><rect class="cls-1" x="1000.01" y="449.99" width="50" height="50.01"/><rect class="cls-1" x="1000.01" y="400" width="50" height="50"/><rect class="cls-1" x="1000.01" y="350" width="50" height="50"/><rect class="cls-1" x="1000.01" y="300.01" width="50" height="50"/><rect class="cls-1" x="1000.01" y="249.99" width="50" height="50.01"/><rect class="cls-1" x="1000.01" y="200" width="50" height="50"/><rect class="cls-1" x="1000.01" y="150" width="50" height="50"/><rect class="cls-1" x="1000.01" y="100.01" width="50" height="50"/><rect class="cls-1" x="950" y="1249.99" width="50.01" height="50.01"/><rect class="cls-1" x="950" y="1199.99" width="50.01" height="50"/><rect class="cls-1" x="950" y="1150" width="50.01" height="50"/><rect class="cls-1" x="950" y="1100" width="50.01" height="50"/><rect class="cls-1" x="950" y="1049.99" width="50.01" height="50.01"/><rect class="cls-1" x="950" y="999.99" width="50.01" height="50"/><rect class="cls-1" x="950" y="950" width="50.01" height="50"/><rect class="cls-1" x="950" y="900" width="50.01" height="50"/><rect class="cls-1" x="950" y="849.99" width="50.01" height="50.01"/><rect class="cls-1" x="950" y="800" width="50.01" height="50"/><rect class="cls-1" x="950" y="750" width="50.01" height="50"/><rect class="cls-1" x="950" y="700" width="50.01" height="50"/><rect class="cls-1" x="950" y="649.99" width="50.01" height="50.01"/><rect class="cls-1" x="950" y="600" width="50.01" height="50"/><rect class="cls-1" x="950" y="550" width="50.01" height="50"/><rect class="cls-1" x="950" y="500.01" width="50.01" height="50"/><rect class="cls-1" x="950" y="449.99" width="50.01" height="50.01"/><rect class="cls-1" x="950" y="400" width="50.01" height="50"/><rect class="cls-1" x="950" y="350" width="50.01" height="50"/><rect class="cls-1" x="950" y="300.01" width="50.01" height="50"/><rect class="cls-1" x="950" y="249.99" width="50.01" height="50.01"/><rect class="cls-1" x="950" y="200" width="50.01" height="50"/><rect class="cls-1" x="950" y="150" width="50.01" height="50"/><rect class="cls-1" x="950" y="100.01" width="50.01" height="50"/><rect class="cls-1" x="900" y="1249.99" width="50" height="50.01"/><rect class="cls-1" x="900" y="1199.99" width="50" height="50"/><rect class="cls-1" x="900" y="1150" width="50" height="50"/><rect class="cls-1" x="900" y="1100" width="50" height="50"/><rect class="cls-1" x="900" y="1049.99" width="50" height="50.01"/><rect class="cls-1" x="900" y="999.99" width="50" height="50"/><rect class="cls-1" x="900" y="950" width="50" height="50"/><rect class="cls-1" x="900" y="900" width="50" height="50"/><rect class="cls-1" x="900" y="849.99" width="50" height="50.01"/><rect class="cls-1" x="900" y="800" width="50" height="50"/><rect class="cls-1" x="900" y="750" width="50" height="50"/><rect class="cls-1" x="900" y="700" width="50" height="50"/><rect class="cls-1" x="900" y="649.99" width="50" height="50.01"/><rect class="cls-1" x="900" y="600" width="50" height="50"/><rect class="cls-1" x="900" y="550" width="50" height="50"/><rect class="cls-1" x="900" y="500.01" width="50" height="50"/><rect class="cls-1" x="900" y="449.99" width="50" height="50.01"/><rect class="cls-1" x="900" y="400" width="50" height="50"/><rect class="cls-1" x="900" y="350" width="50" height="50"/><rect class="cls-1" x="900" y="300.01" width="50" height="50"/><rect class="cls-1" x="900" y="249.99" width="50" height="50.01"/><rect class="cls-1" x="900" y="200" width="50" height="50"/><rect class="cls-1" x="900" y="150" width="50" height="50"/><rect class="cls-1" x="900" y="100.01" width="50" height="50"/><rect class="cls-1" x="850.01" y="1249.99" width="50" height="50.01"/><rect class="cls-1" x="850.01" y="1199.99" width="50" height="50"/><rect class="cls-1" x="850.01" y="1150" width="50" height="50"/><rect class="cls-1" x="850.01" y="1100" width="50" height="50"/><rect class="cls-1" x="850.01" y="1049.99" width="50" height="50.01"/><rect class="cls-1" x="850.01" y="999.99" width="50" height="50"/><rect class="cls-1" x="850.01" y="950" width="50" height="50"/><rect class="cls-1" x="850.01" y="900" width="50" height="50"/><rect class="cls-1" x="850.01" y="849.99" width="50" height="50.01"/><rect class="cls-1" x="850.01" y="800" width="50" height="50"/><rect class="cls-1" x="850.01" y="750" width="50" height="50"/><rect class="cls-1" x="850.01" y="700" width="50" height="50"/><rect class="cls-1" x="850.01" y="649.99" width="50" height="50.01"/><rect class="cls-1" x="850.01" y="600" width="50" height="50"/><rect class="cls-1" x="850.01" y="550" width="50" height="50"/><rect class="cls-1" x="850.01" y="500.01" width="50" height="50"/><rect class="cls-1" x="850.01" y="449.99" width="50" height="50.01"/><rect class="cls-1" x="850.01" y="400" width="50" height="50"/><rect class="cls-1" x="850.01" y="350" width="50" height="50"/><rect class="cls-1" x="850.01" y="300.01" width="50" height="50"/><rect class="cls-1" x="850.01" y="249.99" width="50" height="50.01"/><rect class="cls-1" x="850.01" y="200" width="50" height="50"/><rect class="cls-1" x="850.01" y="150" width="50" height="50"/><rect class="cls-1" x="850.01" y="100.01" width="50" height="50"/><rect class="cls-1" x="800" y="1249.99" width="50.01" height="50.01"/><rect class="cls-1" x="800" y="1199.99" width="50.01" height="50"/><rect class="cls-1" x="800" y="1150" width="50.01" height="50"/><rect class="cls-1" x="800" y="1100" width="50.01" height="50"/><rect class="cls-1" x="800" y="1049.99" width="50.01" height="50.01"/><rect class="cls-1" x="800" y="999.99" width="50.01" height="50"/><rect class="cls-1" x="800" y="950" width="50.01" height="50"/><rect class="cls-1" x="800" y="900" width="50.01" height="50"/><rect class="cls-1" x="800" y="849.99" width="50.01" height="50.01"/><rect class="cls-1" x="800" y="800" width="50.01" height="50"/><rect class="cls-1" x="800" y="750" width="50.01" height="50"/><rect class="cls-1" x="800" y="700" width="50.01" height="50"/><rect class="cls-1" x="800" y="649.99" width="50.01" height="50.01"/><rect class="cls-1" x="800" y="600" width="50.01" height="50"/><rect class="cls-1" x="800" y="500.01" width="50.01" height="50"/><rect class="cls-1" x="800" y="449.99" width="50.01" height="50.01"/><rect class="cls-1" x="800" y="400" width="50.01" height="50"/><rect class="cls-1" x="800" y="350" width="50.01" height="50"/><rect class="cls-1" x="800" y="300.01" width="50.01" height="50"/><rect class="cls-1" x="800" y="249.99" width="50.01" height="50.01"/><rect class="cls-1" x="800" y="200" width="50.01" height="50"/><rect class="cls-1" x="800" y="150" width="50.01" height="50"/><rect class="cls-1" x="750" y="1249.99" width="50" height="50.01"/><rect class="cls-1" x="750" y="1199.99" width="50" height="50"/><rect class="cls-1" x="750" y="1150" width="50" height="50"/><rect class="cls-1" x="750" y="1100" width="50" height="50"/><rect class="cls-1" x="750" y="1049.99" width="50" height="50.01"/><rect class="cls-1" x="750" y="999.99" width="50" height="50"/><rect class="cls-1" x="750" y="950" width="50" height="50"/><rect class="cls-1" x="750" y="900" width="50" height="50"/><rect class="cls-1" x="750" y="849.99" width="50" height="50.01"/><rect class="cls-1" x="750" y="800" width="50" height="50"/><rect class="cls-1" x="750" y="750" width="50" height="50"/><rect class="cls-1" x="750" y="700" width="50" height="50"/><rect class="cls-1" x="750" y="649.99" width="50" height="50.01"/><rect class="cls-1" x="750" y="600" width="50" height="50"/><rect class="cls-1" x="750" y="449.99" width="50" height="50.01"/><rect class="cls-1" x="750" y="400" width="50" height="50"/><rect class="cls-1" x="750" y="350" width="50" height="50"/><rect class="cls-1" x="750" y="300.01" width="50" height="50"/><rect class="cls-1" x="750" y="249.99" width="50" height="50.01"/><rect class="cls-1" x="750" y="200" width="50" height="50"/><rect class="cls-1" x="700" y="1249.99" width="50" height="50.01"/><rect class="cls-1" x="700" y="1199.99" width="50" height="50"/><rect class="cls-1" x="700" y="1150" width="50" height="50"/><rect class="cls-1" x="700" y="1100" width="50" height="50"/><rect class="cls-1" x="700" y="1049.99" width="50" height="50.01"/><rect class="cls-1" x="700" y="999.99" width="50" height="50"/><rect class="cls-1" x="700" y="950" width="50" height="50"/><rect class="cls-1" x="700" y="900" width="50" height="50"/><rect class="cls-1" x="700" y="849.99" width="50" height="50.01"/><rect class="cls-1" x="700" y="800" width="50" height="50"/><rect class="cls-1" x="700" y="750" width="50" height="50"/><rect class="cls-1" x="700" y="700" width="50" height="50"/><rect class="cls-1" x="700" y="649.99" width="50" height="50.01"/><rect class="cls-1" x="650.01" y="1249.99" width="50" height="50.01"/><rect class="cls-1" x="650.01" y="1199.99" width="50" height="50"/><rect class="cls-1" x="650.01" y="1150" width="50" height="50"/><rect class="cls-1" x="650.01" y="1100" width="50" height="50"/><rect class="cls-1" x="650.01" y="1049.99" width="50" height="50.01"/><rect class="cls-1" x="650.01" y="999.99" width="50" height="50"/><rect class="cls-1" x="650.01" y="950" width="50" height="50"/><rect class="cls-1" x="650.01" y="900" width="50" height="50"/><rect class="cls-1" x="650.01" y="849.99" width="50" height="50.01"/><rect class="cls-1" x="650.01" y="800" width="50" height="50"/><rect class="cls-1" x="650.01" y="750" width="50" height="50"/><rect class="cls-1" x="600" y="1249.99" width="50.01" height="50.01"/><rect class="cls-1" x="600" y="1199.99" width="50.01" height="50"/><rect class="cls-1" x="600" y="1150" width="50.01" height="50"/><rect class="cls-1" x="600" y="1100" width="50.01" height="50"/><rect class="cls-1" x="600" y="1049.99" width="50.01" height="50.01"/><rect class="cls-1" x="600" y="999.99" width="50.01" height="50"/><rect class="cls-1" x="600" y="950" width="50.01" height="50"/><rect class="cls-1" x="600" y="900" width="50.01" height="50"/><rect class="cls-1" x="600" y="849.99" width="50.01" height="50.01"/><rect class="cls-1" x="550" y="1399.99" width="50" height="50.01"/><rect class="cls-1" x="550" y="1350" width="50" height="50"/><rect class="cls-1" x="550" y="1300" width="50" height="50"/><rect class="cls-1" x="550" y="1249.99" width="50" height="50.01"/><rect class="cls-1" x="550" y="1199.99" width="50" height="50"/><rect class="cls-1" x="550" y="1150" width="50" height="50"/><rect class="cls-1" x="550" y="1100" width="50" height="50"/><rect class="cls-1" x="550" y="1049.99" width="50" height="50.01"/><rect class="cls-1" x="550" y="999.99" width="50" height="50"/><rect class="cls-1" x="500.01" y="1399.99" width="50" height="50.01"/><rect class="cls-1" x="500.01" y="1350" width="50" height="50"/><rect class="cls-1" x="500.01" y="1300" width="50" height="50"/><rect class="cls-1" x="500.01" y="1249.99" width="50" height="50.01"/><rect class="cls-1" x="500.01" y="1199.99" width="50" height="50"/><rect class="cls-1" x="500.01" y="1150" width="50" height="50"/><rect class="cls-1" x="500.01" y="1100" width="50" height="50"/><rect class="cls-1" x="450.01" y="1450" width="50" height="50"/><rect class="cls-1" x="450.01" y="1399.99" width="50" height="50.01"/><rect class="cls-1" x="450.01" y="1350" width="50" height="50"/><rect class="cls-1" x="450.01" y="1300" width="50" height="50"/><rect class="cls-1" x="450.01" y="1249.99" width="50" height="50.01"/><rect class="cls-1" x="400" y="1450" width="50.01" height="50"/><rect class="cls-1" x="400" y="1399.99" width="50.01" height="50.01"/><rect class="cls-1" x="400" y="1350" width="50.01" height="50"/><rect class="cls-1" x="400" y="1300" width="50.01" height="50"/><rect class="cls-1" x="350" y="1450" width="50" height="50"/><rect class="cls-1" x="350" y="1399.99" width="50" height="50.01"/><rect class="cls-1" x="350" y="1350" width="50" height="50"/><rect class="cls-1" x="350" y="1300" width="50" height="50"/><rect class="cls-1" x="300.01" y="1450" width="50" height="50"/><rect class="cls-1" x="300.01" y="1399.99" width="50" height="50.01"/><rect class="cls-1" x="300.01" y="1350" width="50" height="50"/><rect class="cls-1" x="250.01" y="1450" width="50" height="50"/><rect class="cls-1" x="250.01" y="1399.99" width="50" height="50.01"/><rect class="cls-1" x="250.01" y="1350" width="50" height="50"/><rect class="cls-1" x="200" y="1450" width="50.01" height="50"/><rect class="cls-1" x="200" y="1399.99" width="50.01" height="50.01"/><rect class="cls-1" x="150" y="1450" width="50" height="50"/><rect class="cls-1" x="150" y="1399.99" width="50" height="50.01"/><rect class="cls-1" x="100.01" y="1450" width="50" height="50"/><rect class="cls-1" x="100.01" y="1399.99" width="50" height="50.01"/><rect class="cls-1" x="50.01" y="1450" width="50" height="50"/><rect class="cls-1" y="1450" width="50.01" height="50"/><rect class="cls-2" x="1250.01" y="1450" width="50" height="50"/><rect class="cls-2" x="1250.01" y="1399.99" width="50" height="50.01"/><rect class="cls-2" x="1250.01" y="1350" width="50" height="50"/><rect class="cls-2" x="1200.01" y="1450" width="50" height="50"/><rect class="cls-2" x="1200.01" y="1399.99" width="50" height="50.01"/><rect class="cls-2" x="1200.01" y="1350" width="50" height="50"/><rect class="cls-2" x="1150" y="1450" width="50.01" height="50"/><rect class="cls-2" x="1150" y="1399.99" width="50.01" height="50.01"/><rect class="cls-2" x="1150" y="1350" width="50.01" height="50"/><rect class="cls-2" x="1150" y="1300" width="50.01" height="50"/><rect class="cls-2" x="1100" y="1450" width="50" height="50"/><rect class="cls-2" x="1100" y="1399.99" width="50" height="50.01"/><rect class="cls-2" x="1100" y="1350" width="50" height="50"/><rect class="cls-2" x="1100" y="1300" width="50" height="50"/><rect class="cls-2" x="1050.01" y="1450" width="50" height="50"/><rect class="cls-2" x="1050.01" y="1399.99" width="50" height="50.01"/><rect class="cls-2" x="1050.01" y="1350" width="50" height="50"/><rect class="cls-2" x="1050.01" y="1300" width="50" height="50"/><rect class="cls-3" x="1050.01" y="249.99" width="50" height="50.01"/><rect class="cls-3" x="1050.01" y="200" width="50" height="50"/><rect class="cls-2" x="1000.01" y="1450" width="50" height="50"/><rect class="cls-2" x="1000.01" y="1399.99" width="50" height="50.01"/><rect class="cls-2" x="1000.01" y="1350" width="50" height="50"/><rect class="cls-2" x="1000.01" y="1300" width="50" height="50"/><rect class="cls-3" x="1000.01" y="249.99" width="50" height="50.01"/><rect class="cls-3" x="1000.01" y="200" width="50" height="50"/><rect class="cls-1" x="850.01" y="1450" width="50" height="50"/><rect class="cls-1" x="850.01" y="1399.99" width="50" height="50.01"/><rect class="cls-1" x="850.01" y="1350" width="50" height="50"/><rect class="cls-1" x="800" y="1450" width="50.01" height="50"/><rect class="cls-1" x="800" y="1399.99" width="50.01" height="50.01"/><rect class="cls-1" x="800" y="1350" width="50.01" height="50"/><rect class="cls-1" x="800" y="1300" width="50.01" height="50"/><rect class="cls-1" x="750" y="1450" width="50" height="50"/><rect class="cls-1" x="750" y="1399.99" width="50" height="50.01"/><rect class="cls-1" x="750" y="1350" width="50" height="50"/><rect class="cls-1" x="750" y="1300" width="50" height="50"/><rect class="cls-1" x="700" y="1450" width="50" height="50"/><rect class="cls-1" x="700" y="1399.99" width="50" height="50.01"/><rect class="cls-1" x="700" y="1350" width="50" height="50"/><rect class="cls-1" x="700" y="1300" width="50" height="50"/><rect class="cls-1" x="650.01" y="1450" width="50" height="50"/><rect class="cls-1" x="650.01" y="1399.99" width="50" height="50.01"/><rect class="cls-1" x="650.01" y="1350" width="50" height="50"/><rect class="cls-1" x="650.01" y="1300" width="50" height="50"/><rect class="cls-1" x="600" y="1450" width="50.01" height="50"/><rect class="cls-1" x="600" y="1399.99" width="50.01" height="50.01"/><rect class="cls-1" x="600" y="1350" width="50.01" height="50"/><rect class="cls-1" x="550" y="1450" width="50" height="50"/><rect class="cls-2" x="1250.01" y="849.99" width="50" height="50.01"/><rect class="cls-2" x="1200.01" y="800" width="50" height="50"/><rect class="cls-2" x="1150" y="800" width="50.01" height="50"/><rect class="cls-4" x="1100" y="1199.99" width="50" height="50"/><rect class="cls-4" x="1100" y="1150" width="50" height="50"/><rect class="cls-4" x="1100" y="1100" width="50" height="50"/><rect class="cls-4" x="1100" y="1049.99" width="50" height="50.01"/><rect class="cls-2" x="1100" y="800" width="50" height="50"/><rect class="cls-4" x="1050.01" y="1249.99" width="50" height="50.01"/><rect class="cls-4" x="1050.01" y="1199.99" width="50" height="50"/><rect class="cls-4" x="1050.01" y="1150" width="50" height="50"/><rect class="cls-4" x="1050.01" y="1100" width="50" height="50"/><rect class="cls-4" x="1050.01" y="1049.99" width="50" height="50.01"/><rect class="cls-4" x="1050.01" y="999.99" width="50" height="50"/><rect class="cls-4" x="1000.01" y="1249.99" width="50" height="50.01"/><rect class="cls-4" x="1000.01" y="1199.99" width="50" height="50"/><rect class="cls-4" x="1000.01" y="1150" width="50" height="50"/><rect class="cls-4" x="1000.01" y="1100" width="50" height="50"/><rect class="cls-4" x="1000.01" y="1049.99" width="50" height="50.01"/><rect class="cls-4" x="1000.01" y="999.99" width="50" height="50"/><rect class="cls-5" x="1000.01" y="849.99" width="50" height="50.01"/><rect class="cls-4" x="950" y="1249.99" width="50.01" height="50.01"/><rect class="cls-4" x="950" y="1199.99" width="50.01" height="50"/><rect class="cls-4" x="950" y="1150" width="50.01" height="50"/><rect class="cls-4" x="950" y="1100" width="50.01" height="50"/><rect class="cls-4" x="950" y="1049.99" width="50.01" height="50.01"/><rect class="cls-5" x="950" y="800" width="50.01" height="50"/><rect class="cls-4" x="900" y="1249.99" width="50" height="50.01"/><rect class="cls-4" x="900" y="1199.99" width="50" height="50"/><rect class="cls-5" x="900" y="800" width="50" height="50"/><rect class="cls-6" x="900" y="600" width="50" height="50"/><rect class="cls-4" x="850.01" y="1249.99" width="50" height="50.01"/><rect class="cls-6" x="850.01" y="1100" width="50" height="50"/><rect class="cls-6" x="850.01" y="750" width="50" height="50"/><rect class="cls-6" x="850.01" y="649.99" width="50" height="50.01"/><rect class="cls-6" x="850.01" y="550" width="50" height="50"/><rect class="cls-6" x="850.01" y="449.99" width="50" height="50.01"/><rect class="cls-6" x="850.01" y="300.01" width="50" height="50"/><rect class="cls-6" x="850.01" y="200" width="50" height="50"/><rect class="cls-6" x="800" y="1199.99" width="50.01" height="50"/><rect class="cls-6" x="800" y="1049.99" width="50.01" height="50.01"/><rect class="cls-6" x="800" y="249.99" width="50.01" height="50.01"/><rect class="cls-6" x="750" y="950" width="50" height="50"/><rect class="cls-6" x="750" y="649.99" width="50" height="50.01"/><rect class="cls-6" x="750" y="449.99" width="50" height="50.01"/><rect class="cls-6" x="750" y="350" width="50" height="50"/><rect class="cls-6" x="650.01" y="1150" width="50" height="50"/><rect class="cls-6" x="650.01" y="999.99" width="50" height="50"/><rect class="cls-6" x="650.01" y="849.99" width="50" height="50.01"/><rect class="cls-6" x="650.01" y="800" width="50" height="50"/><rect class="cls-7" x="650.01" y="700" width="50" height="50"/><rect class="cls-6" x="600" y="849.99" width="50.01" height="50.01"/><rect class="cls-7" x="600" y="800" width="50.01" height="50"/><rect class="cls-6" x="550" y="1249.99" width="50" height="50.01"/><rect class="cls-6" x="550" y="1199.99" width="50" height="50"/><rect class="cls-6" x="550" y="1100" width="50" height="50"/><rect class="cls-7" x="550" y="950" width="50" height="50"/><rect class="cls-7" x="500.01" y="1049.99" width="50" height="50.01"/><rect class="cls-6" x="450.01" y="1249.99" width="50" height="50.01"/><rect class="cls-7" x="450.01" y="1199.99" width="50" height="50"/><rect class="cls-6" x="400" y="1300" width="50.01" height="50"/><rect class="cls-6" x="350" y="1300" width="50" height="50"/><rect class="cls-6" x="300.01" y="1350" width="50" height="50"/><rect class="cls-6" x="100.01" y="1399.99" width="50" height="50.01"/><rect class="cls-8" x="1450" y="449.99" width="50" height="50.01"/><rect class="cls-8" x="1450" y="400" width="50" height="50"/><rect class="cls-9" x="1450" y="350" width="50" height="50"/><rect class="cls-8" x="1450" y="300.01" width="50" height="50"/><rect class="cls-8" x="1450" y="249.99" width="50" height="50.01"/><rect class="cls-10" x="1400.01" y="400" width="50" height="50"/><rect class="cls-8" x="1400.01" y="200" width="50" height="50"/><rect class="cls-10" x="1350" y="400" width="50.01" height="50"/><rect class="cls-9" x="1350" y="350" width="50.01" height="50"/><rect class="cls-8" x="1350" y="200" width="50.01" height="50"/><rect class="cls-9" x="1300" y="1450" width="50" height="50"/><rect class="cls-9" x="1300" y="1399.99" width="50" height="50.01"/><rect class="cls-10" x="1300" y="400" width="50" height="50"/><rect class="cls-8" x="1300" y="200" width="50" height="50"/><rect class="cls-9" x="1250.01" y="1450" width="50" height="50"/><rect class="cls-9" x="1250.01" y="1399.99" width="50" height="50.01"/><rect class="cls-10" x="1250.01" y="400" width="50" height="50"/><rect class="cls-9" x="1250.01" y="350" width="50" height="50"/><rect class="cls-8" x="1250.01" y="200" width="50" height="50"/><rect class="cls-10" x="1200.01" y="400" width="50" height="50"/><rect class="cls-8" x="1200.01" y="150" width="50" height="50"/><rect class="cls-9" x="1150" y="1450" width="50.01" height="50"/><rect class="cls-9" x="1150" y="1399.99" width="50.01" height="50.01"/><rect class="cls-8" x="1150" y="1249.99" width="50.01" height="50.01"/><rect class="cls-8" x="1150" y="1199.99" width="50.01" height="50"/><rect class="cls-8" x="1150" y="1150" width="50.01" height="50"/><rect class="cls-8" x="1150" y="1100" width="50.01" height="50"/><rect class="cls-8" x="1150" y="1049.99" width="50.01" height="50.01"/><rect class="cls-8" x="1150" y="999.99" width="50.01" height="50"/><rect class="cls-8" x="1150" y="950" width="50.01" height="50"/><rect class="cls-8" x="1150" y="900" width="50.01" height="50"/><rect class="cls-10" x="1150" y="400" width="50.01" height="50"/><rect class="cls-9" x="1150" y="350" width="50.01" height="50"/><rect class="cls-8" x="1150" y="150" width="50.01" height="50"/><rect class="cls-8" x="1100" y="849.99" width="50" height="50.01"/><rect class="cls-8" x="1100" y="750" width="50" height="50"/><rect class="cls-8" x="1100" y="700" width="50" height="50"/><rect class="cls-8" x="1100" y="649.99" width="50" height="50.01"/><rect class="cls-8" x="1100" y="100.01" width="50" height="50"/><rect class="cls-8" x="1050.01" y="100.01" width="50" height="50"/><rect class="cls-8" x="1000.01" y="100.01" width="50" height="50"/><rect class="cls-8" x="950" y="100.01" width="50.01" height="50"/><rect class="cls-8" x="900" y="100.01" width="50" height="50"/><rect class="cls-9" x="850.01" y="1450" width="50" height="50"/><rect class="cls-9" x="850.01" y="1399.99" width="50" height="50.01"/><rect class="cls-8" x="850.01" y="1350" width="50" height="50"/><rect class="cls-11" x="850.01" y="500.01" width="50" height="50"/><rect class="cls-8" x="850.01" y="100.01" width="50" height="50"/><rect class="cls-9" x="800" y="1450" width="50.01" height="50"/><rect class="cls-9" x="800" y="1399.99" width="50.01" height="50.01"/><rect class="cls-8" x="800" y="1350" width="50.01" height="50"/><rect class="cls-8" x="800" y="1300" width="50.01" height="50"/><rect class="cls-11" x="800" y="600" width="50.01" height="50"/><rect class="cls-11" x="800" y="500.01" width="50.01" height="50"/><rect class="cls-11" x="800" y="200" width="50.01" height="50"/><rect class="cls-11" x="800" y="150" width="50.01" height="50"/><rect class="cls-8" x="750" y="1350" width="50" height="50"/><rect class="cls-11" x="750" y="600" width="50" height="50"/><rect class="cls-11" x="750" y="400" width="50" height="50"/><rect class="cls-11" x="750" y="300.01" width="50" height="50"/><rect class="cls-11" x="750" y="249.99" width="50" height="50.01"/><rect class="cls-11" x="750" y="200" width="50" height="50"/><rect class="cls-9" x="700" y="1450" width="50" height="50"/><rect class="cls-9" x="700" y="1399.99" width="50" height="50.01"/><rect class="cls-8" x="700" y="1350" width="50" height="50"/><rect class="cls-11" x="700" y="649.99" width="50" height="50.01"/><rect class="cls-9" x="650.01" y="1450" width="50" height="50"/><rect class="cls-9" x="650.01" y="1399.99" width="50" height="50.01"/><rect class="cls-8" x="650.01" y="1350" width="50" height="50"/><rect class="cls-11" x="650.01" y="750" width="50" height="50"/><rect class="cls-11" x="650.01" y="700" width="50" height="50"/><rect class="cls-8" x="600" y="1350" width="50.01" height="50"/><rect class="cls-11" x="600" y="1300" width="50.01" height="50"/><rect class="cls-11" x="600" y="900" width="50.01" height="50"/><rect class="cls-11" x="600" y="849.99" width="50.01" height="50.01"/><rect class="cls-11" x="600" y="800" width="50.01" height="50"/><rect class="cls-9" x="550" y="1450" width="50" height="50"/><rect class="cls-9" x="550" y="1399.99" width="50" height="50.01"/><rect class="cls-11" x="550" y="1300" width="50" height="50"/><rect class="cls-11" x="550" y="999.99" width="50" height="50"/><rect class="cls-11" x="550" y="950" width="50" height="50"/><rect class="cls-11" x="500.01" y="1399.99" width="50" height="50.01"/><rect class="cls-11" x="500.01" y="1350" width="50" height="50"/><rect class="cls-11" x="500.01" y="1150" width="50" height="50"/><rect class="cls-11" x="500.01" y="1100" width="50" height="50"/><rect class="cls-11" x="500.01" y="1049.99" width="50" height="50.01"/><rect class="cls-11" x="450.01" y="1450" width="50" height="50"/><rect class="cls-11" x="450.01" y="1199.99" width="50" height="50"/><rect class="cls-11" x="400" y="1450" width="50.01" height="50"/><rect class="cls-11" x="350" y="1450" width="50" height="50"/><rect class="cls-11" x="300.01" y="1450" width="50" height="50"/><rect class="cls-11" x="250.01" y="1450" width="50" height="50"/><rect class="cls-11" x="250.01" y="1399.99" width="50" height="50.01"/><rect class="cls-11" x="250.01" y="1350" width="50" height="50"/><rect class="cls-11" x="200" y="1450" width="50.01" height="50"/><rect class="cls-11" x="200" y="1399.99" width="50.01" height="50.01"/><rect class="cls-11" x="150" y="1450" width="50" height="50"/><rect class="cls-11" x="150" y="1399.99" width="50" height="50.01"/><rect class="cls-11" x="100.01" y="1450" width="50" height="50"/><rect class="cls-11" x="50.01" y="1450" width="50" height="50"/><rect class="cls-11" y="1450" width="50.01" height="50"/></svg>