<svg width="100%" height="100%" viewBox="0 0 104 104" fill="none" xmlns="http://www.w3.org/2000/svg">
<path d="M103.173 51.5859C103.173 80.0769 80.077 103.172 51.587 103.172C23.097 103.172 0 80.0769 0 51.5859C0 23.0959 23.097 -0.00012207 51.587 -0.00012207C80.077 -0.00012207 103.173 23.0959 103.173 51.5859Z" fill="white"/>
<path d="M100.253 51.5859C100.253 78.4639 78.464 100.253 51.587 100.253C24.709 100.253 2.92001 78.4639 2.92001 51.5859C2.92001 24.7089 24.709 2.91993 51.587 2.91993C78.464 2.91993 100.253 24.7089 100.253 51.5859Z" fill="#548AC8"/>
<path d="M96.3361 51.5625C96.3361 76.2894 76.2901 96.3354 51.5631 96.3354C26.8351 96.3354 6.7901 76.2894 6.7901 51.5625C6.7901 26.8344 26.8351 6.78945 51.5631 6.78945C76.2901 6.78945 96.3361 26.8344 96.3361 51.5625Z" stroke="white" stroke-width="1.079" stroke-miterlimit="10"/>
<path d="M85.9747 51.5626C85.9747 70.5676 70.5687 85.9746 51.5627 85.9746C32.5577 85.9746 17.1507 70.5676 17.1507 51.5626C17.1507 32.5576 32.5577 17.1496 51.5627 17.1496C70.5687 17.1496 85.9747 32.5576 85.9747 51.5626Z" stroke="white" stroke-width="1.079" stroke-miterlimit="10"/>
<path d="M36.6056 86.2168L35.9686 85.9698L36.2156 85.3348L36.8516 85.5808L37.4866 85.8278L38.1216 86.0728L38.7566 86.3208L39.3926 86.5658L40.0276 86.8128L39.7816 87.4468L39.1456 87.2008L38.5116 86.9558L38.2636 87.5908L38.0186 88.2258L37.7716 88.8608L37.5256 89.4968L37.2796 90.1318L37.9156 90.3768L38.5496 90.6238L38.3046 91.2598L37.6676 91.0128L37.0336 90.7668L36.3986 90.5208L35.7626 90.2748L35.1266 90.0278L34.4926 89.7818L34.7386 89.1468L35.3736 89.3928L36.0096 89.6388L36.2546 89.0038L36.5016 88.3688L36.7486 87.7338L36.9946 87.0978L37.2406 86.4628L36.6056 86.2168Z" fill="white"/>
<path d="M33.3976 83.8502L33.9926 84.1832L33.6606 84.7772L33.3276 85.3722L32.9946 85.9672L32.6626 86.5612L32.3296 87.1562L31.9966 87.7502L32.5916 88.0832L33.1856 88.4162L32.8536 89.0112L32.2596 88.6792L31.6646 88.3462L31.0706 88.0132L30.4746 87.6812L29.8796 87.3482L29.2856 87.0162L29.6186 86.4212L30.2126 86.7532L30.8076 87.0852L31.1406 86.4912L31.4726 85.8962L31.8046 85.3022L32.1376 84.7072L32.4706 84.1122L32.8026 83.5182L33.3976 83.8502Z" fill="white"/>
<path d="M27.13 81.2529L27.672 81.6659L28.215 82.0789L28.756 82.4909L29.299 82.9019L29.841 83.3159L29.428 83.8579L29.016 84.3999L28.473 83.9869L27.931 83.5749L27.389 83.1629L26.848 82.7499L26.305 82.3369L25.763 81.9239L26.174 81.3829L26.588 80.8399L27.13 81.2529Z" fill="white"/>
<path d="M23.6622 78.9804L23.1832 78.4954L22.6972 78.9744L22.2132 79.4524L22.6912 79.9374L22.2072 80.4154L22.6852 80.9014L23.1702 80.4224L23.6482 80.9084L24.1342 80.4294L24.6182 79.9514L24.1402 79.4654L23.6622 78.9804ZM24.1602 76.5744L24.6392 77.0604L24.1532 77.5384L23.6682 78.0174L24.1462 78.5014L24.6252 78.9874L25.1032 79.4724L25.5892 78.9934L26.0742 78.5154L26.5522 78.9994L27.0302 79.4854L26.5452 79.9634L26.0602 80.4424L25.5762 80.9204L25.0912 81.3994L24.6052 81.8774L24.1272 81.3924L23.6422 81.8714L23.1642 81.3864L22.6792 81.8654L22.2002 81.3784L21.7222 80.8944L21.2442 80.4094L21.7282 79.9314L21.2502 79.4464L21.7342 78.9674L21.2562 78.4824L21.7422 78.0044L22.2262 77.5254L22.7112 77.0474L23.1952 76.5684L23.6822 76.0904L24.1602 76.5744Z" fill="white"/>
<path d="M20.9054 72.4688L21.3094 73.0168L20.7614 73.4218L21.1664 73.9698L20.6194 74.3748L21.0234 74.9228L20.4744 75.3278L20.8814 75.8758L21.4274 75.4708L21.9764 75.0668L22.5244 74.6618L22.9284 75.2088L23.3344 75.7578L22.7854 76.1618L22.2384 76.5678L21.6894 76.9718L21.1424 77.3758L20.5934 77.7808L20.0474 78.1858L19.4974 78.5908L19.0934 78.0418L18.6874 77.4948L19.2364 77.0888L18.8324 76.5418L19.3794 76.1378L18.9744 75.5888L19.5234 75.1848L19.1174 74.6358L18.5704 75.0418L18.0214 75.4458L17.4734 75.8508L17.0684 75.3028L16.6644 74.7548L17.2134 74.3498L17.7594 73.9448L18.3084 73.5398L18.8554 73.1358L19.4044 72.7308L19.9524 72.3248L20.5004 71.9208L20.9054 72.4688Z" fill="white"/>
<path d="M17.672 68.2802L17.348 67.6812L17.948 67.3572L18.272 67.9572L18.595 68.5572L18.918 69.1562L19.242 69.7572L19.566 70.3552L19.889 70.9552L19.289 71.2782L18.966 70.6792L18.643 70.0792L18.043 70.4032L17.443 70.7262L16.844 71.0502L16.244 71.3742L15.644 71.6962L15.967 72.2972L16.291 72.8962L15.692 73.2192L15.368 72.6202L15.045 72.0202L14.721 71.4222L14.399 70.8222L14.074 70.2212L13.75 69.6222L14.35 69.2992L14.674 69.8982L14.997 70.4982L15.598 70.1742L16.196 69.8502L16.797 69.5272L17.396 69.2042L17.996 68.8812L17.672 68.2802Z" fill="white"/>
<path d="M15.7228 65.5079L15.0838 65.7439L15.3208 66.3839L15.9588 66.1459L16.5978 65.9089L17.2368 65.6719L17.4748 66.3109L17.7108 66.9499L17.0728 67.1869L16.4338 67.4249L15.7948 67.6609L15.1568 67.8989L14.5178 68.1349L13.8788 68.3729L13.2408 68.6099L13.0028 67.9709L12.7658 67.3319L13.4048 67.0949L13.1668 66.4559L13.8058 66.2189L13.5688 65.5809L12.9298 65.8169L12.6938 65.1799L12.0548 65.4169L11.8178 64.7789L11.5798 64.1389L12.2188 63.9029L12.8578 63.6649L13.4958 63.4269L14.1348 63.1909L14.7738 62.9529L15.4118 62.7159L16.0508 62.4779L16.2878 63.1169L16.5258 63.7559L15.8868 63.9929L15.2478 64.2309L14.6098 64.4669L14.8458 65.1069L15.4848 64.8689L15.7228 65.5079Z" fill="white"/>
<path d="M13.2989 59.8356L13.1539 59.1696L12.4879 59.3166L11.8219 59.4606L11.9679 60.1266L11.3019 60.2726L11.4469 60.9386L12.1129 60.7936L12.2589 61.4576L12.9239 61.3126L13.5899 61.1666L13.4449 60.5016L13.2989 59.8356ZM15.0039 58.0676L15.1509 58.7336L14.4849 58.8786L13.8189 59.0246L13.9649 59.6906L14.1109 60.3556L14.2559 61.0226L14.9219 60.8766L15.5859 60.7306L15.7329 61.3956L15.8779 62.0616L15.2129 62.2066L14.5469 62.3536L13.8809 62.4986L13.2159 62.6436L12.5509 62.7896L12.4039 62.1246L11.7389 62.2696L11.5939 61.6036L10.9279 61.7496L10.7819 61.0836L10.6369 60.4186L10.4909 59.7526L11.1559 59.6066L11.0119 58.9416L11.6769 58.7956L11.5309 58.1296L12.1969 57.9846L12.8619 57.8376L13.5279 57.6926L14.1939 57.5486L14.8599 57.4036L15.0039 58.0676Z" fill="white"/>
<path d="M13.7657 52.9345L13.7147 52.2555L14.3947 52.2055L14.4447 52.8845L14.4947 53.5645L14.5447 54.2445L14.5947 54.9225L14.6447 55.6025L14.6957 56.2825L14.7447 56.9615L14.0657 57.0115L13.3867 57.0625L12.7067 57.1125L12.0277 57.1625L11.3477 57.2125L10.6677 57.2615L9.9897 57.3125L9.9387 56.6335L9.8887 55.9535L10.5687 55.9035L11.2467 55.8545L11.9257 55.8035L12.6057 55.7535L13.2867 55.7035L13.9647 55.6525L13.9157 54.9745L13.8657 54.2935L13.8147 53.6155L13.7657 52.9345Z" fill="white"/>
<path d="M14.5802 48.3204L14.5322 49.0004L14.4852 49.6794L14.4392 50.3594L14.3922 51.0394L13.7122 50.9924L13.6652 51.6724L12.9852 51.6254L13.0332 50.9464L13.0792 50.2664L13.7592 50.3124L13.8062 49.6324L13.8522 48.9534L13.9002 48.2734L13.2212 48.2264L12.5402 48.1804L12.4942 48.8594L12.4462 49.5404L12.3992 50.2194L12.3532 50.8994L11.6732 50.8514L11.6272 51.5304L10.9472 51.4854L10.2672 51.4384L10.3132 50.7584L9.63422 50.7114L9.68222 50.0314L9.72822 49.3514L9.77422 48.6724L9.82222 47.9924L10.5012 48.0394L10.5492 47.3594L11.2282 47.4064L11.1812 48.0874L11.1352 48.7654L10.4542 48.7194L10.4082 49.3984L10.3612 50.0784L11.0402 50.1244L11.7202 50.1724L11.7672 49.4934L11.8142 48.8124L11.8602 48.1334L11.9072 47.4534L12.5872 47.5004L12.6352 46.8204L13.3132 46.8674L13.9932 46.9144L13.9462 47.5934L14.6272 47.6404L14.5802 48.3204Z" fill="white"/>
<path d="M14.7286 43.0477L14.5876 43.7147L13.9196 43.5737L13.7796 44.2387L14.4456 44.3807L14.3046 45.0477L14.1626 45.7147L13.4966 45.5727L13.6386 44.9067L12.9716 44.7647L12.8296 45.4307L12.6876 46.0977L12.0216 45.9567L12.1636 45.2897L12.3046 44.6237L11.6386 44.4817L11.4966 45.1477L10.8306 45.0067L10.9716 44.3397L11.1136 43.6737L11.7796 43.8157L11.9206 43.1477L11.2536 43.0067L11.3966 42.3397L11.5376 41.6737L12.2046 41.8157L12.0626 42.4827L12.7296 42.6237L12.8716 41.9567L13.0116 41.2917L13.6796 41.4327L13.5376 42.0987L13.3966 42.7647L14.0626 42.9067L14.2036 42.2397L14.8696 42.3807L14.7286 43.0477Z" fill="white"/>
<path d="M16.5216 37.3199L16.7556 36.6789L17.3956 36.9119L17.1626 37.5529L16.9276 38.1929L16.6956 38.8339L16.4616 39.4729L16.2286 40.1139L15.9946 40.7539L15.3546 40.5209L15.5876 39.8809L15.8226 39.2399L15.1816 39.0069L14.5416 38.7739L13.9016 38.5409L13.2616 38.3069L12.6216 38.0719L12.3876 38.7129L12.1546 39.3529L11.5136 39.1189L11.7486 38.4799L11.9806 37.8389L12.2146 37.1989L12.4476 36.5589L12.6816 35.9189L12.9156 35.2789L13.5546 35.5129L13.3216 36.1529L13.0876 36.7929L13.7286 37.0269L14.3696 37.2599L15.0076 37.4929L15.6486 37.7269L16.2896 37.9599L16.5216 37.3199Z" fill="white"/>
<path d="M18.8224 34.0645L18.5024 34.6665L17.9004 34.3465L17.3014 34.0255L16.6994 33.7055L16.0974 33.3845L15.4964 33.0635L14.8954 32.7435L14.5744 33.3445L14.2544 33.9455L13.6534 33.6255L13.9724 33.0235L14.2944 32.4235L14.6154 31.8205L14.9354 31.2205L15.2564 30.6195L15.5764 30.0175L16.1774 30.3385L15.8574 30.9395L15.5374 31.5415L16.1364 31.8615L16.7384 32.1825L17.3404 32.5025L17.9404 32.8235L18.5424 33.1435L19.1434 33.4635L18.8224 34.0645Z" fill="white"/>
<path d="M21.3087 27.7266L20.9067 28.2766L20.5047 28.8256L20.1037 29.3766L19.7017 29.9276L19.2987 30.4766L18.7487 30.0746L18.1997 29.6716L18.6017 29.1226L19.0027 28.5726L19.4047 28.0226L19.8067 27.4716L20.2087 26.9226L20.6117 26.3726L21.1617 26.7736L21.7107 27.1766L21.3087 27.7266Z" fill="white"/>
<path d="M23.5079 24.2197L23.9829 23.7317L23.4939 23.2557L23.0059 22.7807L22.5309 23.2677L22.0429 22.7927L21.5689 23.2807L22.0569 23.7567L21.5799 24.2447L22.0689 24.7197L22.5569 25.1947L23.0309 24.7067L23.5079 24.2197ZM25.9219 24.6697L25.4469 25.1567L24.9589 24.6807L24.4709 24.2067L23.9959 24.6947L23.5199 25.1837L23.0449 25.6707L23.5329 26.1457L24.0209 26.6207L23.5449 27.1087L23.0709 27.5977L22.5819 27.1227L22.0939 26.6467L21.6059 26.1707L21.1169 25.6967L20.6289 25.2207L21.1049 24.7327L20.6169 24.2567L21.0929 23.7697L20.6049 23.2937L21.0799 22.8057L21.5549 22.3177L22.0299 21.8287L22.5199 22.3047L22.9939 21.8177L23.4829 22.2917L23.9569 21.8037L24.4449 22.2807L24.9339 22.7557L25.4219 23.2297L25.9099 23.7057L26.3979 24.1807L25.9219 24.6697Z" fill="white"/>
<path d="M29.9513 21.3409L29.4123 21.7569L28.9963 21.2169L28.4573 21.6329L28.0413 21.0929L27.5023 21.5089L27.0863 20.9699L26.5473 21.3849L26.9633 21.9239L27.3783 22.4649L27.7933 23.0039L27.2543 23.4199L26.7143 23.8359L26.2983 23.2969L25.8833 22.7559L25.4673 22.2169L25.0513 21.6779L24.6353 21.1359L24.2193 20.5969L23.8033 20.0579L24.3443 19.6419L24.8833 19.2259L25.2993 19.7659L25.8383 19.3499L26.2543 19.8899L26.7943 19.4739L27.2103 20.0149L27.7503 19.5989L27.3343 19.0579L26.9183 18.5189L26.5023 17.9789L27.0413 17.5629L27.5823 17.1479L27.9983 17.6879L28.4133 18.2269L28.8293 18.7669L29.2443 19.3059L29.6603 19.8459L30.0763 20.3859L30.4923 20.9249L29.9513 21.3409Z" fill="white"/>
<path d="M34.0607 18.0297L34.6537 17.6947L34.9887 18.2877L34.3967 18.6227L33.8037 18.9587L33.2107 19.2947L32.6177 19.6297L32.0247 19.9657L31.4317 20.3027L31.0957 19.7097L31.6897 19.3727L32.2817 19.0367L31.9467 18.4447L31.6107 17.8527L31.2757 17.2597L30.9387 16.6657L30.6037 16.0727L30.0107 16.4097L29.4177 16.7447L29.0817 16.1517L29.6747 15.8157L30.2677 15.4807L30.8607 15.1447L31.4537 14.8097L32.0457 14.4727L32.6387 14.1367L32.9747 14.7297L32.3817 15.0667L31.7897 15.4027L32.1247 15.9937L32.4607 16.5867L32.7967 17.1797L33.1317 17.7727L33.4677 18.3657L34.0607 18.0297Z" fill="white"/>
<path d="M36.7833 16.0303L36.5333 15.3953L35.8993 15.6463L36.1503 16.2793L36.4003 16.9143L36.6503 17.5473L36.0173 17.7973L35.3833 18.0483L35.1333 17.4143L34.8833 16.7803L34.6333 16.1463L34.3833 15.5133L34.1323 14.8793L33.8813 14.2463L33.6313 13.6123L34.2643 13.3623L34.8983 13.1113L35.1483 13.7463L35.7823 13.4943L36.0333 14.1293L36.6663 13.8783L36.4163 13.2443L37.0503 12.9943L36.8003 12.3603L37.4333 12.1113L38.0663 11.8593L38.3173 12.4943L38.5673 13.1273L38.8183 13.7603L39.0683 14.3943L39.3183 15.0283L39.5683 15.6623L39.8183 16.2953L39.1853 16.5463L38.5523 16.7963L38.3023 16.1623L38.0513 15.5293L37.8013 14.8953L37.1673 15.1453L37.4183 15.7793L36.7833 16.0303Z" fill="white"/>
<path d="M42.4259 13.4854L43.0879 13.3264L42.9299 12.6634L42.7699 12.0014L42.1079 12.1604L41.9479 11.4984L41.2859 11.6574L41.4459 12.3194L40.7819 12.4784L40.9419 13.1414L41.1009 13.8034L41.7639 13.6444L42.4259 13.4854ZM44.2279 15.1534L43.5659 15.3134L43.4059 14.6504L43.2459 13.9884L42.5849 14.1474L41.9219 14.3064L41.2599 14.4654L41.4199 15.1284L41.5779 15.7914L40.9149 15.9494L40.2529 16.1084L40.0939 15.4464L39.9349 14.7844L39.7759 14.1214L39.6169 13.4594L39.4569 12.7964L40.1199 12.6384L39.9609 11.9744L40.6229 11.8154L40.4649 11.1534L41.1269 10.9944L41.7889 10.8364L42.4509 10.6754L42.6119 11.3394L43.2739 11.1804L43.4319 11.8414L44.0939 11.6834L44.2539 12.3454L44.4129 13.0064L44.5719 13.6704L44.7319 14.3324L44.8909 14.9954L44.2279 15.1534Z" fill="white"/>
<path d="M49.3478 13.8086L50.0258 13.7456L50.0898 14.4236L49.4118 14.4876L48.7338 14.5516L48.0548 14.6146L47.3758 14.6786L46.6988 14.7436L46.0198 14.8066L45.3418 14.8696L45.2778 14.1916L45.2128 13.5136L45.1508 12.8346L45.0858 12.1566L45.0228 11.4796L44.9588 10.7996L44.8948 10.1216L45.5738 10.0586L46.2518 9.99463L46.3148 10.6726L46.3788 11.3506L46.4438 12.0296L46.5058 12.7066L46.5708 13.3856L46.6348 14.0646L47.3128 14.0006L47.9908 13.9366L48.6698 13.8726L49.3478 13.8086Z" fill="white"/>
<path d="M53.9591 14.5315L53.2771 14.4975L52.5981 14.4655L51.9171 14.4315L51.2361 14.3985L51.2701 13.7185L50.5891 13.6855L50.6211 13.0045L51.3031 13.0385L51.9821 13.0705L51.9491 13.7515L52.6311 13.7845L53.3111 13.8175L53.9911 13.8495L54.0241 13.1705L54.0581 12.4885L53.3771 12.4575L52.6961 12.4235L52.0161 12.3905L51.3361 12.3575L51.3681 11.6775L50.6881 11.6435L50.7211 10.9645L50.7541 10.2825L51.4341 10.3165L51.4671 9.63548L52.1471 9.66848L52.8281 9.70148L53.5091 9.73348L54.1891 9.76648L54.1561 10.4475L54.8361 10.4795L54.8041 11.1605L54.1231 11.1275L53.4431 11.0945L53.4761 10.4145L52.7951 10.3815L52.1151 10.3485L52.0821 11.0295L52.0491 11.7105L52.7291 11.7435L53.4101 11.7755L54.0901 11.8085L54.7711 11.8415L54.7381 12.5215L55.4181 12.5545L55.3851 13.2355L55.3521 13.9155L54.6721 13.8835L54.6391 14.5635L53.9591 14.5315Z" fill="white"/>
<path d="M59.2667 14.5785L58.5977 14.4505L58.7267 13.7815L58.0567 13.6525L57.9277 14.3215L57.2597 14.1925L56.5897 14.0655L56.7187 13.3955L57.3877 13.5245L57.5157 12.8555L56.8477 12.7265L56.1777 12.5985L56.3067 11.9295L56.9767 12.0575L57.6457 12.1865L57.7737 11.5165L57.1047 11.3895L57.2327 10.7195L57.9027 10.8485L58.5717 10.9755L58.4437 11.6445L59.1117 11.7735L59.2407 11.1045L59.9107 11.2335L60.5787 11.3615L60.4497 12.0305L59.7807 11.9025L59.6527 12.5715L60.3217 12.6995L60.9907 12.8295L60.8617 13.4975L60.1927 13.3685L59.5237 13.2395L59.3957 13.9095L60.0647 14.0385L59.9357 14.7075L59.2667 14.5785Z" fill="white"/>
<path d="M65.0294 16.261L65.6744 16.482L65.4534 17.126L64.8084 16.906L64.1644 16.684L63.5194 16.463L62.8754 16.241L62.2304 16.021L61.5864 15.8L61.8064 15.156L62.4514 15.376L63.0964 15.597L63.3174 14.952L63.5374 14.309L63.7594 13.664L63.9804 13.019L64.2014 12.375L63.5564 12.154L62.9124 11.933L63.1334 11.289L63.7774 11.51L64.4224 11.731L65.0664 11.951L65.7114 12.173L66.3554 12.393L67.0004 12.615L66.7794 13.259L66.1344 13.038L65.4904 12.817L65.2694 13.461L65.0484 14.106L64.8274 14.75L64.6054 15.395L64.3854 16.04L65.0294 16.261Z" fill="white"/>
<path d="M68.3273 18.4981L67.7203 18.1891L68.0293 17.5821L68.3383 16.9751L68.6463 16.3671L68.9553 15.7591L69.2643 15.1521L69.5733 14.5451L68.9663 14.2361L68.3583 13.9281L68.6673 13.3191L69.2743 13.6291L69.8833 13.9381L70.4893 14.2471L71.0963 14.5571L71.7043 14.8641L72.3103 15.1741L72.0023 15.7811L71.3943 15.4721L70.7873 15.1641L70.4783 15.7701L70.1703 16.3781L69.8613 16.9851L69.5533 17.5921L69.2443 18.1991L68.9343 18.8081L68.3273 18.4981Z" fill="white"/>
<path d="M74.6876 20.841L74.1286 20.449L73.5716 20.06L73.0126 19.668L72.4556 19.279L71.8966 18.888L72.2876 18.329L72.6776 17.771L73.2366 18.162L73.7936 18.552L74.3526 18.943L74.9106 19.333L75.4686 19.724L76.0276 20.115L75.6356 20.673L75.2466 21.231L74.6876 20.841Z" fill="white"/>
<path d="M78.256 22.9826L78.752 23.4486L79.217 22.9506L79.684 22.4546L79.186 21.9876L79.652 21.4906L79.154 21.0246L78.69 21.5226L78.192 21.0566L77.726 21.5536L77.26 22.0516L77.758 22.5166L78.256 22.9826ZM77.853 25.4066L77.356 24.9406L77.821 24.4436L78.287 23.9446L77.789 23.4806L77.292 23.0146L76.795 22.5486L76.328 23.0456L75.863 23.5436L75.366 23.0786L74.869 22.6126L75.334 22.1146L75.8 21.6176L76.265 21.1196L76.731 20.6236L77.196 20.1256L77.694 20.5916L78.16 20.0936L78.657 20.5596L79.123 20.0626L79.62 20.5276L80.117 20.9936L80.615 21.4596L80.149 21.9566L80.647 22.4206L80.181 22.9196L80.678 23.3846L80.213 23.8816L79.747 24.3796L79.281 24.8776L78.817 25.3746L78.35 25.8716L77.853 25.4066Z" fill="white"/>
<path d="M81.254 29.3606L80.828 28.8286L81.359 28.4036L80.933 27.8716L81.464 27.4446L81.037 26.9126L81.568 26.4866L81.143 25.9556L80.611 26.3826L80.08 26.8086L79.548 27.2356L79.121 26.7036L78.695 26.1726L79.227 25.7456L79.758 25.3196L80.289 24.8926L80.82 24.4666L81.352 24.0396L81.883 23.6136L82.414 23.1866L82.84 23.7176L83.267 24.2496L82.736 24.6756L83.162 25.2076L82.631 25.6346L83.058 26.1646L82.527 26.5916L82.953 27.1226L83.484 26.6956L84.016 26.2696L84.547 25.8426L84.973 26.3746L85.4 26.9046L84.869 27.3326L84.338 27.7576L83.807 28.1856L83.275 28.6116L82.744 29.0386L82.212 29.4646L81.682 29.8916L81.254 29.3606Z" fill="white"/>
<path d="M84.6544 33.4141L85.0004 33.9991L84.4144 34.3481L84.0684 33.7621L83.7204 33.1751L83.3734 32.5891L83.0254 32.0031L82.6774 31.4171L82.3314 30.8311L82.9184 30.4831L83.2634 31.0691L83.6114 31.6551L84.1984 31.3081L84.7844 30.9611L85.3704 30.6131L85.9574 30.2671L86.5434 29.9191L86.1954 29.3331L85.8474 28.7471L86.4334 28.3981L86.7814 28.9851L87.1294 29.5711L87.4754 30.1581L87.8224 30.7431L88.1714 31.3301L88.5174 31.9161L87.9314 32.2631L87.5844 31.6771L87.2364 31.0911L86.6504 31.4391L86.0644 31.7861L85.4784 32.1341L84.8924 32.4811L84.3064 32.8271L84.6544 33.4141Z" fill="white"/>
<path d="M86.713 36.0943L87.344 35.8393L87.088 35.2073L86.456 35.4633L85.824 35.7193L85.193 35.9743L84.938 35.3443L84.682 34.7123L85.313 34.4563L85.944 34.2003L86.576 33.9443L87.207 33.6873L87.838 33.4323L88.47 33.1773L89.102 32.9203L89.358 33.5523L89.613 34.1833L88.983 34.4393L89.238 35.0703L88.607 35.3263L88.863 35.9583L89.494 35.7023L89.75 36.3333L90.381 36.0773L90.637 36.7083L90.894 37.3403L90.262 37.5953L89.631 37.8513L88.999 38.1073L88.368 38.3643L87.736 38.6203L87.106 38.8763L86.474 39.1323L86.218 38.5003L85.962 37.8693L86.594 37.6133L87.225 37.3563L87.857 37.1013L87.6 36.4693L86.969 36.7253L86.713 36.0943Z" fill="white"/>
<path d="M89.3634 41.6915L89.5354 42.3505L90.1944 42.1775L90.8534 42.0065L90.6814 41.3475L91.3424 41.1745L91.1704 40.5165L90.5094 40.6875L90.3384 40.0295L89.6784 40.2015L89.0194 40.3735L89.1914 41.0325L89.3634 41.6915ZM87.7294 43.5265L87.5574 42.8665L88.2174 42.6945L88.8774 42.5225L88.7054 41.8635L88.5324 41.2045L88.3594 40.5455L87.7004 40.7175L87.0414 40.8885L86.8694 40.2305L86.6974 39.5715L87.3564 39.3995L88.0154 39.2265L88.6754 39.0555L89.3344 38.8825L89.9934 38.7105L90.1654 39.3705L90.8244 39.1975L90.9964 39.8575L91.6564 39.6845L91.8284 40.3435L92.0004 41.0035L92.1724 41.6625L91.5134 41.8345L91.6854 42.4945L91.0254 42.6655L91.1984 43.3245L90.5394 43.4975L89.8794 43.6685L89.2204 43.8415L88.5604 44.0135L87.9024 44.1855L87.7294 43.5265Z" fill="white"/>
<path d="M89.172 48.6024L89.25 49.2794L88.573 49.3564L88.496 48.6804L88.418 48.0024L88.342 47.3264L88.264 46.6494L88.186 45.9724L88.11 45.2954L88.031 44.6184L88.709 44.5404L89.385 44.4644L90.063 44.3864L90.739 44.3094L91.416 44.2304L92.093 44.1544L92.77 44.0774L92.848 44.7534L92.925 45.4304L92.248 45.5074L91.57 45.5844L90.895 45.6634L90.218 45.7414L89.541 45.8174L88.863 45.8954L88.942 46.5724L89.018 47.2484L89.096 47.9254L89.172 48.6024Z" fill="white"/>
<path d="M88.547 53.2089L88.566 52.5279L88.584 51.8469L88.604 51.1649L88.621 50.4839L89.303 50.5039L89.322 49.8219L90.004 49.8419L89.984 50.5219L89.965 51.2029L89.284 51.1849L89.266 51.8649L89.246 52.5459L89.227 53.2279L89.908 53.2469L90.59 53.2659L90.609 52.5849L90.627 51.9029L90.647 51.2229L90.666 50.5409L91.346 50.5599L91.365 49.8789L92.047 49.8979L92.728 49.9169L92.708 50.5979L93.39 50.6169L93.371 51.2979L93.352 51.9799L93.333 52.6599L93.314 53.3409L92.633 53.3229L92.613 54.0029L91.933 53.9839L91.951 53.3039L91.971 52.6219L92.652 52.6419L92.671 51.9589L92.69 51.2789L92.008 51.2599L91.327 51.2409L91.309 51.9229L91.289 52.6039L91.272 53.2839L91.252 53.9659L90.57 53.9459L90.553 54.6279L89.871 54.6079L89.19 54.5899L89.209 53.9079L88.527 53.8899L88.547 53.2089Z" fill="white"/>
<path d="M88.6056 58.522L88.7206 57.851L89.3926 57.966L89.5076 57.293L88.8356 57.179L88.9506 56.507L89.0656 55.836L89.7366 55.951L89.6226 56.622L90.2936 56.737L90.4086 56.066L90.5236 55.394L91.1956 55.509L91.0806 56.181L90.9646 56.852L91.6366 56.967L91.7516 56.296L92.4236 56.41L92.3086 57.082L92.1936 57.753L91.5226 57.638L91.4076 58.31L92.0796 58.425L91.9636 59.096L91.8486 59.768L91.1776 59.652L91.2936 58.981L90.6216 58.866L90.5056 59.538L90.3906 60.21L89.7186 60.095L89.8346 59.423L89.9496 58.751L89.2776 58.637L89.1626 59.308L88.4906 59.193L88.6056 58.522Z" fill="white"/>
<path d="M87.0411 64.3223L86.8321 64.9703L86.1841 64.7623L86.3911 64.1143L86.6001 63.4653L86.8071 62.8153L87.0161 62.1673L87.2231 61.5183L87.4321 60.8693L88.0801 61.0783L87.8721 61.7263L87.6641 62.3763L88.3121 62.5833L88.9611 62.7923L89.6101 62.9993L90.2601 63.2073L90.9081 63.4163L91.1161 62.7663L91.3241 62.1173L91.9731 62.3263L91.7651 62.9743L91.5571 63.6233L91.3501 64.2723L91.1411 64.9213L90.9331 65.5693L90.7251 66.2183L90.0761 66.0103L90.2841 65.3623L90.4921 64.7123L89.8441 64.5053L89.1931 64.2973L88.5461 64.0903L87.8961 63.8813L87.2481 63.6733L87.0411 64.3223Z" fill="white"/>
<path d="M84.8693 67.6631L85.1663 67.0491L85.7793 67.3471L86.3923 67.6421L87.0063 67.9381L87.6193 68.2351L88.2323 68.5321L88.8463 68.8281L89.1423 68.2151L89.4393 67.6011L90.0533 67.8981L89.7563 68.5131L89.4603 69.1251L89.1633 69.7391L88.8673 70.3511L88.5703 70.9661L88.2733 71.5781L87.6603 71.2821L87.9573 70.6681L88.2543 70.0551L87.6403 69.7591L87.0263 69.4611L86.4133 69.1651L85.7993 68.8701L85.1853 68.5731L84.5723 68.2761L84.8693 67.6631Z" fill="white"/>
<path d="M82.6583 74.0671L83.0373 73.5011L83.4163 72.9351L83.7953 72.3681L84.1743 71.8031L84.5543 71.2371L85.1203 71.6171L85.6853 71.9941L85.3063 72.5611L84.9283 73.1281L84.5483 73.6931L84.1693 74.2601L83.7903 74.8251L83.4103 75.3911L82.8453 75.0121L82.2793 74.6331L82.6583 74.0671Z" fill="white"/>
<path d="M80.5919 77.6706L80.1369 78.1776L80.6449 78.6326L81.1509 79.0886L81.6059 78.5806L82.1129 79.0366L82.5689 78.5296L82.0619 78.0746L82.5169 77.5676L82.0099 77.1126L81.5029 76.6566L81.0479 77.1636L80.5919 77.6706ZM78.1619 77.3196L78.6159 76.8116L79.1229 77.2666L79.6309 77.7226L80.0859 77.2146L80.5409 76.7096L80.9959 76.2016L80.4879 75.7466L79.9829 75.2916L80.4379 74.7846L80.8929 74.2776L81.3999 74.7326L81.9059 75.1876L82.4139 75.6436L82.9199 76.0986L83.4279 76.5536L82.9719 77.0606L83.4789 77.5156L83.0239 78.0226L83.5299 78.4786L83.0749 78.9836L82.6189 79.4916L82.1649 79.9986L81.6579 79.5446L81.2019 80.0496L80.6959 79.5936L80.2399 80.1016L79.7339 79.6466L79.2269 79.1906L78.7199 78.7366L78.2129 78.2806L77.7059 77.8256L78.1619 77.3196Z" fill="white"/>
<path d="M74.2638 80.8122L74.7858 80.3752L75.2228 80.8982L75.7458 80.4602L76.1838 80.9822L76.7048 80.5452L77.1428 81.0682L77.6658 80.6312L77.2288 80.1082L76.7908 79.5862L76.3538 79.0622L76.8768 78.6262L77.3988 78.1892L77.8358 78.7112L78.2738 79.2342L78.7108 79.7572L79.1488 80.2782L79.5848 80.8012L80.0228 81.3242L80.4588 81.8462L79.9378 82.2832L79.4138 82.7212L78.9768 82.1982L78.4548 82.6362L78.0178 82.1122L77.4948 82.5512L77.0578 82.0282L76.5348 82.4652L76.9728 82.9882L77.4098 83.5102L77.8478 84.0322L77.3248 84.4702L76.8018 84.9072L76.3648 84.3842L75.9278 83.8622L75.4908 83.3392L75.0528 82.8162L74.6158 82.2942L74.1798 81.7722L73.7418 81.2492L74.2638 80.8122Z" fill="white"/>
<path d="M70.295 84.2842L69.715 84.6432L69.357 84.0642L69.936 83.7062L70.515 83.3462L71.094 82.9872L71.672 82.6282L72.251 82.2692L72.83 81.9092L73.19 82.4872L72.609 82.8472L72.031 83.2062L72.391 83.7862L72.75 84.3642L73.109 84.9442L73.469 85.5222L73.828 86.1002L74.406 85.7422L74.984 85.3822L75.345 85.9622L74.766 86.3212L74.188 86.6802L73.608 87.0392L73.029 87.3982L72.45 87.7582L71.871 88.1172L71.512 87.5372L72.09 87.1792L72.67 86.8192L72.311 86.2412L71.951 85.6622L71.592 85.0832L71.232 84.5052L70.873 83.9252L70.295 84.2842Z" fill="white"/>
<path d="M67.6349 86.3997L67.9099 87.0227L68.5329 86.7457L68.2569 86.1237L67.9809 85.4997L67.7039 84.8787L68.3269 84.6017L68.9489 84.3257L69.2269 84.9477L69.5019 85.5707L69.7799 86.1927L70.0549 86.8157L70.3319 87.4387L70.6079 88.0607L70.8839 88.6837L70.2619 88.9607L69.6389 89.2377L69.3619 88.6137L68.7389 88.8897L68.4629 88.2687L67.8399 88.5447L68.1169 89.1667L67.4939 89.4427L67.7699 90.0667L67.1479 90.3427L66.5249 90.6187L66.2479 89.9967L65.9729 89.3737L65.6959 88.7507L65.4199 88.1277L65.1429 87.5037L64.8669 86.8817L64.5899 86.2587L65.2129 85.9827L65.8359 85.7067L66.1119 86.3297L66.3889 86.9527L66.6639 87.5747L67.2869 87.2987L67.0119 86.6747L67.6349 86.3997Z" fill="white"/>
<path d="M62.1154 89.1613L61.4614 89.3463L61.6454 90.0023L61.8314 90.6583L62.4864 90.4723L62.6724 91.1273L63.3284 90.9423L63.1424 90.2863L63.7984 90.1003L63.6124 89.4453L63.4274 88.7903L62.7704 88.9753L62.1154 89.1613ZM60.2484 87.5643L60.9034 87.3803L61.0894 88.0353L61.2754 88.6903L61.9304 88.5053L62.5864 88.3193L63.2414 88.1343L63.0554 87.4783L62.8704 86.8233L63.5264 86.6383L64.1814 86.4523L64.3674 87.1073L64.5524 87.7633L64.7384 88.4193L64.9244 89.0743L65.1094 89.7293L64.4534 89.9153L64.6384 90.5713L63.9824 90.7563L64.1684 91.4113L63.5134 91.5983L62.8574 91.7823L62.2024 91.9683L62.0164 91.3123L61.3614 91.4973L61.1764 90.8433L60.5194 91.0283L60.3344 90.3723L60.1494 89.7173L59.9634 89.0613L59.7774 88.4063L59.5934 87.7503L60.2484 87.5643Z" fill="white"/>
<path d="M55.1857 89.1142L54.5097 89.2062L54.4187 88.5312L55.0937 88.4392L55.7697 88.3472L56.4447 88.2582L57.1197 88.1662L57.7947 88.0752L58.4697 87.9852L59.1447 87.8932L59.2367 88.5692L59.3287 89.2442L59.4177 89.9202L59.5097 90.5942L59.6007 91.2692L59.6917 91.9442L59.7837 92.6202L59.1077 92.7112L58.4317 92.8022L58.3417 92.1262L58.2497 91.4522L58.1597 90.7762L58.0687 90.1012L57.9767 89.4262L57.8857 88.7502L57.2107 88.8422L56.5357 88.9332L55.8607 89.0232L55.1857 89.1142Z" fill="white"/>
<path d="M50.5568 88.5801L51.2388 88.5851L51.9188 88.5911L52.6018 88.5971L53.2818 88.6011L53.2768 89.2821L53.9578 89.2881L53.9528 89.9701L53.2708 89.9641L52.5898 89.9591L52.5958 89.2781L51.9138 89.2721L51.2328 89.2671L50.5508 89.2621L50.5458 89.9421L50.5408 90.6241L51.2228 90.6291L51.9038 90.6341L52.5838 90.6401L53.2658 90.6451L53.2598 91.3271L53.9418 91.3321L53.9368 92.0131L53.9308 92.6941L53.2498 92.6891L53.2448 93.3701L52.5638 93.3641L51.8808 93.3601L51.2018 93.3551L50.5198 93.3491L50.5258 92.6681L49.8438 92.6631L49.8478 91.9801L50.5298 91.9861L51.2108 91.9921L51.2058 92.6731L51.8868 92.6781L52.5688 92.6841L52.5748 92.0021L52.5788 91.3211L51.8988 91.3151L51.2168 91.3101L50.5358 91.3051L49.8538 91.2991L49.8598 90.6181L49.1778 90.6131L49.1838 89.9321L49.1898 89.2511L49.8698 89.2561L49.8748 88.5751L50.5568 88.5801Z" fill="white"/>
<path d="M45.2677 88.748L45.9407 88.849L45.8397 89.523L46.5127 89.624L46.6137 88.95L47.2887 89.052L47.9617 89.153L47.8607 89.826L47.1867 89.725L47.0857 90.399L47.7597 90.501L48.4337 90.602L48.3317 91.275L47.6587 91.175L46.9847 91.074L46.8827 91.746L47.5567 91.848L47.4557 92.522L46.7827 92.421L46.1087 92.319L46.2087 91.645L45.5357 91.544L45.4347 92.218L44.7617 92.117L44.0877 92.016L44.1877 91.343L44.8627 91.442L44.9627 90.77L44.2887 90.669L43.6157 90.567L43.7167 89.894L44.3907 89.995L45.0647 90.096L45.1657 89.422L44.4927 89.321L44.5927 88.646L45.2677 88.748Z" fill="white"/>
<path d="M34.3595 74.7139H35.0775V73.9959V73.2779V72.5609V71.8419V71.1249H34.3595V71.8419V72.5609V73.2779H33.6415V73.9959V74.7139H34.3595ZM36.5125 76.1499H35.7955V75.4319H35.0775H34.3595H33.6415H32.9235V76.1499H32.2065H31.4885V75.4319V74.7139H32.2065V73.9959V73.2779H32.9235V72.5609V71.8419V71.1249V70.4069H33.6415H34.3595H35.0775H35.7955H36.5125V71.1249V71.8419V72.5609V73.2779V73.9959V74.7139H37.2305V75.4319V76.1499H36.5125Z" fill="white"/>
<path d="M39.3839 73.9961V73.2781H38.6659V73.9961V74.7141V75.4321H37.9479H37.2309V74.7141V73.9961V73.2781V72.5601V71.8421V71.1241V70.4071H37.9479H38.6659V71.1241H39.3839V71.8421H40.1019V71.1241H40.8199V70.4071H41.5369H42.2549V71.1241V71.8421V72.5601V73.2781V73.9961V74.7141V75.4321H41.5369H40.8199V74.7141V73.9961V73.2781H40.1019V73.9961H39.3839Z" fill="white"/>
<path d="M47.2794 75.4316H46.5614V74.7136V73.9956V73.2786H45.8434V73.9956H45.1264V74.7136H44.4084V75.4316H43.6904H42.9724V74.7136V73.9956V73.2786V72.5606V71.8426V71.1246V70.4066H43.6904H44.4084V71.1246V71.8426V72.5606H45.1264V71.8426H45.8434V71.1246H46.5614V70.4066H47.2794H47.9974V71.1246V71.8426V72.5606V73.2786V73.9956V74.7136V75.4316H47.2794Z" fill="white"/>
<path d="M51.5861 75.4316H50.8681V74.7136V73.9956V73.2786V72.5606V71.8426V71.1246H50.1501H49.4331V70.4066H50.1501H50.8681H51.5861H52.3041H53.0221H53.7391V71.1246H53.0221H52.3041V71.8426V72.5606V73.2786V73.9956V74.7136V75.4316H51.5861Z" fill="white"/>
<path d="M57.3282 73.2782H58.0462V72.5602V71.8422V71.1242H57.3282H56.6102H55.8922V71.8422V72.5602V73.2782H56.6102H57.3282ZM55.1752 75.4312H54.4572V74.7142V73.9962V73.2782V72.5602V71.8422V71.1242V70.4062H55.1752H55.8922H56.6102H57.3282H58.0462H58.7642V71.1242H59.4812V71.8422V72.5602V73.2782H58.7642V73.9962H58.0462H57.3282H56.6102H55.8922V74.7142V75.4312H55.1752Z" fill="white"/>
<path d="M64.506 75.4316H63.788V74.7136V73.9956V73.2786H63.07V73.9956H62.353V74.7136H61.635V75.4316H60.917H60.199V74.7136V73.9956V73.2786V72.5606V71.8426V71.1246V70.4066H60.917H61.635V71.1246V71.8426V72.5606H62.353V71.8426H63.07V71.1246H63.788V70.4066H64.506H65.224V71.1246V71.8426V72.5606V73.2786V73.9956V74.7136V75.4316H64.506Z" fill="white"/>
<path d="M69.53 70.4066H70.248V71.1246H69.53V70.4066ZM68.095 73.2787V72.5606H68.813V71.8427H68.095H67.377V72.5606V73.2787H68.095ZM67.377 71.1246H66.659V70.4066H67.377V71.1246ZM70.248 75.4316H69.53V74.7137V73.9956H68.813V74.7137H68.095V75.4316H67.377H66.659H65.942V74.7137V73.9956V73.2787V72.5606V71.8427H66.659H67.377V71.1246H68.095H68.813H69.53V71.8427H70.248H70.966V72.5606V73.2787V73.9956V74.7137V75.4316H70.248Z" fill="white"/>
<path d="M66.931 42.4517H62.547V33.6837H66.931V42.4517Z" fill="#775034"/>
<path d="M58.1622 29.3006V24.9166H40.6272V29.3006V33.6846H62.5472V29.3006H58.1622Z" fill="#775034"/>
<path d="M53.778 55.6035H49.394V51.2195H53.778V55.6035Z" fill="#F68B62"/>
<path d="M47.234 46.8359H45.011V42.4519H47.234V46.8359Z" fill="#EFD8B9"/>
<path d="M40.627 42.4517H36.243V33.6837H40.627V42.4517Z" fill="#775034"/>
<path d="M49.395 51.2196H53.779V55.6036H49.395V51.2196ZM55.933 42.4516H58.162V46.8356H55.933V42.4516ZM46.586 46.8356H45.011V42.4516H46.586V46.8356ZM62.547 42.4516V33.6836H40.627V42.4516H36.243V46.8356H40.627V59.9876H45.011H49.395V64.3716H58.162V59.9876H62.547V46.8356H66.931V42.4516H62.547Z" fill="#EFD8B9"/>
<path d="M48.583 46.8359H45.311V42.4519H48.583V46.8359Z" fill="#3C4E57"/>
<path d="M58.394 46.8359H55.122V42.4519H58.394V46.8359Z" fill="#3C4E57"/>
<path d="M53.726 42.4519H60.302V45.7399H53.726V42.4519ZM43.915 42.4519H50.491V45.7399H43.915V42.4519ZM62.547 42.4519H61.398V41.356H52.63V41.904H51.587V41.356H42.819V42.4519H40.627H38.436V44.644H40.627H42.819V46.8359H42.846H43.915H50.491H51.587H51.613V45.74H51.587V42.9999H52.63V46.8359H52.656H53.726H60.302H61.398H61.424V45.74H61.398V44.644H62.547H64.738V42.4519H62.547Z" fill="#231F20"/>
</svg>
