<svg id="Layer_1" data-name="Layer 1" xmlns="http://www.w3.org/2000/svg" viewBox="0 0 1500 1500"><defs><style>.cls-1{fill:#b77948;}.cls-2{fill:#af6e41;}.cls-3{fill:#ad7149;}.cls-4{fill:#c48a62;}.cls-5{fill:#ba7c52;}.cls-6{fill:#c6885d;}.cls-7{fill:#e5a17f;}.cls-8{fill:#ffaebc;}.cls-9{fill:#281f16;}.cls-10{fill:#c18359;}</style></defs><rect class="cls-1" x="710.54" y="1342.09" width="78.94" height="78.94"/><rect class="cls-1" x="710.54" y="1263.15" width="78.94" height="78.94"/><rect class="cls-1" x="710.54" y="1184.19" width="78.94" height="78.96"/><rect class="cls-1" x="710.54" y="1105.25" width="78.94" height="78.94"/><rect class="cls-1" x="710.54" y="1026.31" width="78.94" height="78.94"/><rect class="cls-1" x="710.54" y="947.36" width="78.94" height="78.94"/><rect class="cls-1" x="710.54" y="868.4" width="78.94" height="78.96"/><rect class="cls-1" x="631.58" y="1421.04" width="78.96" height="78.96"/><rect class="cls-1" x="631.58" y="1342.09" width="78.96" height="78.94"/><rect class="cls-1" x="631.58" y="1263.15" width="78.96" height="78.94"/><rect class="cls-1" x="631.58" y="1184.19" width="78.96" height="78.96"/><rect class="cls-1" x="631.58" y="1105.25" width="78.96" height="78.94"/><rect class="cls-1" x="631.58" y="1026.31" width="78.96" height="78.94"/><rect class="cls-1" x="631.58" y="947.36" width="78.96" height="78.94"/><rect class="cls-1" x="631.58" y="868.4" width="78.96" height="78.96"/><rect class="cls-1" x="631.58" y="789.46" width="78.96" height="78.94"/><rect class="cls-1" x="631.58" y="710.52" width="78.96" height="78.94"/><rect class="cls-1" x="631.58" y="631.58" width="78.96" height="78.94"/><rect class="cls-1" x="552.64" y="1421.04" width="78.94" height="78.96"/><rect class="cls-1" x="552.64" y="1342.09" width="78.94" height="78.94"/><rect class="cls-1" x="552.64" y="1263.15" width="78.94" height="78.94"/><rect class="cls-1" x="552.64" y="1184.19" width="78.94" height="78.96"/><rect class="cls-1" x="552.64" y="1105.25" width="78.94" height="78.94"/><rect class="cls-1" x="552.64" y="1026.31" width="78.94" height="78.94"/><rect class="cls-1" x="552.64" y="947.36" width="78.94" height="78.94"/><rect class="cls-1" x="552.64" y="868.4" width="78.94" height="78.96"/><rect class="cls-1" x="552.64" y="789.46" width="78.94" height="78.94"/><rect class="cls-1" x="552.64" y="710.52" width="78.94" height="78.94"/><rect class="cls-1" x="552.64" y="631.58" width="78.94" height="78.94"/><rect class="cls-1" x="552.64" y="552.61" width="78.94" height="78.96"/><rect class="cls-1" x="552.64" y="473.67" width="78.94" height="78.94"/><rect class="cls-1" x="473.69" y="1421.04" width="78.94" height="78.96"/><rect class="cls-1" x="473.69" y="1342.09" width="78.94" height="78.94"/><rect class="cls-1" x="473.69" y="1263.15" width="78.94" height="78.94"/><rect class="cls-1" x="473.69" y="1184.19" width="78.94" height="78.96"/><rect class="cls-1" x="473.69" y="1105.25" width="78.94" height="78.94"/><rect class="cls-1" x="473.69" y="1026.31" width="78.94" height="78.94"/><rect class="cls-1" x="473.69" y="947.36" width="78.94" height="78.94"/><rect class="cls-1" x="473.69" y="868.4" width="78.94" height="78.96"/><rect class="cls-1" x="473.69" y="789.46" width="78.94" height="78.94"/><rect class="cls-1" x="473.69" y="710.52" width="78.94" height="78.94"/><rect class="cls-1" x="473.69" y="631.58" width="78.94" height="78.94"/><rect class="cls-1" x="473.69" y="552.61" width="78.94" height="78.96"/><rect class="cls-1" x="473.69" y="473.67" width="78.94" height="78.94"/><rect class="cls-1" x="473.69" y="394.73" width="78.94" height="78.94"/><rect class="cls-1" x="473.69" y="315.79" width="78.94" height="78.94"/><rect class="cls-1" x="394.75" y="1421.04" width="78.94" height="78.96"/><rect class="cls-1" x="394.75" y="1342.09" width="78.94" height="78.94"/><rect class="cls-1" x="394.75" y="1263.15" width="78.94" height="78.94"/><rect class="cls-1" x="394.75" y="1184.19" width="78.94" height="78.96"/><rect class="cls-1" x="394.75" y="1105.25" width="78.94" height="78.94"/><rect class="cls-1" x="394.75" y="1026.31" width="78.94" height="78.94"/><rect class="cls-1" x="394.75" y="947.36" width="78.94" height="78.94"/><rect class="cls-1" x="394.75" y="868.4" width="78.94" height="78.96"/><rect class="cls-1" x="394.75" y="789.46" width="78.94" height="78.94"/><rect class="cls-1" x="394.75" y="710.52" width="78.94" height="78.94"/><rect class="cls-1" x="394.75" y="631.58" width="78.94" height="78.94"/><rect class="cls-1" x="394.75" y="552.61" width="78.94" height="78.96"/><rect class="cls-1" x="394.75" y="473.67" width="78.94" height="78.94"/><rect class="cls-1" x="394.75" y="394.73" width="78.94" height="78.94"/><rect class="cls-1" x="394.75" y="315.79" width="78.94" height="78.94"/><rect class="cls-1" x="394.75" y="236.82" width="78.94" height="78.96"/><rect class="cls-1" x="315.79" y="1421.04" width="78.96" height="78.96"/><rect class="cls-1" x="315.79" y="1342.09" width="78.96" height="78.94"/><rect class="cls-1" x="315.79" y="1263.15" width="78.96" height="78.94"/><rect class="cls-1" x="315.79" y="1184.19" width="78.96" height="78.96"/><rect class="cls-1" x="315.79" y="1105.25" width="78.96" height="78.94"/><rect class="cls-1" x="315.79" y="1026.31" width="78.96" height="78.94"/><rect class="cls-1" x="315.79" y="947.36" width="78.96" height="78.94"/><rect class="cls-1" x="315.79" y="868.4" width="78.96" height="78.96"/><rect class="cls-1" x="315.79" y="789.46" width="78.96" height="78.94"/><rect class="cls-1" x="315.79" y="710.52" width="78.96" height="78.94"/><rect class="cls-1" x="315.79" y="631.58" width="78.96" height="78.94"/><rect class="cls-1" x="315.79" y="552.61" width="78.96" height="78.96"/><rect class="cls-1" x="315.79" y="473.67" width="78.96" height="78.94"/><rect class="cls-1" x="315.79" y="394.73" width="78.96" height="78.94"/><rect class="cls-2" x="315.79" y="315.79" width="78.96" height="78.94"/><rect class="cls-1" x="236.85" y="1421.04" width="78.94" height="78.96"/><rect class="cls-1" x="236.85" y="1342.09" width="78.94" height="78.94"/><rect class="cls-1" x="236.85" y="1263.15" width="78.94" height="78.94"/><rect class="cls-1" x="236.85" y="1184.19" width="78.94" height="78.96"/><rect class="cls-1" x="236.85" y="1105.25" width="78.94" height="78.94"/><rect class="cls-1" x="236.85" y="1026.31" width="78.94" height="78.94"/><rect class="cls-1" x="236.85" y="947.36" width="78.94" height="78.94"/><rect class="cls-1" x="236.85" y="868.4" width="78.94" height="78.96"/><rect class="cls-1" x="236.85" y="789.46" width="78.94" height="78.94"/><rect class="cls-1" x="236.85" y="710.52" width="78.94" height="78.94"/><rect class="cls-1" x="236.85" y="631.58" width="78.94" height="78.94"/><rect class="cls-1" x="236.85" y="552.61" width="78.94" height="78.96"/><rect class="cls-1" x="236.85" y="473.67" width="78.94" height="78.94"/><rect class="cls-1" x="236.85" y="394.73" width="78.94" height="78.94"/><rect class="cls-2" x="236.85" y="315.79" width="78.94" height="78.94"/><rect class="cls-2" x="236.85" y="236.82" width="78.94" height="78.96"/><rect class="cls-1" x="157.91" y="789.46" width="78.94" height="78.94"/><rect class="cls-1" x="157.91" y="710.52" width="78.94" height="78.94"/><rect class="cls-1" x="157.91" y="631.58" width="78.94" height="78.94"/><rect class="cls-1" x="157.91" y="552.61" width="78.94" height="78.96"/><rect class="cls-1" x="157.91" y="473.67" width="78.94" height="78.94"/><rect class="cls-1" x="157.91" y="394.73" width="78.94" height="78.94"/><rect class="cls-1" x="78.96" y="789.46" width="78.94" height="78.94"/><rect class="cls-1" x="78.96" y="710.52" width="78.94" height="78.94"/><rect class="cls-1" x="78.96" y="631.58" width="78.94" height="78.94"/><rect class="cls-1" x="78.96" y="552.61" width="78.94" height="78.96"/><rect class="cls-1" x="78.96" y="473.67" width="78.94" height="78.94"/><rect class="cls-1" y="710.52" width="78.96" height="78.94"/><rect class="cls-1" y="631.58" width="78.96" height="78.94"/><rect class="cls-1" y="552.61" width="78.96" height="78.96"/><rect class="cls-3" x="1421.06" y="868.4" width="78.94" height="78.96"/><rect class="cls-3" x="1421.06" y="789.46" width="78.94" height="78.94"/><rect class="cls-3" x="1421.06" y="710.52" width="78.94" height="78.94"/><rect class="cls-3" x="1421.06" y="631.58" width="78.94" height="78.94"/><rect class="cls-3" x="1421.06" y="552.61" width="78.94" height="78.96"/><rect class="cls-3" x="1342.12" y="947.36" width="78.94" height="78.94"/><rect class="cls-3" x="1342.12" y="868.4" width="78.94" height="78.96"/><rect class="cls-3" x="1342.12" y="789.46" width="78.94" height="78.94"/><rect class="cls-3" x="1342.12" y="710.52" width="78.94" height="78.94"/><rect class="cls-3" x="1342.12" y="631.58" width="78.94" height="78.94"/><rect class="cls-4" x="1342.12" y="552.61" width="78.94" height="78.96"/><rect class="cls-4" x="1342.12" y="473.67" width="78.94" height="78.94"/><rect class="cls-3" x="1263.18" y="1026.31" width="78.94" height="78.94"/><rect class="cls-3" x="1263.18" y="947.36" width="78.94" height="78.94"/><rect class="cls-5" x="1263.18" y="868.4" width="78.94" height="78.96"/><rect class="cls-5" x="1263.18" y="789.46" width="78.94" height="78.94"/><rect class="cls-5" x="1263.18" y="710.52" width="78.94" height="78.94"/><rect class="cls-5" x="1263.18" y="631.58" width="78.94" height="78.94"/><rect class="cls-5" x="1263.18" y="552.61" width="78.94" height="78.96"/><rect class="cls-4" x="1263.18" y="473.67" width="78.94" height="78.94"/><rect class="cls-3" x="1184.21" y="1263.15" width="78.96" height="78.94"/><rect class="cls-3" x="1184.21" y="1184.19" width="78.96" height="78.96"/><rect class="cls-3" x="1184.21" y="1105.25" width="78.96" height="78.94"/><rect class="cls-3" x="1184.21" y="1026.31" width="78.96" height="78.94"/><rect class="cls-5" x="1184.21" y="947.36" width="78.96" height="78.94"/><rect class="cls-5" x="1184.21" y="868.4" width="78.96" height="78.96"/><rect class="cls-5" x="1184.21" y="789.46" width="78.96" height="78.94"/><rect class="cls-5" x="1184.21" y="710.52" width="78.96" height="78.94"/><rect class="cls-5" x="1184.21" y="631.58" width="78.96" height="78.94"/><rect class="cls-5" x="1184.21" y="552.61" width="78.96" height="78.96"/><rect class="cls-4" x="1184.21" y="473.67" width="78.96" height="78.94"/><rect class="cls-3" x="1105.27" y="1342.09" width="78.94" height="78.94"/><rect class="cls-3" x="1105.27" y="1263.15" width="78.94" height="78.94"/><rect class="cls-5" x="1105.27" y="1184.19" width="78.94" height="78.96"/><rect class="cls-5" x="1105.27" y="1105.25" width="78.94" height="78.94"/><rect class="cls-5" x="1105.27" y="1026.31" width="78.94" height="78.94"/><rect class="cls-5" x="1105.27" y="947.36" width="78.94" height="78.94"/><rect class="cls-5" x="1105.27" y="868.4" width="78.94" height="78.96"/><rect class="cls-5" x="1105.27" y="789.46" width="78.94" height="78.94"/><rect class="cls-5" x="1105.27" y="710.52" width="78.94" height="78.94"/><rect class="cls-5" x="1105.27" y="631.58" width="78.94" height="78.94"/><rect class="cls-5" x="1105.27" y="552.61" width="78.94" height="78.96"/><rect class="cls-4" x="1105.27" y="473.67" width="78.94" height="78.94"/><rect class="cls-3" x="1026.33" y="1342.09" width="78.94" height="78.94"/><rect class="cls-5" x="1026.33" y="1263.15" width="78.94" height="78.94"/><rect class="cls-5" x="1026.33" y="1184.19" width="78.94" height="78.96"/><rect class="cls-5" x="1026.33" y="1105.25" width="78.94" height="78.94"/><rect class="cls-5" x="1026.33" y="1026.31" width="78.94" height="78.94"/><rect class="cls-5" x="1026.33" y="947.36" width="78.94" height="78.94"/><rect class="cls-5" x="1026.33" y="868.4" width="78.94" height="78.96"/><rect class="cls-5" x="1026.33" y="789.46" width="78.94" height="78.94"/><rect class="cls-5" x="1026.33" y="710.52" width="78.94" height="78.94"/><rect class="cls-5" x="1026.33" y="631.58" width="78.94" height="78.94"/><rect class="cls-5" x="1026.33" y="552.61" width="78.94" height="78.96"/><rect class="cls-4" x="1026.33" y="473.67" width="78.94" height="78.94"/><rect class="cls-3" x="947.39" y="1342.09" width="78.94" height="78.94"/><rect class="cls-5" x="947.39" y="1263.15" width="78.94" height="78.94"/><rect class="cls-5" x="947.39" y="1184.19" width="78.94" height="78.96"/><rect class="cls-5" x="947.39" y="1105.25" width="78.94" height="78.94"/><rect class="cls-4" x="947.39" y="1026.31" width="78.94" height="78.94"/><rect class="cls-4" x="947.39" y="947.36" width="78.94" height="78.94"/><rect class="cls-4" x="947.39" y="868.4" width="78.94" height="78.96"/><rect class="cls-4" x="947.39" y="789.46" width="78.94" height="78.94"/><rect class="cls-4" x="947.39" y="710.52" width="78.94" height="78.94"/><rect class="cls-4" x="947.39" y="631.58" width="78.94" height="78.94"/><rect class="cls-4" x="947.39" y="552.61" width="78.94" height="78.96"/><rect class="cls-3" x="868.42" y="1342.09" width="78.96" height="78.94"/><rect class="cls-5" x="868.42" y="1263.15" width="78.96" height="78.94"/><rect class="cls-5" x="868.42" y="1184.19" width="78.96" height="78.96"/><rect class="cls-4" x="868.42" y="1105.25" width="78.96" height="78.94"/><rect class="cls-3" x="789.48" y="1342.09" width="78.94" height="78.94"/><rect class="cls-5" x="789.48" y="1263.15" width="78.94" height="78.94"/><rect class="cls-4" x="789.48" y="1184.19" width="78.94" height="78.96"/><rect class="cls-6" x="710.54" y="1342.09" width="78.94" height="78.94"/><rect class="cls-6" x="710.54" y="1263.15" width="78.94" height="78.94"/><rect class="cls-6" x="710.54" y="1184.19" width="78.94" height="78.96"/><rect class="cls-3" x="710.54" y="1105.25" width="78.94" height="78.94"/><rect class="cls-3" x="710.54" y="1026.31" width="78.94" height="78.94"/><rect class="cls-3" x="710.54" y="947.36" width="78.94" height="78.94"/><rect class="cls-3" x="710.54" y="868.4" width="78.94" height="78.96"/><rect class="cls-6" x="631.58" y="1421.04" width="78.96" height="78.96"/><rect class="cls-6" x="631.58" y="1342.09" width="78.96" height="78.94"/><rect class="cls-6" x="631.58" y="1263.15" width="78.96" height="78.94"/><rect class="cls-6" x="631.58" y="1184.19" width="78.96" height="78.96"/><rect class="cls-6" x="631.58" y="1105.25" width="78.96" height="78.94"/><rect class="cls-3" x="631.58" y="789.46" width="78.96" height="78.94"/><rect class="cls-3" x="631.58" y="710.52" width="78.96" height="78.94"/><rect class="cls-3" x="631.58" y="631.58" width="78.96" height="78.94"/><rect class="cls-6" x="552.64" y="1421.04" width="78.94" height="78.96"/><rect class="cls-6" x="552.64" y="1342.09" width="78.94" height="78.94"/><rect class="cls-6" x="552.64" y="1263.15" width="78.94" height="78.94"/><rect class="cls-6" x="552.64" y="1184.19" width="78.94" height="78.96"/><rect class="cls-6" x="552.64" y="1105.25" width="78.94" height="78.94"/><rect class="cls-3" x="552.64" y="552.61" width="78.94" height="78.96"/><rect class="cls-3" x="552.64" y="473.67" width="78.94" height="78.94"/><rect class="cls-6" x="473.69" y="1421.04" width="78.94" height="78.96"/><rect class="cls-6" x="473.69" y="1342.09" width="78.94" height="78.94"/><rect class="cls-6" x="473.69" y="1263.15" width="78.94" height="78.94"/><rect class="cls-6" x="473.69" y="1184.19" width="78.94" height="78.96"/><rect class="cls-6" x="473.69" y="1105.25" width="78.94" height="78.94"/><rect class="cls-6" x="394.75" y="1421.04" width="78.94" height="78.96"/><rect class="cls-6" x="394.75" y="1342.09" width="78.94" height="78.94"/><rect class="cls-6" x="394.75" y="1263.15" width="78.94" height="78.94"/><rect class="cls-6" x="394.75" y="1184.19" width="78.94" height="78.96"/><rect class="cls-6" x="394.75" y="1105.25" width="78.94" height="78.94"/><rect class="cls-7" x="394.75" y="315.79" width="78.94" height="78.94"/><rect class="cls-6" x="315.79" y="1421.04" width="78.96" height="78.96"/><rect class="cls-6" x="315.79" y="1263.15" width="78.96" height="78.94"/><rect class="cls-6" x="315.79" y="1184.19" width="78.96" height="78.96"/><rect class="cls-8" x="315.79" y="710.52" width="78.96" height="78.94"/><rect class="cls-9" x="236.85" y="631.58" width="78.94" height="78.94"/><rect class="cls-9" x="236.85" y="552.61" width="78.94" height="78.96"/><rect class="cls-7" x="236.85" y="315.79" width="78.94" height="78.94"/><rect class="cls-10" x="157.91" y="394.73" width="78.94" height="78.94"/><rect class="cls-10" x="78.96" y="473.67" width="78.94" height="78.94"/><rect class="cls-10" y="710.52" width="78.96" height="78.94"/><rect class="cls-10" y="631.58" width="78.96" height="78.94"/><rect class="cls-10" y="552.61" width="78.96" height="78.96"/></svg>