<svg width="164" height="299" viewBox="0 0 164 299" fill="none" xmlns="http://www.w3.org/2000/svg">
<path d="M64.2528 80.8098H71.3513V88.8908H64.2528V80.8098Z" fill="white"/>
<path d="M64.2528 72.7288H71.3513V80.8097H64.2528V72.7288Z" fill="white"/>
<path d="M64.2528 64.6478H71.3513V72.7288H64.2528V64.6478Z" fill="white"/>
<path d="M64.2528 56.5668H71.3513V64.6497H64.2528V56.5668Z" fill="white"/>
<path d="M71.3517 88.8907H78.4502V96.9737H71.3517V88.8907Z" fill="white"/>
<path d="M71.3517 80.8098H78.4502V88.8908H71.3517V80.8098Z" fill="white"/>
<path d="M71.3517 72.7288H78.4502V80.8097H71.3517V72.7288Z" fill="white"/>
<path d="M71.3517 64.6478H78.4502V72.7288H71.3517V64.6478Z" fill="white"/>
<path d="M71.3517 56.5668H78.4502V64.6497H71.3517V56.5668Z" fill="white"/>
<path d="M71.3517 48.4858H78.4502V56.5668H71.3517V48.4858Z" fill="white"/>
<path d="M78.4488 113.134H85.5474V121.216H78.4488V113.134Z" fill="white"/>
<path d="M78.4488 105.055H85.5474V113.136H78.4488V105.055Z" fill="white"/>
<path d="M78.4488 96.9736H85.5474V105.055H78.4488V96.9736Z" fill="white"/>
<path d="M78.4488 88.8907H85.5474V96.9737H78.4488V88.8907Z" fill="white"/>
<path d="M78.4488 80.8098H85.5474V88.8908H78.4488V80.8098Z" fill="white"/>
<path d="M78.4488 72.7288H85.5474V80.8097H78.4488V72.7288Z" fill="white"/>
<path d="M78.4488 64.6478H85.5474V72.7288H78.4488V64.6478Z" fill="white"/>
<path d="M78.4488 56.5668H85.5474V64.6497H78.4488V56.5668Z" fill="white"/>
<path d="M78.4488 48.4858H85.5474V56.5668H78.4488V48.4858Z" fill="white"/>
<path d="M78.4488 40.4048H85.5474V48.4857H78.4488V40.4048Z" fill="white"/>
<path d="M85.5468 121.217H92.6475V129.298H85.5468V121.217Z" fill="white"/>
<path d="M85.5468 113.134H92.6475V121.216H85.5468V113.134Z" fill="white"/>
<path d="M85.5468 105.055H92.6475V113.136H85.5468V105.055Z" fill="white"/>
<path d="M85.5468 96.9736H92.6475V105.055H85.5468V96.9736Z" fill="white"/>
<path d="M85.5468 88.8907H92.6475V96.9737H85.5468V88.8907Z" fill="white"/>
<path d="M85.5468 80.8098H92.6475V88.8908H85.5468V80.8098Z" fill="white"/>
<path d="M85.5468 72.7288H92.6475V80.8097H85.5468V72.7288Z" fill="white"/>
<path d="M85.5468 64.6478H92.6475V72.7288H85.5468V64.6478Z" fill="white"/>
<path d="M85.5468 56.5668H92.6475V64.6497H85.5468V56.5668Z" fill="white"/>
<path d="M85.5468 48.4858H92.6475V56.5668H85.5468V48.4858Z" fill="white"/>
<path d="M85.5468 40.4048H92.6475V48.4857H85.5468V40.4048Z" fill="white"/>
<path d="M92.6476 121.217H99.7461V129.298H92.6476V121.217Z" fill="white"/>
<path d="M92.6476 113.134H99.7461V121.216H92.6476V113.134Z" fill="white"/>
<path d="M92.6476 105.055H99.7461V113.136H92.6476V105.055Z" fill="white"/>
<path d="M92.6476 96.9736H99.7461V105.055H92.6476V96.9736Z" fill="white"/>
<path d="M92.6476 88.8907H99.7461V96.9737H92.6476V88.8907Z" fill="white"/>
<path d="M92.6476 80.8098H99.7461V88.8908H92.6476V80.8098Z" fill="white"/>
<path d="M92.6476 72.7288H99.7461V80.8097H92.6476V72.7288Z" fill="white"/>
<path d="M92.6476 64.6478H99.7461V72.7288H92.6476V64.6478Z" fill="white"/>
<path d="M92.6476 56.5668H99.7461V64.6497H92.6476V56.5668Z" fill="white"/>
<path d="M92.6476 48.4858H99.7461V56.5668H92.6476V48.4858Z" fill="white"/>
<path d="M92.6476 40.4048H99.7461V48.4857H92.6476V40.4048Z" fill="white"/>
<path d="M99.745 121.217H106.844V129.298H99.745V121.217Z" fill="white"/>
<path d="M99.745 113.134H106.844V121.216H99.745V113.134Z" fill="white"/>
<path d="M99.745 105.055H106.844V113.136H99.745V105.055Z" fill="white"/>
<path d="M99.745 96.9736H106.844V105.055H99.745V96.9736Z" fill="white"/>
<path d="M99.745 88.8907H106.844V96.9737H99.745V88.8907Z" fill="white"/>
<path d="M99.745 80.8098H106.844V88.8908H99.745V80.8098Z" fill="white"/>
<path d="M99.745 72.7288H106.844V80.8097H99.745V72.7288Z" fill="white"/>
<path d="M99.745 64.6478H106.844V72.7288H99.745V64.6478Z" fill="white"/>
<path d="M99.745 56.5668H106.844V64.6497H99.745V56.5668Z" fill="white"/>
<path d="M99.745 48.4858H106.844V56.5668H99.745V48.4858Z" fill="white"/>
<path d="M99.745 40.4048H106.844V48.4857H99.745V40.4048Z" fill="white"/>
<path d="M106.843 121.217H113.944V129.298H106.843V121.217Z" fill="white"/>
<path d="M106.843 113.134H113.944V121.216H106.843V113.134Z" fill="white"/>
<path d="M106.843 105.055H113.944V113.136H106.843V105.055Z" fill="white"/>
<path d="M106.843 96.9736H113.944V105.055H106.843V96.9736Z" fill="white"/>
<path d="M106.843 88.8907H113.944V96.9737H106.843V88.8907Z" fill="white"/>
<path d="M106.843 80.8098H113.944V88.8908H106.843V80.8098Z" fill="white"/>
<path d="M106.843 72.7288H113.944V80.8097H106.843V72.7288Z" fill="white"/>
<path d="M106.843 64.6478H113.944V72.7288H106.843V64.6478Z" fill="white"/>
<path d="M106.843 56.5668H113.944V64.6497H106.843V56.5668Z" fill="white"/>
<path d="M106.843 48.4858H113.944V56.5668H106.843V48.4858Z" fill="white"/>
<path d="M106.843 40.4048H113.944V48.4857H106.843V40.4048Z" fill="white"/>
<path d="M113.943 121.217H121.041V129.298H113.943V121.217Z" fill="white"/>
<path d="M113.943 113.134H121.041V121.216H113.943V113.134Z" fill="white"/>
<path d="M113.943 105.055H121.041V113.136H113.943V105.055Z" fill="white"/>
<path d="M113.943 96.9736H121.041V105.055H113.943V96.9736Z" fill="white"/>
<path d="M113.943 88.8907H121.041V96.9737H113.943V88.8907Z" fill="white"/>
<path d="M113.943 80.8098H121.041V88.8908H113.943V80.8098Z" fill="white"/>
<path d="M113.943 72.7288H121.041V80.8097H113.943V72.7288Z" fill="white"/>
<path d="M113.943 64.6478H121.041V72.7288H113.943V64.6478Z" fill="white"/>
<path d="M113.943 56.5668H121.041V64.6497H113.943V56.5668Z" fill="white"/>
<path d="M113.943 48.4858H121.041V56.5668H113.943V48.4858Z" fill="white"/>
<path d="M121.04 121.217H128.138V129.298H121.04V121.217Z" fill="white"/>
<path d="M121.04 113.134H128.138V121.216H121.04V113.134Z" fill="white"/>
<path d="M121.04 105.055H128.138V113.136H121.04V105.055Z" fill="white"/>
<path d="M121.04 96.9736H128.138V105.055H121.04V96.9736Z" fill="white"/>
<path d="M121.04 88.8907H128.138V96.9737H121.04V88.8907Z" fill="white"/>
<path d="M121.04 80.8098H128.138V88.8908H121.04V80.8098Z" fill="white"/>
<path d="M121.04 72.7288H128.138V80.8097H121.04V72.7288Z" fill="white"/>
<path d="M121.04 64.6478H128.138V72.7288H121.04V64.6478Z" fill="white"/>
<path d="M121.04 56.5668H128.138V64.6497H121.04V56.5668Z" fill="white"/>
<path d="M128.139 121.217H135.237V129.298H128.139V121.217Z" fill="white"/>
<path d="M128.139 113.134H135.237V121.216H128.139V113.134Z" fill="white"/>
<path d="M128.139 105.055H135.237V113.136H128.139V105.055Z" fill="white"/>
<path d="M128.139 96.9736H135.237V105.055H128.139V96.9736Z" fill="white"/>
<path d="M128.139 88.8907H135.237V96.9737H128.139V88.8907Z" fill="white"/>
<path d="M128.139 80.8098H135.237V88.8908H128.139V80.8098Z" fill="white"/>
<path d="M135.237 113.134H142.337V121.216H135.237V113.134Z" fill="white"/>
<path d="M135.237 105.055H142.337V113.136H135.237V105.055Z" fill="white"/>
<path d="M135.237 96.9736H142.337V105.055H135.237V96.9736Z" fill="white"/>
<path d="M135.237 88.8907H142.337V96.9737H135.237V88.8907Z" fill="white"/>
<path d="M0.366486 185.866H7.46704V193.947H0.366486V185.866Z" fill="#8E6EAF"/>
<path d="M7.46848 185.866H14.5669V193.947H7.46848V185.866Z" fill="#8E6EAF"/>
<path d="M7.46848 177.783H14.5669V185.866H7.46848V177.783Z" fill="#8E6EAF"/>
<path d="M14.5631 177.783H21.6616V185.866H14.5631V177.783Z" fill="#8E6EAF"/>
<path d="M14.5631 169.702H21.6616V177.783H14.5631V169.702Z" fill="#8E6EAF"/>
<path d="M21.6633 177.783H28.7617V185.866H21.6633V177.783Z" fill="#8E6EAF"/>
<path d="M21.6633 169.702H28.7617V177.783H21.6633V169.702Z" fill="#8E6EAF"/>
<path d="M21.6633 161.621H28.7617V169.702H21.6633V161.621Z" fill="white"/>
<path d="M28.7612 169.702H35.8618V177.783H28.7612V169.702Z" fill="white"/>
<path d="M28.7612 161.621H35.8618V169.702H28.7612V161.621Z" fill="white"/>
<path d="M28.7612 153.541H35.8618V161.622H28.7612V153.541Z" fill="white"/>
<path d="M35.8593 161.621H42.9578V169.702H35.8593V161.621Z" fill="white"/>
<path d="M35.8593 153.541H42.9578V161.622H35.8593V153.541Z" fill="white"/>
<path d="M35.8593 145.46H42.9578V153.543H35.8593V145.46Z" fill="white"/>
<path d="M35.8593 137.379H42.9578V145.46H35.8593V137.379Z" fill="white"/>
<path d="M42.9578 153.541H50.0564V161.622H42.9578V153.541Z" fill="white"/>
<path d="M42.9578 145.46H50.0564V153.543H42.9578V145.46Z" fill="white"/>
<path d="M42.9578 137.379H50.0564V145.46H42.9578V137.379Z" fill="white"/>
<path d="M42.9578 129.298H50.0564V137.379H42.9578V129.298Z" fill="white"/>
<path d="M50.0567 145.46H57.1553V153.543H50.0567V145.46Z" fill="white"/>
<path d="M50.0567 137.379H57.1553V145.46H50.0567V137.379Z" fill="white"/>
<path d="M50.0567 129.298H57.1553V137.379H50.0567V129.298Z" fill="white"/>
<path d="M50.0567 121.217H57.1553V129.298H50.0567V121.217Z" fill="white"/>
<path d="M64.2528 88.8907H71.3513V96.9737H64.2528V88.8907Z" fill="#E2D6D6"/>
<path d="M121.04 129.298H128.138V137.379H121.04V129.298Z" fill="#E2D6D6"/>
<path d="M113.943 129.298H121.041V137.379H113.943V129.298Z" fill="white"/>
<path d="M57.1533 242.431H64.2539V250.514H57.1533V242.431Z" fill="#E2D6D6"/>
<path d="M57.1533 234.35H64.2539V242.431H57.1533V234.35Z" fill="#E2D6D6"/>
<path d="M57.1533 226.271H64.2539V234.352H57.1533V226.271Z" fill="#E2D6D6"/>
<path d="M57.1533 218.19H64.2539V226.271H57.1533V218.19Z" fill="#E2D6D6"/>
<path d="M57.1533 210.107H64.2539V218.19H57.1533V210.107Z" fill="#E2D6D6"/>
<path d="M57.1533 202.026H64.2539V210.107H57.1533V202.026Z" fill="#E2D6D6"/>
<path d="M57.1533 193.945H64.2539V202.026H57.1533V193.945Z" fill="#E2D6D6"/>
<path d="M57.1533 185.866H64.2539V193.947H57.1533V185.866Z" fill="#E2D6D6"/>
<path d="M57.1533 177.783H64.2539V185.866H57.1533V177.783Z" fill="#E2D6D6"/>
<path d="M57.1533 169.702H64.2539V177.783H57.1533V169.702Z" fill="#E2D6D6"/>
<path d="M57.1533 161.621H64.2539V169.702H57.1533V161.621Z" fill="#E2D6D6"/>
<path d="M57.1533 153.541H64.2539V161.622H57.1533V153.541Z" fill="#E2D6D6"/>
<path d="M57.1533 145.46H64.2539V153.543H57.1533V145.46Z" fill="#E2D6D6"/>
<path d="M57.1533 137.379H64.2539V145.46H57.1533V137.379Z" fill="#E2D6D6"/>
<path d="M57.1533 129.298H64.2539V137.379H57.1533V129.298Z" fill="#E2D6D6"/>
<path d="M57.1533 121.217H64.2539V129.298H57.1533V121.217Z" fill="#E2D6D6"/>
<path d="M57.1533 113.134H64.2539V121.216H57.1533V113.134Z" fill="#E2D6D6"/>
<path d="M64.2528 242.431H71.3513V250.514H64.2528V242.431Z" fill="#E2D6D6"/>
<path d="M64.2528 234.35H71.3513V242.431H64.2528V234.35Z" fill="white"/>
<path d="M64.2528 226.271H71.3513V234.352H64.2528V226.271Z" fill="white"/>
<path d="M64.2528 218.19H71.3513V226.271H64.2528V218.19Z" fill="white"/>
<path d="M64.2528 210.107H71.3513V218.19H64.2528V210.107Z" fill="white"/>
<path d="M64.2528 202.026H71.3513V210.107H64.2528V202.026Z" fill="white"/>
<path d="M64.2528 193.945H71.3513V202.026H64.2528V193.945Z" fill="white"/>
<path d="M64.2528 185.866H71.3513V193.947H64.2528V185.866Z" fill="white"/>
<path d="M64.2528 177.783H71.3513V185.866H64.2528V177.783Z" fill="white"/>
<path d="M64.2528 169.702H71.3513V177.783H64.2528V169.702Z" fill="white"/>
<path d="M64.2528 161.621H71.3513V169.702H64.2528V161.621Z" fill="white"/>
<path d="M64.2528 153.541H71.3513V161.622H64.2528V153.541Z" fill="white"/>
<path d="M64.2528 145.46H71.3513V153.543H64.2528V145.46Z" fill="white"/>
<path d="M64.2528 137.379H71.3513V145.46H64.2528V137.379Z" fill="white"/>
<path d="M64.2528 129.298H71.3513V137.379H64.2528V129.298Z" fill="white"/>
<path d="M64.2528 121.217H71.3513V129.298H64.2528V121.217Z" fill="white"/>
<path d="M64.2528 113.134H71.3513V121.216H64.2528V113.134Z" fill="white"/>
<path d="M64.2528 105.055H71.3513V113.136H64.2528V105.055Z" fill="#E2D6D6"/>
<path d="M64.2528 96.9736H71.3513V105.055H64.2528V96.9736Z" fill="#E2D6D6"/>
<path d="M71.3517 250.514H78.4502V258.595H71.3517V250.514Z" fill="#E2D6D6"/>
<path d="M71.3517 242.431H78.4502V250.514H71.3517V242.431Z" fill="white"/>
<path d="M71.3517 234.35H78.4502V242.431H71.3517V234.35Z" fill="white"/>
<path d="M71.3517 226.271H78.4502V234.352H71.3517V226.271Z" fill="white"/>
<path d="M71.3517 218.19H78.4502V226.271H71.3517V218.19Z" fill="white"/>
<path d="M71.3517 210.107H78.4502V218.19H71.3517V210.107Z" fill="white"/>
<path d="M71.3517 202.026H78.4502V210.107H71.3517V202.026Z" fill="white"/>
<path d="M71.3517 193.945H78.4502V202.026H71.3517V193.945Z" fill="white"/>
<path d="M71.3517 185.866H78.4502V193.947H71.3517V185.866Z" fill="white"/>
<path d="M71.3517 177.783H78.4502V185.866H71.3517V177.783Z" fill="white"/>
<path d="M71.3517 169.702H78.4502V177.783H71.3517V169.702Z" fill="white"/>
<path d="M71.3517 161.621H78.4502V169.702H71.3517V161.621Z" fill="white"/>
<path d="M71.3517 153.541H78.4502V161.622H71.3517V153.541Z" fill="white"/>
<path d="M71.3517 145.46H78.4502V153.543H71.3517V145.46Z" fill="white"/>
<path d="M71.3517 137.379H78.4502V145.46H71.3517V137.379Z" fill="white"/>
<path d="M71.3517 129.298H78.4502V137.379H71.3517V129.298Z" fill="white"/>
<path d="M71.3517 121.217H78.4502V129.298H71.3517V121.217Z" fill="white"/>
<path d="M71.3517 113.134H78.4502V121.216H71.3517V113.134Z" fill="#E2D6D6"/>
<path d="M71.3517 105.055H78.4502V113.136H71.3517V105.055Z" fill="#E2D6D6"/>
<path d="M71.3517 96.9736H78.4502V105.055H71.3517V96.9736Z" fill="#E2D6D6"/>
<path d="M78.4488 250.514H85.5474V258.595H78.4488V250.514Z" fill="#E2D6D6"/>
<path d="M78.4488 242.431H85.5474V250.514H78.4488V242.431Z" fill="white"/>
<path d="M78.4488 234.35H85.5474V242.431H78.4488V234.35Z" fill="white"/>
<path d="M78.4488 226.271H85.5474V234.352H78.4488V226.271Z" fill="white"/>
<path d="M78.4488 218.19H85.5474V226.271H78.4488V218.19Z" fill="white"/>
<path d="M78.4488 210.107H85.5474V218.19H78.4488V210.107Z" fill="white"/>
<path d="M78.4488 202.026H85.5474V210.107H78.4488V202.026Z" fill="white"/>
<path d="M78.4488 193.945H85.5474V202.026H78.4488V193.945Z" fill="white"/>
<path d="M78.4488 185.866H85.5474V193.947H78.4488V185.866Z" fill="white"/>
<path d="M78.4488 177.783H85.5474V185.866H78.4488V177.783Z" fill="white"/>
<path d="M78.4488 169.702H85.5474V177.783H78.4488V169.702Z" fill="white"/>
<path d="M78.4488 161.621H85.5474V169.702H78.4488V161.621Z" fill="white"/>
<path d="M78.4488 153.541H85.5474V161.622H78.4488V153.541Z" fill="white"/>
<path d="M78.4488 145.46H85.5474V153.543H78.4488V145.46Z" fill="white"/>
<path d="M78.4488 137.379H85.5474V145.46H78.4488V137.379Z" fill="white"/>
<path d="M78.4488 129.298H85.5474V137.379H78.4488V129.298Z" fill="white"/>
<path d="M78.4488 121.217H85.5474V129.298H78.4488V121.217Z" fill="#E2D6D6"/>
<path d="M85.5468 242.431H92.6475V250.514H85.5468V242.431Z" fill="white"/>
<path d="M85.5468 234.35H92.6475V242.431H85.5468V234.35Z" fill="white"/>
<path d="M85.5468 226.271H92.6475V234.352H85.5468V226.271Z" fill="white"/>
<path d="M85.5468 218.19H92.6475V226.271H85.5468V218.19Z" fill="white"/>
<path d="M85.5468 210.107H92.6475V218.19H85.5468V210.107Z" fill="white"/>
<path d="M85.5468 202.026H92.6475V210.107H85.5468V202.026Z" fill="white"/>
<path d="M85.5468 193.945H92.6475V202.026H85.5468V193.945Z" fill="white"/>
<path d="M85.5468 185.866H92.6475V193.947H85.5468V185.866Z" fill="white"/>
<path d="M85.5468 177.783H92.6475V185.866H85.5468V177.783Z" fill="white"/>
<path d="M85.5468 169.702H92.6475V177.783H85.5468V169.702Z" fill="white"/>
<path d="M85.5468 161.621H92.6475V169.702H85.5468V161.621Z" fill="white"/>
<path d="M85.5468 153.541H92.6475V161.622H85.5468V153.541Z" fill="white"/>
<path d="M85.5468 145.46H92.6475V153.543H85.5468V145.46Z" fill="white"/>
<path d="M85.5468 137.379H92.6475V145.46H85.5468V137.379Z" fill="white"/>
<path d="M85.5468 129.298H92.6475V137.379H85.5468V129.298Z" fill="#E2D6D6"/>
<path d="M92.6476 242.431H99.7461V250.514H92.6476V242.431Z" fill="white"/>
<path d="M92.6476 234.35H99.7461V242.431H92.6476V234.35Z" fill="white"/>
<path d="M92.6476 226.271H99.7461V234.352H92.6476V226.271Z" fill="white"/>
<path d="M92.6476 218.19H99.7461V226.271H92.6476V218.19Z" fill="white"/>
<path d="M92.6476 210.107H99.7461V218.19H92.6476V210.107Z" fill="white"/>
<path d="M92.6476 202.026H99.7461V210.107H92.6476V202.026Z" fill="white"/>
<path d="M92.6476 193.945H99.7461V202.026H92.6476V193.945Z" fill="white"/>
<path d="M92.6476 185.866H99.7461V193.947H92.6476V185.866Z" fill="white"/>
<path d="M92.6476 177.783H99.7461V185.866H92.6476V177.783Z" fill="white"/>
<path d="M92.6476 169.702H99.7461V177.783H92.6476V169.702Z" fill="white"/>
<path d="M92.6476 161.621H99.7461V169.702H92.6476V161.621Z" fill="white"/>
<path d="M92.6476 153.541H99.7461V161.622H92.6476V153.541Z" fill="white"/>
<path d="M92.6476 145.46H99.7461V153.543H92.6476V145.46Z" fill="white"/>
<path d="M92.6476 137.379H99.7461V145.46H92.6476V137.379Z" fill="white"/>
<path d="M92.6476 129.298H99.7461V137.379H92.6476V129.298Z" fill="#E2D6D6"/>
<path d="M99.745 242.431H106.844V250.514H99.745V242.431Z" fill="white"/>
<path d="M99.745 234.35H106.844V242.431H99.745V234.35Z" fill="white"/>
<path d="M99.745 226.271H106.844V234.352H99.745V226.271Z" fill="white"/>
<path d="M99.745 218.19H106.844V226.271H99.745V218.19Z" fill="white"/>
<path d="M99.745 210.107H106.844V218.19H99.745V210.107Z" fill="white"/>
<path d="M99.745 202.026H106.844V210.107H99.745V202.026Z" fill="white"/>
<path d="M99.745 193.945H106.844V202.026H99.745V193.945Z" fill="white"/>
<path d="M99.745 185.866H106.844V193.947H99.745V185.866Z" fill="white"/>
<path d="M99.745 177.783H106.844V185.866H99.745V177.783Z" fill="white"/>
<path d="M99.745 169.702H106.844V177.783H99.745V169.702Z" fill="white"/>
<path d="M99.745 161.621H106.844V169.702H99.745V161.621Z" fill="white"/>
<path d="M99.745 153.541H106.844V161.622H99.745V153.541Z" fill="white"/>
<path d="M99.745 145.46H106.844V153.543H99.745V145.46Z" fill="white"/>
<path d="M99.745 137.379H106.844V145.46H99.745V137.379Z" fill="white"/>
<path d="M99.745 129.298H106.844V137.379H99.745V129.298Z" fill="white"/>
<path d="M106.843 242.431H113.944V250.514H106.843V242.431Z" fill="white"/>
<path d="M106.843 234.35H113.944V242.431H106.843V234.35Z" fill="white"/>
<path d="M106.843 226.271H113.944V234.352H106.843V226.271Z" fill="white"/>
<path d="M106.843 218.19H113.944V226.271H106.843V218.19Z" fill="white"/>
<path d="M106.843 210.107H113.944V218.19H106.843V210.107Z" fill="white"/>
<path d="M106.843 202.026H113.944V210.107H106.843V202.026Z" fill="white"/>
<path d="M106.843 193.945H113.944V202.026H106.843V193.945Z" fill="white"/>
<path d="M106.843 185.866H113.944V193.947H106.843V185.866Z" fill="white"/>
<path d="M106.843 177.783H113.944V185.866H106.843V177.783Z" fill="white"/>
<path d="M106.843 169.702H113.944V177.783H106.843V169.702Z" fill="white"/>
<path d="M106.843 161.621H113.944V169.702H106.843V161.621Z" fill="white"/>
<path d="M106.843 153.541H113.944V161.622H106.843V153.541Z" fill="white"/>
<path d="M106.843 145.46H113.944V153.543H106.843V145.46Z" fill="white"/>
<path d="M106.843 137.379H113.944V145.46H106.843V137.379Z" fill="white"/>
<path d="M106.843 129.298H113.944V137.379H106.843V129.298Z" fill="#E2D6D6"/>
<path d="M113.943 250.514H121.041V258.595H113.943V250.514Z" fill="#E2D6D6"/>
<path d="M113.943 242.431H121.041V250.514H113.943V242.431Z" fill="white"/>
<path d="M113.943 234.35H121.041V242.431H113.943V234.35Z" fill="white"/>
<path d="M113.943 226.271H121.041V234.352H113.943V226.271Z" fill="white"/>
<path d="M113.943 218.19H121.041V226.271H113.943V218.19Z" fill="white"/>
<path d="M113.943 210.107H121.041V218.19H113.943V210.107Z" fill="white"/>
<path d="M113.943 202.026H121.041V210.107H113.943V202.026Z" fill="white"/>
<path d="M113.943 193.945H121.041V202.026H113.943V193.945Z" fill="white"/>
<path d="M113.943 185.866H121.041V193.947H113.943V185.866Z" fill="white"/>
<path d="M113.943 177.783H121.041V185.866H113.943V177.783Z" fill="white"/>
<path d="M113.943 169.702H121.041V177.783H113.943V169.702Z" fill="white"/>
<path d="M113.943 161.621H121.041V169.702H113.943V161.621Z" fill="white"/>
<path d="M113.943 153.541H121.041V161.622H113.943V153.541Z" fill="white"/>
<path d="M113.943 145.46H121.041V153.543H113.943V145.46Z" fill="white"/>
<path d="M113.943 137.379H121.041V145.46H113.943V137.379Z" fill="white"/>
<path d="M121.04 250.514H128.138V258.595H121.04V250.514Z" fill="#E2D6D6"/>
<path d="M121.04 242.431H128.138V250.514H121.04V242.431Z" fill="#E2D6D6"/>
<path d="M121.04 234.35H128.138V242.431H121.04V234.35Z" fill="white"/>
<path d="M121.04 226.271H128.138V234.352H121.04V226.271Z" fill="white"/>
<path d="M121.04 218.19H128.138V226.271H121.04V218.19Z" fill="white"/>
<path d="M121.04 210.107H128.138V218.19H121.04V210.107Z" fill="white"/>
<path d="M121.04 202.026H128.138V210.107H121.04V202.026Z" fill="white"/>
<path d="M121.04 193.945H128.138V202.026H121.04V193.945Z" fill="white"/>
<path d="M121.04 185.866H128.138V193.947H121.04V185.866Z" fill="white"/>
<path d="M121.04 177.783H128.138V185.866H121.04V177.783Z" fill="white"/>
<path d="M121.04 169.702H128.138V177.783H121.04V169.702Z" fill="white"/>
<path d="M121.04 161.621H128.138V169.702H121.04V161.621Z" fill="white"/>
<path d="M121.04 153.541H128.138V161.622H121.04V153.541Z" fill="white"/>
<path d="M121.04 145.46H128.138V153.543H121.04V145.46Z" fill="white"/>
<path d="M128.139 242.431H135.237V250.514H128.139V242.431Z" fill="#E2D6D6"/>
<path d="M128.139 234.35H135.237V242.431H128.139V234.35Z" fill="#E2D6D6"/>
<path d="M128.139 226.271H135.237V234.352H128.139V226.271Z" fill="white"/>
<path d="M128.139 218.19H135.237V226.271H128.139V218.19Z" fill="white"/>
<path d="M128.139 210.107H135.237V218.19H128.139V210.107Z" fill="white"/>
<path d="M128.139 202.026H135.237V210.107H128.139V202.026Z" fill="white"/>
<path d="M128.139 193.945H135.237V202.026H128.139V193.945Z" fill="white"/>
<path d="M128.139 185.866H135.237V193.947H128.139V185.866Z" fill="white"/>
<path d="M128.139 177.783H135.237V185.866H128.139V177.783Z" fill="white"/>
<path d="M128.139 169.702H135.237V177.783H128.139V169.702Z" fill="white"/>
<path d="M128.139 161.621H135.237V169.702H128.139V161.621Z" fill="white"/>
<path d="M135.237 226.271H142.337V234.352H135.237V226.271Z" fill="white"/>
<path d="M135.237 218.19H142.337V226.271H135.237V218.19Z" fill="white"/>
<path d="M135.237 210.107H142.337V218.19H135.237V210.107Z" fill="white"/>
<path d="M135.237 202.026H142.337V210.107H135.237V202.026Z" fill="white"/>
<path d="M135.237 193.945H142.337V202.026H135.237V193.945Z" fill="white"/>
<path d="M135.237 185.866H142.337V193.947H135.237V185.866Z" fill="white"/>
<path d="M135.237 80.8098H142.337V88.8908H135.237V80.8098Z" fill="#E2D6D6"/>
<path d="M135.237 72.7288H142.337V80.8097H135.237V72.7288Z" fill="#E2D6D6"/>
<path d="M128.139 72.7288H135.237V80.8097H128.139V72.7288Z" fill="#E2D6D6"/>
<path d="M128.139 48.4858H135.237V56.5668H128.139V48.4858Z" fill="#E2D6D6"/>
<path d="M128.139 40.4048H135.237V48.4857H128.139V40.4048Z" fill="#E2D6D6"/>
<path d="M128.139 32.3239H135.237V40.4048H128.139V32.3239Z" fill="#E2D6D6"/>
<path d="M128.139 24.241H135.237V32.3239H128.139V24.241Z" fill="#8E6EAF"/>
<path d="M128.139 16.162H135.237V24.243H128.139V16.162Z" fill="#8E6EAF"/>
<path d="M128.139 8.08093H135.237V16.1619H128.139V8.08093Z" fill="#8E6EAF"/>
<path d="M135.237 64.6478H142.337V72.7288H135.237V64.6478Z" fill="white"/>
<path d="M135.237 56.5668H142.337V64.6497H135.237V56.5668Z" fill="white"/>
<path d="M135.237 48.4858H142.337V56.5668H135.237V48.4858Z" fill="white"/>
<path d="M135.237 40.4048H142.337V48.4857H135.237V40.4048Z" fill="white"/>
<path d="M135.237 32.3239H142.337V40.4048H135.237V32.3239Z" fill="white"/>
<path d="M135.237 24.241H142.337V32.3239H135.237V24.241Z" fill="#8E6EAF"/>
<path d="M135.237 16.162H142.337V24.243H135.237V16.162Z" fill="#8E6EAF"/>
<path d="M35.8593 290.919H42.9578V299H35.8593V290.919Z" fill="#8E6EAF"/>
<path d="M35.8593 282.838H42.9578V290.919H35.8593V282.838Z" fill="white"/>
<path d="M35.8593 274.757H42.9578V282.84H35.8593V274.757Z" fill="white"/>
<path d="M42.9578 290.919H50.0564V299H42.9578V290.919Z" fill="#8E6EAF"/>
<path d="M42.9578 282.838H50.0564V290.919H42.9578V282.838Z" fill="#8E6EAF"/>
<path d="M42.9578 274.757H50.0564V282.84H42.9578V274.757Z" fill="white"/>
<path d="M42.9578 266.676H50.0564V274.757H42.9578V266.676Z" fill="white"/>
<path d="M50.0567 290.919H57.1553V299H50.0567V290.919Z" fill="#8E6EAF"/>
<path d="M50.0567 282.838H57.1553V290.919H50.0567V282.838Z" fill="#8E6EAF"/>
<path d="M50.0567 274.757H57.1553V282.84H50.0567V274.757Z" fill="white"/>
<path d="M50.0567 266.676H57.1553V274.757H50.0567V266.676Z" fill="white"/>
<path d="M50.0567 258.595H57.1553V266.676H50.0567V258.595Z" fill="white"/>
<path d="M50.0567 250.514H57.1553V258.595H50.0567V250.514Z" fill="white"/>
<path d="M57.1533 266.676H64.2539V274.757H57.1533V266.676Z" fill="white"/>
<path d="M57.1533 258.595H64.2539V266.676H57.1533V258.595Z" fill="white"/>
<path d="M57.1533 250.514H64.2539V258.595H57.1533V250.514Z" fill="white"/>
<path d="M64.2528 266.676H71.3513V274.757H64.2528V266.676Z" fill="white"/>
<path d="M64.2528 258.595H71.3513V266.676H64.2528V258.595Z" fill="white"/>
<path d="M64.2528 250.514H71.3513V258.595H64.2528V250.514Z" fill="white"/>
<path d="M71.3517 258.595H78.4502V266.676H71.3517V258.595Z" fill="white"/>
<path d="M121.04 258.595H128.138V266.676H121.04V258.595Z" fill="white"/>
<path d="M128.139 266.676H135.237V274.757H128.139V266.676Z" fill="white"/>
<path d="M128.139 258.595H135.237V266.676H128.139V258.595Z" fill="white"/>
<path d="M128.139 250.514H135.237V258.595H128.139V250.514Z" fill="white"/>
<path d="M135.237 274.757H142.337V282.84H135.237V274.757Z" fill="white"/>
<path d="M135.237 266.676H142.337V274.757H135.237V266.676Z" fill="white"/>
<path d="M135.237 258.595H142.337V266.676H135.237V258.595Z" fill="white"/>
<path d="M135.237 250.514H142.337V258.595H135.237V250.514Z" fill="white"/>
<path d="M135.237 242.431H142.337V250.514H135.237V242.431Z" fill="white"/>
<path d="M142.336 290.919H149.435V299H142.336V290.919Z" fill="#8E6EAF"/>
<path d="M142.336 282.838H149.435V290.919H142.336V282.838Z" fill="white"/>
<path d="M142.336 274.757H149.435V282.84H142.336V274.757Z" fill="white"/>
<path d="M142.336 266.676H149.435V274.757H142.336V266.676Z" fill="white"/>
<path d="M142.336 258.595H149.435V266.676H142.336V258.595Z" fill="white"/>
<path d="M149.433 290.919H156.532V299H149.433V290.919Z" fill="#8E6EAF"/>
<path d="M149.433 282.838H156.532V290.919H149.433V282.838Z" fill="#8E6EAF"/>
<path d="M149.433 274.757H156.532V282.84H149.433V274.757Z" fill="white"/>
<path d="M156.532 290.919H163.631V299H156.532V290.919Z" fill="#8E6EAF"/>
<path d="M156.532 282.838H163.631V290.919H156.532V282.838Z" fill="#8E6EAF"/>
<path d="M99.745 24.241H106.844V32.3239H99.745V24.241Z" fill="#E7DCDC"/>
<path d="M99.745 32.3239H106.844V40.4048H99.745V32.3239Z" fill="#E7DCDC"/>
<path d="M106.843 32.3239H113.944V40.4048H106.843V32.3239Z" fill="#E7DCDC"/>
<path d="M113.943 40.4048H121.041V48.4857H113.943V40.4048Z" fill="#E7DCDC"/>
<path d="M57.1533 24.241H64.2539V32.3239H57.1533V24.241Z" fill="white"/>
<path d="M71.3517 32.3239H78.4502V40.4048H71.3517V32.3239Z" fill="white"/>
<path d="M57.1533 32.3239H64.2539V40.4048H57.1533V32.3239Z" fill="#F8BEBF"/>
<path d="M64.2528 32.3239H71.3513V40.4048H64.2528V32.3239Z" fill="white"/>
<path d="M64.2528 40.4048H71.3513V48.4857H64.2528V40.4048Z" fill="#F8BEBF"/>
<path d="M71.3517 40.4048H78.4502V48.4857H71.3517V40.4048Z" fill="white"/>
<path d="M106.843 88.8907H113.944V96.9737H106.843V88.8907Z" fill="#3F2A5E"/>
<path d="M128.139 88.8907H135.237V96.9737H128.139V88.8907Z" fill="#3F2A5E"/>
<path d="M57.1533 56.5668H64.2539V64.6497H57.1533V56.5668Z" fill="#282827"/>
<path d="M64.2528 64.6478H71.3513V72.7288H64.2528V64.6478Z" fill="#353535"/>
<path d="M64.2528 56.5668H71.3513V64.6497H64.2528V56.5668Z" fill="#353535"/>
<path d="M71.3517 72.7288H78.4502V80.8097H71.3517V72.7288Z" fill="#353535"/>
<path d="M71.3517 64.6478H78.4502V72.7288H71.3517V64.6478Z" fill="#353535"/>
<path d="M71.3517 56.5668H78.4502V64.6497H71.3517V56.5668Z" fill="#353535"/>
<path d="M78.4488 72.7288H85.5474V80.8097H78.4488V72.7288Z" fill="#353535"/>
<path d="M78.4488 64.6478H85.5474V72.7288H78.4488V64.6478Z" fill="#6D6D6D"/>
<path d="M78.4488 56.5668H85.5474V64.6497H78.4488V56.5668Z" fill="#353535"/>
<path d="M85.5468 72.7288H92.6475V80.8097H85.5468V72.7288Z" fill="#6D6D6D"/>
<path d="M85.5468 64.6478H92.6475V72.7288H85.5468V64.6478Z" fill="#353535"/>
<path d="M85.5468 56.5668H92.6475V64.6497H85.5468V56.5668Z" fill="#6D6D6D"/>
<path d="M92.6476 64.6478H99.7461V72.7288H92.6476V64.6478Z" fill="#6D6D6D"/>
<path d="M92.6476 56.5668H99.7461V64.6497H92.6476V56.5668Z" fill="#353535"/>
<path d="M99.745 56.5668H106.844V64.6497H99.745V56.5668Z" fill="#353535"/>
<path d="M106.843 64.6478H113.944V72.7288H106.843V64.6478Z" fill="#353535"/>
<path d="M106.843 56.5668H113.944V64.6497H106.843V56.5668Z" fill="#353535"/>
<path d="M113.943 72.7288H121.041V80.8097H113.943V72.7288Z" fill="#353535"/>
<path d="M113.943 64.6478H121.041V72.7288H113.943V64.6478Z" fill="#6D6D6D"/>
<path d="M113.943 56.5668H121.041V64.6497H113.943V56.5668Z" fill="#353535"/>
<path d="M121.04 72.7288H128.138V80.8097H121.04V72.7288Z" fill="#6D6D6D"/>
<path d="M121.04 64.6478H128.138V72.7288H121.04V64.6478Z" fill="#353535"/>
<path d="M121.04 56.5668H128.138V64.6497H121.04V56.5668Z" fill="#6D6D6D"/>
<path d="M128.139 64.6478H135.237V72.7288H128.139V64.6478Z" fill="#6D6D6D"/>
<path d="M128.139 56.5668H135.237V64.6497H128.139V56.5668Z" fill="#353535"/>
<path d="M99.745 0H106.844V8.08097H99.745V0Z" fill="#F2F8FC"/>
<path d="M99.745 8.08093H106.844V16.1619H99.745V8.08093Z" fill="#F2F8FC"/>
<path d="M92.6476 8.08093H99.7461V16.1619H92.6476V8.08093Z" fill="#E3E8ED"/>
<path d="M99.745 16.162H106.844V24.243H99.745V16.162Z" fill="#F2F8FC"/>
<path d="M92.6476 16.162H99.7461V24.243H92.6476V16.162Z" fill="#E3E8ED"/>
<path d="M99.745 24.241H106.844V32.3239H99.745V24.241Z" fill="#F2F8FC"/>
<path d="M92.6476 24.241H99.7461V32.3239H92.6476V24.241Z" fill="#E3E8ED"/>
<path d="M28.7612 80.8098H35.8618V88.8908H28.7612V80.8098Z" fill="#7D3B95"/>
<path d="M35.8593 80.8098H42.9578V88.8908H35.8593V80.8098Z" fill="#7D3B95"/>
<path d="M35.8593 56.5668H42.9578V64.6497H35.8593V56.5668Z" fill="#7D3B95"/>
<path d="M42.9578 64.6478H50.0564V72.7288H42.9578V64.6478Z" fill="#7D3B95"/>
<path d="M42.9578 121.217H50.0564V129.298H42.9578V121.217Z" fill="#542C80"/>
<path d="M50.0567 113.134H57.1553V121.216H50.0567V113.134Z" fill="#542C80"/>
<path d="M42.9578 113.134H50.0564V121.216H42.9578V113.134Z" fill="#542C80"/>
<path d="M28.7612 105.055H35.8618V113.136H28.7612V105.055Z" fill="#7D3B95"/>
<path d="M35.8593 88.8907H42.9578V96.9737H35.8593V88.8907Z" fill="#7D3B95"/>
<path d="M35.8593 105.055H42.9578V113.136H35.8593V105.055Z" fill="#542C80"/>
<path d="M35.8593 96.9736H42.9578V105.055H35.8593V96.9736Z" fill="#7D3B95"/>
<path d="M42.9578 105.055H50.0564V113.136H42.9578V105.055Z" fill="#7D3B95"/>
<path d="M42.9578 96.9736H50.0564V105.055H42.9578V96.9736Z" fill="#542C80"/>
<path d="M57.1533 96.9736H64.2539V105.055H57.1533V96.9736Z" fill="#542C80"/>
<path d="M57.1533 105.055H64.2539V113.136H57.1533V105.055Z" fill="#542C80"/>
<path d="M57.1533 88.8907H64.2539V96.9737H57.1533V88.8907Z" fill="#7D3B95"/>
<path d="M50.0567 105.055H57.1553V113.136H50.0567V105.055Z" fill="#7D3B95"/>
<path d="M50.0567 96.9736H57.1553V105.055H50.0567V96.9736Z" fill="#7D3B95"/>
<path d="M50.0567 64.6478H57.1553V72.7288H50.0567V64.6478Z" fill="#7D3B95"/>
<path d="M50.0567 72.7288H57.1553V80.8097H50.0567V72.7288Z" fill="#7D3B95"/>
<path d="M42.9578 88.8907H50.0564V96.9737H42.9578V88.8907Z" fill="#542C80"/>
<path d="M42.9578 80.8098H50.0564V88.8908H42.9578V80.8098Z" fill="#7D3B95"/>
<path d="M57.1533 80.8098H64.2539V88.8908H57.1533V80.8098Z" fill="#7D3B95"/>
<path d="M57.1533 72.7288H64.2539V80.8097H57.1533V72.7288Z" fill="#7D3B95"/>
<path d="M57.1533 64.6478H64.2539V72.7288H57.1533V64.6478Z" fill="#7D3B95"/>
<path d="M50.0567 88.8907H57.1553V96.9737H50.0567V88.8907Z" fill="#7D3B95"/>
<path d="M50.0567 80.8098H57.1553V88.8908H50.0567V80.8098Z" fill="#542C80"/>
<path d="M57.1533 48.4858H64.2539V56.5668H57.1533V48.4858Z" fill="#542C80"/>
<path d="M57.1533 40.4048H64.2539V48.4857H57.1533V40.4048Z" fill="#542C80"/>
<path d="M64.2528 48.4858H71.3513V56.5668H64.2528V48.4858Z" fill="#542C80"/>
<path d="M71.3517 64.6478H78.4502V72.7288H71.3517V64.6478Z" fill="#542C80"/>
<path d="M71.3517 40.4048H78.4502V48.4857H71.3517V40.4048Z" fill="#7D3B95"/>
<path d="M78.4488 64.6478H85.5474V72.7288H78.4488V64.6478Z" fill="#542C80"/>
<path d="M78.4488 56.5668H85.5474V64.6497H78.4488V56.5668Z" fill="#542C80"/>
<path d="M78.4488 48.4858H85.5474V56.5668H78.4488V48.4858Z" fill="#542C80"/>
<path d="M78.4488 40.4048H85.5474V48.4857H78.4488V40.4048Z" fill="#542C80"/>
<path d="M78.4488 32.3239H85.5474V40.4048H78.4488V32.3239Z" fill="#7D3B95"/>
<path d="M85.5468 56.5668H92.6475V64.6497H85.5468V56.5668Z" fill="#542C80"/>
<path d="M85.5468 48.4858H92.6475V56.5668H85.5468V48.4858Z" fill="#542C80"/>
<path d="M85.5468 40.4048H92.6475V48.4857H85.5468V40.4048Z" fill="#7D3B95"/>
<path d="M85.5468 32.3239H92.6475V40.4048H85.5468V32.3239Z" fill="#7D3B95"/>
<path d="M92.6476 48.4858H99.7461V56.5668H92.6476V48.4858Z" fill="#7D3B95"/>
<path d="M92.6476 40.4048H99.7461V48.4857H92.6476V40.4048Z" fill="#60459A"/>
<path d="M92.6476 32.3239H99.7461V40.4048H92.6476V32.3239Z" fill="#E3E8ED"/>
<path d="M99.745 40.4048H106.844V48.4857H99.745V40.4048Z" fill="#F2F8FC"/>
<path d="M99.745 32.3239H106.844V40.4048H99.745V32.3239Z" fill="#E3E8ED"/>
<path d="M106.843 48.4858H113.944V56.5668H106.843V48.4858Z" fill="#542C80"/>
<path d="M106.843 40.4048H113.944V48.4857H106.843V40.4048Z" fill="#7D3B95"/>
<path d="M106.843 32.3239H113.944V40.4048H106.843V32.3239Z" fill="#7D3B95"/>
<path d="M113.943 48.4858H121.041V56.5668H113.943V48.4858Z" fill="#7D3B95"/>
<path d="M113.943 40.4048H121.041V48.4857H113.943V40.4048Z" fill="#7D3B95"/>
<path d="M135.237 16.162H142.337V24.243H135.237V16.162Z" fill="#997DB8"/>
<path d="M128.139 8.08093H135.237V16.1619H128.139V8.08093Z" fill="#997DB8"/>
<path d="M50.0567 282.838H57.1553V290.919H50.0567V282.838Z" fill="#997DB8"/>
<path d="M156.532 282.838H163.631V290.919H156.532V282.838Z" fill="#997DB8"/>
<path d="M7.46848 185.866H14.5669V193.947H7.46848V185.866Z" fill="#997DB8"/>
<path d="M14.5631 177.783H21.6616V185.866H14.5631V177.783Z" fill="#997DB8"/>
<path d="M21.6633 177.783H28.7617V185.866H21.6633V177.783Z" fill="#997DB8"/>
<path d="M21.6633 161.621H28.7617V169.702H21.6633V161.621Z" fill="#E2D6D6"/>
<path d="M28.7612 153.541H35.8618V161.622H28.7612V153.541Z" fill="#E2D6D6"/>
<path d="M35.8593 145.46H42.9578V153.543H35.8593V145.46Z" fill="#E2D6D6"/>
<path d="M35.8593 137.379H42.9578V145.46H35.8593V137.379Z" fill="#E2D6D6"/>
<path d="M42.9578 129.298H50.0564V137.379H42.9578V129.298Z" fill="#E2D6D6"/>
<path d="M50.0567 121.217H57.1553V129.298H50.0567V121.217Z" fill="#E2D6D6"/>
<path d="M142.336 282.838H149.435V290.919H142.336V282.838Z" fill="#E2D6D6"/>
<path d="M135.237 274.757H142.337V282.84H135.237V274.757Z" fill="#E2D6D6"/>
<path d="M128.139 266.676H135.237V274.757H128.139V266.676Z" fill="#E2D6D6"/>
<path d="M121.04 258.595H128.138V266.676H121.04V258.595Z" fill="#E2D6D6"/>
<path d="M35.8593 282.838H42.9578V290.919H35.8593V282.838Z" fill="#E2D6D6"/>
<path d="M35.8593 274.757H42.9578V282.84H35.8593V274.757Z" fill="#E2D6D6"/>
<path d="M42.9578 266.676H50.0564V274.757H42.9578V266.676Z" fill="#E2D6D6"/>
<path d="M50.0567 258.595H57.1553V266.676H50.0567V258.595Z" fill="#E2D6D6"/>
<path d="M50.0567 250.514H57.1553V258.595H50.0567V250.514Z" fill="#E2D6D6"/>
<path d="M57.1533 113.134H64.2539V121.216H57.1533V113.134Z" fill="#C5CFD7"/>
<path d="M99.745 129.298H106.844V137.379H99.745V129.298Z" fill="#E2D6D6"/>
<path d="M106.843 129.298H113.944V137.379H106.843V129.298Z" fill="#E2D6D6"/>
<path d="M113.943 129.298H121.041V137.379H113.943V129.298Z" fill="#E2D6D6"/>
<path d="M35.8593 96.9736H42.9578V105.055H35.8593V96.9736Z" fill="#C5CFD7"/>
<path d="M42.9578 105.055H50.0564V113.136H42.9578V105.055Z" fill="#C5CFD7"/>
<path d="M50.0567 105.055H57.1553V113.136H50.0567V105.055Z" fill="#C5CFD7"/>
<path d="M57.1533 202.026H64.2539V210.107H57.1533V202.026Z" fill="#C5CFD7"/>
<path d="M57.1533 193.945H64.2539V202.026H57.1533V193.945Z" fill="#C5CFD7"/>
<path d="M57.1533 185.866H64.2539V193.947H57.1533V185.866Z" fill="#C5CFD7"/>
<path d="M57.1533 177.783H64.2539V185.866H57.1533V177.783Z" fill="#C5CFD7"/>
<path d="M57.1533 169.702H64.2539V177.783H57.1533V169.702Z" fill="#C5CFD7"/>
<path d="M57.1533 161.621H64.2539V169.702H57.1533V161.621Z" fill="#C5CFD7"/>
<path d="M57.1533 153.541H64.2539V161.622H57.1533V153.541Z" fill="#C5CFD7"/>
<path d="M57.1533 145.46H64.2539V153.543H57.1533V145.46Z" fill="#C5CFD7"/>
<path d="M57.1533 137.379H64.2539V145.46H57.1533V137.379Z" fill="#C5CFD7"/>
<path d="M57.1533 129.298H64.2539V137.379H57.1533V129.298Z" fill="#C5CFD7"/>
<path d="M57.1533 121.217H64.2539V129.298H57.1533V121.217Z" fill="#C5CFD7"/>
<path d="M57.1533 105.055H64.2539V113.136H57.1533V105.055Z" fill="#F2F8FC"/>
<path d="M64.2528 202.026H71.3513V210.107H64.2528V202.026Z" fill="#C5CFD7"/>
<path d="M64.2528 193.945H71.3513V202.026H64.2528V193.945Z" fill="#E3E8ED"/>
<path d="M64.2528 185.866H71.3513V193.947H64.2528V185.866Z" fill="#F7F8F9"/>
<path d="M64.2528 177.783H71.3513V185.866H64.2528V177.783Z" fill="#E3E8ED"/>
<path d="M64.2528 169.702H71.3513V177.783H64.2528V169.702Z" fill="#E3E8ED"/>
<path d="M64.2528 161.621H71.3513V169.702H64.2528V161.621Z" fill="#F7F8F9"/>
<path d="M64.2528 153.541H71.3513V161.622H64.2528V153.541Z" fill="#E3E8ED"/>
<path d="M64.2528 145.46H71.3513V153.543H64.2528V145.46Z" fill="#F7F8F9"/>
<path d="M64.2528 137.379H71.3513V145.46H64.2528V137.379Z" fill="#E3E8ED"/>
<path d="M64.2528 129.298H71.3513V137.379H64.2528V129.298Z" fill="#E3E8ED"/>
<path d="M64.2528 121.217H71.3513V129.298H64.2528V121.217Z" fill="#E3E8ED"/>
<path d="M64.2528 113.134H71.3513V121.216H64.2528V113.134Z" fill="#F2F8FC"/>
<path d="M71.3517 202.026H78.4502V210.107H71.3517V202.026Z" fill="#C5CFD7"/>
<path d="M71.3517 193.945H78.4502V202.026H71.3517V193.945Z" fill="#E3E8ED"/>
<path d="M71.3517 185.866H78.4502V193.947H71.3517V185.866Z" fill="#E3E8ED"/>
<path d="M71.3517 177.783H78.4502V185.866H71.3517V177.783Z" fill="#E3E8ED"/>
<path d="M71.3517 169.702H78.4502V177.783H71.3517V169.702Z" fill="#E3E8ED"/>
<path d="M71.3517 161.621H78.4502V169.702H71.3517V161.621Z" fill="#E3E8ED"/>
<path d="M71.3517 153.541H78.4502V161.622H71.3517V153.541Z" fill="#E3E8ED"/>
<path d="M71.3517 145.46H78.4502V153.543H71.3517V145.46Z" fill="#E3E8ED"/>
<path d="M71.3517 137.379H78.4502V145.46H71.3517V137.379Z" fill="#F7F8F9"/>
<path d="M71.3517 129.298H78.4502V137.379H71.3517V129.298Z" fill="#E3E8ED"/>
<path d="M71.3517 121.217H78.4502V129.298H71.3517V121.217Z" fill="#F2F8FC"/>
<path d="M78.4488 210.107H85.5474V218.19H78.4488V210.107Z" fill="#C5CFD7"/>
<path d="M78.4488 202.026H85.5474V210.107H78.4488V202.026Z" fill="#E3E8ED"/>
<path d="M78.4488 193.945H85.5474V202.026H78.4488V193.945Z" fill="#E3E8ED"/>
<path d="M78.4488 185.866H85.5474V193.947H78.4488V185.866Z" fill="#E3E8ED"/>
<path d="M78.4488 177.783H85.5474V185.866H78.4488V177.783Z" fill="#F7F8F9"/>
<path d="M78.4488 169.702H85.5474V177.783H78.4488V169.702Z" fill="#E3E8ED"/>
<path d="M78.4488 161.621H85.5474V169.702H78.4488V161.621Z" fill="#F7F8F9"/>
<path d="M78.4488 153.541H85.5474V161.622H78.4488V153.541Z" fill="#E3E8ED"/>
<path d="M78.4488 145.46H85.5474V153.543H78.4488V145.46Z" fill="#E3E8ED"/>
<path d="M78.4488 137.379H85.5474V145.46H78.4488V137.379Z" fill="#E3E8ED"/>
<path d="M78.4488 129.298H85.5474V137.379H78.4488V129.298Z" fill="#F2F8FC"/>
<path d="M85.5468 210.107H92.6475V218.19H85.5468V210.107Z" fill="#C5CFD7"/>
<path d="M85.5468 202.026H92.6475V210.107H85.5468V202.026Z" fill="#E3E8ED"/>
<path d="M85.5468 193.945H92.6475V202.026H85.5468V193.945Z" fill="#E3E8ED"/>
<path d="M85.5468 185.866H92.6475V193.947H85.5468V185.866Z" fill="#E3E8ED"/>
<path d="M85.5468 177.783H92.6475V185.866H85.5468V177.783Z" fill="#E3E8ED"/>
<path d="M85.5468 169.702H92.6475V177.783H85.5468V169.702Z" fill="#E3E8ED"/>
<path d="M85.5468 161.621H92.6475V169.702H85.5468V161.621Z" fill="#E3E8ED"/>
<path d="M85.5468 153.541H92.6475V161.622H85.5468V153.541Z" fill="#E3E8ED"/>
<path d="M85.5468 145.46H92.6475V153.543H85.5468V145.46Z" fill="#E3E8ED"/>
<path d="M85.5468 137.379H92.6475V145.46H85.5468V137.379Z" fill="#F2F8FC"/>
<path d="M92.6476 210.107H99.7461V218.19H92.6476V210.107Z" fill="#C5CFD7"/>
<path d="M92.6476 202.026H99.7461V210.107H92.6476V202.026Z" fill="#E3E8ED"/>
<path d="M92.6476 193.945H99.7461V202.026H92.6476V193.945Z" fill="#F7F8F9"/>
<path d="M92.6476 185.866H99.7461V193.947H92.6476V185.866Z" fill="#E3E8ED"/>
<path d="M92.6476 177.783H99.7461V185.866H92.6476V177.783Z" fill="#F7F8F9"/>
<path d="M92.6476 169.702H99.7461V177.783H92.6476V169.702Z" fill="#E3E8ED"/>
<path d="M92.6476 161.621H99.7461V169.702H92.6476V161.621Z" fill="#E3E8ED"/>
<path d="M92.6476 153.541H99.7461V161.622H92.6476V153.541Z" fill="#F7F8F9"/>
<path d="M92.6476 145.46H99.7461V153.543H92.6476V145.46Z" fill="#E3E8ED"/>
<path d="M92.6476 137.379H99.7461V145.46H92.6476V137.379Z" fill="#F2F8FC"/>
<path d="M99.745 218.19H106.844V226.271H99.745V218.19Z" fill="#C5CFD7"/>
<path d="M99.745 210.107H106.844V218.19H99.745V210.107Z" fill="#E3E8ED"/>
<path d="M99.745 202.026H106.844V210.107H99.745V202.026Z" fill="#E3E8ED"/>
<path d="M99.745 193.945H106.844V202.026H99.745V193.945Z" fill="#E3E8ED"/>
<path d="M99.745 185.866H106.844V193.947H99.745V185.866Z" fill="#E3E8ED"/>
<path d="M99.745 177.783H106.844V185.866H99.745V177.783Z" fill="#E3E8ED"/>
<path d="M99.745 169.702H106.844V177.783H99.745V169.702Z" fill="#E3E8ED"/>
<path d="M99.745 161.621H106.844V169.702H99.745V161.621Z" fill="#E3E8ED"/>
<path d="M99.745 153.541H106.844V161.622H99.745V153.541Z" fill="#F2F8FC"/>
<path d="M99.745 145.46H106.844V153.543H99.745V145.46Z" fill="#F2F8FC"/>
<path d="M106.843 226.271H113.944V234.352H106.843V226.271Z" fill="#C5CFD7"/>
<path d="M106.843 218.19H113.944V226.271H106.843V218.19Z" fill="#E3E8ED"/>
<path d="M106.843 210.107H113.944V218.19H106.843V210.107Z" fill="#E3E8ED"/>
<path d="M106.843 202.026H113.944V210.107H106.843V202.026Z" fill="#9FCAE8"/>
<path d="M106.843 193.945H113.944V202.026H106.843V193.945Z" fill="#E3E8ED"/>
<path d="M106.843 185.866H113.944V193.947H106.843V185.866Z" fill="#9FCAE8"/>
<path d="M106.843 177.783H113.944V185.866H106.843V177.783Z" fill="#E3E8ED"/>
<path d="M106.843 169.702H113.944V177.783H106.843V169.702Z" fill="#9FCAE8"/>
<path d="M106.843 161.621H113.944V169.702H106.843V161.621Z" fill="#E3E8ED"/>
<path d="M113.943 218.19H121.041V226.271H113.943V218.19Z" fill="#9FCAE8"/>
<path d="M113.943 210.107H121.041V218.19H113.943V210.107Z" fill="#E3E8ED"/>
<path d="M113.943 202.026H121.041V210.107H113.943V202.026Z" fill="#E3E8ED"/>
<path d="M121.04 226.271H128.138V234.352H121.04V226.271Z" fill="#E3E8ED"/>
<path d="M121.04 218.19H128.138V226.271H121.04V218.19Z" fill="#E3E8ED"/>
<path d="M121.04 210.107H128.138V218.19H121.04V210.107Z" fill="#E3E8ED"/>
<path d="M121.04 202.026H128.138V210.107H121.04V202.026Z" fill="#9FCAE8"/>
<path d="M121.04 193.945H128.138V202.026H121.04V193.945Z" fill="#F7F8F9"/>
<path d="M121.04 185.866H128.138V193.947H121.04V185.866Z" fill="#9FCAE8"/>
<path d="M121.04 177.783H128.138V185.866H121.04V177.783Z" fill="#E3E8ED"/>
<path d="M121.04 169.702H128.138V177.783H121.04V169.702Z" fill="#9FCAE8"/>
<path d="M121.04 161.621H128.138V169.702H121.04V161.621Z" fill="#F7F8F9"/>
<path d="M121.04 153.541H128.138V161.622H121.04V153.541Z" fill="#E3E8ED"/>
<path d="M121.04 145.46H128.138V153.543H121.04V145.46Z" fill="#F2F8FC"/>
<path d="M121.04 137.379H128.138V145.46H121.04V137.379Z" fill="#F2F8FC"/>
<path d="M128.139 202.026H135.237V210.107H128.139V202.026Z" fill="#F2F8FC"/>
<path d="M128.139 193.945H135.237V202.026H128.139V193.945Z" fill="#E3E8ED"/>
<path d="M128.139 185.866H135.237V193.947H128.139V185.866Z" fill="#F7F8F9"/>
<path d="M128.139 177.783H135.237V185.866H128.139V177.783Z" fill="#F2F8FC"/>
<path d="M128.139 169.702H135.237V177.783H128.139V169.702Z" fill="#F2F8FC"/>
<path d="M128.139 161.621H135.237V169.702H128.139V161.621Z" fill="#F2F8FC"/>
<path d="M128.139 153.541H135.237V161.622H128.139V153.541Z" fill="#F2F8FC"/>
<path d="M135.237 193.945H142.337V202.026H135.237V193.945Z" fill="#F2F8FC"/>
<path d="M135.237 185.866H142.337V193.947H135.237V185.866Z" fill="#F2F8FC"/>
</svg>
