<svg width="104" height="104" viewBox="0 0 104 104" fill="none" xmlns="http://www.w3.org/2000/svg">
<path d="M103.172 51.5859C103.172 80.0769 80.076 103.172 51.586 103.172C23.096 103.172 0 80.0769 0 51.5859C0 23.0959 23.096 -0.00012207 51.586 -0.00012207C80.076 -0.00012207 103.172 23.0959 103.172 51.5859Z" fill="white"/>
<path d="M100.252 51.5859C100.252 78.4639 78.4641 100.253 51.5861 100.253C24.7081 100.253 2.92009 78.4639 2.92009 51.5859C2.92009 24.7089 24.7081 2.91993 51.5861 2.91993C78.4641 2.91993 100.252 24.7089 100.252 51.5859Z" fill="#ED2127"/>
<path d="M96.3351 51.5625C96.3351 76.2894 76.2891 96.3354 51.5631 96.3354C26.8351 96.3354 6.78909 76.2894 6.78909 51.5625C6.78909 26.8344 26.8351 6.78945 51.5631 6.78945C76.2891 6.78945 96.3351 26.8344 96.3351 51.5625Z" stroke="white" stroke-width="1.079" stroke-miterlimit="10"/>
<path d="M85.9747 51.5626C85.9747 70.5676 70.5677 85.9746 51.5627 85.9746C32.5567 85.9746 17.1497 70.5676 17.1497 51.5626C17.1497 32.5576 32.5567 17.1496 51.5627 17.1496C70.5677 17.1496 85.9747 32.5576 85.9747 51.5626Z" stroke="white" stroke-width="1.079" stroke-miterlimit="10"/>
<path d="M36.6066 86.2177L35.9716 85.9707L36.2176 85.3357L36.8526 85.5817L37.4886 85.8287L38.1236 86.0737L38.7576 86.3217L39.3936 86.5667L40.0286 86.8137L39.7826 87.4487L39.1476 87.2017L38.5126 86.9557L38.2656 87.5917L38.0196 88.2257L37.7736 88.8627L37.5276 89.4967L37.2806 90.1327L37.9166 90.3777L38.5516 90.6247L38.3056 91.2607L37.6696 91.0137L37.0346 90.7677L36.3996 90.5217L35.7636 90.2757L35.1286 90.0287L34.4936 89.7827L34.7406 89.1477L35.3756 89.3937L36.0106 89.6387L36.2566 89.0047L36.5026 88.3697L36.7496 87.7337L36.9956 87.0997L37.2416 86.4637L36.6066 86.2177Z" fill="white"/>
<path d="M33.3986 83.8507L33.9936 84.1847L33.6606 84.7787L33.3276 85.3727L32.9956 85.9677L32.6626 86.5617L32.3296 87.1577L31.9976 87.7517L32.5906 88.0837L33.1866 88.4167L32.8536 89.0107L32.2586 88.6787L31.6646 88.3457L31.0696 88.0137L30.4746 87.6797L29.8796 87.3477L29.2866 87.0157L29.6186 86.4207L30.2136 86.7537L30.8076 87.0857L31.1406 86.4917L31.4736 85.8957L31.8056 85.3017L32.1376 84.7077L32.4706 84.1127L32.8036 83.5187L33.3986 83.8507Z" fill="white"/>
<path d="M27.131 81.2539L27.673 81.6669L28.215 82.0789L28.757 82.4919L29.3 82.9039L29.842 83.3169L29.429 83.8589L29.016 84.4009L28.474 83.9889L27.931 83.5759L27.39 83.1629L26.848 82.7509L26.306 82.3379L25.763 81.9259L26.176 81.3839L26.589 80.8409L27.131 81.2539Z" fill="white"/>
<path d="M23.6632 78.9804L23.1842 78.4964L22.7002 78.9744L22.2142 79.4534L22.6922 79.9374L22.2082 80.4164L22.6862 80.9014L23.1712 80.4234L23.6492 80.9074L24.1342 80.4284L24.6202 79.9514L24.1422 79.4654L23.6632 78.9804ZM24.1612 76.5744L24.6402 77.0604L24.1542 77.5384L23.6692 78.0174L24.1472 78.5014L24.6262 78.9874L25.1042 79.4724L25.5902 78.9944L26.0752 78.5154L26.5532 79.0004L27.0322 79.4854L26.5462 79.9644L26.0612 80.4424L25.5772 80.9214L25.0922 81.3994L24.6062 81.8774L24.1282 81.3924L23.6432 81.8714L23.1652 81.3864L22.6792 81.8644L22.2022 81.3794L21.7232 80.8944L21.2432 80.4094L21.7292 79.9304L21.2512 79.4464L21.7352 78.9674L21.2572 78.4824L21.7422 78.0034L22.2272 77.5254L22.7122 77.0464L23.1982 76.5694L23.6832 76.0904L24.1612 76.5744Z" fill="white"/>
<path d="M20.9054 72.4698L21.3094 73.0178L20.7624 73.4228L21.1674 73.9708L20.6194 74.3748L21.0244 74.9238L20.4754 75.3278L20.8814 75.8758L21.4284 75.4708L21.9774 75.0668L22.5244 74.6618L22.9284 75.2098L23.3354 75.7578L22.7864 76.1618L22.2394 76.5678L21.6904 76.9718L21.1424 77.3768L20.5944 77.7808L20.0464 78.1868L19.4984 78.5918L19.0934 78.0428L18.6884 77.4958L19.2374 77.0898L18.8324 76.5418L19.3804 76.1378L18.9754 75.5888L19.5234 75.1848L19.1184 74.6368L18.5714 75.0418L18.0224 75.4468L17.4734 75.8508L17.0694 75.3028L16.6654 74.7548L17.2134 74.3498L17.7604 73.9458L18.3084 73.5398L18.8564 73.1358L19.4054 72.7318L19.9524 72.3258L20.5014 71.9218L20.9054 72.4698Z" fill="white"/>
<path d="M17.671 68.2797L17.349 67.6817L17.948 67.3587L18.271 67.9567L18.595 68.5567L18.919 69.1547L19.242 69.7557L19.566 70.3557L19.889 70.9537L19.289 71.2777L18.966 70.6787L18.642 70.0797L18.043 70.4037L17.442 70.7257L16.843 71.0497L16.243 71.3727L15.644 71.6967L15.968 72.2967L16.292 72.8957L15.692 73.2197L15.368 72.6197L15.045 72.0217L14.722 71.4207L14.398 70.8207L14.075 70.2217L13.751 69.6227L14.351 69.2987L14.674 69.8987L14.997 70.4967L15.597 70.1747L16.196 69.8507L16.796 69.5277L17.396 69.2037L17.995 68.8797L17.671 68.2797Z" fill="white"/>
<path d="M15.7325 65.5347L15.0945 65.7727L15.3325 66.4107L15.9695 66.1727L16.6085 65.9357L17.2475 65.6977L17.4855 66.3367L17.7225 66.9757L17.0845 67.2127L16.4455 67.4507L15.8075 67.6887L15.1695 67.9257L14.5305 68.1637L13.8915 68.4007L13.2535 68.6387L13.0155 68.0007L12.7775 67.3617L13.4165 67.1227L13.1785 66.4857L13.8175 66.2477L13.5795 65.6097L12.9405 65.8467L12.7035 65.2077L12.0645 65.4457L11.8275 64.8077L11.5885 64.1687L12.2275 63.9307L12.8665 63.6937L13.5045 63.4557L14.1435 63.2187L14.7825 62.9807L15.4205 62.7427L16.0595 62.5057L16.2965 63.1437L16.5345 63.7827L15.8955 64.0197L15.2565 64.2577L14.6195 64.4947L14.8565 65.1347L15.4955 64.8957L15.7325 65.5347Z" fill="white"/>
<path d="M13.2989 59.8336L13.1529 59.1666L12.4869 59.3126L11.8209 59.4586L11.9679 60.1246L11.3019 60.2696L11.4479 60.9356L12.1119 60.7906L12.2589 61.4556L12.9239 61.3096L13.5889 61.1646L13.4449 60.4996L13.2989 59.8336ZM15.0049 58.0656L15.1509 58.7306L14.4849 58.8766L13.8199 59.0226L13.9639 59.6876L14.1109 60.3536L14.2549 61.0186L14.9209 60.8746L15.5869 60.7286L15.7319 61.3936L15.8779 62.0596L15.2119 62.2056L14.5459 62.3506L13.8799 62.4956L13.2149 62.6416L12.5499 62.7866L12.4039 62.1226L11.7379 62.2666L11.5929 61.6006L10.9269 61.7476L10.7819 61.0816L10.6359 60.4156L10.4909 59.7506L11.1559 59.6046L11.0109 58.9376L11.6769 58.7936L11.5309 58.1276L12.1959 57.9816L12.8619 57.8356L13.5279 57.6906L14.1939 57.5456L14.8589 57.3996L15.0049 58.0656Z" fill="white"/>
<path d="M13.7667 52.9345L13.7157 52.2545L14.3957 52.2045L14.4467 52.8845L14.4957 53.5625L14.5457 54.2435L14.5957 54.9215L14.6457 55.6025L14.6967 56.2815L14.7457 56.9615L14.0667 57.0115L13.3877 57.0605L12.7077 57.1115L12.0287 57.1615L11.3487 57.2115L10.6687 57.2615L9.99069 57.3115L9.94069 56.6315L9.88969 55.9525L10.5697 55.9025L11.2487 55.8525L11.9287 55.8015L12.6087 55.7515L13.2877 55.7025L13.9667 55.6525L13.9167 54.9725L13.8667 54.2935L13.8177 53.6135L13.7667 52.9345Z" fill="white"/>
<path d="M14.5812 48.3194L14.5342 49.0004L14.4872 49.6794L14.4402 50.3594L14.3942 51.0394L13.7142 50.9924L13.6672 51.6724L12.9872 51.6254L13.0342 50.9454L13.0812 50.2654L13.7612 50.3124L13.8082 49.6334L13.8542 48.9534L13.9012 48.2734L13.2222 48.2264L12.5422 48.1794L12.4952 48.8594L12.4492 49.5394L12.4012 50.2194L12.3542 50.8994L11.6752 50.8514L11.6282 51.5314L10.9482 51.4844L10.2692 51.4374L10.3152 50.7584L9.63618 50.7114L9.68319 50.0314L9.72918 49.3524L9.77619 48.6724L9.82318 47.9914L10.5032 48.0384L10.5502 47.3594L11.2292 47.4074L11.1832 48.0864L11.1362 48.7654L10.4562 48.7184L10.4092 49.3984L10.3622 50.0784L11.0422 50.1254L11.7222 50.1724L11.7682 49.4924L11.8152 48.8134L11.8622 48.1324L11.9092 47.4534L12.5892 47.5004L12.6362 46.8204L13.3152 46.8674L13.9952 46.9144L13.9482 47.5934L14.6282 47.6414L14.5812 48.3194Z" fill="white"/>
<path d="M14.7286 43.0482L14.5866 43.7142L13.9206 43.5722L13.7796 44.2392L14.4466 44.3802L14.3046 45.0482L14.1636 45.7132L13.4966 45.5712L13.6376 44.9052L12.9716 44.7642L12.8306 45.4302L12.6886 46.0972L12.0226 45.9552L12.1636 45.2892L12.3056 44.6232L11.6376 44.4822L11.4976 45.1472L10.8316 45.0062L10.9716 44.3402L11.1146 43.6732L11.7806 43.8142L11.9206 43.1482L11.2546 43.0062L11.3976 42.3402L11.5386 41.6732L12.2046 41.8152L12.0636 42.4822L12.7296 42.6232L12.8716 41.9562L13.0126 41.2902L13.6786 41.4322L13.5376 42.0982L13.3956 42.7652L14.0626 42.9062L14.2046 42.2392L14.8706 42.3812L14.7286 43.0482Z" fill="white"/>
<path d="M16.5226 37.3189L16.7556 36.6789L17.3956 36.9119L17.1636 37.5519L16.9286 38.1929L16.6966 38.8319L16.4616 39.4729L16.2286 40.1129L15.9956 40.7539L15.3546 40.5199L15.5886 39.8799L15.8226 39.2389L15.1826 39.0059L14.5426 38.7729L13.9016 38.5389L13.2616 38.3069L12.6226 38.0719L12.3876 38.7119L12.1556 39.3529L11.5146 39.1189L11.7486 38.4789L11.9816 37.8389L12.2156 37.1979L12.4486 36.5589L12.6816 35.9179L12.9156 35.2789L13.5556 35.5129L13.3226 36.1519L13.0886 36.7929L13.7296 37.0259L14.3696 37.2589L15.0086 37.4919L15.6486 37.7259L16.2886 37.9599L16.5226 37.3189Z" fill="white"/>
<path d="M18.8243 34.0645L18.5033 34.6665L17.9023 34.3455L17.3003 34.0245L16.7003 33.7045L16.0983 33.3835L15.4973 33.0635L14.8953 32.7435L14.5753 33.3435L14.2553 33.9445L13.6533 33.6245L13.9733 33.0225L14.2953 32.4215L14.6153 31.8205L14.9363 31.2195L15.2573 30.6185L15.5773 30.0165L16.1783 30.3375L15.8573 30.9385L15.5383 31.5405L16.1383 31.8595L16.7393 32.1805L17.3413 32.5025L17.9423 32.8225L18.5433 33.1425L19.1443 33.4635L18.8243 34.0645Z" fill="white"/>
<path d="M21.3087 27.7256L20.9077 28.2756L20.5047 28.8266L20.1037 29.3756L19.7027 29.9266L19.2997 30.4766L18.7487 30.0746L18.1987 29.6726L18.6007 29.1226L19.0027 28.5726L19.4057 28.0216L19.8067 27.4726L20.2077 26.9206L20.6107 26.3716L21.1617 26.7746L21.7107 27.1756L21.3087 27.7256Z" fill="white"/>
<path d="M23.5089 24.2207L23.9839 23.7317L23.4949 23.2557L23.0079 22.7807L22.5319 23.2687L22.0439 22.7927L21.5699 23.2817L22.0569 23.7567L21.5809 24.2437L22.0699 24.7207L22.5579 25.1957L23.0319 24.7067L23.5089 24.2207ZM25.9229 24.6697L25.4479 25.1577L24.9599 24.6827L24.4719 24.2067L23.9969 24.6947L23.5219 25.1827L23.0459 25.6707L23.5339 26.1457L24.0229 26.6207L23.5459 27.1097L23.0719 27.5977L22.5829 27.1217L22.0949 26.6477L21.6069 26.1717L21.1179 25.6957L20.6309 25.2207L21.1069 24.7327L20.6179 24.2577L21.0939 23.7687L20.6059 23.2937L21.0809 22.8067L21.5569 22.3177L22.0319 21.8297L22.5209 22.3047L22.9949 21.8177L23.4839 22.2927L23.9579 21.8037L24.4459 22.2807L24.9349 22.7547L25.4229 23.2317L25.9109 23.7067L26.3989 24.1807L25.9229 24.6697Z" fill="white"/>
<path d="M29.9523 21.34L29.4133 21.756L28.9973 21.216L28.4583 21.632L28.0423 21.093L27.5033 21.509L27.0873 20.968L26.5483 21.384L26.9633 21.924L27.3793 22.464L27.7943 23.003L27.2553 23.419L26.7143 23.835L26.2993 23.296L25.8833 22.756L25.4683 22.216L25.0523 21.677L24.6363 21.136L24.2203 20.596L23.8043 20.057L24.3443 19.641L24.8843 19.225L25.2993 19.764L25.8393 19.349L26.2553 19.89L26.7953 19.474L27.2103 20.013L27.7503 19.598L27.3353 19.058L26.9193 18.518L26.5033 17.978L27.0423 17.562L27.5823 17.146L27.9983 17.687L28.4143 18.227L28.8293 18.766L29.2453 19.305L29.6613 19.845L30.0773 20.385L30.4933 20.924L29.9523 21.34Z" fill="white"/>
<path d="M34.0597 18.0303L34.6537 17.6943L34.9887 18.2873L34.3957 18.6233L33.8037 18.9583L33.2097 19.2943L32.6177 19.6303L32.0247 19.9653L31.4317 20.3013L31.0967 19.7093L31.6887 19.3733L32.2827 19.0373L31.9467 18.4443L31.6107 17.8513L31.2747 17.2593L30.9387 16.6653L30.6027 16.0723L30.0107 16.4093L29.4167 16.7453L29.0817 16.1523L29.6747 15.8153L30.2667 15.4793L30.8607 15.1443L31.4537 14.8083L32.0457 14.4723L32.6387 14.1373L32.9737 14.7303L32.3817 15.0663L31.7887 15.4023L32.1237 15.9943L32.4597 16.5873L32.7957 17.1803L33.1317 17.7733L33.4677 18.3653L34.0597 18.0303Z" fill="white"/>
<path d="M36.7843 16.0294L36.5343 15.3954L35.9003 15.6454L36.1493 16.2784L36.4003 16.9134L36.6513 17.5474L36.0163 17.7974L35.3843 18.0474L35.1343 17.4144L34.8833 16.7794L34.6333 16.1464L34.3823 15.5124L34.1323 14.8804L33.8823 14.2454L33.6323 13.6114L34.2643 13.3614L34.8993 13.1114L35.1493 13.7444L35.7823 13.4944L36.0333 14.1284L36.6673 13.8774L36.4163 13.2444L37.0503 12.9944L36.8003 12.3594L37.4333 12.1104L38.0673 11.8594L38.3173 12.4934L38.5673 13.1274L38.8173 13.7604L39.0683 14.3944L39.3193 15.0284L39.5693 15.6614L39.8193 16.2954L39.1853 16.5464L38.5523 16.7954L38.3023 16.1624L38.0523 15.5284L37.8013 14.8954L37.1673 15.1454L37.4183 15.7794L36.7843 16.0294Z" fill="white"/>
<path d="M42.4249 13.4844L43.0879 13.3254L42.9289 12.6634L42.7699 12.0004L42.1079 12.1604L41.9479 11.4974L41.2859 11.6564L41.4449 12.3194L40.7819 12.4784L40.9419 13.1404L41.1009 13.8034L41.7629 13.6434L42.4249 13.4844ZM44.2279 15.1544L43.5659 15.3134L43.4049 14.6514L43.2469 13.9874L42.5849 14.1474L41.9219 14.3064L41.2589 14.4654L41.4189 15.1284L41.5769 15.7904L40.9149 15.9504L40.2529 16.1094L40.0929 15.4464L39.9349 14.7844L39.7769 14.1214L39.6159 13.4604L39.4569 12.7964L40.1199 12.6374L39.9599 11.9744L40.6239 11.8164L40.4639 11.1524L41.1259 10.9944L41.7889 10.8354L42.4519 10.6764L42.6109 11.3384L43.2729 11.1794L43.4329 11.8414L44.0949 11.6824L44.2529 12.3454L44.4129 13.0074L44.5709 13.6704L44.7319 14.3324L44.8899 14.9964L44.2279 15.1544Z" fill="white"/>
<path d="M49.3468 13.8101L50.0268 13.7461L50.0888 14.4241L49.4108 14.4881L48.7338 14.5531L48.0538 14.6151L47.3758 14.6791L46.6988 14.7431L46.0208 14.8071L45.3408 14.8711L45.2788 14.1921L45.2138 13.5141L45.1508 12.8351L45.0868 12.1571L45.0228 11.4791L44.9598 10.8011L44.8958 10.1231L45.5738 10.0591L46.2518 9.99409L46.3158 10.6731L46.3798 11.3511L46.4428 12.0291L46.5068 12.7081L46.5718 13.3871L46.6338 14.0651L47.3138 14.0011L47.9918 13.9361L48.6688 13.8731L49.3468 13.8101Z" fill="white"/>
<path d="M53.9591 14.5315L53.2781 14.4975L52.5991 14.4655L51.9171 14.4315L51.2371 14.3985L51.2711 13.7185L50.5891 13.6855L50.6221 13.0045L51.3031 13.0385L51.9831 13.0715L51.9501 13.7515L52.6311 13.7845L53.3121 13.8175L53.9921 13.8495L54.0241 13.1705L54.0581 12.4895L53.3771 12.4565L52.6961 12.4235L52.0171 12.3905L51.3351 12.3565L51.3681 11.6775L50.6881 11.6435L50.7221 10.9645L50.7541 10.2825L51.4351 10.3165L51.4681 9.63545L52.1471 9.66945L52.8281 9.70145L53.5091 9.73445L54.1891 9.76645L54.1571 10.4485L54.8371 10.4805L54.8041 11.1615L54.1241 11.1285L53.4421 11.0955L53.4761 10.4145L52.7961 10.3825L52.1141 10.3485L52.0821 11.0295L52.0501 11.7095L52.7301 11.7435L53.4101 11.7755L54.0911 11.8085L54.7711 11.8425L54.7381 12.5225L55.4191 12.5545L55.3861 13.2365L55.3531 13.9165L54.6731 13.8845L54.6401 14.5645L53.9591 14.5315Z" fill="white"/>
<path d="M59.2667 14.5785L58.5987 14.4505L58.7257 13.7815L58.0577 13.6515L57.9287 14.3205L57.2597 14.1915L56.5907 14.0645L56.7187 13.3945L57.3877 13.5225L57.5167 12.8535L56.8477 12.7255L56.1787 12.5965L56.3077 11.9275L56.9757 12.0565L57.6457 12.1845L57.7737 11.5165L57.1047 11.3875L57.2337 10.7185L57.9027 10.8475L58.5717 10.9755L58.4427 11.6445L59.1117 11.7735L59.2407 11.1045L59.9097 11.2335L60.5787 11.3605L60.4507 12.0305L59.7807 11.9025L59.6517 12.5715L60.3217 12.6995L60.9907 12.8285L60.8627 13.4965L60.1927 13.3685L59.5247 13.2395L59.3957 13.9095L60.0647 14.0365L59.9367 14.7065L59.2667 14.5785Z" fill="white"/>
<path d="M65.0304 16.261L65.6754 16.482L65.4544 17.126L64.8094 16.906L64.1654 16.685L63.5204 16.464L62.8764 16.243L62.2314 16.021L61.5874 15.8L61.8074 15.157L62.4524 15.376L63.0964 15.597L63.3174 14.953L63.5384 14.309L63.7594 13.664L63.9804 13.019L64.2024 12.376L63.5574 12.155L62.9134 11.934L63.1344 11.289L63.7784 11.51L64.4234 11.731L65.0674 11.952L65.7124 12.174L66.3564 12.395L67.0014 12.615L66.7804 13.259L66.1354 13.038L65.4914 12.819L65.2704 13.462L65.0494 14.107L64.8284 14.751L64.6064 15.395L64.3854 16.04L65.0304 16.261Z" fill="white"/>
<path d="M68.3273 18.4972L67.7203 18.1872L68.0283 17.5812L68.3393 16.9752L68.6473 16.3662L68.9563 15.7592L69.2643 15.1522L69.5733 14.5442L68.9663 14.2362L68.3593 13.9272L68.6683 13.3192L69.2743 13.6282L69.8823 13.9372L70.4893 14.2462L71.0973 14.5552L71.7043 14.8642L72.3113 15.1732L72.0033 15.7792L71.3953 15.4712L70.7883 15.1612L70.4793 15.7692L70.1713 16.3772L69.8623 16.9842L69.5533 17.5922L69.2443 18.1992L68.9343 18.8052L68.3273 18.4972Z" fill="white"/>
<path d="M74.6886 20.8409L74.1296 20.4499L73.5716 20.0599L73.0126 19.6699L72.4556 19.2789L71.8976 18.8879L72.2886 18.3289L72.6786 17.7719L73.2376 18.1629L73.7946 18.5529L74.3526 18.9449L74.9116 19.3339L75.4696 19.7249L76.0276 20.1149L75.6376 20.6729L75.2476 21.2319L74.6886 20.8409Z" fill="white"/>
<path d="M78.255 22.9821L78.753 23.4471L79.218 22.9501L79.685 22.4531L79.187 21.9871L79.651 21.4891L79.155 21.0241L78.689 21.5211L78.192 21.0561L77.727 21.5541L77.261 22.0501L77.758 22.5171L78.255 22.9821ZM77.854 25.4051L77.357 24.9401L77.821 24.4421L78.287 23.9451L77.79 23.4791L77.293 23.0141L76.796 22.5491L76.329 23.0451L75.864 23.5431L75.366 23.0781L74.868 22.6111L75.335 22.1141L75.8 21.6171L76.266 21.1191L76.732 20.6221L77.196 20.1251L77.694 20.5901L78.16 20.0931L78.657 20.5591L79.124 20.0611L79.62 20.5261L80.118 20.9931L80.616 21.4581L80.15 21.9561L80.648 22.4211L80.183 22.9181L80.679 23.3841L80.214 23.8811L79.748 24.3791L79.282 24.8761L78.817 25.3741L78.351 25.8701L77.854 25.4051Z" fill="white"/>
<path d="M81.255 29.3586L80.829 28.8276L81.36 28.4006L80.933 27.8696L81.464 27.4426L81.037 26.9116L81.569 26.4856L81.143 25.9536L80.611 26.3796L80.079 26.8066L79.548 27.2336L79.122 26.7026L78.695 26.1706L79.227 25.7446L79.758 25.3176L80.288 24.8906L80.819 24.4646L81.352 24.0376L81.883 23.6116L82.414 23.1846L82.841 23.7156L83.267 24.2486L82.735 24.6736L83.162 25.2056L82.632 25.6306L83.058 26.1636L82.526 26.5896L82.954 27.1206L83.484 26.6936L84.017 26.2676L84.547 25.8396L84.974 26.3716L85.401 26.9036L84.868 27.3306L84.338 27.7566L83.806 28.1836L83.276 28.6086L82.744 29.0366L82.213 29.4626L81.682 29.8896L81.255 29.3586Z" fill="white"/>
<path d="M84.6554 33.4137L85.0034 33.9987L84.4164 34.3457L84.0694 33.7607L83.7214 33.1737L83.3744 32.5877L83.0264 32.0017L82.6794 31.4157L82.3324 30.8297L82.9194 30.4827L83.2654 31.0677L83.6124 31.6547L84.1984 31.3077L84.7854 30.9597L85.3714 30.6137L85.9574 30.2657L86.5444 29.9177L86.1964 29.3307L85.8484 28.7457L86.4344 28.3987L86.7824 28.9857L87.1304 29.5707L87.4774 30.1567L87.8244 30.7437L88.1714 31.3287L88.5184 31.9147L87.9324 32.2627L87.5854 31.6767L87.2384 31.0897L86.6524 31.4377L86.0664 31.7857L85.4794 32.1327L84.8934 32.4787L84.3074 32.8277L84.6554 33.4137Z" fill="white"/>
<path d="M86.714 36.0919L87.345 35.8369L87.089 35.2049L86.458 35.4619L85.826 35.7169L85.194 35.9739L84.939 35.3419L84.683 34.7099L85.314 34.4549L85.945 34.1989L86.577 33.9429L87.208 33.6869L87.841 33.4309L88.472 33.1749L89.103 32.9179L89.359 33.5499L89.614 34.1809L88.984 34.4369L89.239 35.0699L88.608 35.3249L88.864 35.9559L89.495 35.6999L89.751 36.3319L90.382 36.0749L90.639 36.7069L90.895 37.3379L90.263 37.5949L89.632 37.8509L89 38.1069L88.368 38.3629L87.737 38.6179L87.107 38.8739L86.475 39.1299L86.218 38.4989L85.963 37.8669L86.594 37.6109L87.226 37.3559L87.857 37.0989L87.601 36.4679L86.97 36.7239L86.714 36.0919Z" fill="white"/>
<path d="M89.3644 41.6906L89.5364 42.3496L90.1944 42.1766L90.8544 42.0046L90.6824 41.3456L91.3414 41.1726L91.1694 40.5146L90.5104 40.6866L90.3384 40.0266L89.6784 40.1996L89.0194 40.3716L89.1924 41.0296L89.3644 41.6906ZM87.7294 43.5236L87.5574 42.8656L88.2184 42.6936L88.8764 42.5216L88.7044 41.8626L88.5324 41.2036L88.3604 40.5436L87.7014 40.7146L87.0424 40.8876L86.8704 40.2276L86.6984 39.5686L87.3574 39.3976L88.0164 39.2246L88.6754 39.0536L89.3354 38.8806L89.9944 38.7096L90.1664 39.3686L90.8254 39.1966L90.9974 39.8556L91.6564 39.6826L91.8294 40.3426L92.0014 41.0016L92.1734 41.6606L91.5134 41.8336L91.6864 42.4926L91.0264 42.6646L91.1984 43.3246L90.5394 43.4956L89.8804 43.6676L89.2214 43.8396L88.5614 44.0116L87.9024 44.1836L87.7294 43.5236Z" fill="white"/>
<path d="M89.1739 48.6034L89.2509 49.2794L88.5739 49.3574L88.4969 48.6794L88.4189 48.0034L88.3419 47.3274L88.2649 46.6494L88.1879 45.9724L88.1109 45.2954L88.0319 44.6184L88.7099 44.5414L89.3859 44.4644L90.0639 44.3864L90.7399 44.3094L91.4169 44.2314L92.0939 44.1544L92.7709 44.0764L92.8479 44.7534L92.9259 45.4304L92.2489 45.5084L91.5719 45.5854L90.8959 45.6634L90.2179 45.7414L89.5409 45.8184L88.8639 45.8954L88.9429 46.5724L89.0189 47.2494L89.0969 47.9264L89.1739 48.6034Z" fill="white"/>
<path d="M88.547 53.2089L88.566 52.5289L88.585 51.8469L88.604 51.1669L88.622 50.4839L89.304 50.5039L89.322 49.8219L90.004 49.8419L89.985 50.5219L89.966 51.2039L89.285 51.1849L89.267 51.8659L89.247 52.5469L89.228 53.2279L89.909 53.2469L90.59 53.2659L90.61 52.5859L90.628 51.9039L90.648 51.2229L90.666 50.5419L91.347 50.5609L91.366 49.8789L92.047 49.8979L92.728 49.9169L92.708 50.5989L93.39 50.6169L93.37 51.2979L93.353 51.9799L93.333 52.6599L93.314 53.3419L92.634 53.3229L92.614 54.0029L91.934 53.9849L91.952 53.3039L91.971 52.6219L92.652 52.6409L92.671 51.9609L92.691 51.2789L92.009 51.2599L91.328 51.2409L91.309 51.9219L91.29 52.6039L91.271 53.2839L91.253 53.9669L90.571 53.9469L90.553 54.6279L89.871 54.6079L89.191 54.5899L89.209 53.9099L88.528 53.8899L88.547 53.2089Z" fill="white"/>
<path d="M88.6075 58.5229L88.7215 57.8519L89.3935 57.9669L89.5085 57.2949L88.8365 57.1809L88.9525 56.5079L89.0675 55.8369L89.7385 55.9519L89.6245 56.6229L90.2945 56.7379L90.4105 56.0669L90.5245 55.3959L91.1965 55.5109L91.0815 56.1819L90.9655 56.8529L91.6375 56.9679L91.7535 56.2969L92.4245 56.4109L92.3095 57.0829L92.1945 57.7549L91.5245 57.6399L91.4095 58.3109L92.0805 58.4259L91.9655 59.0969L91.8505 59.7699L91.1785 59.6539L91.2945 58.9819L90.6225 58.8669L90.5065 59.5399L90.3925 60.2109L89.7195 60.0959L89.8355 59.4249L89.9505 58.7529L89.2785 58.6379L89.1645 59.3099L88.4925 59.1949L88.6075 58.5229Z" fill="white"/>
<path d="M87.0411 64.3232L86.8331 64.9712L86.1851 64.7652L86.3921 64.1152L86.6011 63.4672L86.8081 62.8182L87.0161 62.1692L87.2241 61.5212L87.4331 60.8712L88.0811 61.0792L87.8721 61.7272L87.6651 62.3772L88.3131 62.5842L88.9621 62.7932L89.6101 63.0022L90.2601 63.2092L90.9091 63.4172L91.1161 62.7672L91.3251 62.1192L91.9741 62.3272L91.7661 62.9752L91.5581 63.6242L91.3501 64.2742L91.1421 64.9222L90.9341 65.5712L90.7261 66.2202L90.0771 66.0112L90.2851 65.3632L90.4921 64.7142L89.8451 64.5062L89.1941 64.2992L88.5461 64.0912L87.8971 63.8832L87.2491 63.6742L87.0411 64.3232Z" fill="white"/>
<path d="M84.8702 67.6641L85.1672 67.0521L85.7802 67.3481L86.3922 67.6431L87.0072 67.9391L87.6202 68.2371L88.2332 68.5331L88.8472 68.8301L89.1432 68.2171L89.4392 67.6031L90.0542 67.9001L89.7572 68.5141L89.4602 69.1271L89.1632 69.7401L88.8672 70.3521L88.5702 70.9671L88.2742 71.5801L87.6612 71.2831L87.9572 70.6711L88.2542 70.0571L87.6402 69.7601L87.0262 69.4641L86.4132 69.1661L85.8002 68.8711L85.1862 68.5751L84.5732 68.2781L84.8702 67.6641Z" fill="white"/>
<path d="M82.6583 74.0696L83.0383 73.5026L83.4173 72.9366L83.7963 72.3706L84.1753 71.8036L84.5543 71.2386L85.1203 71.6186L85.6863 71.9966L85.3073 72.5626L84.9293 73.1296L84.5483 73.6946L84.1693 74.2606L83.7903 74.8276L83.4113 75.3926L82.8453 75.0136L82.2783 74.6346L82.6583 74.0696Z" fill="white"/>
<path d="M80.5929 77.6715L80.1379 78.1795L80.6459 78.6335L81.1529 79.0895L81.6079 78.5825L82.1139 79.0375L82.5699 78.5315L82.0639 78.0755L82.5179 77.5695L82.0109 77.1135L81.5039 76.6585L81.0489 77.1665L80.5929 77.6715ZM78.1629 77.3205L78.6179 76.8125L79.1239 77.2685L79.6319 77.7235L80.0869 77.2155L80.5419 76.7105L80.9969 76.2025L80.4889 75.7485L79.9839 75.2925L80.4389 74.7855L80.8939 74.2785L81.4009 74.7345L81.9069 75.1885L82.4149 75.6445L82.9209 76.0995L83.4289 76.5555L82.9729 77.0615L83.4799 77.5165L83.0249 78.0235L83.5309 78.4795L83.0759 78.9855L82.6199 79.4925L82.1659 80.0005L81.6589 79.5455L81.2029 80.0505L80.6969 79.5955L80.2409 80.1025L79.7359 79.6475L79.2279 79.1925L78.7209 78.7375L78.2139 78.2815L77.7069 77.8265L78.1629 77.3205Z" fill="white"/>
<path d="M74.2648 80.8147L74.7868 80.3777L75.2238 80.9007L75.7468 80.4627L76.1848 80.9847L76.7058 80.5477L77.1438 81.0707L77.6668 80.6337L77.2298 80.1107L76.7918 79.5877L76.3548 79.0657L76.8778 78.6287L77.3998 78.1917L77.8368 78.7137L78.2748 79.2367L78.7108 79.7587L79.1488 80.2827L79.5858 80.8037L80.0238 81.3267L80.4598 81.8487L79.9388 82.2857L79.4148 82.7227L78.9778 82.2007L78.4558 82.6377L78.0188 82.1147L77.4958 82.5537L77.0588 82.0307L76.5358 82.4677L76.9738 82.9907L77.4108 83.5127L77.8488 84.0357L77.3258 84.4737L76.8028 84.9097L76.3658 84.3867L75.9288 83.8657L75.4918 83.3417L75.0538 82.8197L74.6168 82.2967L74.1788 81.7747L73.7418 81.2517L74.2648 80.8147Z" fill="white"/>
<path d="M70.295 84.2857L69.716 84.6457L69.357 84.0667L69.936 83.7067L70.515 83.3477L71.094 82.9887L71.673 82.6287L72.251 82.2707L72.83 81.9107L73.19 82.4897L72.61 82.8487L72.032 83.2077L72.392 83.7877L72.751 84.3657L73.11 84.9457L73.469 85.5237L73.828 86.1027L74.407 85.7437L74.985 85.3847L75.345 85.9637L74.767 86.3227L74.188 86.6817L73.608 87.0407L73.03 87.4007L72.45 87.7597L71.872 88.1187L71.513 87.5397L72.091 87.1807L72.671 86.8217L72.312 86.2427L71.952 85.6637L71.593 85.0847L71.233 84.5057L70.874 83.9267L70.295 84.2857Z" fill="white"/>
<path d="M67.6359 86.4006L67.9109 87.0246L68.5339 86.7476L68.2579 86.1246L67.9819 85.5026L67.7049 84.8796L68.3269 84.6026L68.9499 84.3266L69.2279 84.9486L69.5029 85.5716L69.7809 86.1946L70.0559 86.8166L70.3329 87.4406L70.6089 88.0626L70.8849 88.6856L70.2619 88.9626L69.6399 89.2386L69.3629 88.6156L68.7399 88.8906L68.4639 88.2696L67.8409 88.5456L68.1169 89.1696L67.4939 89.4446L67.7709 90.0666L67.1479 90.3436L66.5259 90.6196L66.2489 89.9966L65.9739 89.3746L65.6969 88.7516L65.4199 88.1296L65.1439 87.5056L64.8659 86.8826L64.5909 86.2606L65.2139 85.9836L65.8369 85.7076L66.1129 86.3306L66.3899 86.9536L66.6649 87.5756L67.2879 87.2996L67.0119 86.6766L67.6359 86.4006Z" fill="white"/>
<path d="M62.1163 89.1622L61.4613 89.3472L61.6453 90.0042L61.8313 90.6592L62.4873 90.4732L62.6733 91.1282L63.3293 90.9432L63.1433 90.2882L63.7983 90.1022L63.6123 89.4462L63.4273 88.7912L62.7703 88.9762L62.1163 89.1622ZM60.2493 87.5662L60.9033 87.3812L61.0893 88.0362L61.2753 88.6912L61.9303 88.5072L62.5873 88.3212L63.2413 88.1362L63.0553 87.4792L62.8703 86.8242L63.5263 86.6392L64.1823 86.4532L64.3673 87.1082L64.5523 87.7642L64.7383 88.4202L64.9253 89.0752L65.1093 89.7312L64.4543 89.9162L64.6393 90.5722L63.9833 90.7582L64.1693 91.4132L63.5133 91.5992L62.8583 91.7852L62.2023 91.9702L62.0163 91.3142L61.3623 91.5002L61.1763 90.8442L60.5203 91.0302L60.3353 90.3752L60.1493 89.7192L59.9643 89.0622L59.7783 88.4072L59.5933 87.7522L60.2493 87.5662Z" fill="white"/>
<path d="M55.1857 89.1167L54.5107 89.2077L54.4187 88.5327L55.0947 88.4407L55.7697 88.3507L56.4447 88.2597L57.1207 88.1677L57.7947 88.0767L58.4697 87.9867L59.1457 87.8947L59.2367 88.5707L59.3287 89.2447L59.4187 89.9207L59.5107 90.5957L59.6007 91.2707L59.6927 91.9457L59.7837 92.6207L59.1087 92.7127L58.4327 92.8037L58.3417 92.1287L58.2507 91.4527L58.1597 90.7787L58.0697 90.1027L57.9777 89.4277L57.8857 88.7517L57.2107 88.8437L56.5367 88.9347L55.8607 89.0247L55.1857 89.1167Z" fill="white"/>
<path d="M50.5577 88.581L51.2397 88.586L51.9197 88.592L52.6027 88.598L53.2827 88.602L53.2777 89.284L53.9587 89.289L53.9537 89.971L53.2717 89.965L52.5907 89.96L52.5967 89.279L51.9147 89.273L51.2337 89.268L50.5517 89.263L50.5467 89.943L50.5417 90.625L51.2237 90.63L51.9047 90.635L52.5847 90.641L53.2667 90.646L53.2607 91.327L53.9427 91.333L53.9367 92.014L53.9317 92.695L53.2507 92.69L53.2457 93.373L52.5637 93.367L51.8817 93.361L51.2017 93.356L50.5207 93.351L50.5267 92.669L49.8437 92.663L49.8487 91.982L50.5307 91.988L51.2117 91.993L51.2067 92.675L51.8877 92.68L52.5697 92.685L52.5747 92.003L52.5797 91.322L51.8987 91.316L51.2177 91.311L50.5367 91.307L49.8547 91.301L49.8607 90.62L49.1787 90.614L49.1847 89.932L49.1897 89.251L49.8707 89.257L49.8757 88.575L50.5577 88.581Z" fill="white"/>
<path d="M45.2677 88.7509L45.9427 88.8529L45.8407 89.5239L46.5147 89.6259L46.6167 88.9529L47.2897 89.0549L47.9627 89.1559L47.8627 89.8279L47.1887 89.7269L47.0867 90.4009L47.7607 90.5029L48.4347 90.6039L48.3327 91.2769L47.6597 91.1759L46.9857 91.0749L46.8837 91.7499L47.5577 91.8509L47.4567 92.5239L46.7837 92.4229L46.1097 92.3209L46.2097 91.6479L45.5377 91.5469L45.4367 92.2199L44.7627 92.1189L44.0877 92.0179L44.1887 91.3449L44.8637 91.4459L44.9647 90.7719L44.2897 90.6709L43.6177 90.5699L43.7177 89.8959L44.3917 89.9969L45.0657 90.0979L45.1667 89.4239L44.4937 89.3219L44.5947 88.6489L45.2677 88.7509Z" fill="white"/>
<path d="M34.5792 75.1949V74.3849H33.7692V75.1949V76.0049V76.8149H32.9592H32.1492V76.0049V75.1949V74.3849V73.5749V72.7649V71.9549V71.1459H32.9592H33.7692V71.9549H34.5792V72.7649H35.3892V71.9549H36.1992V71.1459H37.0092H37.8182V71.9549V72.7649V73.5749V74.3849V75.1949V76.0049V76.8149H37.0092H36.1992V76.0049V75.1949V74.3849H35.3892V75.1949H34.5792Z" fill="white"/>
<path d="M41.8673 74.3849H42.6783V73.5749V72.7649H41.8673V71.9549H41.0573V72.7649H40.2483V73.5749V74.3849H41.0573H41.8673ZM43.4873 76.8149H42.6783V76.0049V75.1949H41.8673H41.0573H40.2483V76.0049V76.8149H39.4373H38.6283V76.0049V75.1949V74.3849V73.5749V72.7649H39.4373V71.9549H40.2483V71.1459H41.0573H41.8673H42.6783V71.9549H43.4873V72.7649H44.2973V73.5749V74.3849V75.1949V76.0049V76.8149H43.4873Z" fill="white"/>
<path d="M48.3458 74.3849H49.1568V73.5749V72.7649V71.9549H48.3458H47.5358H46.7268V72.7649V73.5749V74.3849H47.5358H48.3458ZM45.9158 76.8149H45.1068V76.0049V75.1949V74.3849V73.5749V72.7649V71.9549V71.1459H45.9158H46.7268H47.5358H48.3458H49.1568H49.9658V71.9549H50.7758V72.7649V73.5749V74.3849H49.9658V75.1949H49.1568H48.3458H47.5358H46.7268V76.0049V76.8149H45.9158Z" fill="white"/>
<path d="M56.4445 76.8145H55.6345V76.0045V75.1945V74.3845H54.8245V75.1945H54.0145V76.0045H53.2055V76.8145H52.3945H51.5855V76.0045V75.1945V74.3845V73.5755V72.7655V71.9555V71.1455H52.3945H53.2055V71.9555V72.7655V73.5755H54.0145V72.7655H54.8245V71.9555H55.6345V71.1455H56.4445H57.2545V71.9555V72.7655V73.5755V74.3845V75.1945V76.0045V76.8145H56.4445Z" fill="white"/>
<path d="M62.923 76.8145H62.113V76.0045V75.1945V74.3845H61.303H60.493H59.684V75.1945V76.0045V76.8145H58.873H58.064V76.0045V75.1945V74.3845V73.5755V72.7655V71.9555V71.1455H58.873H59.684V71.9555V72.7655V73.5755H60.493H61.303H62.113V72.7655V71.9555V71.1455H62.923H63.733V71.9555V72.7655V73.5755V74.3845V75.1945V76.0045V76.8145H62.923Z" fill="white"/>
<path d="M67.7814 74.3849H68.5924V73.5749V72.7649H67.7814V71.9549H66.9714V72.7649H66.1624V73.5749V74.3849H66.9714H67.7814ZM69.4014 76.8149H68.5924V76.0049V75.1949H67.7814H66.9714H66.1624V76.0049V76.8149H65.3514H64.5424V76.0049V75.1949V74.3849V73.5749V72.7649H65.3514V71.9549H66.1624V71.1459H66.9714H67.7814H68.5924V71.9549H69.4014V72.7649H70.2114V73.5749V74.3849V75.1949V76.0049V76.8149H69.4014Z" fill="white"/>
<path d="M57.9596 46.1616H53.7096V41.9126H57.9596V46.1616Z" fill="#3C4E57"/>
<path d="M53.7096 54.6597H49.4606V50.4107H53.7096V54.6597Z" fill="#F68B62"/>
<path d="M49.4606 46.1616H45.2116V41.9126H49.4606V46.1616Z" fill="#3C4E57"/>
<path d="M66.4581 37.6637V33.4147H62.2091V29.1647H53.7101V24.9157H40.9631V29.1647V33.4147H36.7141V37.6637H32.4651V58.9087H36.7141V63.1587H39.2491H43.0881V58.9087H40.9631V37.6637H45.2121V33.4147H57.9601V37.6637H62.2091V58.9087H60.0841V63.1587H63.8941H66.4581V58.9087H70.7071V37.6637H66.4581Z" fill="#23363E"/>
<path d="M57.9591 37.6637V33.4157H45.2121V37.6637H40.9641V58.9097H47.3981V63.1577H55.8351V58.9097H62.2081V37.6637H57.9591ZM57.9601 46.1617H53.7101V41.9127H57.9601V46.1617ZM53.7101 54.6597H49.4611V50.4107H53.7101V54.6597ZM45.2121 41.9127H49.4611V46.1617H45.2121V41.9127Z" fill="#EFD8B9"/>
<path d="M66.4576 52.5347H62.2086V48.2857H66.4576V52.5347Z" fill="#ED2127"/>
<path d="M40.9636 52.5347H36.7146V48.2857H40.9636V52.5347Z" fill="#ED2127"/>
</svg>
