<svg width="100%" height="100%" viewBox="0 0 557 557" fill="none" xmlns="http://www.w3.org/2000/svg">
<path d="M226.881 159.573H213.55V172.904H226.881V159.573Z" fill="#3C4D57"/>
<path d="M213.55 186.231H200.219V199.562H213.55V186.231Z" fill="#F58A62"/>
<path d="M200.219 159.573H186.888V172.904H200.219V159.573Z" fill="#3C4D57"/>
<path d="M253.539 146.242V132.911H240.208V119.58H213.55V106.253H173.561V119.58V132.911H160.23V146.242H146.899V212.893H160.23V226.22H168.184H180.227V212.893H173.561V146.242H186.888V132.911H226.881V146.242H240.208V212.893H233.543V226.22H245.496H253.539V212.893H266.87V146.242H253.539Z" fill="#23353D"/>
<path d="M253.513 306.201H240.182V346.19H253.513V306.201Z" fill="#EED6B8"/>
<path d="M253.513 239.551H240.182V311.512H253.513V239.551Z" fill="#720E32"/>
<path d="M200.189 332.859H173.531V451.987H200.189V332.859Z" fill="#85BDE6"/>
<path d="M240.178 332.859H213.52V451.987H240.178V332.859Z" fill="#85BDE6"/>
<path d="M226.885 146.242V132.911H186.888V146.242H173.561V212.893H193.747V226.22H193.35V250.39H220.008V226.22H220.201V212.893H240.193V146.242H226.885ZM186.892 172.9V159.573H200.223V172.9H186.892ZM213.554 186.231V199.562H200.223V186.231H213.554ZM226.885 172.9H213.554V159.573H226.885V172.9Z" fill="#EED6B8"/>
<path d="M173.531 306.201H160.201V346.19H173.531V306.201Z" fill="#EED6B8"/>
<path d="M173.531 239.551H160.201V311.512H173.531V239.551Z" fill="#720E32"/>
<path d="M253.513 180.13H240.182V193.461H253.513V180.13Z" fill="#EB2027"/>
<path d="M173.531 180.13H160.201V193.461H173.531V180.13Z" fill="#EB2027"/>
<path d="M240.182 332.859H173.531V340.665H240.182V332.859Z" fill="#85BDE6"/>
<path d="M240.178 438.66H213.52V451.991H240.178V438.66Z" fill="#3C4D57"/>
<path d="M200.189 438.66H173.531V451.991H200.189V438.66Z" fill="#3C4D57"/>
<path d="M220.008 226.22V237.059H206.68H193.35V239.551V226.22H173.531V239.551V332.859H240.182V239.551V226.22H220.008Z" fill="#720E32"/>
<path d="M240.208 247.055H173.531V253.721H240.208V247.055Z" fill="#A53865"/>
<path d="M240.223 267.052H173.546V273.717H240.223V267.052Z" fill="#A53865"/>
<path d="M240.208 284.85H173.531V291.515H240.208V284.85Z" fill="#A53865"/>
<path d="M240.223 304.846H173.546V311.512H240.223V304.846Z" fill="#A53865"/>
<path d="M253.506 253.721H240.216V260.386H253.506V253.721Z" fill="#A53865"/>
<path d="M253.509 273.717H240.219V280.383H253.509V273.717Z" fill="#A53865"/>
<path d="M253.506 291.515H240.216V298.181H253.506V291.515Z" fill="#A53865"/>
<path d="M253.509 311.512H240.219V318.177H253.509V311.512Z" fill="#A53865"/>
<path d="M173.509 253.721H160.219V260.386H173.509V253.721Z" fill="#A53865"/>
<path d="M173.513 273.717H160.223V280.383H173.513V273.717Z" fill="#A53865"/>
<path d="M173.509 291.515H160.219V298.181H173.509V291.515Z" fill="#A53865"/>
<path d="M173.513 311.512H160.223V318.177H173.513V311.512Z" fill="#A53865"/>
<path d="M106.64 438.66V451.987H66.6506V438.66H93.3086H106.64Z" fill="#3C4D57"/>
<path d="M106.64 332.02H93.3086V345.351H106.64V332.02Z" fill="#EED6B8"/>
<path d="M106.64 225.381H93.3086V332.02H106.64V225.381Z" fill="#3C4D57"/>
<path d="M106.64 172.061H93.3086V185.392H106.64V172.061Z" fill="#774F33"/>
<path d="M106.64 132.072H93.3086V158.73H106.64V132.072Z" fill="#774F33"/>
<path d="M93.3087 225.381V332.02H66.6506H39.9889H13.3309V225.381H39.9889V238.712H53.3198V252.039H66.6506V238.712V225.381H93.3087Z" fill="#3C4D57"/>
<path d="M79.9778 185.392H39.9889V198.723H79.9778V185.392Z" fill="#F7F5F1"/>
<path d="M79.9815 158.73H66.6506V172.061H79.9815V158.73Z" fill="#3C4D57"/>
<path d="M66.6506 105.41V118.741H53.3198H26.6618V132.072H93.3087V118.741V105.41H66.6506Z" fill="#774F33"/>
<path d="M39.9889 225.381V268.433H53.3197V298.155H66.6506V268.433V238.712V225.381H39.9889Z" fill="#F05A2B"/>
<path d="M53.3198 438.66V451.987H13.3309V438.66H39.9889H53.3198Z" fill="#3C4D57"/>
<path d="M53.3197 158.73H39.9889V172.061H53.3197V158.73Z" fill="#3C4D57"/>
<path d="M66.6506 332.02H39.9889H13.3309V345.347V438.66H39.9889V345.347H66.6506V438.66H93.3087V345.347V332.02H66.6506Z" fill="#5D8A9F"/>
<path d="M26.6617 172.061H13.3309V185.392H26.6617V172.061Z" fill="#774F33"/>
<path d="M93.3087 158.73V132.072H26.6617V158.73H13.3309V172.061H26.6617V212.05H39.9889V225.399H66.6506V212.068H93.3087V172.061H106.64V158.73H93.3087ZM39.9889 158.73H53.3198V172.061H39.9889V158.73ZM79.9778 198.719H39.9889V185.392H79.9778V198.719ZM79.9778 172.061H66.6506V158.73H79.9778V172.061Z" fill="#EED6B8"/>
<path d="M26.6617 132.072H13.3309V158.73H26.6617V132.072Z" fill="#774F33"/>
<path d="M13.3309 332.02H0V345.351H13.3309V332.02Z" fill="#EED6B8"/>
<path d="M13.3309 225.381H0V332.02H13.3309V225.381Z" fill="#3C4D57"/>
<path d="M93.3123 198.719H26.6618V212.05H93.3123V198.719Z" fill="#99745C"/>
<path d="M93.3086 185.392H79.9778V212.05H93.3086V185.392Z" fill="#99745C"/>
<path d="M39.9889 185.392H26.658V212.05H39.9889V185.392Z" fill="#99745C"/>
<path d="M530.338 278.299V331.619V344.95H543.669V331.619V278.299H530.338Z" fill="#EED6B8"/>
<path d="M530.338 438.259V451.59H490.349V438.259H503.68H530.338Z" fill="#3C4D57"/>
<path d="M530.342 131.671H517.011V158.329H530.342V131.671Z" fill="#774F33"/>
<path d="M543.669 238.311V224.98H530.338H517.011V211.653H503.68V224.98V331.619H530.338V278.3V264.972H543.669H557V238.311H543.669Z" fill="#5489C7"/>
<path d="M503.68 224.98H477.022V331.619H503.68V224.98Z" fill="#F7F5F1"/>
<path d="M503.68 118.34V105.013H450.361V118.34V131.671H517.011V118.34H503.68Z" fill="#774F33"/>
<path d="M490.353 184.991H477.022V198.322H490.353V184.991Z" fill="#F58A62"/>
<path d="M477.022 438.259V451.59H437.03V438.259H450.36H477.022Z" fill="#3C4D57"/>
<path d="M503.68 331.619H477.022H450.361V344.95V438.259H477.022V344.95H503.68V438.259H530.338V344.95V331.619H503.68Z" fill="#2D333B"/>
<path d="M470.45 158.333H463.691V171.664H470.45V158.333Z" fill="#EED6B8"/>
<path d="M437.03 278.299V331.619V344.95H450.361V331.619V278.299H437.03Z" fill="#EED6B8"/>
<path d="M450.361 131.671H437.03V158.329H450.361V131.671Z" fill="#774F33"/>
<path d="M543.669 264.972H530.338V278.299H543.669H557V264.972H543.669Z" fill="#F7F5F1"/>
<path d="M423.702 264.972V278.299H437.03H450.361V264.972H437.03H423.702Z" fill="#F7F5F1"/>
<path d="M463.691 211.653V224.98H450.36H437.03V238.311H423.702V264.972H437.03H450.36V278.3V331.619H477.022V224.98V211.653H463.691Z" fill="#5489C7"/>
<path d="M517.011 158.333V131.671H450.36V158.333H437.03V171.66H450.36V211.66H477.018V224.987H503.68V211.66H517.011V171.66H530.338V158.333H517.011ZM468.482 171.66H463.691V158.333H468.482V171.66ZM496.9 158.333H503.68V171.66H496.9V158.333ZM477.018 198.322V184.991H490.349V198.322H477.018Z" fill="#EED6B8"/>
<path d="M474.553 158.333H464.601V171.664H474.553V158.333Z" fill="#3C4D57"/>
<path d="M504.382 158.333H494.43V171.664H504.382V158.333Z" fill="#3C4D57"/>
<path d="M517.011 158.333H513.517V154.991H486.855V156.658H483.684V154.991H457.026V158.333H443.695V164.995H457.026V171.66H483.762V168.318H483.68V159.996H486.851V171.66H513.587V168.318H513.506V164.976H523.665V158.333H517.011ZM460.357 168.329V158.333H480.353V168.329H460.357ZM490.19 168.329V158.333H510.182V168.329H490.19Z" fill="#221F1F"/>
<path d="M398.43 331.619H385.099V344.95H398.43V331.619Z" fill="#EED6B8"/>
<path d="M398.43 224.98H385.099V331.619H398.43V224.98Z" fill="#3C4D57"/>
<path d="M385.102 438.259V451.59H345.11V438.259H358.441H385.102Z" fill="#3C4D57"/>
<path d="M385.102 224.98V331.619H358.441H331.783H305.121V224.98H318.452V238.311H331.783V251.641H358.441V238.311H371.771V224.98H385.102Z" fill="#3C4D57"/>
<path d="M358.441 224.98H331.783H318.452V238.311H331.783V251.641H338.444V264.972H351.775V251.641H358.441V238.311H371.772V224.98H358.441Z" fill="#EC1066"/>
<path d="M358.441 158.333H345.11V171.664H358.441V158.333Z" fill="#3C4D57"/>
<path d="M331.783 438.259V451.59H291.79V438.259H305.121H331.783Z" fill="#3C4D57"/>
<path d="M358.441 331.619H331.783H305.121V344.95V438.259H331.783V344.95H358.441V438.259H385.099V344.95V331.619H358.441Z" fill="#774F33"/>
<path d="M331.783 158.333H318.452V171.664H331.783V158.333Z" fill="#3C4D57"/>
<path d="M305.121 331.619H291.79V344.95H305.121V331.619Z" fill="#EED6B8"/>
<path d="M305.121 224.98H291.79V331.619H305.121V224.98Z" fill="#3C4D57"/>
<path d="M385.102 131.671H371.772V158.329H385.102V131.671Z" fill="#F8D09C"/>
<path d="M371.772 118.34V131.671H305.121V118.34H318.452H345.11H371.772Z" fill="#F8D09C"/>
<path d="M345.11 105.013H318.452V118.344H345.11V105.013Z" fill="#F8D09C"/>
<path d="M305.121 131.671H291.79V158.329H305.121V131.671Z" fill="#F8D09C"/>
<path d="M385.102 158.333H371.772V171.664H385.102V158.333Z" fill="#EED6B8"/>
<path d="M305.121 158.333H291.79V171.664H305.121V158.333Z" fill="#EED6B8"/>
<path d="M305.121 158.333V211.66H331.783V224.987H358.441V211.66H371.772V131.671H305.121V158.333ZM345.11 158.333H358.441V171.66H345.11V158.333ZM318.452 158.333H331.783V171.66H318.452V158.333Z" fill="#EED6B8"/>
<path d="M338.444 183.743H325.117V197.074H338.444H351.775V183.743H338.444Z" fill="#F58A62"/>
<path d="M181.233 405.496V413.235H173.468V405.496H181.233V389.978H173.468V397.698H157.98V389.945H150.215V397.698H126.963V382.195H119.224V451.968H126.963V444.215H150.215V451.968H157.98V444.215H173.468V451.968H181.233V444.215H188.986V405.496H181.233ZM157.98 413.235H150.215V405.496H157.98V413.235Z" fill="#764D2A"/>
<path d="M173.476 413.216H165.722V420.97H173.476V413.216Z" fill="#EC1066"/>
<path d="M126.977 428.727H119.224V436.48V444.23V451.983H126.977V444.23H134.727V436.48V428.727H126.977Z" fill="#F1F1F1"/>
<path d="M181.218 428.73V451.987H173.472V444.23H157.984V451.987H150.227V436.48H150.212V428.73H157.984V428.723H157.976V413.22H165.737V420.969H173.472V428.73H181.218Z" fill="#F1F1F1"/>
<path d="M157.954 405.477H150.215V413.216H157.954V405.477Z" fill="#7DC25D"/>
<path d="M181.211 405.477H173.472V413.216H181.211V405.477Z" fill="#7DC25D"/>
</svg>
