<svg width="38" height="38" viewBox="0 0 38 38" fill="none" xmlns="http://www.w3.org/2000/svg">
<path d="M32.9534 12.3701V16.4823H28.8282V12.3701H32.9534V4.11777H28.8282V8.22993H20.6038V4.11777H16.4674V8.22993H4.11217V0H0V37.073H4.11217V32.9609H16.4674V37.073H20.5982V32.9609H28.8226V37.073H32.9534V32.9609H37.0656V12.3701H32.9534ZM20.5982 16.4823H16.4674V12.3701H20.5982V16.4823Z" fill="#764D2A"/>
<path d="M28.8319 16.4767H24.7122V20.5963H28.8319V16.4767Z" fill="#EC1066"/>
<path d="M4.12526 24.7159H0.00561523V28.8356V32.9553V37.073H4.12526V32.9553H8.24304V28.8356V24.7159H4.12526Z" fill="#F1F1F1"/>
<path d="M32.9459 24.7179V37.0768H28.83V32.9553H20.6001V37.0768H16.4785V28.8357H16.4711V24.7179H20.6001V24.7141H20.5963V16.4767H24.7197V20.5963H28.83V24.7179H32.9459Z" fill="#F1F1F1"/>
<path d="M20.5851 12.3628H16.473V16.475H20.5851V12.3628Z" fill="#7DC25D"/>
<path d="M32.9441 12.3628H28.8319V16.475H32.9441V12.3628Z" fill="#7DC25D"/>
</svg>
