<svg id="Layer_1" data-name="Layer 1" xmlns="http://www.w3.org/2000/svg" viewBox="0 0 1500 1500"><defs><style>.cls-1{fill:#8db53f;}.cls-2{fill:#fff;}.cls-3{fill:#557334;}.cls-4{fill:#82a33e;}.cls-5{fill:#84a93f;}.cls-6{fill:#789a3e;}.cls-7{fill:#ddeab8;}.cls-8{fill:#9dc050;}.cls-9{fill:#658038;}</style></defs><rect class="cls-1" x="1460.53" y="1223.68" width="39.47" height="39.47"/><rect class="cls-1" x="1460.53" y="1184.21" width="39.47" height="39.47"/><rect class="cls-1" x="1421.06" y="1263.15" width="39.47" height="39.47"/><rect class="cls-1" x="1421.06" y="1223.68" width="39.47" height="39.47"/><rect class="cls-1" x="1421.06" y="1184.21" width="39.47" height="39.47"/><rect class="cls-1" x="1421.06" y="1144.73" width="39.47" height="39.48"/><rect class="cls-1" x="1381.59" y="1263.15" width="39.47" height="39.47"/><rect class="cls-1" x="1381.59" y="1223.68" width="39.47" height="39.47"/><rect class="cls-1" x="1381.59" y="1184.21" width="39.47" height="39.47"/><rect class="cls-1" x="1381.59" y="1144.73" width="39.47" height="39.48"/><rect class="cls-1" x="1342.1" y="1263.15" width="39.48" height="39.47"/><rect class="cls-1" x="1342.1" y="1223.68" width="39.48" height="39.47"/><rect class="cls-1" x="1342.1" y="1184.21" width="39.48" height="39.47"/><rect class="cls-1" x="1342.1" y="1144.73" width="39.48" height="39.48"/><rect class="cls-1" x="1342.1" y="1105.26" width="39.48" height="39.47"/><rect class="cls-1" x="1302.63" y="1263.15" width="39.47" height="39.47"/><rect class="cls-1" x="1302.63" y="1223.68" width="39.47" height="39.47"/><rect class="cls-1" x="1302.63" y="1184.21" width="39.47" height="39.47"/><rect class="cls-1" x="1302.63" y="1144.73" width="39.47" height="39.48"/><rect class="cls-1" x="1302.63" y="1105.26" width="39.47" height="39.47"/><rect class="cls-1" x="1263.16" y="1263.15" width="39.47" height="39.47"/><rect class="cls-1" x="1263.16" y="1223.68" width="39.47" height="39.47"/><rect class="cls-1" x="1263.16" y="1184.21" width="39.47" height="39.47"/><rect class="cls-1" x="1263.16" y="1144.73" width="39.47" height="39.48"/><rect class="cls-1" x="1263.16" y="1105.26" width="39.47" height="39.47"/><rect class="cls-1" x="1263.16" y="1065.78" width="39.47" height="39.47"/><rect class="cls-1" x="1223.69" y="1263.15" width="39.47" height="39.47"/><rect class="cls-1" x="1223.69" y="1223.68" width="39.47" height="39.47"/><rect class="cls-1" x="1223.69" y="1184.21" width="39.47" height="39.47"/><rect class="cls-1" x="1223.69" y="1144.73" width="39.47" height="39.48"/><rect class="cls-1" x="1223.69" y="1105.26" width="39.47" height="39.47"/><rect class="cls-1" x="1223.69" y="1065.78" width="39.47" height="39.47"/><rect class="cls-1" x="1184.21" y="1223.68" width="39.48" height="39.47"/><rect class="cls-1" x="1184.21" y="1184.21" width="39.48" height="39.47"/><rect class="cls-1" x="1184.21" y="1144.73" width="39.48" height="39.48"/><rect class="cls-1" x="1184.21" y="1105.26" width="39.48" height="39.47"/><rect class="cls-1" x="1184.21" y="1065.78" width="39.48" height="39.47"/><rect class="cls-1" x="1144.74" y="1223.68" width="39.47" height="39.47"/><rect class="cls-1" x="1144.74" y="1184.21" width="39.47" height="39.47"/><rect class="cls-1" x="1144.74" y="1144.73" width="39.47" height="39.48"/><rect class="cls-1" x="1144.74" y="1105.26" width="39.47" height="39.47"/><rect class="cls-1" x="1144.74" y="1065.78" width="39.47" height="39.47"/><rect class="cls-1" x="1144.74" y="1026.31" width="39.47" height="39.47"/><rect class="cls-1" x="1105.27" y="1223.68" width="39.47" height="39.47"/><rect class="cls-1" x="1105.27" y="1184.21" width="39.47" height="39.47"/><rect class="cls-1" x="1105.27" y="1144.73" width="39.47" height="39.48"/><rect class="cls-1" x="1105.27" y="1105.26" width="39.47" height="39.47"/><rect class="cls-1" x="1105.27" y="1065.78" width="39.47" height="39.47"/><rect class="cls-1" x="1105.27" y="1026.31" width="39.47" height="39.47"/><rect class="cls-1" x="1065.8" y="1460.53" width="39.47" height="39.47"/><rect class="cls-1" x="1065.8" y="1421.05" width="39.47" height="39.48"/><rect class="cls-1" x="1065.8" y="1381.58" width="39.47" height="39.47"/><rect class="cls-1" x="1065.8" y="1342.1" width="39.47" height="39.47"/><rect class="cls-1" x="1065.8" y="1302.62" width="39.47" height="39.48"/><rect class="cls-1" x="1065.8" y="1263.15" width="39.47" height="39.47"/><rect class="cls-1" x="1065.8" y="1223.68" width="39.47" height="39.47"/><rect class="cls-1" x="1065.8" y="1184.21" width="39.47" height="39.47"/><rect class="cls-1" x="1065.8" y="1144.73" width="39.47" height="39.48"/><rect class="cls-1" x="1065.8" y="1105.26" width="39.47" height="39.47"/><rect class="cls-1" x="1065.8" y="1065.78" width="39.47" height="39.47"/><rect class="cls-1" x="1065.8" y="1026.31" width="39.47" height="39.47"/><rect class="cls-1" x="1026.31" y="1460.53" width="39.48" height="39.47"/><rect class="cls-1" x="1026.31" y="1421.05" width="39.48" height="39.48"/><rect class="cls-1" x="1026.31" y="1381.58" width="39.48" height="39.47"/><rect class="cls-1" x="1026.31" y="1342.1" width="39.48" height="39.47"/><rect class="cls-1" x="1026.31" y="1302.62" width="39.48" height="39.48"/><rect class="cls-1" x="1026.31" y="1263.15" width="39.48" height="39.47"/><rect class="cls-1" x="1026.31" y="1223.68" width="39.48" height="39.47"/><rect class="cls-1" x="1026.31" y="1184.21" width="39.48" height="39.47"/><rect class="cls-1" x="1026.31" y="1144.73" width="39.48" height="39.48"/><rect class="cls-1" x="1026.31" y="1105.26" width="39.48" height="39.47"/><rect class="cls-1" x="1026.31" y="1065.78" width="39.48" height="39.47"/><rect class="cls-1" x="1026.31" y="1026.31" width="39.48" height="39.47"/><rect class="cls-1" x="1026.31" y="986.83" width="39.48" height="39.48"/><rect class="cls-1" x="986.84" y="1460.53" width="39.47" height="39.47"/><rect class="cls-1" x="986.84" y="1421.05" width="39.47" height="39.48"/><rect class="cls-1" x="986.84" y="1381.58" width="39.47" height="39.47"/><rect class="cls-1" x="986.84" y="1342.1" width="39.47" height="39.47"/><rect class="cls-1" x="986.84" y="1302.62" width="39.47" height="39.48"/><rect class="cls-1" x="986.84" y="1263.15" width="39.47" height="39.47"/><rect class="cls-1" x="986.84" y="1223.68" width="39.47" height="39.47"/><rect class="cls-1" x="986.84" y="1184.21" width="39.47" height="39.47"/><rect class="cls-1" x="986.84" y="1144.73" width="39.47" height="39.48"/><rect class="cls-1" x="986.84" y="1105.26" width="39.47" height="39.47"/><rect class="cls-1" x="986.84" y="1065.78" width="39.47" height="39.47"/><rect class="cls-1" x="986.84" y="1026.31" width="39.47" height="39.47"/><rect class="cls-1" x="986.84" y="986.83" width="39.47" height="39.48"/><rect class="cls-1" x="986.84" y="947.36" width="39.47" height="39.47"/><rect class="cls-1" x="947.37" y="1460.53" width="39.47" height="39.47"/><rect class="cls-1" x="947.37" y="1421.05" width="39.47" height="39.48"/><rect class="cls-1" x="947.37" y="1381.58" width="39.47" height="39.47"/><rect class="cls-1" x="947.37" y="1342.1" width="39.47" height="39.47"/><rect class="cls-1" x="947.37" y="1302.62" width="39.47" height="39.48"/><rect class="cls-1" x="947.37" y="1263.15" width="39.47" height="39.47"/><rect class="cls-1" x="947.37" y="1223.68" width="39.47" height="39.47"/><rect class="cls-1" x="947.37" y="1184.21" width="39.47" height="39.47"/><rect class="cls-1" x="947.37" y="1144.73" width="39.47" height="39.48"/><rect class="cls-1" x="947.37" y="1105.26" width="39.47" height="39.47"/><rect class="cls-1" x="947.37" y="1065.78" width="39.47" height="39.47"/><rect class="cls-1" x="947.37" y="1026.31" width="39.47" height="39.47"/><rect class="cls-1" x="947.37" y="986.83" width="39.47" height="39.48"/><rect class="cls-1" x="947.37" y="947.36" width="39.47" height="39.47"/><rect class="cls-1" x="907.9" y="1302.62" width="39.47" height="39.48"/><rect class="cls-1" x="907.9" y="1263.15" width="39.47" height="39.47"/><rect class="cls-1" x="907.9" y="1223.68" width="39.47" height="39.47"/><rect class="cls-1" x="907.9" y="1184.21" width="39.47" height="39.47"/><rect class="cls-1" x="907.9" y="1144.73" width="39.47" height="39.48"/><rect class="cls-1" x="907.9" y="1105.26" width="39.47" height="39.47"/><rect class="cls-1" x="907.9" y="1065.78" width="39.47" height="39.47"/><rect class="cls-1" x="907.9" y="1026.31" width="39.47" height="39.47"/><rect class="cls-1" x="907.9" y="986.83" width="39.47" height="39.48"/><rect class="cls-1" x="907.9" y="947.36" width="39.47" height="39.47"/><rect class="cls-1" x="868.42" y="1302.62" width="39.48" height="39.48"/><rect class="cls-1" x="868.42" y="1263.15" width="39.48" height="39.47"/><rect class="cls-1" x="868.42" y="1223.68" width="39.48" height="39.47"/><rect class="cls-1" x="868.42" y="1184.21" width="39.48" height="39.47"/><rect class="cls-1" x="868.42" y="1144.73" width="39.48" height="39.48"/><rect class="cls-1" x="868.42" y="1105.26" width="39.48" height="39.47"/><rect class="cls-1" x="868.42" y="1065.78" width="39.48" height="39.47"/><rect class="cls-1" x="868.42" y="1026.31" width="39.48" height="39.47"/><rect class="cls-1" x="868.42" y="986.83" width="39.48" height="39.48"/><rect class="cls-1" x="868.42" y="947.36" width="39.48" height="39.47"/><rect class="cls-1" x="828.95" y="1302.62" width="39.47" height="39.48"/><rect class="cls-1" x="828.95" y="1263.15" width="39.47" height="39.47"/><rect class="cls-1" x="828.95" y="1223.68" width="39.47" height="39.47"/><rect class="cls-1" x="828.95" y="1184.21" width="39.47" height="39.47"/><rect class="cls-1" x="828.95" y="1144.73" width="39.47" height="39.48"/><rect class="cls-1" x="828.95" y="1105.26" width="39.47" height="39.47"/><rect class="cls-1" x="828.95" y="1065.78" width="39.47" height="39.47"/><rect class="cls-1" x="828.95" y="1026.31" width="39.47" height="39.47"/><rect class="cls-1" x="828.95" y="986.83" width="39.47" height="39.48"/><rect class="cls-1" x="828.95" y="947.36" width="39.47" height="39.47"/><rect class="cls-1" x="789.48" y="1302.62" width="39.47" height="39.48"/><rect class="cls-1" x="789.48" y="1263.15" width="39.47" height="39.47"/><rect class="cls-1" x="789.48" y="1223.68" width="39.47" height="39.47"/><rect class="cls-1" x="789.48" y="1184.21" width="39.47" height="39.47"/><rect class="cls-1" x="789.48" y="1144.73" width="39.47" height="39.48"/><rect class="cls-1" x="789.48" y="1105.26" width="39.47" height="39.47"/><rect class="cls-1" x="789.48" y="1065.78" width="39.47" height="39.47"/><rect class="cls-1" x="789.48" y="1026.31" width="39.47" height="39.47"/><rect class="cls-1" x="789.48" y="986.83" width="39.47" height="39.48"/><rect class="cls-1" x="789.48" y="947.36" width="39.47" height="39.47"/><rect class="cls-1" x="750.01" y="1302.62" width="39.47" height="39.48"/><rect class="cls-1" x="750.01" y="1263.15" width="39.47" height="39.47"/><rect class="cls-1" x="750.01" y="1223.68" width="39.47" height="39.47"/><rect class="cls-1" x="750.01" y="1184.21" width="39.47" height="39.47"/><rect class="cls-1" x="750.01" y="1144.73" width="39.47" height="39.48"/><rect class="cls-1" x="750.01" y="1105.26" width="39.47" height="39.47"/><rect class="cls-1" x="750.01" y="1065.78" width="39.47" height="39.47"/><rect class="cls-1" x="750.01" y="1026.31" width="39.47" height="39.47"/><rect class="cls-1" x="750.01" y="986.83" width="39.47" height="39.48"/><rect class="cls-1" x="750.01" y="947.36" width="39.47" height="39.47"/><rect class="cls-1" x="710.52" y="1302.62" width="39.48" height="39.48"/><rect class="cls-1" x="710.52" y="1263.15" width="39.48" height="39.47"/><rect class="cls-1" x="710.52" y="1223.68" width="39.48" height="39.47"/><rect class="cls-1" x="710.52" y="1184.21" width="39.48" height="39.47"/><rect class="cls-1" x="710.52" y="1144.73" width="39.48" height="39.48"/><rect class="cls-1" x="710.52" y="1105.26" width="39.48" height="39.47"/><rect class="cls-1" x="710.52" y="1065.78" width="39.48" height="39.47"/><rect class="cls-1" x="710.52" y="1026.31" width="39.48" height="39.47"/><rect class="cls-1" x="710.52" y="986.83" width="39.48" height="39.48"/><rect class="cls-1" x="710.52" y="947.36" width="39.48" height="39.47"/><rect class="cls-1" x="671.05" y="1302.62" width="39.47" height="39.48"/><rect class="cls-1" x="671.05" y="1263.15" width="39.47" height="39.47"/><rect class="cls-1" x="671.05" y="1223.68" width="39.47" height="39.47"/><rect class="cls-1" x="671.05" y="1184.21" width="39.47" height="39.47"/><rect class="cls-1" x="671.05" y="1144.73" width="39.47" height="39.48"/><rect class="cls-1" x="671.05" y="1105.26" width="39.47" height="39.47"/><rect class="cls-1" x="671.05" y="1065.78" width="39.47" height="39.47"/><rect class="cls-1" x="671.05" y="1026.31" width="39.47" height="39.47"/><rect class="cls-1" x="671.05" y="986.83" width="39.47" height="39.48"/><rect class="cls-1" x="671.05" y="947.36" width="39.47" height="39.47"/><rect class="cls-1" x="631.58" y="1302.62" width="39.47" height="39.48"/><rect class="cls-1" x="631.58" y="1263.15" width="39.47" height="39.47"/><rect class="cls-1" x="631.58" y="1223.68" width="39.47" height="39.47"/><rect class="cls-1" x="631.58" y="1184.21" width="39.47" height="39.47"/><rect class="cls-1" x="631.58" y="1144.73" width="39.47" height="39.48"/><rect class="cls-1" x="631.58" y="1105.26" width="39.47" height="39.47"/><rect class="cls-1" x="631.58" y="1065.78" width="39.47" height="39.47"/><rect class="cls-1" x="631.58" y="1026.31" width="39.47" height="39.47"/><rect class="cls-1" x="631.58" y="986.83" width="39.47" height="39.48"/><rect class="cls-1" x="631.58" y="947.36" width="39.47" height="39.47"/><rect class="cls-1" x="592.11" y="1302.62" width="39.47" height="39.48"/><rect class="cls-1" x="592.11" y="1263.15" width="39.47" height="39.47"/><rect class="cls-1" x="592.11" y="1223.68" width="39.47" height="39.47"/><rect class="cls-1" x="592.11" y="1184.21" width="39.47" height="39.47"/><rect class="cls-1" x="592.11" y="1144.73" width="39.47" height="39.48"/><rect class="cls-1" x="592.11" y="1105.26" width="39.47" height="39.47"/><rect class="cls-1" x="592.11" y="1065.78" width="39.47" height="39.47"/><rect class="cls-1" x="592.11" y="1026.31" width="39.47" height="39.47"/><rect class="cls-1" x="592.11" y="986.83" width="39.47" height="39.48"/><rect class="cls-1" x="592.11" y="947.36" width="39.47" height="39.47"/><rect class="cls-1" x="552.63" y="1460.53" width="39.48" height="39.47"/><rect class="cls-1" x="552.63" y="1421.05" width="39.48" height="39.48"/><rect class="cls-1" x="552.63" y="1381.58" width="39.48" height="39.47"/><rect class="cls-1" x="552.63" y="1342.1" width="39.48" height="39.47"/><rect class="cls-1" x="552.63" y="1302.62" width="39.48" height="39.48"/><rect class="cls-1" x="552.63" y="1263.15" width="39.48" height="39.47"/><rect class="cls-1" x="552.63" y="1223.68" width="39.48" height="39.47"/><rect class="cls-1" x="552.63" y="1184.21" width="39.48" height="39.47"/><rect class="cls-1" x="552.63" y="1144.73" width="39.48" height="39.48"/><rect class="cls-1" x="552.63" y="1105.26" width="39.48" height="39.47"/><rect class="cls-1" x="552.63" y="1065.78" width="39.48" height="39.47"/><rect class="cls-1" x="552.63" y="1026.31" width="39.48" height="39.47"/><rect class="cls-1" x="552.63" y="986.83" width="39.48" height="39.48"/><rect class="cls-1" x="552.63" y="947.36" width="39.48" height="39.47"/><rect class="cls-1" x="513.16" y="1460.53" width="39.47" height="39.47"/><rect class="cls-1" x="513.16" y="1421.05" width="39.47" height="39.48"/><rect class="cls-1" x="513.16" y="1381.58" width="39.47" height="39.47"/><rect class="cls-1" x="513.16" y="1342.1" width="39.47" height="39.47"/><rect class="cls-1" x="513.16" y="1302.62" width="39.47" height="39.48"/><rect class="cls-1" x="513.16" y="1263.15" width="39.47" height="39.47"/><rect class="cls-1" x="513.16" y="1223.68" width="39.47" height="39.47"/><rect class="cls-1" x="513.16" y="1184.21" width="39.47" height="39.47"/><rect class="cls-1" x="513.16" y="1144.73" width="39.47" height="39.48"/><rect class="cls-1" x="513.16" y="1105.26" width="39.47" height="39.47"/><rect class="cls-1" x="513.16" y="1065.78" width="39.47" height="39.47"/><rect class="cls-1" x="513.16" y="1026.31" width="39.47" height="39.47"/><rect class="cls-1" x="513.16" y="986.83" width="39.47" height="39.48"/><rect class="cls-1" x="473.69" y="1460.53" width="39.47" height="39.47"/><rect class="cls-1" x="473.69" y="1421.05" width="39.47" height="39.48"/><rect class="cls-1" x="473.69" y="1381.58" width="39.47" height="39.47"/><rect class="cls-1" x="473.69" y="1342.1" width="39.47" height="39.47"/><rect class="cls-1" x="473.69" y="1302.62" width="39.47" height="39.48"/><rect class="cls-1" x="473.69" y="1263.15" width="39.47" height="39.47"/><rect class="cls-1" x="473.69" y="1223.68" width="39.47" height="39.47"/><rect class="cls-1" x="473.69" y="1184.21" width="39.47" height="39.47"/><rect class="cls-1" x="473.69" y="1144.73" width="39.47" height="39.48"/><rect class="cls-1" x="473.69" y="1105.26" width="39.47" height="39.47"/><rect class="cls-1" x="473.69" y="1065.78" width="39.47" height="39.47"/><rect class="cls-1" x="473.69" y="1026.31" width="39.47" height="39.47"/><rect class="cls-1" x="473.69" y="986.83" width="39.47" height="39.48"/><rect class="cls-1" x="434.2" y="1460.53" width="39.48" height="39.47"/><rect class="cls-1" x="434.2" y="1421.05" width="39.48" height="39.48"/><rect class="cls-1" x="434.2" y="1381.58" width="39.48" height="39.47"/><rect class="cls-1" x="434.2" y="1342.1" width="39.48" height="39.47"/><rect class="cls-1" x="434.2" y="1302.62" width="39.48" height="39.48"/><rect class="cls-1" x="434.2" y="1263.15" width="39.48" height="39.47"/><rect class="cls-1" x="434.2" y="1223.68" width="39.48" height="39.47"/><rect class="cls-1" x="434.2" y="1184.21" width="39.48" height="39.47"/><rect class="cls-1" x="434.2" y="1144.73" width="39.48" height="39.48"/><rect class="cls-1" x="434.2" y="1105.26" width="39.48" height="39.47"/><rect class="cls-1" x="434.2" y="1065.78" width="39.48" height="39.47"/><rect class="cls-1" x="434.2" y="1026.31" width="39.48" height="39.47"/><rect class="cls-1" x="394.73" y="1302.62" width="39.47" height="39.48"/><rect class="cls-1" x="394.73" y="1263.15" width="39.47" height="39.47"/><rect class="cls-1" x="394.73" y="1223.68" width="39.47" height="39.47"/><rect class="cls-1" x="394.73" y="1184.21" width="39.47" height="39.47"/><rect class="cls-1" x="394.73" y="1144.73" width="39.47" height="39.48"/><rect class="cls-1" x="394.73" y="1105.26" width="39.47" height="39.47"/><rect class="cls-1" x="394.73" y="1065.78" width="39.47" height="39.47"/><rect class="cls-1" x="394.73" y="1026.31" width="39.47" height="39.47"/><rect class="cls-1" x="355.26" y="1302.62" width="39.47" height="39.48"/><rect class="cls-1" x="355.26" y="1263.15" width="39.47" height="39.47"/><rect class="cls-1" x="355.26" y="1223.68" width="39.47" height="39.47"/><rect class="cls-1" x="355.26" y="1184.21" width="39.47" height="39.47"/><rect class="cls-1" x="355.26" y="1144.73" width="39.47" height="39.48"/><rect class="cls-1" x="355.26" y="1105.26" width="39.47" height="39.47"/><rect class="cls-1" x="355.26" y="1065.78" width="39.47" height="39.47"/><rect class="cls-1" x="315.79" y="1342.1" width="39.47" height="39.47"/><rect class="cls-1" x="315.79" y="1302.62" width="39.47" height="39.48"/><rect class="cls-1" x="315.79" y="1263.15" width="39.47" height="39.47"/><rect class="cls-1" x="315.79" y="1223.68" width="39.47" height="39.47"/><rect class="cls-1" x="315.79" y="1184.21" width="39.47" height="39.47"/><rect class="cls-1" x="315.79" y="1144.73" width="39.47" height="39.48"/><rect class="cls-1" x="315.79" y="1105.26" width="39.47" height="39.47"/><rect class="cls-1" x="276.31" y="1342.1" width="39.48" height="39.47"/><rect class="cls-1" x="276.31" y="1302.62" width="39.48" height="39.48"/><rect class="cls-1" x="276.31" y="1263.15" width="39.48" height="39.47"/><rect class="cls-1" x="276.31" y="1223.68" width="39.48" height="39.47"/><rect class="cls-1" x="276.31" y="1184.21" width="39.48" height="39.47"/><rect class="cls-1" x="276.31" y="1144.73" width="39.48" height="39.48"/><rect class="cls-1" x="236.84" y="1342.1" width="39.47" height="39.47"/><rect class="cls-1" x="236.84" y="1302.62" width="39.47" height="39.48"/><rect class="cls-1" x="236.84" y="1263.15" width="39.47" height="39.47"/><rect class="cls-1" x="236.84" y="1223.68" width="39.47" height="39.47"/><rect class="cls-1" x="197.37" y="1342.1" width="39.47" height="39.47"/><rect class="cls-1" x="197.37" y="1302.62" width="39.47" height="39.48"/><rect class="cls-1" x="197.37" y="1263.15" width="39.47" height="39.47"/><rect class="cls-1" x="157.9" y="1342.1" width="39.47" height="39.47"/><rect class="cls-1" x="157.9" y="1302.62" width="39.47" height="39.48"/><rect class="cls-1" x="157.9" y="1263.15" width="39.47" height="39.47"/><rect class="cls-1" x="118.41" y="1342.1" width="39.48" height="39.47"/><rect class="cls-1" x="118.41" y="1302.62" width="39.48" height="39.48"/><rect class="cls-1" x="78.94" y="1342.1" width="39.47" height="39.47"/><rect class="cls-1" x="78.94" y="1302.62" width="39.47" height="39.48"/><rect class="cls-1" x="39.47" y="1302.62" width="39.47" height="39.48"/><rect class="cls-1" y="1302.62" width="39.47" height="39.48"/><rect class="cls-2" x="1381.59" y="1184.21" width="39.47" height="39.47"/><rect class="cls-3" x="1223.69" y="1026.31" width="39.47" height="39.47"/><rect class="cls-3" x="1223.69" y="986.83" width="39.47" height="39.48"/><rect class="cls-3" x="1223.69" y="947.36" width="39.47" height="39.47"/><rect class="cls-3" x="1184.21" y="1026.31" width="39.48" height="39.47"/><rect class="cls-3" x="1184.21" y="986.83" width="39.48" height="39.48"/><rect class="cls-3" x="1184.21" y="947.36" width="39.48" height="39.47"/><rect class="cls-3" x="1144.74" y="986.83" width="39.47" height="39.48"/><rect class="cls-3" x="1144.74" y="947.36" width="39.47" height="39.47"/><rect class="cls-3" x="1105.27" y="986.83" width="39.47" height="39.48"/><rect class="cls-3" x="1065.8" y="947.36" width="39.47" height="39.47"/><rect class="cls-3" x="1065.8" y="907.89" width="39.47" height="39.47"/><rect class="cls-3" x="1065.8" y="868.42" width="39.47" height="39.47"/><rect class="cls-3" x="1026.31" y="947.36" width="39.48" height="39.47"/><rect class="cls-3" x="1026.31" y="907.89" width="39.48" height="39.47"/><rect class="cls-3" x="1026.31" y="868.42" width="39.48" height="39.47"/><rect class="cls-3" x="1026.31" y="828.94" width="39.48" height="39.48"/><rect class="cls-3" x="986.84" y="907.89" width="39.47" height="39.47"/><rect class="cls-3" x="986.84" y="868.42" width="39.47" height="39.47"/><rect class="cls-3" x="986.84" y="828.94" width="39.47" height="39.48"/><rect class="cls-3" x="947.37" y="907.89" width="39.47" height="39.47"/><rect class="cls-3" x="947.37" y="868.42" width="39.47" height="39.47"/><rect class="cls-3" x="947.37" y="828.94" width="39.47" height="39.48"/><rect class="cls-4" x="907.9" y="1460.53" width="39.47" height="39.47"/><rect class="cls-4" x="907.9" y="1421.05" width="39.47" height="39.48"/><rect class="cls-4" x="907.9" y="1381.58" width="39.47" height="39.47"/><rect class="cls-4" x="907.9" y="1342.1" width="39.47" height="39.47"/><rect class="cls-4" x="868.42" y="1460.53" width="39.48" height="39.47"/><rect class="cls-4" x="868.42" y="1421.05" width="39.48" height="39.48"/><rect class="cls-4" x="868.42" y="1381.58" width="39.48" height="39.47"/><rect class="cls-4" x="868.42" y="1342.1" width="39.48" height="39.47"/><rect class="cls-3" x="868.42" y="907.89" width="39.48" height="39.47"/><rect class="cls-3" x="868.42" y="868.42" width="39.48" height="39.47"/><rect class="cls-3" x="868.42" y="828.94" width="39.48" height="39.48"/><rect class="cls-3" x="828.95" y="907.89" width="39.47" height="39.47"/><rect class="cls-3" x="828.95" y="868.42" width="39.47" height="39.47"/><rect class="cls-3" x="828.95" y="828.94" width="39.47" height="39.48"/><rect class="cls-3" x="828.95" y="789.46" width="39.47" height="39.47"/><rect class="cls-3" x="789.48" y="907.89" width="39.47" height="39.47"/><rect class="cls-3" x="789.48" y="868.42" width="39.47" height="39.47"/><rect class="cls-3" x="789.48" y="828.94" width="39.47" height="39.48"/><rect class="cls-3" x="789.48" y="789.46" width="39.47" height="39.47"/><rect class="cls-3" x="750.01" y="907.89" width="39.47" height="39.47"/><rect class="cls-3" x="750.01" y="868.42" width="39.47" height="39.47"/><rect class="cls-3" x="750.01" y="828.94" width="39.47" height="39.48"/><rect class="cls-3" x="750.01" y="789.46" width="39.47" height="39.47"/><rect class="cls-3" x="710.52" y="907.89" width="39.48" height="39.47"/><rect class="cls-3" x="710.52" y="868.42" width="39.48" height="39.47"/><rect class="cls-3" x="710.52" y="828.94" width="39.48" height="39.48"/><rect class="cls-4" x="631.58" y="1460.53" width="39.47" height="39.47"/><rect class="cls-4" x="631.58" y="1421.05" width="39.47" height="39.48"/><rect class="cls-4" x="631.58" y="1381.58" width="39.47" height="39.47"/><rect class="cls-4" x="631.58" y="1342.1" width="39.47" height="39.47"/><rect class="cls-3" x="631.58" y="907.89" width="39.47" height="39.47"/><rect class="cls-3" x="631.58" y="868.42" width="39.47" height="39.47"/><rect class="cls-3" x="631.58" y="828.94" width="39.47" height="39.48"/><rect class="cls-4" x="592.11" y="1460.53" width="39.47" height="39.47"/><rect class="cls-4" x="592.11" y="1421.05" width="39.47" height="39.48"/><rect class="cls-4" x="592.11" y="1381.58" width="39.47" height="39.47"/><rect class="cls-4" x="592.11" y="1342.1" width="39.47" height="39.47"/><rect class="cls-3" x="592.11" y="907.89" width="39.47" height="39.47"/><rect class="cls-3" x="592.11" y="868.42" width="39.47" height="39.47"/><rect class="cls-3" x="592.11" y="828.94" width="39.47" height="39.48"/><rect class="cls-3" x="552.63" y="907.89" width="39.48" height="39.47"/><rect class="cls-3" x="552.63" y="868.42" width="39.48" height="39.47"/><rect class="cls-3" x="552.63" y="828.94" width="39.48" height="39.48"/><rect class="cls-3" x="513.16" y="907.89" width="39.47" height="39.47"/><rect class="cls-3" x="513.16" y="868.42" width="39.47" height="39.47"/><rect class="cls-3" x="513.16" y="828.94" width="39.47" height="39.48"/><rect class="cls-3" x="473.69" y="947.36" width="39.47" height="39.47"/><rect class="cls-3" x="434.2" y="986.83" width="39.48" height="39.48"/><rect class="cls-3" x="434.2" y="947.36" width="39.48" height="39.47"/><rect class="cls-3" x="434.2" y="907.89" width="39.48" height="39.47"/><rect class="cls-3" x="394.73" y="986.83" width="39.47" height="39.48"/><rect class="cls-3" x="394.73" y="947.36" width="39.47" height="39.47"/><rect class="cls-3" x="394.73" y="907.89" width="39.47" height="39.47"/><rect class="cls-3" x="355.26" y="986.83" width="39.47" height="39.48"/><rect class="cls-3" x="355.26" y="947.36" width="39.47" height="39.47"/><rect class="cls-3" x="355.26" y="907.89" width="39.47" height="39.47"/><rect class="cls-3" x="315.79" y="1065.78" width="39.47" height="39.47"/><rect class="cls-3" x="276.31" y="1105.26" width="39.48" height="39.47"/><rect class="cls-3" x="276.31" y="1065.78" width="39.48" height="39.47"/><rect class="cls-3" x="236.84" y="1184.21" width="39.47" height="39.47"/><rect class="cls-3" x="197.37" y="1223.68" width="39.47" height="39.47"/><rect class="cls-3" x="197.37" y="1184.21" width="39.47" height="39.47"/><rect class="cls-3" x="118.41" y="1263.15" width="39.48" height="39.47"/><rect class="cls-5" x="1342.1" y="1144.73" width="39.48" height="39.48"/><rect class="cls-5" x="1302.63" y="1105.26" width="39.47" height="39.47"/><rect class="cls-5" x="1263.16" y="1105.26" width="39.47" height="39.47"/><rect class="cls-5" x="1184.21" y="1065.78" width="39.48" height="39.47"/><rect class="cls-5" x="1184.21" y="1105.26" width="39.48" height="39.47"/><rect class="cls-5" x="986.84" y="1105.26" width="39.47" height="39.47"/><rect class="cls-5" x="947.37" y="1105.26" width="39.47" height="39.47"/><rect class="cls-5" x="1065.8" y="1105.26" width="39.47" height="39.47"/><rect class="cls-5" x="1105.27" y="1105.26" width="39.47" height="39.47"/><rect class="cls-5" x="1144.74" y="1065.78" width="39.47" height="39.47"/><rect class="cls-5" x="1026.31" y="1026.31" width="39.48" height="39.47"/><rect class="cls-5" x="1105.27" y="1065.78" width="39.47" height="39.47"/><rect class="cls-5" x="986.84" y="1026.31" width="39.47" height="39.47"/><rect class="cls-5" x="947.37" y="986.83" width="39.47" height="39.48"/><rect class="cls-5" x="828.95" y="947.36" width="39.47" height="39.47"/><rect class="cls-5" x="907.9" y="1065.78" width="39.47" height="39.47"/><rect class="cls-5" x="868.42" y="1065.78" width="39.48" height="39.47"/><rect class="cls-5" x="789.48" y="1105.26" width="39.47" height="39.47"/><rect class="cls-5" x="710.52" y="986.83" width="39.48" height="39.48"/><rect class="cls-5" x="750.01" y="947.36" width="39.47" height="39.47"/><rect class="cls-5" x="671.05" y="1065.78" width="39.47" height="39.47"/><rect class="cls-5" x="868.42" y="1026.31" width="39.48" height="39.47"/><rect class="cls-5" x="789.48" y="986.83" width="39.47" height="39.48"/><rect class="cls-5" x="631.58" y="986.83" width="39.47" height="39.48"/><rect class="cls-5" x="552.63" y="1026.31" width="39.48" height="39.47"/><rect class="cls-5" x="394.73" y="1065.78" width="39.47" height="39.47"/><rect class="cls-5" x="513.16" y="1105.26" width="39.47" height="39.47"/><rect class="cls-5" x="315.79" y="1184.21" width="39.47" height="39.47"/><rect class="cls-5" x="394.73" y="1184.21" width="39.47" height="39.47"/><rect class="cls-5" x="552.63" y="1105.26" width="39.48" height="39.47"/><rect class="cls-5" x="513.16" y="1026.31" width="39.47" height="39.47"/><rect class="cls-5" x="355.26" y="1105.26" width="39.47" height="39.47"/><rect class="cls-5" x="394.73" y="1105.26" width="39.47" height="39.47"/><rect class="cls-5" x="276.31" y="1223.68" width="39.48" height="39.47"/><rect class="cls-6" x="947.37" y="1421.05" width="39.47" height="39.48"/><rect class="cls-6" x="947.37" y="1460.53" width="39.47" height="39.47"/><rect class="cls-6" x="947.37" y="1342.1" width="39.47" height="39.47"/><rect class="cls-6" x="947.37" y="1381.58" width="39.47" height="39.47"/><rect class="cls-6" x="434.2" y="1460.53" width="39.48" height="39.47"/><rect class="cls-6" x="434.2" y="1381.58" width="39.48" height="39.47"/><rect class="cls-6" x="434.2" y="1342.1" width="39.48" height="39.47"/><rect class="cls-6" x="434.2" y="1421.05" width="39.48" height="39.48"/><rect class="cls-6" x="78.94" y="1342.1" width="39.47" height="39.47"/><rect class="cls-6" x="236.84" y="1342.1" width="39.47" height="39.47"/><rect class="cls-6" x="197.37" y="1342.1" width="39.47" height="39.47"/><rect class="cls-6" x="157.9" y="1342.1" width="39.47" height="39.47"/><rect class="cls-6" x="118.41" y="1342.1" width="39.48" height="39.47"/><rect class="cls-6" x="315.79" y="1342.1" width="39.47" height="39.47"/><rect class="cls-6" x="276.31" y="1342.1" width="39.48" height="39.47"/><rect class="cls-6" x="394.73" y="1302.62" width="39.47" height="39.48"/><rect class="cls-6" x="355.26" y="1302.62" width="39.47" height="39.48"/><rect class="cls-6" x="1223.69" y="1263.15" width="39.47" height="39.47"/><rect class="cls-6" x="1184.21" y="1223.68" width="39.48" height="39.47"/><rect class="cls-6" x="1144.74" y="1223.68" width="39.47" height="39.47"/><rect class="cls-6" x="1105.27" y="1223.68" width="39.47" height="39.47"/><rect class="cls-6" x="710.52" y="1302.62" width="39.48" height="39.48"/><rect class="cls-6" x="671.05" y="1302.62" width="39.47" height="39.48"/><rect class="cls-6" x="631.58" y="1302.62" width="39.47" height="39.48"/><rect class="cls-6" x="947.37" y="1302.62" width="39.47" height="39.48"/><rect class="cls-6" x="907.9" y="1302.62" width="39.47" height="39.48"/><rect class="cls-6" x="868.42" y="1302.62" width="39.48" height="39.48"/><rect class="cls-6" x="828.95" y="1302.62" width="39.47" height="39.48"/><rect class="cls-6" x="789.48" y="1302.62" width="39.47" height="39.48"/><rect class="cls-6" x="750.01" y="1302.62" width="39.47" height="39.48"/><rect class="cls-6" x="592.11" y="1302.62" width="39.47" height="39.48"/><rect class="cls-6" x="552.63" y="1302.62" width="39.48" height="39.48"/><rect class="cls-6" x="513.16" y="1302.62" width="39.47" height="39.48"/><rect class="cls-6" x="473.69" y="1302.62" width="39.47" height="39.48"/><rect class="cls-7" x="986.84" y="1460.53" width="39.47" height="39.47"/><rect class="cls-7" x="1065.8" y="1460.53" width="39.47" height="39.47"/><rect class="cls-7" x="552.63" y="1460.53" width="39.48" height="39.47"/><rect class="cls-7" x="473.69" y="1460.53" width="39.47" height="39.47"/><rect class="cls-8" x="1460.53" y="1184.21" width="39.47" height="39.47"/><rect class="cls-8" x="1421.06" y="1144.73" width="39.47" height="39.48"/><rect class="cls-8" x="1381.59" y="1144.73" width="39.47" height="39.48"/><rect class="cls-8" x="1342.1" y="1105.26" width="39.48" height="39.47"/><rect class="cls-8" x="1263.16" y="1065.78" width="39.47" height="39.47"/><rect class="cls-8" x="1223.69" y="1065.78" width="39.47" height="39.47"/><rect class="cls-9" x="1223.69" y="1026.31" width="39.47" height="39.47"/><rect class="cls-9" x="1223.69" y="986.83" width="39.47" height="39.48"/><rect class="cls-9" x="1223.69" y="947.36" width="39.47" height="39.47"/><rect class="cls-9" x="1184.21" y="947.36" width="39.48" height="39.47"/><rect class="cls-8" x="1144.74" y="1026.31" width="39.47" height="39.47"/><rect class="cls-9" x="1144.74" y="947.36" width="39.47" height="39.47"/><rect class="cls-8" x="1105.27" y="1026.31" width="39.47" height="39.47"/><rect class="cls-8" x="1065.8" y="1026.31" width="39.47" height="39.47"/><rect class="cls-9" x="1065.8" y="947.36" width="39.47" height="39.47"/><rect class="cls-9" x="1065.8" y="907.89" width="39.47" height="39.47"/><rect class="cls-9" x="1065.8" y="868.42" width="39.47" height="39.47"/><rect class="cls-8" x="1026.31" y="1026.31" width="39.48" height="39.47"/><rect class="cls-8" x="1026.31" y="986.83" width="39.48" height="39.48"/><rect class="cls-9" x="1026.31" y="828.94" width="39.48" height="39.48"/><rect class="cls-4" x="986.84" y="1263.15" width="39.47" height="39.47"/><rect class="cls-8" x="986.84" y="986.83" width="39.47" height="39.48"/><rect class="cls-8" x="986.84" y="947.36" width="39.47" height="39.47"/><rect class="cls-9" x="986.84" y="828.94" width="39.47" height="39.48"/><rect class="cls-4" x="947.37" y="1263.15" width="39.47" height="39.47"/><rect class="cls-8" x="947.37" y="947.36" width="39.47" height="39.47"/><rect class="cls-9" x="947.37" y="828.94" width="39.47" height="39.48"/><rect class="cls-4" x="907.9" y="1263.15" width="39.47" height="39.47"/><rect class="cls-8" x="907.9" y="947.36" width="39.47" height="39.47"/><rect class="cls-4" x="868.42" y="1302.62" width="39.48" height="39.48"/><rect class="cls-4" x="868.42" y="1263.15" width="39.48" height="39.47"/><rect class="cls-8" x="868.42" y="947.36" width="39.48" height="39.47"/><rect class="cls-9" x="868.42" y="907.89" width="39.48" height="39.47"/><rect class="cls-9" x="868.42" y="868.42" width="39.48" height="39.47"/><rect class="cls-9" x="868.42" y="828.94" width="39.48" height="39.48"/><rect class="cls-4" x="828.95" y="1302.62" width="39.47" height="39.48"/><rect class="cls-4" x="828.95" y="1263.15" width="39.47" height="39.47"/><rect class="cls-9" x="828.95" y="789.46" width="39.47" height="39.47"/><rect class="cls-4" x="789.48" y="1302.62" width="39.47" height="39.48"/><rect class="cls-4" x="789.48" y="1263.15" width="39.47" height="39.47"/><rect class="cls-8" x="789.48" y="947.36" width="39.47" height="39.47"/><rect class="cls-9" x="789.48" y="789.46" width="39.47" height="39.47"/><rect class="cls-4" x="750.01" y="1302.62" width="39.47" height="39.48"/><rect class="cls-4" x="750.01" y="1263.15" width="39.47" height="39.47"/><rect class="cls-9" x="750.01" y="789.46" width="39.47" height="39.47"/><rect class="cls-4" x="710.52" y="1302.62" width="39.48" height="39.48"/><rect class="cls-4" x="710.52" y="1263.15" width="39.48" height="39.47"/><rect class="cls-8" x="710.52" y="947.36" width="39.48" height="39.47"/><rect class="cls-4" x="671.05" y="1302.62" width="39.47" height="39.48"/><rect class="cls-4" x="671.05" y="1263.15" width="39.47" height="39.47"/><rect class="cls-8" x="671.05" y="947.36" width="39.47" height="39.47"/><rect class="cls-4" x="631.58" y="1302.62" width="39.47" height="39.48"/><rect class="cls-4" x="631.58" y="1263.15" width="39.47" height="39.47"/><rect class="cls-8" x="631.58" y="947.36" width="39.47" height="39.47"/><rect class="cls-9" x="631.58" y="907.89" width="39.47" height="39.47"/><rect class="cls-9" x="631.58" y="868.42" width="39.47" height="39.47"/><rect class="cls-9" x="631.58" y="828.94" width="39.47" height="39.48"/><rect class="cls-4" x="592.11" y="1263.15" width="39.47" height="39.47"/><rect class="cls-8" x="592.11" y="947.36" width="39.47" height="39.47"/><rect class="cls-9" x="592.11" y="828.94" width="39.47" height="39.48"/><rect class="cls-4" x="552.63" y="1263.15" width="39.48" height="39.47"/><rect class="cls-8" x="552.63" y="947.36" width="39.48" height="39.47"/><rect class="cls-9" x="552.63" y="828.94" width="39.48" height="39.48"/><rect class="cls-4" x="513.16" y="1263.15" width="39.47" height="39.47"/><rect class="cls-8" x="513.16" y="986.83" width="39.47" height="39.48"/><rect class="cls-9" x="513.16" y="828.94" width="39.47" height="39.48"/><rect class="cls-4" x="473.69" y="1263.15" width="39.47" height="39.47"/><rect class="cls-8" x="473.69" y="986.83" width="39.47" height="39.48"/><rect class="cls-9" x="473.69" y="947.36" width="39.47" height="39.47"/><rect class="cls-4" x="434.2" y="1302.62" width="39.48" height="39.48"/><rect class="cls-4" x="434.2" y="1263.15" width="39.48" height="39.47"/><rect class="cls-8" x="434.2" y="1026.31" width="39.48" height="39.47"/><rect class="cls-9" x="434.2" y="986.83" width="39.48" height="39.48"/><rect class="cls-9" x="434.2" y="947.36" width="39.48" height="39.47"/><rect class="cls-9" x="434.2" y="907.89" width="39.48" height="39.47"/><rect class="cls-4" x="394.73" y="1263.15" width="39.47" height="39.47"/><rect class="cls-8" x="394.73" y="1026.31" width="39.47" height="39.47"/><rect class="cls-9" x="394.73" y="907.89" width="39.47" height="39.47"/><rect class="cls-4" x="355.26" y="1263.15" width="39.47" height="39.47"/><rect class="cls-8" x="355.26" y="1065.78" width="39.47" height="39.47"/><rect class="cls-9" x="355.26" y="907.89" width="39.47" height="39.47"/><rect class="cls-4" x="315.79" y="1302.62" width="39.47" height="39.48"/><rect class="cls-4" x="315.79" y="1263.15" width="39.47" height="39.47"/><rect class="cls-8" x="315.79" y="1105.26" width="39.47" height="39.47"/><rect class="cls-9" x="315.79" y="1065.78" width="39.47" height="39.47"/><rect class="cls-4" x="276.31" y="1302.62" width="39.48" height="39.48"/><rect class="cls-4" x="276.31" y="1263.15" width="39.48" height="39.47"/><rect class="cls-8" x="276.31" y="1184.21" width="39.48" height="39.47"/><rect class="cls-8" x="276.31" y="1144.73" width="39.48" height="39.48"/><rect class="cls-9" x="276.31" y="1065.78" width="39.48" height="39.47"/><rect class="cls-4" x="236.84" y="1302.62" width="39.47" height="39.48"/><rect class="cls-4" x="236.84" y="1263.15" width="39.47" height="39.47"/><rect class="cls-8" x="236.84" y="1223.68" width="39.47" height="39.47"/><rect class="cls-9" x="236.84" y="1184.21" width="39.47" height="39.47"/><rect class="cls-4" x="197.37" y="1302.62" width="39.47" height="39.48"/><rect class="cls-4" x="197.37" y="1263.15" width="39.47" height="39.47"/><rect class="cls-9" x="197.37" y="1184.21" width="39.47" height="39.47"/><rect class="cls-4" x="157.9" y="1302.62" width="39.47" height="39.48"/><rect class="cls-4" x="157.9" y="1263.15" width="39.47" height="39.47"/><rect class="cls-4" x="118.41" y="1302.62" width="39.48" height="39.48"/><rect class="cls-4" x="78.94" y="1302.62" width="39.47" height="39.48"/><rect class="cls-4" x="39.47" y="1302.62" width="39.47" height="39.48"/><rect class="cls-4" y="1302.62" width="39.47" height="39.48"/></svg>