<svg id="Layer_1" data-name="Layer 1" xmlns="http://www.w3.org/2000/svg" viewBox="0 0 1500 1500"><defs><style>.cls-1{fill:#546060;}.cls-2{fill:#3f4c4c;}.cls-3{fill:#fff;}.cls-4{fill:#445151;}.cls-5{fill:#657372;}</style></defs><rect class="cls-1" x="1416.65" y="1250" width="83.35" height="83.33"/><rect class="cls-1" x="1333.32" y="1250" width="83.33" height="83.33"/><rect class="cls-1" x="1250" y="1250" width="83.33" height="83.33"/><rect class="cls-1" x="1250" y="1166.67" width="83.33" height="83.33"/><rect class="cls-1" x="1166.67" y="1250" width="83.33" height="83.33"/><rect class="cls-1" x="1166.67" y="1166.67" width="83.33" height="83.33"/><rect class="cls-1" x="1166.67" y="1083.32" width="83.33" height="83.35"/><rect class="cls-1" x="1166.67" y="999.99" width="83.33" height="83.33"/><rect class="cls-1" x="1083.32" y="1166.67" width="83.35" height="83.33"/><rect class="cls-1" x="1083.32" y="1083.32" width="83.35" height="83.35"/><rect class="cls-1" x="1083.32" y="999.99" width="83.35" height="83.33"/><rect class="cls-1" x="1083.32" y="916.67" width="83.35" height="83.33"/><rect class="cls-1" x="999.99" y="1416.67" width="83.33" height="83.33"/><rect class="cls-1" x="999.99" y="1333.32" width="83.33" height="83.35"/><rect class="cls-1" x="999.99" y="1250" width="83.33" height="83.33"/><rect class="cls-1" x="999.99" y="1083.32" width="83.33" height="83.35"/><rect class="cls-1" x="999.99" y="999.99" width="83.33" height="83.33"/><rect class="cls-1" x="999.99" y="916.67" width="83.33" height="83.33"/><rect class="cls-1" x="999.99" y="833.34" width="83.33" height="83.33"/><rect class="cls-1" x="916.67" y="1416.67" width="83.33" height="83.33"/><rect class="cls-1" x="916.67" y="1250" width="83.33" height="83.33"/><rect class="cls-1" x="916.67" y="1166.67" width="83.33" height="83.33"/><rect class="cls-1" x="916.67" y="1083.32" width="83.33" height="83.35"/><rect class="cls-1" x="916.67" y="999.99" width="83.33" height="83.33"/><rect class="cls-1" x="916.67" y="916.67" width="83.33" height="83.33"/><rect class="cls-1" x="916.67" y="833.34" width="83.33" height="83.33"/><rect class="cls-1" x="833.34" y="1250" width="83.33" height="83.33"/><rect class="cls-1" x="833.34" y="1166.67" width="83.33" height="83.33"/><rect class="cls-1" x="833.34" y="1083.32" width="83.33" height="83.35"/><rect class="cls-1" x="833.34" y="999.99" width="83.33" height="83.33"/><rect class="cls-1" x="833.34" y="916.67" width="83.33" height="83.33"/><rect class="cls-1" x="833.34" y="833.34" width="83.33" height="83.33"/><rect class="cls-1" x="749.99" y="1250" width="83.35" height="83.33"/><rect class="cls-1" x="749.99" y="1166.67" width="83.35" height="83.33"/><rect class="cls-1" x="749.99" y="1083.32" width="83.35" height="83.35"/><rect class="cls-1" x="749.99" y="999.99" width="83.35" height="83.33"/><rect class="cls-1" x="749.99" y="916.67" width="83.35" height="83.33"/><rect class="cls-1" x="749.99" y="833.34" width="83.35" height="83.33"/><rect class="cls-2" x="666.66" y="1416.67" width="83.33" height="83.33"/><rect class="cls-2" x="666.66" y="1333.32" width="83.33" height="83.35"/><rect class="cls-1" x="666.66" y="1250" width="83.33" height="83.33"/><rect class="cls-1" x="666.66" y="1166.67" width="83.33" height="83.33"/><rect class="cls-1" x="666.66" y="1083.32" width="83.33" height="83.35"/><rect class="cls-1" x="666.66" y="999.99" width="83.33" height="83.33"/><rect class="cls-1" x="666.66" y="916.67" width="83.33" height="83.33"/><rect class="cls-1" x="666.66" y="833.34" width="83.33" height="83.33"/><rect class="cls-1" x="666.66" y="749.99" width="83.33" height="83.35"/><rect class="cls-2" x="583.33" y="1416.67" width="83.33" height="83.33"/><rect class="cls-1" x="583.33" y="1250" width="83.33" height="83.33"/><rect class="cls-1" x="583.33" y="1166.67" width="83.33" height="83.33"/><rect class="cls-1" x="583.33" y="1083.32" width="83.33" height="83.35"/><rect class="cls-1" x="583.33" y="999.99" width="83.33" height="83.33"/><rect class="cls-1" x="583.33" y="916.67" width="83.33" height="83.33"/><rect class="cls-1" x="583.33" y="833.34" width="83.33" height="83.33"/><rect class="cls-1" x="583.33" y="749.99" width="83.33" height="83.35"/><rect class="cls-2" x="500.01" y="1416.67" width="83.33" height="83.33"/><rect class="cls-1" x="500.01" y="1166.67" width="83.33" height="83.33"/><rect class="cls-1" x="500.01" y="1083.32" width="83.33" height="83.35"/><rect class="cls-1" x="500.01" y="999.99" width="83.33" height="83.33"/><rect class="cls-1" x="500.01" y="916.67" width="83.33" height="83.33"/><rect class="cls-1" x="500.01" y="833.34" width="83.33" height="83.33"/><rect class="cls-1" x="500.01" y="749.99" width="83.33" height="83.35"/><rect class="cls-1" x="416.66" y="999.99" width="83.35" height="83.33"/><rect class="cls-1" x="416.66" y="916.67" width="83.35" height="83.33"/><rect class="cls-1" x="416.66" y="833.34" width="83.35" height="83.33"/><rect class="cls-1" x="416.66" y="749.99" width="83.35" height="83.35"/><rect class="cls-1" x="416.66" y="666.66" width="83.35" height="83.33"/><rect class="cls-1" x="416.66" y="583.33" width="83.35" height="83.33"/><rect class="cls-1" x="333.33" y="1083.32" width="83.33" height="83.35"/><rect class="cls-1" x="333.33" y="999.99" width="83.33" height="83.33"/><rect class="cls-1" x="333.33" y="916.67" width="83.33" height="83.33"/><rect class="cls-1" x="333.33" y="833.34" width="83.33" height="83.33"/><rect class="cls-1" x="333.33" y="749.99" width="83.33" height="83.35"/><rect class="cls-1" x="333.33" y="666.66" width="83.33" height="83.33"/><rect class="cls-1" x="333.33" y="583.33" width="83.33" height="83.33"/><rect class="cls-1" x="333.33" y="500.01" width="83.33" height="83.33"/><rect class="cls-1" x="333.33" y="416.66" width="83.33" height="83.35"/><rect class="cls-1" x="250" y="1083.32" width="83.33" height="83.35"/><rect class="cls-2" x="250" y="999.99" width="83.33" height="83.33"/><rect class="cls-2" x="250" y="916.67" width="83.33" height="83.33"/><rect class="cls-1" x="250" y="583.33" width="83.33" height="83.33"/><rect class="cls-3" x="250" y="500.01" width="83.33" height="83.33"/><rect class="cls-1" x="250" y="416.66" width="83.33" height="83.35"/><rect class="cls-1" x="166.68" y="1083.32" width="83.33" height="83.35"/><rect class="cls-1" x="166.68" y="583.33" width="83.33" height="83.33"/><rect class="cls-1" x="166.68" y="500.01" width="83.33" height="83.33"/><rect class="cls-1" x="166.68" y="416.66" width="83.33" height="83.35"/><rect class="cls-2" x="83.33" y="1083.32" width="83.35" height="83.35"/><rect class="cls-1" x="83.33" y="583.33" width="83.35" height="83.33"/><rect class="cls-1" x="83.33" y="500.01" width="83.35" height="83.33"/><rect class="cls-1" x="83.33" y="416.66" width="83.35" height="83.35"/><rect class="cls-1" y="583.33" width="83.33" height="83.33"/><rect class="cls-1" y="500.01" width="83.33" height="83.33"/><rect class="cls-4" x="1416.65" y="1250" width="83.35" height="83.33"/><rect class="cls-4" x="1333.32" y="1250" width="83.33" height="83.33"/><rect class="cls-4" x="1250" y="1250" width="83.33" height="83.33"/><rect class="cls-4" x="1250" y="1166.67" width="83.33" height="83.33"/><rect class="cls-4" x="1166.67" y="1250" width="83.33" height="83.33"/><rect class="cls-4" x="1166.67" y="1166.67" width="83.33" height="83.33"/><rect class="cls-4" x="1166.67" y="1083.32" width="83.33" height="83.35"/><rect class="cls-4" x="1166.67" y="999.99" width="83.33" height="83.33"/><rect class="cls-4" x="1083.32" y="1166.67" width="83.35" height="83.33"/><rect class="cls-4" x="1083.32" y="1083.32" width="83.35" height="83.35"/><rect class="cls-4" x="1083.32" y="916.67" width="83.35" height="83.33"/><rect class="cls-4" x="999.99" y="1083.32" width="83.33" height="83.35"/><rect class="cls-4" x="999.99" y="916.67" width="83.33" height="83.33"/><rect class="cls-4" x="999.99" y="833.34" width="83.33" height="83.33"/><rect class="cls-4" x="916.67" y="1250" width="83.33" height="83.33"/><rect class="cls-4" x="916.67" y="1166.67" width="83.33" height="83.33"/><rect class="cls-4" x="916.67" y="1083.32" width="83.33" height="83.35"/><rect class="cls-4" x="916.67" y="833.34" width="83.33" height="83.33"/><rect class="cls-4" x="833.34" y="1250" width="83.33" height="83.33"/><rect class="cls-4" x="833.34" y="833.34" width="83.33" height="83.33"/><rect class="cls-4" x="749.99" y="1250" width="83.35" height="83.33"/><rect class="cls-4" x="749.99" y="833.34" width="83.35" height="83.33"/><rect class="cls-4" x="666.66" y="1250" width="83.33" height="83.33"/><rect class="cls-4" x="666.66" y="1166.67" width="83.33" height="83.33"/><rect class="cls-4" x="666.66" y="833.34" width="83.33" height="83.33"/><rect class="cls-4" x="666.66" y="749.99" width="83.33" height="83.35"/><rect class="cls-4" x="583.33" y="1250" width="83.33" height="83.33"/><rect class="cls-4" x="583.33" y="1166.67" width="83.33" height="83.33"/><rect class="cls-4" x="583.33" y="749.99" width="83.33" height="83.35"/><rect class="cls-4" x="500.01" y="1166.67" width="83.33" height="83.33"/><rect class="cls-4" x="500.01" y="1083.32" width="83.33" height="83.35"/><rect class="cls-4" x="500.01" y="749.99" width="83.33" height="83.35"/><rect class="cls-4" x="416.66" y="666.66" width="83.35" height="83.33"/><rect class="cls-4" x="416.66" y="583.33" width="83.35" height="83.33"/><rect class="cls-5" x="333.33" y="833.34" width="83.33" height="83.33"/><rect class="cls-5" x="333.33" y="749.99" width="83.33" height="83.35"/><rect class="cls-5" x="333.33" y="666.66" width="83.33" height="83.33"/><rect class="cls-4" x="333.33" y="500.01" width="83.33" height="83.33"/><rect class="cls-5" x="333.33" y="416.66" width="83.33" height="83.35"/><rect class="cls-5" x="250" y="416.66" width="83.33" height="83.35"/><rect class="cls-5" x="166.68" y="416.66" width="83.33" height="83.35"/><rect class="cls-5" x="83.33" y="416.66" width="83.35" height="83.35"/><rect class="cls-5" y="583.33" width="83.33" height="83.33"/><rect class="cls-5" y="500.01" width="83.33" height="83.33"/></svg>