<svg width="315" height="299" viewBox="0 0 315 299" fill="none" xmlns="http://www.w3.org/2000/svg">
<path d="M226.645 291.708H218.963V299H226.645V291.708Z" fill="#4BABE0"/>
<path d="M234.329 291.708H226.645V299H234.329V291.708Z" fill="#4BABE0"/>
<path d="M49.938 291.708H42.2562V299H49.938V291.708Z" fill="#4BABE0"/>
<path d="M42.2563 291.708H34.5745V299H42.2563V291.708Z" fill="#4BABE0"/>
<path d="M19.2066 284.413H11.5248V291.706H19.2066V284.413Z" fill="#4BABE0"/>
<path d="M11.5248 284.413H3.84302V291.706H11.5248V284.413Z" fill="#4BABE0"/>
<path d="M103.719 291.708H96.0372V299H103.719V291.708Z" fill="#4BABE0"/>
<path d="M96.0373 291.708H88.3555V299H96.0373V291.708Z" fill="#4BABE0"/>
<path d="M88.3533 291.708H80.6694V299H88.3533V291.708Z" fill="#4BABE0"/>
<path d="M80.6693 291.708H72.9875V299H80.6693V291.708Z" fill="#4BABE0"/>
<path d="M72.9876 291.708H65.3058V299H72.9876V291.708Z" fill="#4BABE0"/>
<path d="M134.45 291.708H126.769V299H134.45V291.708Z" fill="#4BABE0"/>
<path d="M126.769 291.708H119.087V299H126.769V291.708Z" fill="#4BABE0"/>
<path d="M119.085 291.708H111.403V299H119.085V291.708Z" fill="#4BABE0"/>
<path d="M111.403 291.708H103.719V299H111.403V291.708Z" fill="#4BABE0"/>
<path d="M57.6219 291.708H49.938V299H57.6219V291.708Z" fill="#4BABE0"/>
<path d="M65.3058 291.708H57.624V299H65.3058V291.708Z" fill="#4BABE0"/>
<path d="M142.134 291.708H134.45V299H142.134V291.708Z" fill="#4BABE0"/>
<path d="M203.597 291.708H195.913V299H203.597V291.708Z" fill="#4BABE0"/>
<path d="M195.913 291.708H188.231V299H195.913V291.708Z" fill="#4BABE0"/>
<path d="M188.231 291.708H180.55V299H188.231V291.708Z" fill="#4BABE0"/>
<path d="M180.55 291.708H172.868V299H180.55V291.708Z" fill="#4BABE0"/>
<path d="M172.866 291.708H165.182V299H172.866V291.708Z" fill="#4BABE0"/>
<path d="M165.182 291.708H157.5V299H165.182V291.708Z" fill="#4BABE0"/>
<path d="M157.5 291.708H149.818V299H157.5V291.708Z" fill="#4BABE0"/>
<path d="M149.818 291.708H142.136V299H149.818V291.708Z" fill="#4BABE0"/>
<path d="M211.281 291.708H203.599V299H211.281V291.708Z" fill="#4BABE0"/>
<path d="M218.963 291.708H211.281V299H218.963V291.708Z" fill="#4BABE0"/>
<path d="M103.719 284.413H96.0372V291.706H103.719V284.413Z" fill="#4BABE0"/>
<path d="M96.0373 284.413H88.3555V291.706H96.0373V284.413Z" fill="#4BABE0"/>
<path d="M88.3533 284.413H80.6694V291.706H88.3533V284.413Z" fill="#4BABE0"/>
<path d="M80.6693 284.413H72.9875V291.706H80.6693V284.413Z" fill="#4BABE0"/>
<path d="M72.9876 284.413H65.3058V291.706H72.9876V284.413Z" fill="#4BABE0"/>
<path d="M134.45 284.413H126.769V291.706H134.45V284.413Z" fill="#4BABE0"/>
<path d="M126.769 284.413H119.087V291.706H126.769V284.413Z" fill="#4BABE0"/>
<path d="M119.085 284.413H111.403V291.706H119.085V284.413Z" fill="#4BABE0"/>
<path d="M111.403 284.413H103.719V291.706H111.403V284.413Z" fill="#4BABE0"/>
<path d="M57.6219 284.413H49.938V291.706H57.6219V284.413Z" fill="#4BABE0"/>
<path d="M49.938 284.413H42.2562V291.706H49.938V284.413Z" fill="#4BABE0"/>
<path d="M42.2563 284.413H34.5745V291.706H42.2563V284.413Z" fill="#4BABE0"/>
<path d="M26.8906 284.413H19.2067V291.706H26.8906V284.413Z" fill="#4BABE0"/>
<path d="M65.3058 284.413H57.624V291.706H65.3058V284.413Z" fill="#4BABE0"/>
<path d="M272.744 284.413H265.062V291.706H272.744V284.413Z" fill="#4BABE0"/>
<path d="M265.06 284.413H257.376V291.706H265.06V284.413Z" fill="#4BABE0"/>
<path d="M257.376 284.413H249.694V291.706H257.376V284.413Z" fill="#4BABE0"/>
<path d="M249.694 284.413H242.012V291.706H249.694V284.413Z" fill="#4BABE0"/>
<path d="M311.157 284.413H303.475V291.706H311.157V284.413Z" fill="#4BABE0"/>
<path d="M303.475 284.413H295.793V291.706H303.475V284.413Z" fill="#4BABE0"/>
<path d="M295.793 284.413H288.109V291.706H295.793V284.413Z" fill="#4BABE0"/>
<path d="M288.107 284.413H280.426V291.706H288.107V284.413Z" fill="#4BABE0"/>
<path d="M280.426 284.413H272.744V291.706H280.426V284.413Z" fill="#4BABE0"/>
<path d="M142.134 284.413H134.45V291.706H142.134V284.413Z" fill="#4BABE0"/>
<path d="M203.597 284.413H195.913V291.706H203.597V284.413Z" fill="#4BABE0"/>
<path d="M195.913 284.413H188.231V291.706H195.913V284.413Z" fill="#4BABE0"/>
<path d="M188.231 284.413H180.55V291.706H188.231V284.413Z" fill="#4BABE0"/>
<path d="M180.55 284.413H172.868V291.706H180.55V284.413Z" fill="#4BABE0"/>
<path d="M172.866 284.413H165.182V291.706H172.866V284.413Z" fill="#4BABE0"/>
<path d="M165.182 284.413H157.5V291.706H165.182V284.413Z" fill="#4BABE0"/>
<path d="M157.5 284.413H149.818V291.706H157.5V284.413Z" fill="#4BABE0"/>
<path d="M149.818 284.413H142.136V291.706H149.818V284.413Z" fill="#4BABE0"/>
<path d="M211.281 284.413H203.599V291.706H211.281V284.413Z" fill="#4BABE0"/>
<path d="M242.012 284.413H234.331V291.706H242.012V284.413Z" fill="#4BABE0"/>
<path d="M226.645 284.413H218.963V291.706H226.645V284.413Z" fill="#4BABE0"/>
<path d="M218.963 284.413H211.281V291.706H218.963V284.413Z" fill="#4BABE0"/>
<path d="M234.329 284.413H226.645V291.706H234.329V284.413Z" fill="#4BABE0"/>
<path d="M34.5723 284.413H26.8905V291.706H34.5723V284.413Z" fill="#4BABE0"/>
<path d="M119.085 284.413H111.403V291.706H119.085V284.413Z" fill="white"/>
<path d="M211.281 269.83H203.599V277.121H211.281V269.83Z" fill="white"/>
<path d="M211.281 262.538H203.599V269.83H211.281V262.538Z" fill="white"/>
<path d="M211.281 255.242H203.599V262.536H211.281V255.242Z" fill="white"/>
<path d="M211.281 247.951H203.599V255.242H211.281V247.951Z" fill="white"/>
<path d="M211.281 240.659H203.599V247.951H211.281V240.659Z" fill="white"/>
<path d="M211.281 233.365H203.599V240.659H211.281V233.365Z" fill="white"/>
<path d="M211.281 226.072H203.599V233.364H211.281V226.072Z" fill="white"/>
<path d="M211.281 218.78H203.599V226.072H211.281V218.78Z" fill="white"/>
<path d="M211.281 211.489H203.599V218.78H211.281V211.489Z" fill="white"/>
<path d="M211.281 204.193H203.599V211.487H211.281V204.193Z" fill="white"/>
<path d="M211.281 196.901H203.599V204.193H211.281V196.901Z" fill="white"/>
<path d="M211.281 189.61H203.599V196.901H211.281V189.61Z" fill="white"/>
<path d="M211.281 182.318H203.599V189.61H211.281V182.318Z" fill="white"/>
<path d="M211.281 175.023H203.599V182.316H211.281V175.023Z" fill="white"/>
<path d="M211.281 167.731H203.599V175.023H211.281V167.731Z" fill="white"/>
<path d="M211.281 160.439H203.599V167.731H211.281V160.439Z" fill="white"/>
<path d="M203.597 277.121H195.913V284.413H203.597V277.121Z" fill="white"/>
<path d="M203.597 269.83H195.913V277.121H203.597V269.83Z" fill="white"/>
<path d="M203.597 262.538H195.913V269.83H203.597V262.538Z" fill="white"/>
<path d="M203.597 255.242H195.913V262.536H203.597V255.242Z" fill="white"/>
<path d="M203.597 247.951H195.913V255.242H203.597V247.951Z" fill="white"/>
<path d="M203.597 240.659H195.913V247.951H203.597V240.659Z" fill="white"/>
<path d="M203.597 233.365H195.913V240.659H203.597V233.365Z" fill="white"/>
<path d="M203.597 226.072H195.913V233.364H203.597V226.072Z" fill="white"/>
<path d="M203.597 218.78H195.913V226.072H203.597V218.78Z" fill="white"/>
<path d="M203.597 211.489H195.913V218.78H203.597V211.489Z" fill="white"/>
<path d="M203.597 204.193H195.913V211.487H203.597V204.193Z" fill="white"/>
<path d="M203.597 196.901H195.913V204.193H203.597V196.901Z" fill="white"/>
<path d="M203.597 189.61H195.913V196.901H203.597V189.61Z" fill="white"/>
<path d="M203.597 182.318H195.913V189.61H203.597V182.318Z" fill="white"/>
<path d="M203.597 175.023H195.913V182.316H203.597V175.023Z" fill="white"/>
<path d="M203.597 167.731H195.913V175.023H203.597V167.731Z" fill="white"/>
<path d="M203.597 160.439H195.913V167.731H203.597V160.439Z" fill="white"/>
<path d="M203.597 153.148H195.913V160.439H203.597V153.148Z" fill="white"/>
<path d="M203.597 145.852H195.913V153.146H203.597V145.852Z" fill="#DCD4CD"/>
<path d="M203.597 138.561H195.913V145.852H203.597V138.561Z" fill="#DCD4CD"/>
<path d="M203.597 131.269H195.913V138.561H203.597V131.269Z" fill="#DCD4CD"/>
<path d="M195.913 284.413H188.231V291.706H195.913V284.413Z" fill="white"/>
<path d="M195.913 277.121H188.231V284.413H195.913V277.121Z" fill="white"/>
<path d="M195.913 269.83H188.231V277.121H195.913V269.83Z" fill="white"/>
<path d="M195.913 262.538H188.231V269.83H195.913V262.538Z" fill="white"/>
<path d="M195.913 255.242H188.231V262.536H195.913V255.242Z" fill="white"/>
<path d="M195.913 247.951H188.231V255.242H195.913V247.951Z" fill="white"/>
<path d="M195.913 240.659H188.231V247.951H195.913V240.659Z" fill="white"/>
<path d="M195.913 233.365H188.231V240.659H195.913V233.365Z" fill="white"/>
<path d="M195.913 226.072H188.231V233.364H195.913V226.072Z" fill="white"/>
<path d="M195.913 218.78H188.231V226.072H195.913V218.78Z" fill="white"/>
<path d="M195.913 211.489H188.231V218.78H195.913V211.489Z" fill="white"/>
<path d="M195.913 204.193H188.231V211.487H195.913V204.193Z" fill="white"/>
<path d="M195.913 196.901H188.231V204.193H195.913V196.901Z" fill="white"/>
<path d="M195.913 189.61H188.231V196.901H195.913V189.61Z" fill="white"/>
<path d="M195.913 182.318H188.231V189.61H195.913V182.318Z" fill="white"/>
<path d="M195.913 175.023H188.231V182.316H195.913V175.023Z" fill="white"/>
<path d="M195.913 167.731H188.231V175.023H195.913V167.731Z" fill="white"/>
<path d="M195.913 160.439H188.231V167.731H195.913V160.439Z" fill="white"/>
<path d="M195.913 153.148H188.231V160.439H195.913V153.148Z" fill="#DCD4CD"/>
<path d="M195.913 145.852H188.231V153.146H195.913V145.852Z" fill="#DCD4CD"/>
<path d="M195.913 138.561H188.231V145.852H195.913V138.561Z" fill="#DCD4CD"/>
<path d="M195.913 131.269H188.231V138.561H195.913V131.269Z" fill="#DCD4CD"/>
<path d="M195.913 123.977H188.231V131.269H195.913V123.977Z" fill="#DCD4CD"/>
<path d="M195.913 116.682H188.231V123.975H195.913V116.682Z" fill="#DCD4CD"/>
<path d="M188.231 284.413H180.55V291.706H188.231V284.413Z" fill="white"/>
<path d="M188.231 277.121H180.55V284.413H188.231V277.121Z" fill="white"/>
<path d="M188.231 269.83H180.55V277.121H188.231V269.83Z" fill="white"/>
<path d="M188.231 262.538H180.55V269.83H188.231V262.538Z" fill="white"/>
<path d="M188.231 255.242H180.55V262.536H188.231V255.242Z" fill="white"/>
<path d="M188.231 247.951H180.55V255.242H188.231V247.951Z" fill="white"/>
<path d="M188.231 240.659H180.55V247.951H188.231V240.659Z" fill="white"/>
<path d="M188.231 233.365H180.55V240.659H188.231V233.365Z" fill="white"/>
<path d="M188.231 226.072H180.55V233.364H188.231V226.072Z" fill="white"/>
<path d="M188.231 218.78H180.55V226.072H188.231V218.78Z" fill="white"/>
<path d="M188.231 211.489H180.55V218.78H188.231V211.489Z" fill="white"/>
<path d="M188.231 204.193H180.55V211.487H188.231V204.193Z" fill="white"/>
<path d="M188.231 196.901H180.55V204.193H188.231V196.901Z" fill="white"/>
<path d="M188.231 189.61H180.55V196.901H188.231V189.61Z" fill="white"/>
<path d="M188.231 182.318H180.55V189.61H188.231V182.318Z" fill="white"/>
<path d="M188.231 175.023H180.55V182.316H188.231V175.023Z" fill="white"/>
<path d="M188.231 167.731H180.55V175.023H188.231V167.731Z" fill="white"/>
<path d="M188.231 160.439H180.55V167.731H188.231V160.439Z" fill="#DCD4CD"/>
<path d="M188.231 153.148H180.55V160.439H188.231V153.148Z" fill="#DCD4CD"/>
<path d="M188.231 145.852H180.55V153.146H188.231V145.852Z" fill="#DCD4CD"/>
<path d="M188.231 138.561H180.55V145.852H188.231V138.561Z" fill="#DCD4CD"/>
<path d="M188.231 131.269H180.55V138.561H188.231V131.269Z" fill="#DCD4CD"/>
<path d="M180.55 284.413H172.868V291.706H180.55V284.413Z" fill="white"/>
<path d="M180.55 277.121H172.868V284.413H180.55V277.121Z" fill="white"/>
<path d="M180.55 269.83H172.868V277.121H180.55V269.83Z" fill="white"/>
<path d="M180.55 262.538H172.868V269.83H180.55V262.538Z" fill="white"/>
<path d="M180.55 255.242H172.868V262.536H180.55V255.242Z" fill="white"/>
<path d="M180.55 247.951H172.868V255.242H180.55V247.951Z" fill="white"/>
<path d="M180.55 240.659H172.868V247.951H180.55V240.659Z" fill="white"/>
<path d="M180.55 233.365H172.868V240.659H180.55V233.365Z" fill="white"/>
<path d="M180.55 226.072H172.868V233.364H180.55V226.072Z" fill="white"/>
<path d="M180.55 218.78H172.868V226.072H180.55V218.78Z" fill="white"/>
<path d="M180.55 211.489H172.868V218.78H180.55V211.489Z" fill="white"/>
<path d="M180.55 204.193H172.868V211.487H180.55V204.193Z" fill="white"/>
<path d="M180.55 196.901H172.868V204.193H180.55V196.901Z" fill="white"/>
<path d="M180.55 189.61H172.868V196.901H180.55V189.61Z" fill="white"/>
<path d="M180.55 182.318H172.868V189.61H180.55V182.318Z" fill="white"/>
<path d="M180.55 175.023H172.868V182.316H180.55V175.023Z" fill="white"/>
<path d="M180.55 167.731H172.868V175.023H180.55V167.731Z" fill="white"/>
<path d="M180.55 160.439H172.868V167.731H180.55V160.439Z" fill="#DCD4CD"/>
<path d="M180.55 153.148H172.868V160.439H180.55V153.148Z" fill="#DCD4CD"/>
<path d="M180.55 145.852H172.868V153.146H180.55V145.852Z" fill="#DCD4CD"/>
<path d="M172.866 284.413H165.182V291.706H172.866V284.413Z" fill="white"/>
<path d="M172.866 277.121H165.182V284.413H172.866V277.121Z" fill="white"/>
<path d="M172.866 269.83H165.182V277.121H172.866V269.83Z" fill="white"/>
<path d="M172.866 262.538H165.182V269.83H172.866V262.538Z" fill="white"/>
<path d="M172.866 255.242H165.182V262.536H172.866V255.242Z" fill="white"/>
<path d="M172.866 247.951H165.182V255.242H172.866V247.951Z" fill="white"/>
<path d="M172.866 240.659H165.182V247.951H172.866V240.659Z" fill="white"/>
<path d="M172.866 233.365H165.182V240.659H172.866V233.365Z" fill="white"/>
<path d="M172.866 226.072H165.182V233.364H172.866V226.072Z" fill="white"/>
<path d="M172.866 218.78H165.182V226.072H172.866V218.78Z" fill="white"/>
<path d="M172.866 211.489H165.182V218.78H172.866V211.489Z" fill="white"/>
<path d="M172.866 204.193H165.182V211.487H172.866V204.193Z" fill="white"/>
<path d="M172.866 196.901H165.182V204.193H172.866V196.901Z" fill="white"/>
<path d="M172.866 189.61H165.182V196.901H172.866V189.61Z" fill="white"/>
<path d="M172.866 182.318H165.182V189.61H172.866V182.318Z" fill="white"/>
<path d="M172.866 175.023H165.182V182.316H172.866V175.023Z" fill="white"/>
<path d="M172.866 167.731H165.182V175.023H172.866V167.731Z" fill="#DCD4CD"/>
<path d="M172.866 160.439H165.182V167.731H172.866V160.439Z" fill="#DCD4CD"/>
<path d="M165.182 284.413H157.5V291.706H165.182V284.413Z" fill="white"/>
<path d="M165.182 277.121H157.5V284.413H165.182V277.121Z" fill="white"/>
<path d="M165.182 269.83H157.5V277.121H165.182V269.83Z" fill="white"/>
<path d="M165.182 262.538H157.5V269.83H165.182V262.538Z" fill="white"/>
<path d="M165.182 255.242H157.5V262.536H165.182V255.242Z" fill="white"/>
<path d="M165.182 247.951H157.5V255.242H165.182V247.951Z" fill="white"/>
<path d="M165.182 240.659H157.5V247.951H165.182V240.659Z" fill="white"/>
<path d="M165.182 233.365H157.5V240.659H165.182V233.365Z" fill="white"/>
<path d="M165.182 226.072H157.5V233.364H165.182V226.072Z" fill="white"/>
<path d="M165.182 218.78H157.5V226.072H165.182V218.78Z" fill="white"/>
<path d="M165.182 211.489H157.5V218.78H165.182V211.489Z" fill="white"/>
<path d="M165.182 204.193H157.5V211.487H165.182V204.193Z" fill="white"/>
<path d="M165.182 196.901H157.5V204.193H165.182V196.901Z" fill="white"/>
<path d="M165.182 189.61H157.5V196.901H165.182V189.61Z" fill="white"/>
<path d="M165.182 182.318H157.5V189.61H165.182V182.318Z" fill="white"/>
<path d="M165.182 175.023H157.5V182.316H165.182V175.023Z" fill="white"/>
<path d="M165.182 167.731H157.5V175.023H165.182V167.731Z" fill="#DCD4CD"/>
<path d="M157.5 284.413H149.818V291.706H157.5V284.413Z" fill="white"/>
<path d="M157.5 277.121H149.818V284.413H157.5V277.121Z" fill="white"/>
<path d="M157.5 269.83H149.818V277.121H157.5V269.83Z" fill="white"/>
<path d="M157.5 262.538H149.818V269.83H157.5V262.538Z" fill="white"/>
<path d="M157.5 255.242H149.818V262.536H157.5V255.242Z" fill="white"/>
<path d="M157.5 247.951H149.818V255.242H157.5V247.951Z" fill="white"/>
<path d="M157.5 240.659H149.818V247.951H157.5V240.659Z" fill="white"/>
<path d="M157.5 233.365H149.818V240.659H157.5V233.365Z" fill="white"/>
<path d="M157.5 226.072H149.818V233.364H157.5V226.072Z" fill="white"/>
<path d="M157.5 218.78H149.818V226.072H157.5V218.78Z" fill="white"/>
<path d="M157.5 211.489H149.818V218.78H157.5V211.489Z" fill="white"/>
<path d="M157.5 204.193H149.818V211.487H157.5V204.193Z" fill="white"/>
<path d="M157.5 196.901H149.818V204.193H157.5V196.901Z" fill="white"/>
<path d="M157.5 189.61H149.818V196.901H157.5V189.61Z" fill="white"/>
<path d="M157.5 182.318H149.818V189.61H157.5V182.318Z" fill="white"/>
<path d="M157.5 175.023H149.818V182.316H157.5V175.023Z" fill="white"/>
<path d="M157.5 167.731H149.818V175.023H157.5V167.731Z" fill="#DCD4CD"/>
<path d="M149.818 284.413H142.136V291.706H149.818V284.413Z" fill="white"/>
<path d="M149.818 277.121H142.136V284.413H149.818V277.121Z" fill="white"/>
<path d="M149.818 269.83H142.136V277.121H149.818V269.83Z" fill="white"/>
<path d="M149.818 262.538H142.136V269.83H149.818V262.538Z" fill="white"/>
<path d="M149.818 255.242H142.136V262.536H149.818V255.242Z" fill="white"/>
<path d="M149.818 247.951H142.136V255.242H149.818V247.951Z" fill="white"/>
<path d="M149.818 240.659H142.136V247.951H149.818V240.659Z" fill="white"/>
<path d="M149.818 233.365H142.136V240.659H149.818V233.365Z" fill="white"/>
<path d="M149.818 226.072H142.136V233.364H149.818V226.072Z" fill="white"/>
<path d="M149.818 218.78H142.136V226.072H149.818V218.78Z" fill="white"/>
<path d="M149.818 211.489H142.136V218.78H149.818V211.489Z" fill="white"/>
<path d="M149.818 204.193H142.136V211.487H149.818V204.193Z" fill="white"/>
<path d="M149.818 196.901H142.136V204.193H149.818V196.901Z" fill="white"/>
<path d="M149.818 189.61H142.136V196.901H149.818V189.61Z" fill="white"/>
<path d="M149.818 182.318H142.136V189.61H149.818V182.318Z" fill="white"/>
<path d="M149.818 175.023H142.136V182.316H149.818V175.023Z" fill="white"/>
<path d="M149.818 167.731H142.136V175.023H149.818V167.731Z" fill="#DCD4CD"/>
<path d="M142.134 284.413H134.45V291.706H142.134V284.413Z" fill="white"/>
<path d="M142.134 277.121H134.45V284.413H142.134V277.121Z" fill="white"/>
<path d="M142.134 269.83H134.45V277.121H142.134V269.83Z" fill="white"/>
<path d="M142.134 262.538H134.45V269.83H142.134V262.538Z" fill="white"/>
<path d="M142.134 255.242H134.45V262.536H142.134V255.242Z" fill="white"/>
<path d="M142.134 247.951H134.45V255.242H142.134V247.951Z" fill="white"/>
<path d="M142.134 240.659H134.45V247.951H142.134V240.659Z" fill="white"/>
<path d="M142.134 233.365H134.45V240.659H142.134V233.365Z" fill="white"/>
<path d="M142.134 226.072H134.45V233.364H142.134V226.072Z" fill="white"/>
<path d="M142.134 218.78H134.45V226.072H142.134V218.78Z" fill="white"/>
<path d="M142.134 211.489H134.45V218.78H142.134V211.489Z" fill="white"/>
<path d="M142.134 204.193H134.45V211.487H142.134V204.193Z" fill="white"/>
<path d="M142.134 196.901H134.45V204.193H142.134V196.901Z" fill="white"/>
<path d="M142.134 189.61H134.45V196.901H142.134V189.61Z" fill="white"/>
<path d="M142.134 182.318H134.45V189.61H142.134V182.318Z" fill="white"/>
<path d="M142.134 175.023H134.45V182.316H142.134V175.023Z" fill="white"/>
<path d="M142.134 167.731H134.45V175.023H142.134V167.731Z" fill="#DCD4CD"/>
<path d="M134.45 284.413H126.769V291.706H134.45V284.413Z" fill="white"/>
<path d="M134.45 277.121H126.769V284.413H134.45V277.121Z" fill="white"/>
<path d="M134.45 269.83H126.769V277.121H134.45V269.83Z" fill="white"/>
<path d="M134.45 262.538H126.769V269.83H134.45V262.538Z" fill="white"/>
<path d="M134.45 255.242H126.769V262.536H134.45V255.242Z" fill="white"/>
<path d="M134.45 247.951H126.769V255.242H134.45V247.951Z" fill="white"/>
<path d="M134.45 240.659H126.769V247.951H134.45V240.659Z" fill="white"/>
<path d="M134.45 233.365H126.769V240.659H134.45V233.365Z" fill="white"/>
<path d="M134.45 226.072H126.769V233.364H134.45V226.072Z" fill="white"/>
<path d="M134.45 218.78H126.769V226.072H134.45V218.78Z" fill="white"/>
<path d="M134.45 211.489H126.769V218.78H134.45V211.489Z" fill="white"/>
<path d="M134.45 204.193H126.769V211.487H134.45V204.193Z" fill="white"/>
<path d="M134.45 196.901H126.769V204.193H134.45V196.901Z" fill="white"/>
<path d="M134.45 189.61H126.769V196.901H134.45V189.61Z" fill="white"/>
<path d="M134.45 182.318H126.769V189.61H134.45V182.318Z" fill="white"/>
<path d="M134.45 175.023H126.769V182.316H134.45V175.023Z" fill="white"/>
<path d="M134.45 167.731H126.769V175.023H134.45V167.731Z" fill="#DCD4CD"/>
<path d="M126.769 284.413H119.087V291.706H126.769V284.413Z" fill="white"/>
<path d="M126.769 277.121H119.087V284.413H126.769V277.121Z" fill="white"/>
<path d="M126.769 269.83H119.087V277.121H126.769V269.83Z" fill="white"/>
<path d="M126.769 262.538H119.087V269.83H126.769V262.538Z" fill="white"/>
<path d="M126.769 255.242H119.087V262.536H126.769V255.242Z" fill="white"/>
<path d="M126.769 247.951H119.087V255.242H126.769V247.951Z" fill="white"/>
<path d="M126.769 240.659H119.087V247.951H126.769V240.659Z" fill="white"/>
<path d="M126.769 233.365H119.087V240.659H126.769V233.365Z" fill="white"/>
<path d="M126.769 226.072H119.087V233.364H126.769V226.072Z" fill="white"/>
<path d="M126.769 218.78H119.087V226.072H126.769V218.78Z" fill="white"/>
<path d="M126.769 211.489H119.087V218.78H126.769V211.489Z" fill="white"/>
<path d="M126.769 204.193H119.087V211.487H126.769V204.193Z" fill="white"/>
<path d="M126.769 196.901H119.087V204.193H126.769V196.901Z" fill="white"/>
<path d="M126.769 189.61H119.087V196.901H126.769V189.61Z" fill="white"/>
<path d="M126.769 182.318H119.087V189.61H126.769V182.318Z" fill="white"/>
<path d="M126.769 175.023H119.087V182.316H126.769V175.023Z" fill="white"/>
<path d="M119.085 277.121H111.403V284.413H119.085V277.121Z" fill="white"/>
<path d="M119.085 269.83H111.403V277.121H119.085V269.83Z" fill="white"/>
<path d="M119.085 262.538H111.403V269.83H119.085V262.538Z" fill="white"/>
<path d="M119.085 255.242H111.403V262.536H119.085V255.242Z" fill="white"/>
<path d="M119.085 247.951H111.403V255.242H119.085V247.951Z" fill="white"/>
<path d="M119.085 240.659H111.403V247.951H119.085V240.659Z" fill="white"/>
<path d="M119.085 233.365H111.403V240.659H119.085V233.365Z" fill="white"/>
<path d="M119.085 226.072H111.403V233.364H119.085V226.072Z" fill="white"/>
<path d="M119.085 218.78H111.403V226.072H119.085V218.78Z" fill="white"/>
<path d="M119.085 211.489H111.403V218.78H119.085V211.489Z" fill="white"/>
<path d="M119.085 204.193H111.403V211.487H119.085V204.193Z" fill="white"/>
<path d="M119.085 196.901H111.403V204.193H119.085V196.901Z" fill="white"/>
<path d="M111.403 277.121H103.719V284.413H111.403V277.121Z" fill="white"/>
<path d="M111.403 269.83H103.719V277.121H111.403V269.83Z" fill="white"/>
<path d="M111.403 262.538H103.719V269.83H111.403V262.538Z" fill="white"/>
<path d="M111.403 255.242H103.719V262.536H111.403V255.242Z" fill="white"/>
<path d="M111.403 247.951H103.719V255.242H111.403V247.951Z" fill="white"/>
<path d="M111.403 240.659H103.719V247.951H111.403V240.659Z" fill="white"/>
<path d="M111.403 233.365H103.719V240.659H111.403V233.365Z" fill="white"/>
<path d="M111.403 226.072H103.719V233.364H111.403V226.072Z" fill="white"/>
<path d="M111.403 218.78H103.719V226.072H111.403V218.78Z" fill="white"/>
<path d="M111.403 211.489H103.719V218.78H111.403V211.489Z" fill="white"/>
<path d="M103.719 269.83H96.0372V277.121H103.719V269.83Z" fill="white"/>
<path d="M103.719 262.538H96.0372V269.83H103.719V262.538Z" fill="white"/>
<path d="M103.719 255.242H96.0372V262.536H103.719V255.242Z" fill="white"/>
<path d="M103.719 247.951H96.0372V255.242H103.719V247.951Z" fill="white"/>
<path d="M103.719 240.659H96.0372V247.951H103.719V240.659Z" fill="white"/>
<path d="M103.719 233.365H96.0372V240.659H103.719V233.365Z" fill="white"/>
<path d="M103.719 226.072H96.0372V233.364H103.719V226.072Z" fill="white"/>
<path d="M195.913 109.39H188.231V116.682H195.913V109.39Z" fill="white"/>
<path d="M195.913 102.099H188.231V109.39H195.913V102.099Z" fill="white"/>
<path d="M195.913 94.8069H188.231V102.098H195.913V94.8069Z" fill="white"/>
<path d="M195.913 87.5112H188.231V94.8048H195.913V87.5112Z" fill="white"/>
<path d="M195.913 80.2198H188.231V87.5115H195.913V80.2198Z" fill="white"/>
<path d="M195.913 72.9281H188.231V80.2197H195.913V72.9281Z" fill="white"/>
<path d="M195.913 65.6345H188.231V72.9261H195.913V65.6345Z" fill="white"/>
<path d="M195.913 58.3408H188.231V65.6344H195.913V58.3408Z" fill="white"/>
<path d="M188.231 131.269H180.55V138.561H188.231V131.269Z" fill="white"/>
<path d="M188.231 123.977H180.55V131.269H188.231V123.977Z" fill="white"/>
<path d="M188.231 116.682H180.55V123.975H188.231V116.682Z" fill="white"/>
<path d="M188.231 109.39H180.55V116.682H188.231V109.39Z" fill="white"/>
<path d="M188.231 102.099H180.55V109.39H188.231V102.099Z" fill="white"/>
<path d="M188.231 94.8069H180.55V102.098H188.231V94.8069Z" fill="white"/>
<path d="M188.231 87.5112H180.55V94.8048H188.231V87.5112Z" fill="white"/>
<path d="M188.231 80.2198H180.55V87.5115H188.231V80.2198Z" fill="white"/>
<path d="M188.231 72.9281H180.55V80.2197H188.231V72.9281Z" fill="white"/>
<path d="M188.231 65.6345H180.55V72.9261H188.231V65.6345Z" fill="white"/>
<path d="M188.231 58.3408H180.55V65.6344H188.231V58.3408Z" fill="white"/>
<path d="M188.231 51.0493H180.55V58.3409H188.231V51.0493Z" fill="white"/>
<path d="M180.55 145.852H172.868V153.146H180.55V145.852Z" fill="white"/>
<path d="M180.55 138.561H172.868V145.852H180.55V138.561Z" fill="white"/>
<path d="M180.55 131.269H172.868V138.561H180.55V131.269Z" fill="white"/>
<path d="M180.55 123.977H172.868V131.269H180.55V123.977Z" fill="white"/>
<path d="M180.55 116.682H172.868V123.975H180.55V116.682Z" fill="white"/>
<path d="M180.55 109.39H172.868V116.682H180.55V109.39Z" fill="white"/>
<path d="M180.55 102.099H172.868V109.39H180.55V102.099Z" fill="white"/>
<path d="M180.55 94.8069H172.868V102.098H180.55V94.8069Z" fill="white"/>
<path d="M180.55 87.5112H172.868V94.8048H180.55V87.5112Z" fill="white"/>
<path d="M180.55 80.2198H172.868V87.5115H180.55V80.2198Z" fill="white"/>
<path d="M180.55 72.9281H172.868V80.2197H180.55V72.9281Z" fill="white"/>
<path d="M180.55 65.6345H172.868V72.9261H180.55V65.6345Z" fill="white"/>
<path d="M180.55 58.3408H172.868V65.6344H180.55V58.3408Z" fill="white"/>
<path d="M180.55 51.0493H172.868V58.3409H180.55V51.0493Z" fill="white"/>
<path d="M180.55 43.7576H172.868V51.0492H180.55V43.7576Z" fill="white"/>
<path d="M172.866 153.148H165.182V160.439H172.866V153.148Z" fill="white"/>
<path d="M172.866 145.852H165.182V153.146H172.866V145.852Z" fill="white"/>
<path d="M172.866 138.561H165.182V145.852H172.866V138.561Z" fill="white"/>
<path d="M172.866 131.269H165.182V138.561H172.866V131.269Z" fill="white"/>
<path d="M172.866 123.977H165.182V131.269H172.866V123.977Z" fill="white"/>
<path d="M172.866 116.682H165.182V123.975H172.866V116.682Z" fill="white"/>
<path d="M172.866 109.39H165.182V116.682H172.866V109.39Z" fill="white"/>
<path d="M172.866 102.099H165.182V109.39H172.866V102.099Z" fill="white"/>
<path d="M172.866 94.8069H165.182V102.098H172.866V94.8069Z" fill="white"/>
<path d="M172.866 87.5112H165.182V94.8048H172.866V87.5112Z" fill="white"/>
<path d="M172.866 80.2198H165.182V87.5115H172.866V80.2198Z" fill="white"/>
<path d="M172.866 72.9281H165.182V80.2197H172.866V72.9281Z" fill="white"/>
<path d="M172.866 65.6345H165.182V72.9261H172.866V65.6345Z" fill="white"/>
<path d="M172.866 58.3408H165.182V65.6344H172.866V58.3408Z" fill="white"/>
<path d="M172.866 51.0493H165.182V58.3409H172.866V51.0493Z" fill="white"/>
<path d="M172.866 43.7576H165.182V51.0492H172.866V43.7576Z" fill="white"/>
<path d="M165.182 160.439H157.5V167.731H165.182V160.439Z" fill="white"/>
<path d="M165.182 153.148H157.5V160.439H165.182V153.148Z" fill="white"/>
<path d="M165.182 145.852H157.5V153.146H165.182V145.852Z" fill="white"/>
<path d="M165.182 138.561H157.5V145.852H165.182V138.561Z" fill="white"/>
<path d="M165.182 131.269H157.5V138.561H165.182V131.269Z" fill="white"/>
<path d="M165.182 123.977H157.5V131.269H165.182V123.977Z" fill="white"/>
<path d="M165.182 116.682H157.5V123.975H165.182V116.682Z" fill="white"/>
<path d="M165.182 109.39H157.5V116.682H165.182V109.39Z" fill="white"/>
<path d="M165.182 102.099H157.5V109.39H165.182V102.099Z" fill="white"/>
<path d="M165.182 94.8069H157.5V102.098H165.182V94.8069Z" fill="white"/>
<path d="M165.182 87.5112H157.5V94.8048H165.182V87.5112Z" fill="white"/>
<path d="M165.182 80.2198H157.5V87.5115H165.182V80.2198Z" fill="white"/>
<path d="M165.182 72.9281H157.5V80.2197H165.182V72.9281Z" fill="white"/>
<path d="M165.182 65.6345H157.5V72.9261H165.182V65.6345Z" fill="white"/>
<path d="M165.182 58.3408H157.5V65.6344H165.182V58.3408Z" fill="white"/>
<path d="M165.182 51.0493H157.5V58.3409H165.182V51.0493Z" fill="white"/>
<path d="M165.182 43.7576H157.5V51.0492H165.182V43.7576Z" fill="white"/>
<path d="M157.5 160.439H149.818V167.731H157.5V160.439Z" fill="white"/>
<path d="M157.5 153.148H149.818V160.439H157.5V153.148Z" fill="white"/>
<path d="M157.5 145.852H149.818V153.146H157.5V145.852Z" fill="white"/>
<path d="M157.5 138.561H149.818V145.852H157.5V138.561Z" fill="white"/>
<path d="M157.5 131.269H149.818V138.561H157.5V131.269Z" fill="white"/>
<path d="M157.5 123.977H149.818V131.269H157.5V123.977Z" fill="white"/>
<path d="M157.5 116.682H149.818V123.975H157.5V116.682Z" fill="white"/>
<path d="M157.5 109.39H149.818V116.682H157.5V109.39Z" fill="white"/>
<path d="M157.5 102.099H149.818V109.39H157.5V102.099Z" fill="white"/>
<path d="M157.5 94.8069H149.818V102.098H157.5V94.8069Z" fill="white"/>
<path d="M157.5 87.5112H149.818V94.8048H157.5V87.5112Z" fill="white"/>
<path d="M157.5 80.2198H149.818V87.5115H157.5V80.2198Z" fill="white"/>
<path d="M157.5 72.9281H149.818V80.2197H157.5V72.9281Z" fill="white"/>
<path d="M157.5 65.6345H149.818V72.9261H157.5V65.6345Z" fill="white"/>
<path d="M157.5 58.3408H149.818V65.6344H157.5V58.3408Z" fill="white"/>
<path d="M157.5 51.0493H149.818V58.3409H157.5V51.0493Z" fill="white"/>
<path d="M157.5 43.7576H149.818V51.0492H157.5V43.7576Z" fill="white"/>
<path d="M149.818 160.439H142.136V167.731H149.818V160.439Z" fill="white"/>
<path d="M149.818 153.148H142.136V160.439H149.818V153.148Z" fill="white"/>
<path d="M149.818 145.852H142.136V153.146H149.818V145.852Z" fill="white"/>
<path d="M149.818 138.561H142.136V145.852H149.818V138.561Z" fill="white"/>
<path d="M149.818 131.269H142.136V138.561H149.818V131.269Z" fill="white"/>
<path d="M149.818 123.977H142.136V131.269H149.818V123.977Z" fill="white"/>
<path d="M149.818 116.682H142.136V123.975H149.818V116.682Z" fill="white"/>
<path d="M149.818 109.39H142.136V116.682H149.818V109.39Z" fill="white"/>
<path d="M149.818 102.099H142.136V109.39H149.818V102.099Z" fill="white"/>
<path d="M149.818 94.8069H142.136V102.098H149.818V94.8069Z" fill="white"/>
<path d="M149.818 87.5112H142.136V94.8048H149.818V87.5112Z" fill="white"/>
<path d="M149.818 80.2198H142.136V87.5115H149.818V80.2198Z" fill="white"/>
<path d="M149.818 72.9281H142.136V80.2197H149.818V72.9281Z" fill="white"/>
<path d="M149.818 65.6345H142.136V72.9261H149.818V65.6345Z" fill="white"/>
<path d="M149.818 58.3408H142.136V65.6344H149.818V58.3408Z" fill="white"/>
<path d="M149.818 51.0493H142.136V58.3409H149.818V51.0493Z" fill="white"/>
<path d="M149.818 43.7576H142.136V51.0492H149.818V43.7576Z" fill="white"/>
<path d="M142.134 160.439H134.45V167.731H142.134V160.439Z" fill="white"/>
<path d="M142.134 153.148H134.45V160.439H142.134V153.148Z" fill="white"/>
<path d="M142.134 145.852H134.45V153.146H142.134V145.852Z" fill="white"/>
<path d="M142.134 138.561H134.45V145.852H142.134V138.561Z" fill="white"/>
<path d="M142.134 131.269H134.45V138.561H142.134V131.269Z" fill="white"/>
<path d="M142.134 123.977H134.45V131.269H142.134V123.977Z" fill="white"/>
<path d="M142.134 116.682H134.45V123.975H142.134V116.682Z" fill="white"/>
<path d="M142.134 109.39H134.45V116.682H142.134V109.39Z" fill="white"/>
<path d="M142.134 102.099H134.45V109.39H142.134V102.099Z" fill="white"/>
<path d="M142.134 94.8069H134.45V102.098H142.134V94.8069Z" fill="white"/>
<path d="M142.134 87.5112H134.45V94.8048H142.134V87.5112Z" fill="white"/>
<path d="M142.134 80.2198H134.45V87.5115H142.134V80.2198Z" fill="white"/>
<path d="M142.134 72.9281H134.45V80.2197H142.134V72.9281Z" fill="white"/>
<path d="M142.134 65.6345H134.45V72.9261H142.134V65.6345Z" fill="white"/>
<path d="M142.134 58.3408H134.45V65.6344H142.134V58.3408Z" fill="white"/>
<path d="M142.134 51.0493H134.45V58.3409H142.134V51.0493Z" fill="white"/>
<path d="M142.134 43.7576H134.45V51.0492H142.134V43.7576Z" fill="white"/>
<path d="M134.45 160.439H126.769V167.731H134.45V160.439Z" fill="white"/>
<path d="M134.45 153.148H126.769V160.439H134.45V153.148Z" fill="white"/>
<path d="M134.45 145.852H126.769V153.146H134.45V145.852Z" fill="white"/>
<path d="M134.45 138.561H126.769V145.852H134.45V138.561Z" fill="white"/>
<path d="M134.45 131.269H126.769V138.561H134.45V131.269Z" fill="white"/>
<path d="M134.45 123.977H126.769V131.269H134.45V123.977Z" fill="white"/>
<path d="M134.45 116.682H126.769V123.975H134.45V116.682Z" fill="white"/>
<path d="M134.45 109.39H126.769V116.682H134.45V109.39Z" fill="white"/>
<path d="M134.45 102.099H126.769V109.39H134.45V102.099Z" fill="white"/>
<path d="M134.45 94.8069H126.769V102.098H134.45V94.8069Z" fill="white"/>
<path d="M134.45 87.5112H126.769V94.8048H134.45V87.5112Z" fill="white"/>
<path d="M134.45 80.2198H126.769V87.5115H134.45V80.2198Z" fill="white"/>
<path d="M134.45 72.9281H126.769V80.2197H134.45V72.9281Z" fill="white"/>
<path d="M134.45 65.6345H126.769V72.9261H134.45V65.6345Z" fill="white"/>
<path d="M134.45 58.3408H126.769V65.6344H134.45V58.3408Z" fill="white"/>
<path d="M134.45 51.0493H126.769V58.3409H134.45V51.0493Z" fill="white"/>
<path d="M126.769 160.439H119.087V167.731H126.769V160.439Z" fill="white"/>
<path d="M126.769 153.148H119.087V160.439H126.769V153.148Z" fill="white"/>
<path d="M126.769 145.852H119.087V153.146H126.769V145.852Z" fill="white"/>
<path d="M126.769 138.561H119.087V145.852H126.769V138.561Z" fill="white"/>
<path d="M126.769 131.269H119.087V138.561H126.769V131.269Z" fill="white"/>
<path d="M126.769 123.977H119.087V131.269H126.769V123.977Z" fill="white"/>
<path d="M126.769 116.682H119.087V123.975H126.769V116.682Z" fill="white"/>
<path d="M126.769 109.39H119.087V116.682H126.769V109.39Z" fill="white"/>
<path d="M126.769 102.099H119.087V109.39H126.769V102.099Z" fill="white"/>
<path d="M126.769 94.8069H119.087V102.098H126.769V94.8069Z" fill="white"/>
<path d="M126.769 87.5112H119.087V94.8048H126.769V87.5112Z" fill="white"/>
<path d="M126.769 80.2198H119.087V87.5115H126.769V80.2198Z" fill="white"/>
<path d="M126.769 72.9281H119.087V80.2197H126.769V72.9281Z" fill="white"/>
<path d="M126.769 65.6345H119.087V72.9261H126.769V65.6345Z" fill="white"/>
<path d="M126.769 58.3408H119.087V65.6344H126.769V58.3408Z" fill="white"/>
<path d="M119.085 160.439H111.403V167.731H119.085V160.439Z" fill="white"/>
<path d="M119.085 153.148H111.403V160.439H119.085V153.148Z" fill="white"/>
<path d="M119.085 145.852H111.403V153.146H119.085V145.852Z" fill="white"/>
<path d="M119.085 138.561H111.403V145.852H119.085V138.561Z" fill="white"/>
<path d="M119.085 131.269H111.403V138.561H119.085V131.269Z" fill="white"/>
<path d="M119.085 123.977H111.403V131.269H119.085V123.977Z" fill="white"/>
<path d="M119.085 116.682H111.403V123.975H119.085V116.682Z" fill="white"/>
<path d="M119.085 109.39H111.403V116.682H119.085V109.39Z" fill="white"/>
<path d="M119.085 102.099H111.403V109.39H119.085V102.099Z" fill="white"/>
<path d="M119.085 94.8069H111.403V102.098H119.085V94.8069Z" fill="white"/>
<path d="M119.085 87.5112H111.403V94.8048H119.085V87.5112Z" fill="white"/>
<path d="M119.085 80.2198H111.403V87.5115H119.085V80.2198Z" fill="white"/>
<path d="M119.085 72.9281H111.403V80.2197H119.085V72.9281Z" fill="white"/>
<path d="M119.085 65.6345H111.403V72.9261H119.085V65.6345Z" fill="white"/>
<path d="M111.403 160.439H103.719V167.731H111.403V160.439Z" fill="white"/>
<path d="M111.403 153.148H103.719V160.439H111.403V153.148Z" fill="white"/>
<path d="M111.403 145.852H103.719V153.146H111.403V145.852Z" fill="white"/>
<path d="M111.403 138.561H103.719V145.852H111.403V138.561Z" fill="white"/>
<path d="M111.403 131.269H103.719V138.561H111.403V131.269Z" fill="white"/>
<path d="M111.403 123.977H103.719V131.269H111.403V123.977Z" fill="white"/>
<path d="M111.403 116.682H103.719V123.975H111.403V116.682Z" fill="white"/>
<path d="M111.403 109.39H103.719V116.682H111.403V109.39Z" fill="white"/>
<path d="M111.403 102.099H103.719V109.39H111.403V102.099Z" fill="white"/>
<path d="M111.403 94.8069H103.719V102.098H111.403V94.8069Z" fill="white"/>
<path d="M103.719 160.439H96.0372V167.731H103.719V160.439Z" fill="white"/>
<path d="M103.719 153.148H96.0372V160.439H103.719V153.148Z" fill="white"/>
<path d="M103.719 145.852H96.0372V153.146H103.719V145.852Z" fill="white"/>
<path d="M103.719 138.561H96.0372V145.852H103.719V138.561Z" fill="white"/>
<path d="M103.719 131.269H96.0372V138.561H103.719V131.269Z" fill="white"/>
<path d="M103.719 123.977H96.0372V131.269H103.719V123.977Z" fill="white"/>
<path d="M103.719 116.682H96.0372V123.975H103.719V116.682Z" fill="white"/>
<path d="M103.719 109.39H96.0372V116.682H103.719V109.39Z" fill="white"/>
<path d="M103.719 102.099H96.0372V109.39H103.719V102.099Z" fill="white"/>
<path d="M96.0373 160.439H88.3555V167.731H96.0373V160.439Z" fill="white"/>
<path d="M96.0373 153.148H88.3555V160.439H96.0373V153.148Z" fill="white"/>
<path d="M96.0373 145.852H88.3555V153.146H96.0373V145.852Z" fill="white"/>
<path d="M96.0373 138.561H88.3555V145.852H96.0373V138.561Z" fill="white"/>
<path d="M96.0373 131.269H88.3555V138.561H96.0373V131.269Z" fill="white"/>
<path d="M96.0373 123.977H88.3555V131.269H96.0373V123.977Z" fill="white"/>
<path d="M96.0373 116.682H88.3555V123.975H96.0373V116.682Z" fill="white"/>
<path d="M96.0373 109.39H88.3555V116.682H96.0373V109.39Z" fill="white"/>
<path d="M96.0373 102.099H88.3555V109.39H96.0373V102.099Z" fill="white"/>
<path d="M88.3533 153.148H80.6694V160.439H88.3533V153.148Z" fill="white"/>
<path d="M88.3533 145.852H80.6694V153.146H88.3533V145.852Z" fill="white"/>
<path d="M88.3533 138.561H80.6694V145.852H88.3533V138.561Z" fill="white"/>
<path d="M88.3533 131.269H80.6694V138.561H88.3533V131.269Z" fill="white"/>
<path d="M88.3533 123.977H80.6694V131.269H88.3533V123.977Z" fill="white"/>
<path d="M88.3533 116.682H80.6694V123.975H88.3533V116.682Z" fill="white"/>
<path d="M88.3533 109.39H80.6694V116.682H88.3533V109.39Z" fill="white"/>
<path d="M80.6693 145.852H72.9875V153.146H80.6693V145.852Z" fill="white"/>
<path d="M80.6693 138.561H72.9875V145.852H80.6693V138.561Z" fill="white"/>
<path d="M80.6693 131.269H72.9875V138.561H80.6693V131.269Z" fill="white"/>
<path d="M80.6693 123.977H72.9875V131.269H80.6693V123.977Z" fill="white"/>
<path d="M80.6693 116.682H72.9875V123.975H80.6693V116.682Z" fill="white"/>
<path d="M195.913 277.121H188.231V284.413H195.913V277.121Z" fill="white"/>
<path d="M195.913 269.83H188.231V277.121H195.913V269.83Z" fill="white"/>
<path d="M195.913 262.538H188.231V269.83H195.913V262.538Z" fill="white"/>
<path d="M195.913 196.901H188.231V204.193H195.913V196.901Z" fill="#F6F2EF"/>
<path d="M195.913 189.61H188.231V196.901H195.913V189.61Z" fill="#F6F2EF"/>
<path d="M188.231 284.413H180.55V291.706H188.231V284.413Z" fill="white"/>
<path d="M188.231 277.121H180.55V284.413H188.231V277.121Z" fill="white"/>
<path d="M188.231 269.83H180.55V277.121H188.231V269.83Z" fill="white"/>
<path d="M188.231 262.538H180.55V269.83H188.231V262.538Z" fill="white"/>
<path d="M188.231 255.242H180.55V262.536H188.231V255.242Z" fill="white"/>
<path d="M188.231 247.951H180.55V255.242H188.231V247.951Z" fill="#DCD9D6"/>
<path d="M188.231 204.193H180.55V211.487H188.231V204.193Z" fill="#F6F2EF"/>
<path d="M188.231 196.901H180.55V204.193H188.231V196.901Z" fill="#DBD6D0"/>
<path d="M188.231 189.61H180.55V196.901H188.231V189.61Z" fill="#DBD6D0"/>
<path d="M180.55 284.413H172.868V291.706H180.55V284.413Z" fill="white"/>
<path d="M180.55 277.121H172.868V284.413H180.55V277.121Z" fill="white"/>
<path d="M180.55 269.83H172.868V277.121H180.55V269.83Z" fill="white"/>
<path d="M180.55 262.538H172.868V269.83H180.55V262.538Z" fill="white"/>
<path d="M180.55 255.242H172.868V262.536H180.55V255.242Z" fill="white"/>
<path d="M180.55 247.951H172.868V255.242H180.55V247.951Z" fill="#DCD9D6"/>
<path d="M180.55 211.489H172.868V218.78H180.55V211.489Z" fill="#F6F2EF"/>
<path d="M180.55 204.193H172.868V211.487H180.55V204.193Z" fill="#DBD6D0"/>
<path d="M180.55 196.901H172.868V204.193H180.55V196.901Z" fill="white"/>
<path d="M180.55 189.61H172.868V196.901H180.55V189.61Z" fill="white"/>
<path d="M180.55 182.318H172.868V189.61H180.55V182.318Z" fill="white"/>
<path d="M172.866 284.413H165.182V291.706H172.866V284.413Z" fill="white"/>
<path d="M172.866 277.121H165.182V284.413H172.866V277.121Z" fill="white"/>
<path d="M172.866 269.83H165.182V277.121H172.866V269.83Z" fill="white"/>
<path d="M172.866 262.538H165.182V269.83H172.866V262.538Z" fill="white"/>
<path d="M172.866 255.242H165.182V262.536H172.866V255.242Z" fill="white"/>
<path d="M172.866 247.951H165.182V255.242H172.866V247.951Z" fill="#F6F2EF"/>
<path d="M172.866 218.78H165.182V226.072H172.866V218.78Z" fill="#F6F2EF"/>
<path d="M172.866 211.489H165.182V218.78H172.866V211.489Z" fill="#DBD6D0"/>
<path d="M172.866 204.193H165.182V211.487H172.866V204.193Z" fill="white"/>
<path d="M172.866 196.901H165.182V204.193H172.866V196.901Z" fill="white"/>
<path d="M172.866 189.61H165.182V196.901H172.866V189.61Z" fill="white"/>
<path d="M172.866 182.318H165.182V189.61H172.866V182.318Z" fill="white"/>
<path d="M165.182 284.413H157.5V291.706H165.182V284.413Z" fill="white"/>
<path d="M165.182 277.121H157.5V284.413H165.182V277.121Z" fill="white"/>
<path d="M165.182 269.83H157.5V277.121H165.182V269.83Z" fill="white"/>
<path d="M165.182 262.538H157.5V269.83H165.182V262.538Z" fill="white"/>
<path d="M165.182 255.242H157.5V262.536H165.182V255.242Z" fill="#DCD9D6"/>
<path d="M165.182 218.78H157.5V226.072H165.182V218.78Z" fill="#F6F2EF"/>
<path d="M165.182 211.489H157.5V218.78H165.182V211.489Z" fill="#DBD6D0"/>
<path d="M165.182 204.193H157.5V211.487H165.182V204.193Z" fill="white"/>
<path d="M165.182 196.901H157.5V204.193H165.182V196.901Z" fill="white"/>
<path d="M165.182 189.61H157.5V196.901H165.182V189.61Z" fill="white"/>
<path d="M165.182 182.318H157.5V189.61H165.182V182.318Z" fill="white"/>
<path d="M157.5 284.413H149.818V291.706H157.5V284.413Z" fill="white"/>
<path d="M157.5 277.121H149.818V284.413H157.5V277.121Z" fill="white"/>
<path d="M157.5 269.83H149.818V277.121H157.5V269.83Z" fill="white"/>
<path d="M157.5 262.538H149.818V269.83H157.5V262.538Z" fill="#DCD9D6"/>
<path d="M157.5 233.365H149.818V240.659H157.5V233.365Z" fill="#F6F2EF"/>
<path d="M157.5 226.072H149.818V233.364H157.5V226.072Z" fill="#F6F2EF"/>
<path d="M157.5 218.78H149.818V226.072H157.5V218.78Z" fill="#DBD6D0"/>
<path d="M157.5 211.489H149.818V218.78H157.5V211.489Z" fill="white"/>
<path d="M157.5 204.193H149.818V211.487H157.5V204.193Z" fill="white"/>
<path d="M157.5 196.901H149.818V204.193H157.5V196.901Z" fill="#DFDEDD"/>
<path d="M157.5 189.61H149.818V196.901H157.5V189.61Z" fill="#DFDEDD"/>
<path d="M149.818 284.413H142.136V291.706H149.818V284.413Z" fill="white"/>
<path d="M149.818 277.121H142.136V284.413H149.818V277.121Z" fill="white"/>
<path d="M149.818 269.83H142.136V277.121H149.818V269.83Z" fill="#DCD9D6"/>
<path d="M149.818 233.365H142.136V240.659H149.818V233.365Z" fill="#8E6EAF"/>
<path d="M149.818 226.072H142.136V233.364H149.818V226.072Z" fill="#8E6EAF"/>
<path d="M149.818 218.78H142.136V226.072H149.818V218.78Z" fill="white"/>
<path d="M149.818 211.489H142.136V218.78H149.818V211.489Z" fill="white"/>
<path d="M149.818 204.193H142.136V211.487H149.818V204.193Z" fill="#DFDEDD"/>
<path d="M142.134 284.413H134.45V291.706H142.134V284.413Z" fill="white"/>
<path d="M142.134 277.121H134.45V284.413H142.134V277.121Z" fill="white"/>
<path d="M142.134 269.83H134.45V277.121H142.134V269.83Z" fill="#DCD9D6"/>
<path d="M142.134 233.365H134.45V240.659H142.134V233.365Z" fill="#8E6EAF"/>
<path d="M142.134 226.072H134.45V233.364H142.134V226.072Z" fill="#8E6EAF"/>
<path d="M142.134 218.78H134.45V226.072H142.134V218.78Z" fill="white"/>
<path d="M142.134 211.489H134.45V218.78H142.134V211.489Z" fill="#DFDEDD"/>
<path d="M134.45 284.413H126.769V291.706H134.45V284.413Z" fill="#8E6EAF"/>
<path d="M134.45 277.121H126.769V284.413H134.45V277.121Z" fill="#8E6EAF"/>
<path d="M134.45 269.83H126.769V277.121H134.45V269.83Z" fill="#F6F2EF"/>
<path d="M134.45 233.365H126.769V240.659H134.45V233.365Z" fill="#8E6EAF"/>
<path d="M134.45 226.072H126.769V233.364H134.45V226.072Z" fill="#8E6EAF"/>
<path d="M134.45 218.78H126.769V226.072H134.45V218.78Z" fill="#DFDEDD"/>
<path d="M126.769 284.413H119.087V291.706H126.769V284.413Z" fill="#8E6EAF"/>
<path d="M126.769 277.121H119.087V284.413H126.769V277.121Z" fill="#8E6EAF"/>
<path d="M126.769 269.83H119.087V277.121H126.769V269.83Z" fill="#F6F2EF"/>
<path d="M119.085 189.61H111.403V196.901H119.085V189.61Z" fill="#DBD6D0"/>
<path d="M111.403 284.413H103.719V291.706H111.403V284.413Z" fill="#DBD6D0"/>
<path d="M111.403 204.193H103.719V211.487H111.403V204.193Z" fill="#DBD6D0"/>
<path d="M111.403 196.901H103.719V204.193H111.403V196.901Z" fill="#DBD6D0"/>
<path d="M103.719 284.413H96.0372V291.706H103.719V284.413Z" fill="#DBD6D0"/>
<path d="M103.719 277.121H96.0372V284.413H103.719V277.121Z" fill="#DBD6D0"/>
<path d="M103.719 218.78H96.0372V226.072H103.719V218.78Z" fill="#DBD6D0"/>
<path d="M103.719 211.489H96.0372V218.78H103.719V211.489Z" fill="#DBD6D0"/>
<path d="M96.0373 284.413H88.3555V291.706H96.0373V284.413Z" fill="#DBD6D0"/>
<path d="M96.0373 277.121H88.3555V284.413H96.0373V277.121Z" fill="#DBD6D0"/>
<path d="M96.0373 269.83H88.3555V277.121H96.0373V269.83Z" fill="#DBD6D0"/>
<path d="M96.0373 262.538H88.3555V269.83H96.0373V262.538Z" fill="#DBD6D0"/>
<path d="M96.0373 255.242H88.3555V262.536H96.0373V255.242Z" fill="#E1DDDB"/>
<path d="M96.0373 233.365H88.3555V240.659H96.0373V233.365Z" fill="#8E6EAF"/>
<path d="M96.0373 226.072H88.3555V233.364H96.0373V226.072Z" fill="#8E6EAF"/>
<path d="M88.3533 284.413H80.6694V291.706H88.3533V284.413Z" fill="#DBD6D0"/>
<path d="M88.3533 277.121H80.6694V284.413H88.3533V277.121Z" fill="#DBD6D0"/>
<path d="M88.3533 269.83H80.6694V277.121H88.3533V269.83Z" fill="#DBD6D0"/>
<path d="M88.3533 262.538H80.6694V269.83H88.3533V262.538Z" fill="#E1DDDB"/>
<path d="M80.6693 284.413H72.9875V291.706H80.6693V284.413Z" fill="#DBD6D0"/>
<path d="M80.6693 277.121H72.9875V284.413H80.6693V277.121Z" fill="#DBD6D0"/>
<path d="M80.6693 269.83H72.9875V277.121H80.6693V269.83Z" fill="#E1DDDB"/>
<path d="M72.9876 284.413H65.3058V291.706H72.9876V284.413Z" fill="#DBD6D0"/>
<path d="M72.9876 277.121H65.3058V284.413H72.9876V277.121Z" fill="#E1DDDB"/>
<path d="M65.3058 284.413H57.624V291.706H65.3058V284.413Z" fill="#DBD6D0"/>
<path d="M65.3058 277.121H57.624V284.413H65.3058V277.121Z" fill="#E1DDDB"/>
<path d="M57.6219 284.413H49.938V291.706H57.6219V284.413Z" fill="#8E6EAF"/>
<path d="M57.6219 277.121H49.938V284.413H57.6219V277.121Z" fill="#8E6EAF"/>
<path d="M49.938 284.413H42.2562V291.706H49.938V284.413Z" fill="#8E6EAF"/>
<path d="M49.938 277.121H42.2562V284.413H49.938V277.121Z" fill="#8E6EAF"/>
<path d="M134.45 43.7576H126.769V51.0492H134.45V43.7576Z" fill="#DDD2CB"/>
<path d="M157.5 29.1705H149.818V36.4641H157.5V29.1705Z" fill="#DDD2CB"/>
<path d="M157.5 36.464H149.818V43.7556H157.5V36.464Z" fill="#DDD2CB"/>
<path d="M149.818 36.464H142.136V43.7556H149.818V36.464Z" fill="#DDD2CB"/>
<path d="M142.134 36.464H134.45V43.7556H142.134V36.464Z" fill="#DDD2CB"/>
<path d="M211.281 29.1705H203.599V36.4641H211.281V29.1705Z" fill="white"/>
<path d="M203.597 36.464H195.913V43.7556H203.597V36.464Z" fill="white"/>
<path d="M211.281 36.464H203.599V43.7556H211.281V36.464Z" fill="#F8BEBF"/>
<path d="M211.281 43.7576H203.599V51.0492H211.281V43.7576Z" fill="#F8BEBF"/>
<path d="M203.597 43.7576H195.913V51.0492H203.597V43.7576Z" fill="#F8BEBF"/>
<path d="M203.597 51.0493H195.913V58.3409H203.597V51.0493Z" fill="white"/>
<path d="M195.913 43.7576H188.231V51.0492H195.913V43.7576Z" fill="white"/>
<path d="M195.913 51.0493H188.231V58.3409H195.913V51.0493Z" fill="white"/>
<path d="M165.182 87.5112H157.5V94.8048H165.182V87.5112Z" fill="#353535"/>
<path d="M165.182 80.2198H157.5V87.5115H165.182V80.2198Z" fill="#353535"/>
<path d="M165.182 72.9281H157.5V80.2197H165.182V72.9281Z" fill="#353535"/>
<path d="M134.45 116.682H126.769V123.975H134.45V116.682Z" fill="#3F2A5E"/>
<path d="M126.769 87.5112H119.087V94.8048H126.769V87.5112Z" fill="#353535"/>
<path d="M126.769 80.2198H119.087V87.5115H126.769V80.2198Z" fill="#353535"/>
<path d="M126.769 72.9281H119.087V80.2197H126.769V72.9281Z" fill="#353535"/>
<path d="M103.719 116.682H96.0372V123.975H103.719V116.682Z" fill="#3F2A5E"/>
<path d="M203.597 131.269H195.913V138.561H203.597V131.269Z" fill="#BEB4AE"/>
<path d="M195.913 138.561H188.231V145.852H195.913V138.561Z" fill="#BEB4AE"/>
<path d="M195.913 131.269H188.231V138.561H195.913V131.269Z" fill="#BEB4AE"/>
<path d="M195.913 123.977H188.231V131.269H195.913V123.977Z" fill="#BEB4AE"/>
<path d="M195.913 116.682H188.231V123.975H195.913V116.682Z" fill="#BEB4AE"/>
<path d="M188.231 145.852H180.55V153.146H188.231V145.852Z" fill="#BEB4AE"/>
<path d="M188.231 138.561H180.55V145.852H188.231V138.561Z" fill="#BEB4AE"/>
<path d="M180.55 153.148H172.868V160.439H180.55V153.148Z" fill="#BEB4AE"/>
<path d="M172.866 160.439H165.182V167.731H172.866V160.439Z" fill="#BEB4AE"/>
<path d="M234.329 153.148H226.645V160.439H234.329V153.148Z" fill="#83489B"/>
<path d="M226.645 167.731H218.963V175.023H226.645V167.731Z" fill="#542C80"/>
<path d="M226.645 160.439H218.963V167.731H226.645V160.439Z" fill="#542C80"/>
<path d="M226.645 153.148H218.963V160.439H226.645V153.148Z" fill="#83489B"/>
<path d="M226.645 145.852H218.963V153.146H226.645V145.852Z" fill="#83489B"/>
<path d="M226.645 138.561H218.963V145.852H226.645V138.561Z" fill="#83489B"/>
<path d="M226.645 131.269H218.963V138.561H226.645V131.269Z" fill="#83489B"/>
<path d="M218.963 160.439H211.281V167.731H218.963V160.439Z" fill="#542C80"/>
<path d="M218.963 153.148H211.281V160.439H218.963V153.148Z" fill="#542C80"/>
<path d="M218.963 145.852H211.281V153.146H218.963V145.852Z" fill="#542C80"/>
<path d="M218.963 138.561H211.281V145.852H218.963V138.561Z" fill="#542C80"/>
<path d="M218.963 131.269H211.281V138.561H218.963V131.269Z" fill="#542C80"/>
<path d="M218.963 123.977H211.281V131.269H218.963V123.977Z" fill="#83489B"/>
<path d="M218.963 116.682H211.281V123.975H218.963V116.682Z" fill="#83489B"/>
<path d="M218.963 109.39H211.281V116.682H218.963V109.39Z" fill="#83489B"/>
<path d="M218.963 102.099H211.281V109.39H218.963V102.099Z" fill="#83489B"/>
<path d="M218.963 94.8069H211.281V102.098H218.963V94.8069Z" fill="#83489B"/>
<path d="M218.963 87.5112H211.281V94.8048H218.963V87.5112Z" fill="#83489B"/>
<path d="M218.963 80.2198H211.281V87.5115H218.963V80.2198Z" fill="#83489B"/>
<path d="M218.963 72.9281H211.281V80.2197H218.963V72.9281Z" fill="#83489B"/>
<path d="M218.963 65.6345H211.281V72.9261H218.963V65.6345Z" fill="#83489B"/>
<path d="M218.963 58.3408H211.281V65.6344H218.963V58.3408Z" fill="#83489B"/>
<path d="M211.281 269.83H203.599V277.121H211.281V269.83Z" fill="#F2E8E8"/>
<path d="M211.281 262.538H203.599V269.83H211.281V262.538Z" fill="#F2E8E8"/>
<path d="M211.281 255.242H203.599V262.536H211.281V255.242Z" fill="#F2E8E8"/>
<path d="M211.281 247.951H203.599V255.242H211.281V247.951Z" fill="#F2E8E8"/>
<path d="M211.281 240.659H203.599V247.951H211.281V240.659Z" fill="#F2E8E8"/>
<path d="M211.281 233.365H203.599V240.659H211.281V233.365Z" fill="#F2E8E8"/>
<path d="M211.281 226.072H203.599V233.364H211.281V226.072Z" fill="#F2E8E8"/>
<path d="M211.281 218.78H203.599V226.072H211.281V218.78Z" fill="#F2E8E8"/>
<path d="M211.281 211.489H203.599V218.78H211.281V211.489Z" fill="#F2E8E8"/>
<path d="M211.281 204.193H203.599V211.487H211.281V204.193Z" fill="#F2E8E8"/>
<path d="M211.281 196.901H203.599V204.193H211.281V196.901Z" fill="#F2E8E8"/>
<path d="M211.281 189.61H203.599V196.901H211.281V189.61Z" fill="#F2E8E8"/>
<path d="M211.281 182.318H203.599V189.61H211.281V182.318Z" fill="#F2E8E8"/>
<path d="M211.281 175.023H203.599V182.316H211.281V175.023Z" fill="#F2E8E8"/>
<path d="M211.281 167.731H203.599V175.023H211.281V167.731Z" fill="#F2E8E8"/>
<path d="M211.281 160.439H203.599V167.731H211.281V160.439Z" fill="#F2E8E8"/>
<path d="M211.281 153.148H203.599V160.439H211.281V153.148Z" fill="#542C80"/>
<path d="M211.281 145.852H203.599V153.146H211.281V145.852Z" fill="#542C80"/>
<path d="M211.281 138.561H203.599V145.852H211.281V138.561Z" fill="#542C80"/>
<path d="M211.281 131.269H203.599V138.561H211.281V131.269Z" fill="#542C80"/>
<path d="M211.281 123.977H203.599V131.269H211.281V123.977Z" fill="#542C80"/>
<path d="M211.281 116.682H203.599V123.975H211.281V116.682Z" fill="#542C80"/>
<path d="M211.281 109.39H203.599V116.682H211.281V109.39Z" fill="#542C80"/>
<path d="M211.281 102.099H203.599V109.39H211.281V102.099Z" fill="#542C80"/>
<path d="M211.281 94.8069H203.599V102.098H211.281V94.8069Z" fill="#542C80"/>
<path d="M211.281 87.5112H203.599V94.8048H211.281V87.5112Z" fill="#83489B"/>
<path d="M211.281 80.2198H203.599V87.5115H211.281V80.2198Z" fill="#83489B"/>
<path d="M211.281 72.9281H203.599V80.2197H211.281V72.9281Z" fill="#83489B"/>
<path d="M211.281 65.6345H203.599V72.9261H211.281V65.6345Z" fill="#83489B"/>
<path d="M211.281 58.3408H203.599V65.6344H211.281V58.3408Z" fill="#542C80"/>
<path d="M211.281 51.0493H203.599V58.3409H211.281V51.0493Z" fill="#83489B"/>
<path d="M203.597 277.121H195.913V284.413H203.597V277.121Z" fill="#F2E8E8"/>
<path d="M203.597 269.83H195.913V277.121H203.597V269.83Z" fill="#F2E8E8"/>
<path d="M203.597 153.148H195.913V160.439H203.597V153.148Z" fill="#F2E8E8"/>
<path d="M203.597 123.977H195.913V131.269H203.597V123.977Z" fill="#542C80"/>
<path d="M203.597 116.682H195.913V123.975H203.597V116.682Z" fill="#542C80"/>
<path d="M203.597 109.39H195.913V116.682H203.597V109.39Z" fill="#542C80"/>
<path d="M203.597 102.099H195.913V109.39H203.597V102.099Z" fill="#542C80"/>
<path d="M203.597 94.8069H195.913V102.098H203.597V94.8069Z" fill="#542C80"/>
<path d="M203.597 87.5112H195.913V94.8048H203.597V87.5112Z" fill="#542C80"/>
<path d="M203.597 80.2198H195.913V87.5115H203.597V80.2198Z" fill="#542C80"/>
<path d="M203.597 72.9281H195.913V80.2197H203.597V72.9281Z" fill="#542C80"/>
<path d="M203.597 65.6345H195.913V72.9261H203.597V65.6345Z" fill="#542C80"/>
<path d="M203.597 58.3408H195.913V65.6344H203.597V58.3408Z" fill="#83489B"/>
<path d="M195.913 284.413H188.231V291.706H195.913V284.413Z" fill="#F2E8E8"/>
<path d="M195.913 277.121H188.231V284.413H195.913V277.121Z" fill="#F2E8E8"/>
<path d="M195.913 65.6345H188.231V72.9261H195.913V65.6345Z" fill="#542C80"/>
<path d="M195.913 36.464H188.231V43.7556H195.913V36.464Z" fill="#542C80"/>
<path d="M195.913 29.1705H188.231V36.4641H195.913V29.1705Z" fill="#83489B"/>
<path d="M188.231 284.413H180.55V291.706H188.231V284.413Z" fill="#F2E8E8"/>
<path d="M188.231 58.3408H180.55V65.6344H188.231V58.3408Z" fill="#542C80"/>
<path d="M188.231 51.0493H180.55V58.3409H188.231V51.0493Z" fill="#542C80"/>
<path d="M188.231 43.7576H180.55V51.0492H188.231V43.7576Z" fill="#83489B"/>
<path d="M188.231 36.464H180.55V43.7556H188.231V36.464Z" fill="#542C80"/>
<path d="M188.231 29.1705H180.55V36.4641H188.231V29.1705Z" fill="#83489B"/>
<path d="M180.55 284.413H172.868V291.706H180.55V284.413Z" fill="#F2E8E8"/>
<path d="M180.55 51.0493H172.868V58.3409H180.55V51.0493Z" fill="#542C80"/>
<path d="M180.55 43.7576H172.868V51.0492H180.55V43.7576Z" fill="#83489B"/>
<path d="M180.55 36.464H172.868V43.7556H180.55V36.464Z" fill="#542C80"/>
<path d="M180.55 29.1705H172.868V36.4641H180.55V29.1705Z" fill="#83489B"/>
<path d="M172.866 284.413H165.182V291.706H172.866V284.413Z" fill="#F2E8E8"/>
<path d="M172.866 43.7576H165.182V51.0492H172.866V43.7576Z" fill="#83489B"/>
<path d="M172.866 36.464H165.182V43.7556H172.866V36.464Z" fill="#542C80"/>
<path d="M172.866 29.1705H165.182V36.4641H172.866V29.1705Z" fill="#83489B"/>
<path d="M165.182 284.413H157.5V291.706H165.182V284.413Z" fill="#F2E8E8"/>
<path d="M165.182 43.7576H157.5V51.0492H165.182V43.7576Z" fill="#83489B"/>
<path d="M165.182 36.464H157.5V43.7556H165.182V36.464Z" fill="#542C80"/>
<path d="M165.182 29.1705H157.5V36.4641H165.182V29.1705Z" fill="#83489B"/>
<path d="M157.5 284.413H149.818V291.706H157.5V284.413Z" fill="#F2E8E8"/>
<path d="M157.5 65.6345H149.818V72.9261H157.5V65.6345Z" fill="#542C80"/>
<path d="M157.5 51.0493H149.818V58.3409H157.5V51.0493Z" fill="#542C80"/>
<path d="M157.5 43.7576H149.818V51.0492H157.5V43.7576Z" fill="#83489B"/>
<path d="M157.5 36.464H149.818V43.7556H157.5V36.464Z" fill="#83489B"/>
<path d="M149.818 65.6345H142.136V72.9261H149.818V65.6345Z" fill="#83489B"/>
<path d="M149.818 58.3408H142.136V65.6344H149.818V58.3408Z" fill="#542C80"/>
<path d="M149.818 51.0493H142.136V58.3409H149.818V51.0493Z" fill="#83489B"/>
<path d="M149.818 43.7576H142.136V51.0492H149.818V43.7576Z" fill="#542C80"/>
<path d="M149.818 36.464H142.136V43.7556H149.818V36.464Z" fill="#83489B"/>
<path d="M142.134 65.6345H134.45V72.9261H142.134V65.6345Z" fill="#542C80"/>
<path d="M142.134 58.3408H134.45V65.6344H142.134V58.3408Z" fill="#83489B"/>
<path d="M142.134 51.0493H134.45V58.3409H142.134V51.0493Z" fill="#542C80"/>
<path d="M142.134 43.7576H134.45V51.0492H142.134V43.7576Z" fill="#542C80"/>
<path d="M134.45 58.3408H126.769V65.6344H134.45V58.3408Z" fill="#83489B"/>
<path d="M134.45 51.0493H126.769V58.3409H134.45V51.0493Z" fill="#83489B"/>
<path d="M134.45 43.7576H126.769V51.0492H134.45V43.7576Z" fill="#83489B"/>
<path d="M257.376 240.659H249.694V247.951H257.376V240.659Z" fill="#83489B"/>
<path d="M249.694 218.78H242.012V226.072H249.694V218.78Z" fill="#83489B"/>
<path d="M272.744 262.538H265.062V269.83H272.744V262.538Z" fill="#542C80"/>
<path d="M265.06 269.83H257.376V277.121H265.06V269.83Z" fill="#542C80"/>
<path d="M280.426 247.951H272.744V255.242H280.426V247.951Z" fill="#542C80"/>
<path d="M280.426 233.365H272.744V240.659H280.426V233.365Z" fill="#83489B"/>
<path d="M280.426 255.242H272.744V262.536H280.426V255.242Z" fill="#542C80"/>
<path d="M280.426 240.659H272.744V247.951H280.426V240.659Z" fill="#542C80"/>
<path d="M242.012 269.83H234.331V277.121H242.012V269.83Z" fill="#83489B"/>
<path d="M242.012 262.538H234.331V269.83H242.012V262.538Z" fill="#83489B"/>
<path d="M242.012 255.242H234.331V262.536H242.012V255.242Z" fill="#83489B"/>
<path d="M234.329 262.538H226.645V269.83H234.329V262.538Z" fill="#83489B"/>
<path d="M234.329 269.83H226.645V277.121H234.329V269.83Z" fill="#542C80"/>
<path d="M234.329 277.121H226.645V284.413H234.329V277.121Z" fill="#542C80"/>
<path d="M226.645 269.83H218.963V277.121H226.645V269.83Z" fill="#542C80"/>
<path d="M226.645 262.538H218.963V269.83H226.645V262.538Z" fill="#83489B"/>
<path d="M218.963 255.242H211.281V262.536H218.963V255.242Z" fill="#83489B"/>
<path d="M218.963 262.538H211.281V269.83H218.963V262.538Z" fill="#542C80"/>
<path d="M272.744 255.242H265.062V262.536H272.744V255.242Z" fill="#83489B"/>
<path d="M272.744 240.659H265.062V247.951H272.744V240.659Z" fill="#83489B"/>
<path d="M272.744 247.951H265.062V255.242H272.744V247.951Z" fill="#83489B"/>
<path d="M272.744 233.365H265.062V240.659H272.744V233.365Z" fill="#83489B"/>
<path d="M272.744 226.072H265.062V233.364H272.744V226.072Z" fill="#83489B"/>
<path d="M265.06 247.951H257.376V255.242H265.06V247.951Z" fill="#542C80"/>
<path d="M265.06 262.538H257.376V269.83H265.06V262.538Z" fill="#83489B"/>
<path d="M265.06 240.659H257.376V247.951H265.06V240.659Z" fill="#83489B"/>
<path d="M265.06 255.242H257.376V262.536H265.06V255.242Z" fill="#83489B"/>
<path d="M265.06 233.365H257.376V240.659H265.06V233.365Z" fill="#83489B"/>
<path d="M265.06 226.072H257.376V233.364H265.06V226.072Z" fill="#83489B"/>
<path d="M265.06 218.78H257.376V226.072H265.06V218.78Z" fill="#83489B"/>
<path d="M257.376 255.242H249.694V262.536H257.376V255.242Z" fill="#542C80"/>
<path d="M257.376 269.83H249.694V277.121H257.376V269.83Z" fill="#542C80"/>
<path d="M257.376 262.538H249.694V269.83H257.376V262.538Z" fill="#83489B"/>
<path d="M257.376 218.78H249.694V226.072H257.376V218.78Z" fill="#83489B"/>
<path d="M257.376 277.121H249.694V284.413H257.376V277.121Z" fill="#542C80"/>
<path d="M257.376 247.951H249.694V255.242H257.376V247.951Z" fill="#83489B"/>
<path d="M249.694 255.242H242.012V262.536H249.694V255.242Z" fill="#83489B"/>
<path d="M249.694 247.951H242.012V255.242H249.694V247.951Z" fill="#83489B"/>
<path d="M249.694 269.83H242.012V277.121H249.694V269.83Z" fill="#542C80"/>
<path d="M249.694 277.121H242.012V284.413H249.694V277.121Z" fill="#542C80"/>
<path d="M249.694 262.538H242.012V269.83H249.694V262.538Z" fill="#83489B"/>
<path d="M242.012 277.121H234.331V284.413H242.012V277.121Z" fill="#542C80"/>
<path d="M119.085 94.8069H111.403V102.098H119.085V94.8069Z" fill="#F8BEBF"/>
<path d="M111.403 94.8069H103.719V102.098H111.403V94.8069Z" fill="#F8BEBF"/>
<path d="M180.55 94.8069H172.868V102.098H180.55V94.8069Z" fill="#F8BEBF"/>
<path d="M172.866 94.8069H165.182V102.098H172.866V94.8069Z" fill="#F8BEBF"/>
<path d="M195.913 72.9281H188.231V80.2197H195.913V72.9281Z" fill="#EEE9E4"/>
<path d="M180.55 58.3408H172.868V65.6344H180.55V58.3408Z" fill="#EEE9E4"/>
<path d="M172.866 51.0493H165.182V58.3409H172.866V51.0493Z" fill="#EEE9E4"/>
<path d="M165.182 65.6345H157.5V72.9261H165.182V65.6345Z" fill="#EEE9E4"/>
<path d="M165.182 51.0493H157.5V58.3409H165.182V51.0493Z" fill="#EEE9E4"/>
<path d="M165.182 43.7576H157.5V51.0492H165.182V43.7576Z" fill="#E3E8ED"/>
<path d="M165.182 36.464H157.5V43.7556H165.182V36.464Z" fill="#E3E8ED"/>
<path d="M165.182 29.1705H157.5V36.4641H165.182V29.1705Z" fill="#E3E8ED"/>
<path d="M165.182 21.8788H157.5V29.1704H165.182V21.8788Z" fill="#E3E8ED"/>
<path d="M165.182 14.5873H157.5V21.8789H165.182V14.5873Z" fill="#F2F8FC"/>
<path d="M157.5 58.3408H149.818V65.6344H157.5V58.3408Z" fill="#EEE9E4"/>
<path d="M157.5 43.7576H149.818V51.0492H157.5V43.7576Z" fill="#F2F8FC"/>
<path d="M157.5 36.464H149.818V43.7556H157.5V36.464Z" fill="#E3E8ED"/>
<path d="M157.5 29.1705H149.818V36.4641H157.5V29.1705Z" fill="#F2F8FC"/>
<path d="M157.5 21.8788H149.818V29.1704H157.5V21.8788Z" fill="#F2F8FC"/>
<path d="M157.5 14.5873H149.818V21.8789H157.5V14.5873Z" fill="#F2F8FC"/>
<path d="M157.5 7.2915H149.818V14.5851H157.5V7.2915Z" fill="#F2F8FC"/>
<path d="M157.5 0H149.818V7.29161H157.5V0Z" fill="#F2F8FC"/>
</svg>
