<svg width="104" height="104" viewBox="0 0 104 104" fill="none" xmlns="http://www.w3.org/2000/svg">
<path d="M103.173 51.5859C103.173 80.0769 80.077 103.172 51.587 103.172C23.097 103.172 0 80.0769 0 51.5859C0 23.0959 23.097 -0.00012207 51.587 -0.00012207C80.077 -0.00012207 103.173 23.0959 103.173 51.5859Z" fill="white"/>
<path d="M100.253 51.5859C100.253 78.4639 78.4651 100.253 51.5871 100.253C24.7091 100.253 2.9201 78.4639 2.9201 51.5859C2.9201 24.7089 24.7091 2.91993 51.5871 2.91993C78.4651 2.91993 100.253 24.7089 100.253 51.5859Z" fill="#F15B2B"/>
<path d="M96.3361 51.5625C96.3361 76.2894 76.2901 96.3354 51.5631 96.3354C26.8351 96.3354 6.7901 76.2894 6.7901 51.5625C6.7901 26.8344 26.8351 6.78945 51.5631 6.78945C76.2901 6.78945 96.3361 26.8344 96.3361 51.5625Z" stroke="white" stroke-width="1.079" stroke-miterlimit="10"/>
<path d="M85.9757 51.5626C85.9757 70.5676 70.5687 85.9746 51.5627 85.9746C32.5577 85.9746 17.1507 70.5676 17.1507 51.5626C17.1507 32.5576 32.5577 17.1496 51.5627 17.1496C70.5687 17.1496 85.9757 32.5576 85.9757 51.5626Z" stroke="white" stroke-width="1.079" stroke-miterlimit="10"/>
<path d="M36.6056 86.2178L35.9706 85.9708L36.2166 85.3368L36.8516 85.5818L37.4866 85.8288L38.1226 86.0748L38.7576 86.3218L39.3926 86.5668L40.0276 86.8148L39.7816 87.4488L39.1466 87.2028L38.5116 86.9558L38.2646 87.5928L38.0196 88.2268L37.7726 88.8628L37.5266 89.4978L37.2806 90.1328L37.9166 90.3788L38.5506 90.6248L38.3046 91.2598L37.6686 91.0138L37.0336 90.7688L36.3986 90.5218L35.7626 90.2758L35.1286 90.0298L34.4926 89.7828L34.7396 89.1478L35.3746 89.3938L36.0096 89.6398L36.2556 89.0058L36.5016 88.3698L36.7486 87.7338L36.9946 87.0988L37.2406 86.4648L36.6056 86.2178Z" fill="white"/>
<path d="M33.3966 83.8517L33.9916 84.1847L33.6596 84.7787L33.3266 85.3737L32.9946 85.9677L32.6606 86.5627L32.3286 87.1577L31.9966 87.7517L32.5896 88.0847L33.1856 88.4167L32.8526 89.0117L32.2576 88.6787L31.6646 88.3467L31.0686 88.0137L30.4746 87.6817L29.8786 87.3487L29.2856 87.0157L29.6176 86.4217L30.2116 86.7537L30.8066 87.0867L31.1386 86.4927L31.4726 85.8977L31.8046 85.3027L32.1366 84.7087L32.4696 84.1137L32.8026 83.5197L33.3966 83.8517Z" fill="white"/>
<path d="M27.129 81.2549L27.672 81.6669L28.213 82.0789L28.756 82.4919L29.298 82.9049L29.84 83.3179L29.428 83.8589L29.015 84.4019L28.473 83.9889L27.93 83.5759L27.389 83.1629L26.847 82.7519L26.305 82.3399L25.762 81.9269L26.174 81.3839L26.587 80.8419L27.129 81.2549Z" fill="white"/>
<path d="M23.6603 78.9804L23.1823 78.4964L22.6973 78.9744L22.2123 79.4534L22.6913 79.9374L22.2063 80.4164L22.6843 80.9014L23.1703 80.4234L23.6473 80.9074L24.1333 80.4294L24.6173 79.9514L24.1393 79.4664L23.6603 78.9804ZM24.1593 76.5764L24.6383 77.0604L24.1523 77.5404L23.6683 78.0174L24.1453 78.5024L24.6243 78.9874L25.1033 79.4734L25.5883 78.9944L26.0723 78.5154L26.5513 79.0014L27.0293 79.4854L26.5453 79.9644L26.0593 80.4424L25.5743 80.9214L25.0903 81.4004L24.6053 81.8784L24.1263 81.3934L23.6403 81.8714L23.1623 81.3864L22.6783 81.8654L22.1993 81.3804L21.7213 80.8954L21.2423 80.4094L21.7263 79.9314L21.2483 79.4464L21.7333 78.9684L21.2563 78.4824L21.7403 78.0044L22.2243 77.5254L22.7113 77.0474L23.1953 76.5694L23.6813 76.0904L24.1593 76.5764Z" fill="white"/>
<path d="M20.9044 72.4703L21.3084 73.0173L20.7614 73.4233L21.1664 73.9703L20.6174 74.3753L21.0234 74.9233L20.4744 75.3283L20.8804 75.8763L21.4274 75.4703L21.9754 75.0663L22.5234 74.6623L22.9274 75.2093L23.3334 75.7583L22.7854 76.1623L22.2364 76.5673L21.6894 76.9733L21.1404 77.3773L20.5924 77.7823L20.0454 78.1863L19.4964 78.5923L19.0924 78.0433L18.6874 77.4963L19.2354 77.0903L18.8304 76.5433L19.3794 76.1383L18.9744 75.5903L19.5214 75.1843L19.1174 74.6363L18.5694 75.0423L18.0214 75.4473L17.4724 75.8513L17.0684 75.3033L16.6634 74.7563L17.2114 74.3503L17.7584 73.9453L18.3074 73.5403L18.8554 73.1363L19.4044 72.7313L19.9514 72.3263L20.5004 71.9223L20.9044 72.4703Z" fill="white"/>
<path d="M17.6701 68.2807L17.3481 67.6817L17.9471 67.3577L18.2701 67.9567L18.5941 68.5577L18.9171 69.1567L19.2401 69.7557L19.5651 70.3557L19.8871 70.9547L19.2881 71.2787L18.9651 70.6797L18.6411 70.0787L18.0411 70.4037L17.4411 70.7267L16.8421 71.0507L16.2421 71.3727L15.6431 71.6967L15.9671 72.2967L16.2891 72.8967L15.6901 73.2197L15.3671 72.6207L15.0431 72.0207L14.7201 71.4207L14.3971 70.8227L14.0721 70.2217L13.7501 69.6227L14.3501 69.2987L14.6721 69.8987L14.9961 70.4977L15.5961 70.1747L16.1951 69.8507L16.7951 69.5277L17.3951 69.2037L17.9941 68.8807L17.6701 68.2807Z" fill="white"/>
<path d="M15.7316 65.5347L15.0936 65.7737L15.3316 66.4107L15.9686 66.1737L16.6076 65.9357L17.2466 65.6987L17.4846 66.3357L17.7226 66.9747L17.0836 67.2127L16.4446 67.4507L15.8066 67.6887L15.1686 67.9257L14.5296 68.1627L13.8906 68.4007L13.2516 68.6387L13.0146 68.0007L12.7766 67.3617L13.4166 67.1237L13.1776 66.4857L13.8166 66.2487L13.5786 65.6097L12.9396 65.8467L12.7026 65.2077L12.0636 65.4467L11.8266 64.8077L11.5876 64.1687L12.2266 63.9307L12.8656 63.6937L13.5036 63.4557L14.1426 63.2187L14.7816 62.9807L15.4196 62.7427L16.0586 62.5057L16.2966 63.1437L16.5336 63.7827L15.8946 64.0197L15.2556 64.2577L14.6186 64.4947L14.8556 65.1347L15.4946 64.8967L15.7316 65.5347Z" fill="white"/>
<path d="M13.298 59.8336L13.152 59.1666L12.486 59.3136L11.82 59.4586L11.967 60.1246L11.301 60.2706L11.446 60.9356L12.111 60.7906L12.258 61.4556L12.923 61.3096L13.588 61.1646L13.444 60.4996L13.298 59.8336ZM15.004 58.0656L15.15 58.7316L14.484 58.8766L13.819 59.0226L13.963 59.6876L14.109 60.3536L14.254 61.0196L14.92 60.8746L15.586 60.7286L15.731 61.3936L15.877 62.0596L15.211 62.2046L14.545 62.3516L13.88 62.4966L13.215 62.6406L12.549 62.7866L12.402 62.1226L11.737 62.2666L11.592 61.6016L10.927 61.7476L10.781 61.0816L10.635 60.4166L10.49 59.7506L11.155 59.6046L11.01 58.9386L11.676 58.7926L11.53 58.1276L12.195 57.9826L12.861 57.8356L13.527 57.6906L14.194 57.5456L14.858 57.4006L15.004 58.0656Z" fill="white"/>
<path d="M13.7657 52.934L13.7157 52.255L14.3947 52.205L14.4457 52.884L14.4957 53.563L14.5447 54.243L14.5957 54.923L14.6457 55.602L14.6957 56.282L14.7457 56.961L14.0667 57.011L13.3867 57.061L12.7067 57.112L12.0277 57.162L11.3487 57.211L10.6687 57.261L9.9897 57.311L9.9397 56.633L9.8887 55.952L10.5687 55.902L11.2477 55.852L11.9277 55.803L12.6077 55.753L13.2867 55.703L13.9667 55.652L13.9157 54.973L13.8657 54.293L13.8167 53.613L13.7657 52.934Z" fill="white"/>
<path d="M14.5802 48.3194L14.5332 48.9994L14.4862 49.6784L14.4392 50.3594L14.3922 51.0384L13.7132 50.9914L13.6662 51.6724L12.9862 51.6254L13.0332 50.9444L13.0802 50.2654L13.7602 50.3124L13.8072 49.6314L13.8532 48.9534L13.9002 48.2724L13.2212 48.2254L12.5412 48.1784L12.4942 48.8594L12.4472 49.5384L12.4002 50.2184L12.3532 50.8974L11.6742 50.8514L11.6272 51.5304L10.9472 51.4834L10.2672 51.4364L10.3142 50.7574L9.63522 50.7104L9.68222 50.0304L9.72822 49.3504L9.77522 48.6714L9.82222 47.9914L10.5022 48.0384L10.5492 47.3584L11.2282 47.4064L11.1822 48.0864L11.1352 48.7644L10.4552 48.7174L10.4082 49.3974L10.3612 50.0774L11.0412 50.1244L11.7212 50.1714L11.7672 49.4914L11.8142 48.8124L11.8612 48.1324L11.9082 47.4534L12.5882 47.4994L12.6352 46.8194L13.3142 46.8664L13.9942 46.9134L13.9472 47.5924L14.6272 47.6404L14.5802 48.3194Z" fill="white"/>
<path d="M14.7277 43.0467L14.5857 43.7137L13.9197 43.5727L13.7777 44.2377L14.4447 44.3797L14.3027 45.0467L14.1627 45.7137L13.4947 45.5707L13.6367 44.9057L12.9707 44.7637L12.8287 45.4297L12.6877 46.0967L12.0207 45.9557L12.1627 45.2887L12.3047 44.6217L11.6367 44.4807L11.4967 45.1467L10.8297 45.0057L10.9707 44.3387L11.1127 43.6717L11.7797 43.8147L11.9197 43.1467L11.2537 43.0057L11.3967 42.3387L11.5377 41.6727L12.2037 41.8147L12.0627 42.4817L12.7287 42.6227L12.8697 41.9557L13.0117 41.2907L13.6777 41.4317L13.5357 42.0967L13.3947 42.7637L14.0607 42.9057L14.2027 42.2387L14.8697 42.3807L14.7277 43.0467Z" fill="white"/>
<path d="M16.5216 37.3184L16.7546 36.6784L17.3946 36.9124L17.1626 37.5524L16.9276 38.1924L16.6956 38.8334L16.4606 39.4724L16.2286 40.1124L15.9946 40.7534L15.3536 40.5204L15.5876 39.8794L15.8216 39.2394L15.1816 39.0064L14.5416 38.7734L13.9006 38.5394L13.2606 38.3064L12.6216 38.0724L12.3866 38.7134L12.1546 39.3524L11.5136 39.1194L11.7476 38.4784L11.9806 37.8394L12.2146 37.1994L12.4476 36.5584L12.6816 35.9194L12.9146 35.2784L13.5546 35.5124L13.3216 36.1534L13.0876 36.7934L13.7286 37.0264L14.3686 37.2584L15.0076 37.4934L15.6486 37.7264L16.2896 37.9594L16.5216 37.3184Z" fill="white"/>
<path d="M18.8234 34.0645L18.5024 34.6665L17.9004 34.3455L17.3004 34.0255L16.6994 33.7055L16.0974 33.3835L15.4964 33.0635L14.8944 32.7435L14.5754 33.3435L14.2544 33.9445L13.6524 33.6255L13.9724 33.0225L14.2944 32.4215L14.6154 31.8205L14.9354 31.2195L15.2564 30.6195L15.5764 30.0175L16.1774 30.3385L15.8574 30.9395L15.5374 31.5415L16.1374 31.8605L16.7384 32.1815L17.3404 32.5025L17.9414 32.8215L18.5424 33.1425L19.1434 33.4635L18.8234 34.0645Z" fill="white"/>
<path d="M21.3087 27.7251L20.9067 28.2761L20.5057 28.8261L20.1037 29.3761L19.7017 29.9261L19.2987 30.4761L18.7477 30.0751L18.1997 29.6721L18.6017 29.1231L19.0027 28.5721L19.4047 28.0211L19.8067 27.4721L20.2087 26.9221L20.6107 26.3721L21.1607 26.7731L21.7107 27.1761L21.3087 27.7251Z" fill="white"/>
<path d="M23.5079 24.2192L23.9829 23.7312L23.4939 23.2562L23.0079 22.7812L22.5309 23.2682L22.0429 22.7922L21.5689 23.2812L22.0569 23.7572L21.5809 24.2432L22.0689 24.7192L22.5569 25.1952L23.0319 24.7072L23.5079 24.2192ZM25.9219 24.6682L25.4469 25.1572L24.9589 24.6822L24.4709 24.2062L23.9959 24.6952L23.5209 25.1822L23.0449 25.6712L23.5329 26.1462L24.0219 26.6212L23.5459 27.1092L23.0709 27.5972L22.5819 27.1222L22.0939 26.6462L21.6059 26.1712L21.1169 25.6952L20.6299 25.2202L21.1059 24.7322L20.6169 24.2572L21.0929 23.7692L20.6059 23.2942L21.0799 22.8052L21.5559 22.3182L22.0309 21.8292L22.5199 22.3052L22.9939 21.8172L23.4829 22.2912L23.9569 21.8042L24.4449 22.2792L24.9339 22.7542L25.4219 23.2312L25.9099 23.7052L26.3979 24.1812L25.9219 24.6682Z" fill="white"/>
<path d="M29.9523 21.3409L29.4123 21.7569L28.9963 21.2159L28.4573 21.6319L28.0413 21.0929L27.5013 21.5089L27.0863 20.9689L26.5463 21.3849L26.9623 21.9239L27.3773 22.4639L27.7933 23.0039L27.2533 23.4199L26.7143 23.8359L26.2983 23.2949L25.8833 22.7559L25.4673 22.2169L25.0513 21.6769L24.6353 21.1359L24.2193 20.5969L23.8033 20.0569L24.3433 19.6409L24.8833 19.2249L25.2993 19.7649L25.8383 19.3499L26.2543 19.8899L26.7933 19.4739L27.2093 20.0129L27.7493 19.5979L27.3343 19.0579L26.9183 18.5189L26.5023 17.9779L27.0413 17.5619L27.5813 17.1459L27.9973 17.6869L28.4133 18.2269L28.8283 18.7659L29.2443 19.3059L29.6603 19.8449L30.0763 20.3849L30.4923 20.9249L29.9523 21.3409Z" fill="white"/>
<path d="M34.0597 18.0298L34.6527 17.6938L34.9887 18.2868L34.3957 18.6228L33.8027 18.9588L33.2087 19.2938L32.6177 19.6298L32.0237 19.9658L31.4317 20.3018L31.0957 19.7098L31.6877 19.3728L32.2817 19.0368L31.9457 18.4448L31.6097 17.8518L31.2747 17.2588L30.9377 16.6658L30.6027 16.0728L30.0097 16.4088L29.4157 16.7448L29.0817 16.1518L29.6737 15.8158L30.2667 15.4808L30.8597 15.1448L31.4537 14.8088L32.0447 14.4728L32.6387 14.1368L32.9737 14.7298L32.3807 15.0668L31.7887 15.4018L32.1237 15.9938L32.4587 16.5868L32.7947 17.1798L33.1307 17.7728L33.4667 18.3658L34.0597 18.0298Z" fill="white"/>
<path d="M36.7833 16.0289L36.5333 15.3959L35.9003 15.6459L36.1493 16.2789L36.4003 16.9129L36.6503 17.5469L36.0163 17.7969L35.3833 18.0479L35.1333 17.4139L34.8833 16.7799L34.6333 16.1469L34.3823 15.5119L34.1313 14.8799L33.8813 14.2449L33.6313 13.6119L34.2643 13.3619L34.8983 13.1109L35.1483 13.7449L35.7823 13.4939L36.0333 14.1289L36.6663 13.8769L36.4163 13.2449L37.0503 12.9939L36.7993 12.3609L37.4333 12.1099L38.0663 11.8599L38.3173 12.4939L38.5673 13.1269L38.8183 13.7619L39.0683 14.3939L39.3183 15.0289L39.5683 15.6609L39.8183 16.2959L39.1853 16.5459L38.5513 16.7959L38.3013 16.1619L38.0513 15.5289L37.8013 14.8959L37.1663 15.1449L37.4183 15.7789L36.7833 16.0289Z" fill="white"/>
<path d="M42.4249 13.4854L43.0879 13.3254L42.9289 12.6634L42.7699 12.0014L42.1079 12.1604L41.9469 11.4984L41.2849 11.6574L41.4449 12.3194L40.7819 12.4784L40.9419 13.1414L41.0999 13.8034L41.7619 13.6444L42.4249 13.4854ZM44.2269 15.1544L43.5649 15.3134L43.4049 14.6504L43.2459 13.9884L42.5839 14.1474L41.9219 14.3064L41.2589 14.4654L41.4179 15.1274L41.5759 15.7914L40.9149 15.9494L40.2519 16.1084L40.0939 15.4464L39.9339 14.7834L39.7759 14.1214L39.6159 13.4594L39.4569 12.7964L40.1189 12.6374L39.9609 11.9744L40.6229 11.8164L40.4629 11.1534L41.1269 10.9944L41.7889 10.8354L42.4509 10.6754L42.6099 11.3394L43.2739 11.1784L43.4319 11.8414L44.0949 11.6824L44.2529 12.3454L44.4119 13.0074L44.5709 13.6704L44.7309 14.3334L44.8899 14.9954L44.2269 15.1544Z" fill="white"/>
<path d="M49.3478 13.8096L50.0258 13.7456L50.0898 14.4236L49.4108 14.4886L48.7328 14.5526L48.0548 14.6156L47.3748 14.6796L46.6978 14.7436L46.0198 14.8066L45.3408 14.8706L45.2778 14.1926L45.2128 13.5146L45.1508 12.8356L45.0858 12.1566L45.0228 11.4796L44.9588 10.8006L44.8948 10.1226L45.5738 10.0586L46.2518 9.99461L46.3148 10.6736L46.3788 11.3516L46.4438 12.0306L46.5058 12.7076L46.5708 13.3866L46.6338 14.0646L47.3128 14.0006L47.9908 13.9376L48.6688 13.8736L49.3478 13.8096Z" fill="white"/>
<path d="M53.9591 14.531L53.2771 14.497L52.5981 14.466L51.9171 14.433L51.2361 14.399L51.2701 13.719L50.5901 13.686L50.6211 13.005L51.3031 13.039L51.9821 13.072L51.9501 13.752L52.6311 13.784L53.3111 13.817L53.9911 13.85L54.0241 13.17L54.0581 12.489L53.3771 12.456L52.6961 12.423L52.0161 12.39L51.3361 12.359L51.3681 11.677L50.6881 11.645L50.7211 10.965L50.7541 10.283L51.4351 10.316L51.4671 9.63496L52.1471 9.66896L52.8281 9.70096L53.5091 9.73396L54.1891 9.76796L54.1561 10.448L54.8361 10.481L54.8041 11.162L54.1231 11.128L53.4431 11.095L53.4761 10.415L52.7951 10.382L52.1151 10.349L52.0821 11.029L52.0491 11.71L52.7291 11.743L53.4101 11.776L54.0901 11.809L54.7711 11.842L54.7381 12.523L55.4181 12.555L55.3851 13.237L55.3531 13.916L54.6721 13.884L54.6391 14.564L53.9591 14.531Z" fill="white"/>
<path d="M59.2658 14.5785L58.5978 14.4505L58.7258 13.7815L58.0568 13.6525L57.9278 14.3215L57.2598 14.1925L56.5898 14.0655L56.7188 13.3955L57.3868 13.5235L57.5158 12.8545L56.8478 12.7265L56.1778 12.5985L56.3068 11.9295L56.9758 12.0575L57.6448 12.1855L57.7738 11.5165L57.1038 11.3885L57.2328 10.7195L57.9018 10.8475L58.5708 10.9755L58.4428 11.6445L59.1118 11.7735L59.2408 11.1045L59.9098 11.2335L60.5778 11.3605L60.4498 12.0305L59.7818 11.9025L59.6518 12.5715L60.3208 12.6995L60.9908 12.8285L60.8618 13.4965L60.1928 13.3685L59.5238 13.2395L59.3948 13.9095L60.0648 14.0375L59.9358 14.7075L59.2658 14.5785Z" fill="white"/>
<path d="M65.0031 16.2497L65.6491 16.4707L65.4281 17.1147L64.7831 16.8957L64.1391 16.6747L63.4941 16.4537L62.8481 16.2327L62.2051 16.0127L61.5601 15.7917L61.7791 15.1467L62.4251 15.3677L63.0691 15.5887L63.2901 14.9447L63.5101 14.2997L63.7311 13.6547L63.9511 13.0097L64.1721 12.3657L63.5271 12.1457L62.8831 11.9247L63.1041 11.2797L63.7481 11.4997L64.3931 11.7207L65.0371 11.9407L65.6821 12.1617L66.3261 12.3827L66.9711 12.6037L66.7501 13.2487L66.1061 13.0277L65.4611 12.8067L65.2401 13.4507L65.0201 14.0957L64.8001 14.7407L64.5791 15.3847L64.3581 16.0287L65.0031 16.2497Z" fill="white"/>
<path d="M68.3273 18.4966L67.7213 18.1886L68.0293 17.5806L68.3383 16.9746L68.6463 16.3676L68.9553 15.7586L69.2643 15.1516L69.5723 14.5446L68.9663 14.2356L68.3593 13.9276L68.6683 13.3196L69.2743 13.6286L69.8823 13.9366L70.4893 14.2466L71.0973 14.5556L71.7043 14.8646L72.3103 15.1726L72.0023 15.7806L71.3943 15.4706L70.7873 15.1626L70.4783 15.7696L70.1703 16.3766L69.8613 16.9846L69.5533 17.5916L69.2443 18.1986L68.9353 18.8066L68.3273 18.4966Z" fill="white"/>
<path d="M74.6886 20.8409L74.1296 20.4499L73.5726 20.0589L73.0136 19.6689L72.4556 19.2779L71.8966 18.8879L72.2876 18.3299L72.6776 17.7719L73.2366 18.1619L73.7946 18.5519L74.3526 18.9439L74.9116 19.3339L75.4696 19.7249L76.0276 20.1149L75.6366 20.6729L75.2466 21.2319L74.6886 20.8409Z" fill="white"/>
<path d="M78.256 22.9816L78.753 23.4476L79.218 22.9506L79.684 22.4526L79.186 21.9876L79.652 21.4906L79.154 21.0236L78.69 21.5216L78.192 21.0566L77.726 21.5536L77.26 22.0506L77.758 22.5166L78.256 22.9816ZM77.853 25.4046L77.356 24.9396L77.821 24.4426L78.287 23.9446L77.789 23.4806L77.293 23.0136L76.795 22.5486L76.328 23.0456L75.863 23.5436L75.366 23.0776L74.869 22.6126L75.334 22.1136L75.801 21.6176L76.266 21.1196L76.731 20.6226L77.196 20.1246L77.694 20.5896L78.16 20.0936L78.657 20.5596L79.123 20.0606L79.62 20.5276L80.117 20.9926L80.615 21.4586L80.149 21.9556L80.647 22.4206L80.182 22.9196L80.679 23.3846L80.213 23.8816L79.748 24.3786L79.281 24.8766L78.817 25.3746L78.351 25.8716L77.853 25.4046Z" fill="white"/>
<path d="M81.256 29.3601L80.828 28.8281L81.36 28.4021L80.933 27.8711L81.464 27.4441L81.037 26.9121L81.568 26.4861L81.143 25.9551L80.611 26.3811L80.08 26.8071L79.549 27.2351L79.121 26.7031L78.695 26.1721L79.227 25.7451L79.758 25.3181L80.289 24.8921L80.82 24.4661L81.352 24.0381L81.883 23.6131L82.414 23.1861L82.84 23.7161L83.268 24.2491L82.736 24.6751L83.162 25.2061L82.631 25.6321L83.059 26.1641L82.527 26.5901L82.953 27.1221L83.485 26.6951L84.016 26.2691L84.547 25.8421L84.973 26.3721L85.401 26.9041L84.869 27.3311L84.338 27.7581L83.807 28.1851L83.276 28.6101L82.744 29.0381L82.213 29.4641L81.682 29.8901L81.256 29.3601Z" fill="white"/>
<path d="M84.6544 33.4141L85.0014 34.0001L84.4154 34.3481L84.0684 33.7611L83.7204 33.1751L83.3734 32.5891L83.0254 32.0021L82.6794 31.4171L82.3324 30.8301L82.9184 30.4841L83.2644 31.0701L83.6114 31.6551L84.1994 31.3091L84.7854 30.9621L85.3714 30.6141L85.9574 30.2661L86.5434 29.9191L86.1954 29.3341L85.8474 28.7471L86.4334 28.3991L86.7824 28.9861L87.1294 29.5711L87.4764 30.1581L87.8234 30.7441L88.1724 31.3311L88.5184 31.9161L87.9324 32.2641L87.5844 31.6771L87.2374 31.0921L86.6514 31.4381L86.0644 31.7861L85.4794 32.1341L84.8934 32.4811L84.3064 32.8281L84.6544 33.4141Z" fill="white"/>
<path d="M86.713 36.0938L87.344 35.8388L87.088 35.2058L86.457 35.4628L85.825 35.7178L85.194 35.9748L84.938 35.3438L84.683 34.7118L85.314 34.4558L85.945 34.1998L86.576 33.9438L87.208 33.6878L87.84 33.4318L88.471 33.1758L89.102 32.9188L89.358 33.5518L89.614 34.1828L88.983 34.4378L89.238 35.0708L88.608 35.3258L88.863 35.9568L89.494 35.7008L89.751 36.3328L90.382 36.0758L90.639 36.7088L90.894 37.3388L90.263 37.5958L89.631 37.8518L89 38.1078L88.368 38.3638L87.737 38.6198L87.106 38.8748L86.475 39.1318L86.218 38.4998L85.963 37.8678L86.594 37.6128L87.225 37.3578L87.857 37.1008L87.601 36.4688L86.969 36.7248L86.713 36.0938Z" fill="white"/>
<path d="M89.3634 41.6916L89.5354 42.3506L90.1944 42.1776L90.8534 42.0056L90.6814 41.3476L91.3414 41.1746L91.1694 40.5146L90.5094 40.6886L90.3384 40.0276L89.6784 40.2006L89.0194 40.3736L89.1914 41.0316L89.3634 41.6916ZM87.7304 43.5246L87.5564 42.8666L88.2174 42.6946L88.8764 42.5226L88.7044 41.8636L88.5334 41.2046L88.3594 40.5456L87.7014 40.7166L87.0414 40.8886L86.8694 40.2296L86.6974 39.5706L87.3564 39.3986L88.0154 39.2256L88.6754 39.0536L89.3344 38.8816L89.9944 38.7106L90.1664 39.3686L90.8254 39.1976L90.9974 39.8566L91.6564 39.6836L91.8284 40.3436L92.0004 41.0036L92.1724 41.6626L91.5134 41.8356L91.6854 42.4936L91.0254 42.6656L91.1984 43.3256L90.5394 43.4966L89.8794 43.6686L89.2204 43.8406L88.5604 44.0126L87.9024 44.1846L87.7304 43.5246Z" fill="white"/>
<path d="M89.173 48.6034L89.25 49.2804L88.573 49.3564L88.496 48.6804L88.418 48.0034L88.342 47.3264L88.264 46.6494L88.186 45.9724L88.11 45.2964L88.031 44.6194L88.709 44.5414L89.385 44.4644L90.063 44.3874L90.739 44.3104L91.416 44.2314L92.093 44.1544L92.77 44.0774L92.848 44.7534L92.925 45.4304L92.248 45.5084L91.57 45.5854L90.895 45.6634L90.218 45.7414L89.541 45.8184L88.863 45.8954L88.942 46.5724L89.018 47.2494L89.096 47.9264L89.173 48.6034Z" fill="white"/>
<path d="M88.547 53.2104L88.567 52.5294L88.584 51.8474L88.604 51.1674L88.623 50.4854L89.304 50.5044L89.322 49.8234L90.004 49.8434L89.984 50.5234L89.965 51.2044L89.285 51.1854L89.266 51.8674L89.246 52.5474L89.229 53.2294L89.908 53.2484L90.59 53.2664L90.61 52.5864L90.627 51.9044L90.647 51.2244L90.666 50.5424L91.348 50.5614L91.365 49.8794L92.047 49.8994L92.729 49.9184L92.709 50.5994L93.39 50.6194L93.371 51.2984L93.352 51.9804L93.334 52.6614L93.315 53.3424L92.633 53.3234L92.614 54.0044L91.934 53.9864L91.953 53.3044L91.971 52.6244L92.652 52.6424L92.672 51.9614L92.69 51.2804L92.009 51.2614L91.328 51.2434L91.309 51.9224L91.29 52.6054L91.272 53.2854L91.252 53.9674L90.571 53.9474L90.553 54.6284L89.871 54.6104L89.19 54.5914L89.209 53.9104L88.527 53.8904L88.547 53.2104Z" fill="white"/>
<path d="M88.6056 58.5234L88.7206 57.8514L89.3926 57.9664L89.5076 57.2954L88.8356 57.1804L88.9516 56.5094L89.0666 55.8364L89.7376 55.9524L89.6236 56.6244L90.2946 56.7394L90.4096 56.0664L90.5236 55.3954L91.1956 55.5104L91.0806 56.1814L90.9646 56.8534L91.6376 56.9684L91.7516 56.2964L92.4236 56.4114L92.3086 57.0834L92.1946 57.7544L91.5226 57.6394L91.4086 58.3114L92.0806 58.4254L91.9646 59.0974L91.8496 59.7694L91.1776 59.6544L91.2936 58.9834L90.6216 58.8684L90.5056 59.5394L90.3916 60.2104L89.7196 60.0954L89.8346 59.4244L89.9506 58.7534L89.2776 58.6384L89.1636 59.3094L88.4916 59.1954L88.6056 58.5234Z" fill="white"/>
<path d="M87.0412 64.3242L86.8322 64.9722L86.1842 64.7632L86.3932 64.1152L86.6002 63.4672L86.8082 62.8172L87.0162 62.1692L87.2252 61.5202L87.4322 60.8712L88.0802 61.0802L87.8722 61.7282L87.6652 62.3782L88.3132 62.5852L88.9632 62.7932L89.6112 63.0012L90.2602 63.2092L90.9082 63.4172L91.1172 62.7672L91.3242 62.1192L91.9742 62.3272L91.7662 62.9752L91.5582 63.6242L91.3502 64.2732L91.1422 64.9222L90.9342 65.5702L90.7262 66.2202L90.0762 66.0122L90.2852 65.3642L90.4922 64.7142L89.8442 64.5072L89.1952 64.2982L88.5472 64.0912L87.8962 63.8822L87.2482 63.6742L87.0412 64.3242Z" fill="white"/>
<path d="M84.8693 67.6636L85.1663 67.0516L85.7793 67.3476L86.3923 67.6436L87.0063 67.9406L87.6203 68.2366L88.2333 68.5326L88.8473 68.8306L89.1433 68.2166L89.4393 67.6036L90.0533 67.8996L89.7573 68.5126L89.4613 69.1266L89.1643 69.7396L88.8673 70.3536L88.5703 70.9666L88.2733 71.5806L87.6603 71.2826L87.9573 70.6706L88.2543 70.0566L87.6403 69.7596L87.0273 69.4636L86.4143 69.1666L85.8013 68.8706L85.1873 68.5746L84.5733 68.2786L84.8693 67.6636Z" fill="white"/>
<path d="M82.6583 74.0686L83.0373 73.5026L83.4163 72.9366L83.7963 72.3706L84.1753 71.8036L84.5543 71.2386L85.1213 71.6176L85.6853 71.9966L85.3063 72.5616L84.9283 73.1286L84.5493 73.6956L84.1703 74.2606L83.7913 74.8276L83.4113 75.3926L82.8453 75.0136L82.2793 74.6336L82.6583 74.0686Z" fill="white"/>
<path d="M80.5939 77.672L80.1389 78.179L80.6449 78.634L81.1529 79.09L81.6069 78.582L82.1139 79.038L82.5709 78.531L82.0629 78.075L82.5179 77.568L82.0109 77.113L81.5039 76.658L81.0489 77.165L80.5939 77.672ZM78.1619 77.32L78.6169 76.813L79.1249 77.268L79.6309 77.723L80.0859 77.216L80.5419 76.71L80.9969 76.203L80.4899 75.747L79.9829 75.292L80.4399 74.786L80.8939 74.278L81.4009 74.734L81.9069 75.19L82.4139 75.645L82.9219 76.1L83.4279 76.555L82.9729 77.062L83.4799 77.517L83.0239 78.025L83.5319 78.48L83.0759 78.985L82.6209 79.493L82.1659 80L81.6589 79.545L81.2029 80.051L80.6969 79.596L80.2419 80.104L79.7349 79.648L79.2279 79.193L78.7209 78.737L78.2139 78.282L77.7069 77.826L78.1619 77.32Z" fill="white"/>
<path d="M74.2658 80.8127L74.7868 80.3757L75.2248 80.8987L75.7478 80.4617L76.1858 80.9837L76.7068 80.5467L77.1448 81.0697L77.6678 80.6327L77.2308 80.1097L76.7928 79.5877L76.3558 79.0647L76.8778 78.6267L77.4008 78.1897L77.8378 78.7117L78.2748 79.2347L78.7118 79.7567L79.1498 80.2807L79.5858 80.8017L80.0238 81.3257L80.4608 81.8477L79.9388 82.2847L79.4158 82.7217L78.9788 82.1997L78.4568 82.6367L78.0198 82.1147L77.4958 82.5517L77.0588 82.0287L76.5368 82.4657L76.9748 82.9887L77.4118 83.5107L77.8488 84.0347L77.3268 84.4717L76.8028 84.9087L76.3658 84.3857L75.9288 83.8637L75.4928 83.3397L75.0548 82.8187L74.6178 82.2947L74.1798 81.7727L73.7438 81.2497L74.2658 80.8127Z" fill="white"/>
<path d="M70.297 84.2857L69.718 84.6457L69.359 84.0667L69.938 83.7057L70.517 83.3477L71.096 82.9877L71.674 82.6287L72.253 82.2697L72.832 81.9107L73.192 82.4887L72.611 82.8477L72.033 83.2067L72.393 83.7867L72.752 84.3647L73.111 84.9457L73.471 85.5237L73.83 86.1027L74.409 85.7437L74.987 85.3827L75.347 85.9627L74.768 86.3227L74.19 86.6807L73.61 87.0407L73.031 87.3997L72.453 87.7587L71.873 88.1187L71.515 87.5397L72.093 87.1797L72.672 86.8217L72.313 86.2427L71.953 85.6627L71.594 85.0837L71.234 84.5047L70.876 83.9267L70.297 84.2857Z" fill="white"/>
<path d="M67.6349 86.4006L67.9109 87.0236L68.5329 86.7466L68.2579 86.1246L67.9819 85.5016L67.7049 84.8786L68.3279 84.6016L68.9509 84.3256L69.2269 84.9496L69.5029 85.5716L69.7799 86.1946L70.0549 86.8166L70.3319 87.4406L70.6089 88.0626L70.8849 88.6856L70.2619 88.9616L69.6399 89.2386L69.3639 88.6156L68.7399 88.8916L68.4629 88.2686L67.8409 88.5456L68.1169 89.1686L67.4939 89.4446L67.7719 90.0676L67.1489 90.3436L66.5259 90.6196L66.2489 89.9976L65.9729 89.3746L65.6969 88.7516L65.4199 88.1296L65.1439 87.5056L64.8669 86.8826L64.5919 86.2606L65.2139 85.9846L65.8359 85.7076L66.1139 86.3306L66.3899 86.9536L66.6659 87.5756L67.2889 87.2996L67.0119 86.6766L67.6349 86.4006Z" fill="white"/>
<path d="M62.1173 89.1612L61.4613 89.3472L61.6463 90.0022L61.8323 90.6582L62.4883 90.4732L62.6743 91.1282L63.3293 90.9422L63.1433 90.2862L63.7993 90.1012L63.6133 89.4462L63.4283 88.7902L62.7713 88.9752L62.1173 89.1612ZM60.2493 87.5652L60.9043 87.3802L61.0903 88.0362L61.2763 88.6912L61.9313 88.5062L62.5873 88.3202L63.2423 88.1342L63.0563 87.4782L62.8713 86.8232L63.5273 86.6382L64.1823 86.4532L64.3683 87.1072L64.5533 87.7632L64.7383 88.4182L64.9253 89.0752L65.1103 89.7302L64.4553 89.9152L64.6403 90.5722L63.9843 90.7572L64.1703 91.4122L63.5143 91.5982L62.8583 91.7832L62.2033 91.9692L62.0173 91.3132L61.3623 91.4982L61.1773 90.8432L60.5213 91.0292L60.3363 90.3742L60.1503 89.7172L59.9653 89.0622L59.7793 88.4062L59.5943 87.7512L60.2493 87.5652Z" fill="white"/>
<path d="M55.1857 89.1162L54.5097 89.2082L54.4197 88.5322L55.0937 88.4412L55.7697 88.3492L56.4457 88.2592L57.1207 88.1682L57.7947 88.0762L58.4707 87.9862L59.1457 87.8952L59.2367 88.5702L59.3287 89.2452L59.4187 89.9212L59.5097 90.5962L59.6017 91.2702L59.6917 91.9462L59.7837 92.6212L59.1077 92.7122L58.4317 92.8032L58.3417 92.1292L58.2497 91.4522L58.1597 90.7782L58.0687 90.1022L57.9777 89.4272L57.8867 88.7512L57.2107 88.8432L56.5357 88.9342L55.8617 89.0242L55.1857 89.1162Z" fill="white"/>
<path d="M50.5578 88.5811L51.2388 88.5861L51.9198 88.5921L52.6018 88.5981L53.2828 88.6021L53.2778 89.2831L53.9578 89.2891L53.9538 89.9711L53.2718 89.9651L52.5898 89.9601L52.5958 89.2781L51.9138 89.2731L51.2328 89.2671L50.5518 89.2631L50.5468 89.9441L50.5408 90.6251L51.2228 90.6311L51.9048 90.6361L52.5848 90.6421L53.2658 90.6461L53.2618 91.3291L53.9428 91.3331L53.9368 92.0151L53.9318 92.6961L53.2498 92.6911L53.2458 93.3721L52.5648 93.3661L51.8818 93.3601L51.2018 93.3551L50.5198 93.3501L50.5258 92.6691L49.8438 92.6631L49.8498 91.9821L50.5308 91.9881L51.2118 91.9941L51.2068 92.6751L51.8868 92.6801L52.5688 92.6851L52.5748 92.0041L52.5798 91.3231L51.8988 91.3171L51.2168 91.3121L50.5358 91.3071L49.8538 91.3011L49.8598 90.6201L49.1788 90.6151L49.1838 89.9341L49.1898 89.2521L49.8708 89.2581L49.8758 88.5751L50.5578 88.5811Z" fill="white"/>
<path d="M45.2677 88.7509L45.9417 88.8529L45.8397 89.5249L46.5137 89.6269L46.6157 88.9529L47.2887 89.0549L47.9617 89.1559L47.8617 89.8289L47.1877 89.7279L47.0857 90.4009L47.7597 90.5029L48.4337 90.6039L48.3317 91.2769L47.6587 91.1759L46.9847 91.0759L46.8827 91.7489L47.5577 91.8509L47.4557 92.5249L46.7827 92.4239L46.1097 92.3219L46.2097 91.6479L45.5367 91.5469L45.4357 92.2209L44.7617 92.1199L44.0867 92.0189L44.1877 91.3449L44.8627 91.4459L44.9627 90.7719L44.2887 90.6709L43.6167 90.5689L43.7167 89.8959L44.3907 89.9969L45.0647 90.0979L45.1657 89.4239L44.4927 89.3239L44.5937 88.6489L45.2677 88.7509Z" fill="white"/>
<path d="M66.9068 51.2197H62.5228V46.8357H66.9068V51.2197Z" fill="#775034"/>
<path d="M66.9068 42.4517H62.5228V33.6837H66.9068V42.4517Z" fill="#775034"/>
<path d="M58.1388 55.604H44.9878V51.22H58.1388V55.604Z" fill="#F9F8F4"/>
<path d="M58.1388 46.8359H53.7548V42.4519H58.1388V46.8359Z" fill="#3C4E57"/>
<path d="M53.755 24.9161V29.3001H49.371H40.604V33.6841H62.523V29.3001V24.9161H53.755Z" fill="#775034"/>
<path d="M49.3708 46.8359H44.9868V42.4519H49.3708V46.8359Z" fill="#3C4E57"/>
<path d="M40.6038 51.2197H36.2188V46.8357H40.6038V51.2197Z" fill="#775034"/>
<path d="M58.1388 46.8356H53.7548V42.4516H58.1388V46.8356ZM58.1388 55.6036H44.9878V51.2196H58.1388V55.6036ZM44.9878 42.4516H49.3718V46.8356H44.9878V42.4516ZM62.5228 42.4516V33.6836H40.6038V42.4516H36.2188V46.8356H40.6038V51.2196V59.9876H44.9878V64.3716H53.7548V59.9876H62.5228V51.2196V46.8356H66.9068V42.4516H62.5228Z" fill="#EFD8B9"/>
<path d="M40.6038 42.4517H36.2188V33.6837H40.6038V42.4517Z" fill="#775034"/>
<path d="M42.296 77.3789H41.418V76.5009V75.6229V74.7439H40.539V75.6229H39.661V76.5009H38.783V77.3789H37.904H37.026V76.5009V75.6229V74.7439V73.8659V72.9879V72.1089V71.2319H37.904H38.783V72.1089V72.9879V73.8659H39.661V72.9879H40.539V72.1089H41.418V71.2319H42.296H43.174V72.1089V72.9879V73.8659V74.7439V75.6229V76.5009V77.3789H42.296Z" fill="white"/>
<path d="M49.3214 77.3789H48.4434V76.5009V75.6229V74.7439V73.8659V72.9879V72.1089H47.5644V72.9879V73.8659V74.7439H46.6864V75.6229V76.5009H45.8084V77.3789H44.9294H44.0514V76.5009H44.9294V75.6229V74.7439H45.8084V73.8659V72.9879V72.1089V71.2319H46.6864H47.5644H48.4434H49.3214H50.1994V72.1089V72.9879V73.8659V74.7439V75.6229V76.5009V77.3789H49.3214Z" fill="white"/>
<path d="M54.59 76.5004H55.469V75.6224V74.7444V73.8664H54.59H53.712H52.834V74.7444V75.6224V76.5004H53.712H54.59ZM55.469 77.3784H54.59H53.712H52.834H51.955H51.077V76.5004V75.6224V74.7444V73.8664V72.9874V72.1094V71.2314H51.955H52.834V72.1094V72.9874H53.712H54.59H55.469H56.347V73.8664H57.225V74.7444V75.6224V76.5004H56.347V77.3784H55.469Z" fill="white"/>
<path d="M61.6154 74.7444H62.4944V73.8664V72.9884V72.1094H61.6154H60.7374H59.8594V72.9884V73.8664H60.7374V74.7444H61.6154ZM63.3724 77.3794H62.4944V76.5004V75.6224H61.6154V76.5004H60.7374V77.3794H59.8594H58.9804H58.1024V76.5004H58.9804V75.6224H59.8594V74.7444H58.9804H58.1024V73.8664V72.9884V72.1094H58.9804V71.2314H59.8594H60.7374H61.6154H62.4944H63.3724H64.2504V72.1094V72.9884V73.8664V74.7444V75.6224V76.5004V77.3794H63.3724Z" fill="white"/>
<path d="M62.5228 55.5798H40.6038V59.9878H62.5228V55.5798Z" fill="#99745D"/>
<path d="M40.6038 59.9878H44.9878V51.2198H40.6038V59.9878Z" fill="#99745D"/>
<path d="M58.1388 59.9878H62.5228V51.2198H58.1388V59.9878Z" fill="#99745D"/>
</svg>
